<?xml version="1.0" encoding="UTF-8" standalone="no"?>
<svg
   xmlns:dc="http://purl.org/dc/elements/1.1/"
   xmlns:cc="http://creativecommons.org/ns#"
   xmlns:rdf="http://www.w3.org/1999/02/22-rdf-syntax-ns#"
   xmlns:svg="http://www.w3.org/2000/svg"
   xmlns="http://www.w3.org/2000/svg"
   xmlns:sodipodi="http://sodipodi.sourceforge.net/DTD/sodipodi-0.dtd"
   xmlns:inkscape="http://www.inkscape.org/namespaces/inkscape"
   id="svg"
   version="1.1"
   width="10000"
   height="5000"
   viewBox="0 0 10000 4999.9998"
   sodipodi:docname="ActivstLogo.svg"
   inkscape:version="1.0rc1 (09960d6, 2020-04-09)">
  <metadata
     id="metadata842">
    <rdf:RDF>
      <cc:Work
         rdf:about="">
        <dc:format>image/svg+xml</dc:format>
        <dc:type
           rdf:resource="http://purl.org/dc/dcmitype/StillImage" />
        <dc:title />
      </cc:Work>
    </rdf:RDF>
  </metadata>
  <defs
     id="defs840" />
  <sodipodi:namedview
     inkscape:document-rotation="0"
     pagecolor="#ffffff"
     bordercolor="#666666"
     borderopacity="1"
     objecttolerance="10"
     gridtolerance="10"
     guidetolerance="10"
     inkscape:pageopacity="0"
     inkscape:pageshadow="2"
     inkscape:window-width="1792"
     inkscape:window-height="1067"
     id="namedview838"
     showgrid="false"
     inkscape:zoom="0.093932503"
     inkscape:cx="3998.2087"
     inkscape:cy="2601.6897"
     inkscape:window-x="0"
     inkscape:window-y="25"
     inkscape:window-maximized="0"
     inkscape:current-layer="svg" />
  <g
     transform="matrix(27.633567,0,0,28.254961,-353.01013,372.11942)"
     id="svgg">
    <path
       id="path0"
       d="m 326.406,51.25 c 0,2.383 0.023,3.335 0.052,2.115 0.028,-1.22 0.028,-3.17 0,-4.333 -0.029,-1.164 -0.052,-0.165 -0.052,2.218 m 20.594,0.883 0.083,5.117 0.044,-4.989 c 0.025,-2.744 -0.013,-5.047 -0.083,-5.117 -0.07,-0.07 -0.09,2.175 -0.044,4.989 m -1.926,0.2 c 0,2.796 0.023,3.94 0.051,2.542 0.028,-1.398 0.028,-3.685 0,-5.083 -0.028,-1.398 -0.051,-0.254 -0.051,2.541 M 95.081,47.843 c -9.185,0.709 -13.758,3.644 -14.995,9.626 -0.383,1.852 -0.375,23.982 0.01,25.646 1.491,6.45 7.806,9.339 19.654,8.989 4.1,-0.121 5.11,-0.225 9.069,-0.931 1.227,-0.219 1.196,-0.144 1.144,-2.853 -0.053,-2.766 0.14,-2.56 -1.963,-2.088 -10.842,2.438 -19.648,0.88 -21.35,-3.778 -0.52,-1.423 -0.486,-23.598 0.039,-25.196 0.582,-1.773 1.918,-3.048 3.894,-3.716 2.532,-0.855 4.064,-1.074 7.503,-1.071 3.34,0.002 4.304,0.108 8.747,0.957 0.779,0.149 1.773,0.309 2.209,0.354 l 0.791,0.084 v -2.412 -2.412 l -0.541,-0.116 c -2.696,-0.578 -5.044,-0.876 -8.519,-1.082 -3.219,-0.192 -3.221,-0.192 -5.692,-10e-4 m 132.836,0.173 c -6.68,0.544 -10.307,2.516 -11.468,6.234 -0.554,1.774 -0.616,2.301 -0.616,5.269 0,5.049 0.642,7.417 2.559,9.444 1.943,2.055 4.379,2.695 10.347,2.719 10.278,0.042 11.16,0.743 10.88,8.651 -0.2,5.636 -1.845,6.83 -9.42,6.833 -3.489,0.001 -9.603,-0.733 -12.522,-1.503 -0.975,-0.257 -1.024,-0.114 -0.973,2.819 l 0.046,2.601 0.833,0.123 c 7.493,1.105 15.557,1.254 19.521,0.36 0.63,-0.142 1.334,-0.297 1.563,-0.345 3.636,-0.762 6.465,-3.974 7.168,-8.138 0.183,-1.081 0.183,-8.084 0,-9.166 -0.941,-5.58 -3.275,-6.878 -12.752,-7.093 -7.832,-0.178 -9.048,-0.438 -10.201,-2.181 l -0.465,-0.702 v -3.929 -3.929 l 0.455,-0.774 c 1.329,-2.261 3.796,-2.931 10.128,-2.749 3.222,0.092 4.332,0.182 7.333,0.593 0.688,0.094 1.794,0.222 2.459,0.284 L 244,53.549 v -2.438 c 0,-2.804 0.276,-2.452 -2.167,-2.767 -3.625,-0.467 -10.281,-0.624 -13.916,-0.328 M 50.392,49.125 c -0.141,0.344 -0.355,0.85 -0.475,1.125 -0.12,0.275 -0.719,1.775 -1.332,3.333 -0.613,1.559 -1.213,3.059 -1.334,3.334 -0.12,0.275 -0.569,1.4 -0.996,2.5 -0.428,1.1 -0.922,2.337 -1.098,2.75 -0.418,0.977 -6.793,17.047 -7.108,17.916 -0.133,0.367 -0.356,0.929 -0.495,1.25 -0.337,0.773 -0.351,0.808 -1.639,4.084 -0.612,1.558 -1.191,3.021 -1.286,3.25 -0.096,0.229 -0.247,0.604 -0.337,0.833 -0.091,0.229 -0.221,0.532 -0.29,0.672 -0.07,0.141 -0.179,0.497 -0.244,0.792 L 33.64,91.5 h 3.16 c 3.832,0 3.088,0.739 5.284,-5.25 1.248,-3.404 2.28,-6.188 2.565,-6.917 l 0.292,-0.75 h 9.063 9.063 l 0.897,2.334 c 0.493,1.283 1.109,2.896 1.368,3.583 0.259,0.688 0.896,2.375 1.414,3.75 0.519,1.375 1.011,2.669 1.095,2.875 0.148,0.365 6.522,0.623 6.867,0.278 0.111,-0.11 -1.144,-3.62 -1.932,-5.404 -0.141,-0.32 -0.565,-1.407 -0.941,-2.416 C 71.458,82.575 71.087,81.6 71.01,81.417 70.933,81.233 70.608,80.408 70.287,79.583 69.966,78.758 69.252,76.921 68.699,75.5 68.147,74.079 67.381,72.092 66.997,71.083 66.614,70.075 66.201,69.025 66.08,68.75 c -0.239,-0.544 -2.555,-6.528 -3.174,-8.199 -0.21,-0.568 -0.491,-1.28 -0.624,-1.583 -0.133,-0.303 -0.471,-1.151 -0.751,-1.885 -0.279,-0.733 -0.775,-2.025 -1.103,-2.871 -0.327,-0.846 -0.595,-1.578 -0.595,-1.627 0,-0.049 -0.141,-0.407 -0.315,-0.795 C 59.345,51.401 59,50.558 58.752,49.917 58.17,48.409 58.474,48.505 54.283,48.503 L 50.65,48.5 50.392,49.125 m 64.22,-0.515 c -0.062,0.062 -0.112,1.112 -0.112,2.334 v 2.223 h 7.167 7.166 V 72.07 c 0,10.396 0.046,19.021 0.101,19.166 0.153,0.398 6.479,0.398 6.632,0 0.055,-0.145 0.101,-8.77 0.101,-19.166 V 53.167 h 7.171 7.171 l -0.046,-2.292 -0.046,-2.292 -17.597,-0.042 c -9.678,-0.023 -17.647,0.008 -17.708,0.069 m 42.465,0.098 c -0.044,0.115 -0.06,9.771 -0.037,21.459 l 0.043,21.25 h 3.25 3.25 l 0.043,-21.323 c 0.033,-16.949 -0.001,-21.351 -0.167,-21.456 -0.368,-0.234 -6.291,-0.168 -6.382,0.07 m 12.995,0.012 c -0.047,0.121 0.262,1.114 0.686,2.208 0.423,1.094 1.481,3.826 2.349,6.072 0.869,2.246 1.645,4.233 1.724,4.417 0.079,0.183 0.718,1.833 1.42,3.666 0.702,1.834 1.341,3.484 1.421,3.667 0.079,0.183 0.719,1.833 1.422,3.667 0.703,1.833 1.375,3.558 1.495,3.833 0.119,0.275 0.343,0.837 0.496,1.25 0.154,0.412 0.345,0.9 0.425,1.083 0.081,0.184 0.716,1.834 1.412,3.667 0.696,1.833 1.332,3.483 1.413,3.667 0.26,0.589 1.183,2.965 1.618,4.166 0.232,0.642 0.507,1.222 0.61,1.289 0.453,0.297 7.609,0.144 7.71,-0.164 0.145,-0.441 2.228,-5.696 2.56,-6.458 0.159,-0.367 0.346,-0.854 0.414,-1.083 0.068,-0.229 0.225,-0.642 0.349,-0.917 0.125,-0.275 1.28,-3.163 2.568,-6.417 1.287,-3.254 2.407,-6.066 2.487,-6.25 0.08,-0.183 0.724,-1.796 1.431,-3.583 0.706,-1.788 1.427,-3.568 1.601,-3.957 0.174,-0.388 0.317,-0.783 0.317,-0.877 0,-0.094 0.066,-0.301 0.147,-0.46 0.217,-0.426 0.384,-0.839 1.604,-3.956 1.218,-3.111 1.268,-3.238 1.633,-4.083 0.855,-1.982 1.638,-4.204 1.556,-4.417 -0.157,-0.408 -6.199,-0.368 -6.417,0.042 -0.085,0.16 -0.43,1.041 -0.766,1.958 -0.336,0.917 -0.825,2.229 -1.087,2.917 -0.572,1.504 -1.902,5.063 -2.367,6.333 -0.184,0.504 -0.401,1.067 -0.482,1.25 -0.081,0.183 -0.401,1.046 -0.712,1.917 -0.512,1.435 -1.872,5.084 -3.107,8.333 -0.261,0.688 -0.75,2 -1.087,2.917 -0.336,0.916 -0.673,1.816 -0.749,2 -0.076,0.183 -0.791,2.095 -1.589,4.25 -1.552,4.186 -1.684,4.5 -1.886,4.5 -0.16,0 -0.676,-1.151 -1.271,-2.834 -0.244,-0.687 -0.732,-2 -1.085,-2.916 -0.354,-0.917 -1.142,-3.017 -1.751,-4.667 -0.61,-1.65 -1.291,-3.463 -1.513,-4.028 -0.222,-0.566 -0.404,-1.08 -0.404,-1.142 0,-0.062 -0.104,-0.349 -0.231,-0.638 -0.127,-0.289 -0.322,-0.788 -0.433,-1.109 -0.112,-0.321 -0.267,-0.733 -0.344,-0.916 -0.077,-0.184 -0.637,-1.684 -1.244,-3.334 -0.606,-1.65 -1.165,-3.15 -1.242,-3.333 -0.077,-0.183 -0.229,-0.596 -0.34,-0.917 -0.11,-0.321 -0.264,-0.733 -0.342,-0.916 -0.078,-0.184 -0.907,-2.396 -1.841,-4.917 -0.935,-2.521 -1.773,-4.677 -1.862,-4.792 -0.241,-0.309 -6.597,-0.298 -6.716,0.012 m 81.001,-0.003 c -0.046,0.12 -0.063,1.151 -0.037,2.292 l 0.047,2.074 7.167,0.084 7.167,0.083 0.083,19.083 0.083,19.084 3.291,0.045 3.291,0.045 0.043,-19.128 0.042,-19.129 7.167,-0.083 7.166,-0.084 v -2.25 -2.25 L 268.87,48.541 c -14.48,-0.035 -17.729,-0.003 -17.797,0.176 M 55.01,56.812 c 1.087,2.969 3.441,9.266 3.652,9.771 0.541,1.292 2.283,6.055 2.431,6.643 0.188,0.754 0.055,0.769 -6.926,0.769 -8.103,10e-4 -7.615,0.1 -7.014,-1.431 0.176,-0.448 0.744,-1.939 1.264,-3.314 0.519,-1.375 1.157,-3.062 1.418,-3.75 0.261,-0.687 1.047,-2.788 1.747,-4.667 0.699,-1.879 1.417,-3.783 1.595,-4.23 0.178,-0.448 0.323,-0.892 0.323,-0.987 0,-0.095 0.129,-0.315 0.286,-0.489 0.379,-0.419 0.529,-0.213 1.224,1.685 m 276.24,3.355 c 1.556,1.558 2.867,2.833 2.913,2.833 0.046,0 -1.19,-1.275 -2.746,-2.833 -1.557,-1.559 -2.867,-2.834 -2.913,-2.834 -0.046,0 1.19,1.275 2.746,2.834 m -6.247,-2.144 c -0.745,0.291 -1.003,0.65 -1.003,1.403 0,0.916 6.291,7.407 7.179,7.407 1.058,0 1.983,-1.011 1.751,-1.914 -0.13,-0.507 -6.605,-6.865 -7.097,-6.969 -0.229,-0.048 -0.602,-0.015 -0.83,0.073 m -3.064,0.825 c -0.058,0.29 -0.097,0.724 -0.086,0.965 0.011,0.24 0.087,0.032 0.169,-0.463 0.16,-0.966 0.092,-1.378 -0.083,-0.502 M 348,62.083 c 0.311,0.321 0.603,0.584 0.649,0.584 0.046,0 -0.171,-0.263 -0.482,-0.584 -0.311,-0.321 -0.603,-0.583 -0.649,-0.583 -0.046,0 0.171,0.262 0.482,0.583 m -26.393,0.918 c -0.693,0.609 -0.792,1.225 -0.315,1.96 0.529,0.816 9.861,9.993 10.38,10.208 1.015,0.42 2.193,-0.736 1.908,-1.872 -0.057,-0.227 -2.342,-2.642 -5.215,-5.514 -5.719,-5.714 -5.706,-5.705 -6.758,-4.782 m 30.466,6.332 c 0,2.429 0.023,3.423 0.052,2.209 0.028,-1.215 0.028,-3.202 0,-4.417 -0.029,-1.215 -0.052,-0.221 -0.052,2.208 M 342,66.002 c -0.176,0.116 -0.077,0.132 0.333,0.057 0.719,-0.132 0.855,-0.227 0.32,-0.223 -0.222,0.001 -0.516,0.076 -0.653,0.166 m 5.494,3.081 c 1.249,1.238 2.311,2.25 2.36,2.25 0.049,0 -0.932,-1.012 -2.181,-2.25 -1.249,-1.237 -2.311,-2.25 -2.36,-2.25 -0.05,0 0.932,1.013 2.181,2.25 m -13.67,-1.291 -0.574,0.625 0.625,-0.575 c 0.344,-0.316 0.625,-0.597 0.625,-0.625 0,-0.127 -0.141,-0.007 -0.676,0.575 m 7.668,0.559 c -0.729,0.423 -1.142,1.313 -1.03,2.218 0.072,0.58 0.392,0.97 2.872,3.5 3.256,3.321 3.654,3.942 3.845,5.989 0.261,2.807 -0.159,4.322 -1.223,4.41 -0.522,0.044 -0.649,-0.01 -0.765,-0.323 l -0.139,-0.376 -0.102,0.407 c -0.056,0.224 -0.537,0.989 -1.068,1.7 -0.531,0.711 -1.205,1.62 -1.497,2.022 l -0.532,0.729 0.407,0.382 c 0.719,0.676 0.605,0.885 -2.422,4.408 -1.042,1.212 -2.054,2.438 -2.792,3.384 -0.786,1.006 -0.931,1.032 -5.621,1.032 h -4.258 v 2.653 c 0,1.46 -0.049,2.791 -0.108,2.959 -0.088,0.249 -0.067,0.267 0.116,0.097 0.28,-0.259 17.493,-0.308 17.75,-0.05 0.1,0.1 0.14,-1.214 0.108,-3.568 -0.064,-4.696 -0.195,-4.303 2.3,-6.889 4.96,-5.14 5.501,-5.78 6.227,-7.368 0.129,-0.284 0.172,-1.521 0.134,-3.865 l -0.057,-3.448 -1.178,-1.302 c -2.848,-3.146 -8.316,-8.579 -8.867,-8.809 -0.791,-0.331 -1.398,-0.3 -2.1,0.108 m -21.637,0.332 c -1.31,1.22 -1.179,1.424 4.622,7.205 5.751,5.732 5.824,5.781 6.897,4.654 1.145,-1.205 1.281,-1.001 -4.596,-6.862 -5.778,-5.762 -5.961,-5.894 -6.923,-4.997 m -2.708,1.687 c 0.077,0.463 0.1,0.486 0.153,0.152 0.034,-0.216 -0.007,-0.462 -0.091,-0.546 -0.093,-0.093 -0.117,0.063 -0.062,0.394 m 16.52,-0.318 c 0,0.029 0.243,0.273 0.541,0.542 l 0.542,0.489 -0.49,-0.541 c -0.456,-0.505 -0.593,-0.619 -0.593,-0.49 m 6.166,3.531 c 0.311,0.321 0.603,0.584 0.649,0.584 0.046,0 -0.171,-0.263 -0.482,-0.584 C 339.689,73.262 339.397,73 339.351,73 c -0.046,0 0.171,0.262 0.482,0.583 m -21.473,1.013 c -1.639,0.689 -1.331,1.817 1.194,4.378 2.603,2.639 3.31,2.977 4.281,2.05 1.05,-1.004 0.842,-1.472 -1.836,-4.126 -2.463,-2.442 -2.8,-2.655 -3.639,-2.302 m 24.223,1.737 c 1.097,1.1 2.033,2 2.078,2 0.046,0 -0.814,-0.9 -1.911,-2 -1.097,-1.1 -2.032,-2 -2.078,-2 -0.046,0 0.814,0.9 1.911,2 m 2.397,3.037 c 0.077,0.463 0.1,0.486 0.153,0.152 0.034,-0.216 -0.007,-0.462 -0.091,-0.546 -0.092,-0.093 -0.117,0.063 -0.062,0.394 m -11.108,0.297 c 0,0.32 0.034,0.452 0.076,0.291 0.042,-0.16 0.042,-0.423 0,-0.583 -0.042,-0.16 -0.076,-0.029 -0.076,0.292 M 355.735,82 c 0,1.604 0.025,2.26 0.056,1.458 0.03,-0.802 0.03,-2.114 0,-2.916 -0.031,-0.802 -0.056,-0.146 -0.056,1.458 m -10.53,-0.5 c 0,0.321 0.035,0.452 0.077,0.292 0.041,-0.161 0.041,-0.423 0,-0.584 -0.042,-0.16 -0.077,-0.029 -0.077,0.292 m -6.779,0.651 c -0.051,0.083 0.059,0.111 0.246,0.063 0.566,-0.148 1.043,0.424 0.931,1.117 -0.065,0.407 -0.045,0.51 0.066,0.336 0.269,-0.422 0.183,-0.924 -0.221,-1.305 -0.402,-0.376 -0.861,-0.471 -1.022,-0.211 m -21.547,1.516 c 0,0.412 0.032,0.581 0.072,0.375 0.04,-0.207 0.04,-0.544 0,-0.75 -0.04,-0.207 -0.072,-0.038 -0.072,0.375 m 13.246,-0.549 c 0.206,0.039 0.544,0.039 0.75,0 0.206,-0.04 0.037,-0.073 -0.375,-0.073 -0.413,0 -0.581,0.033 -0.375,0.073 m 6.948,0.424 -0.49,0.541 0.542,-0.489 c 0.298,-0.269 0.542,-0.513 0.542,-0.542 0,-0.129 -0.138,-0.015 -0.594,0.49 m -1.412,1.583 -0.911,0.958 0.958,-0.911 c 0.891,-0.846 1.035,-1.005 0.911,-1.005 -0.026,0 -0.457,0.431 -0.958,0.958 m 2.001,0.667 -1.079,1.125 1.125,-1.079 c 0.619,-0.593 1.125,-1.099 1.125,-1.125 0,-0.123 -0.169,0.034 -1.171,1.079 m -16.61,-0.501 c 1.541,0.028 4.016,0.028 5.5,0 1.484,-0.027 0.223,-0.05 -2.802,-0.05 -3.025,0 -4.239,0.023 -2.698,0.05 m 14.939,2.334 -0.574,0.625 0.625,-0.574 c 0.581,-0.535 0.701,-0.676 0.574,-0.676 -0.028,0 -0.309,0.281 -0.625,0.625 m -13.459,-0.334 c 1.163,0.029 3.113,0.029 4.333,0 1.22,-0.028 0.268,-0.052 -2.115,-0.052 -2.383,0 -3.382,0.024 -2.218,0.052 m -3.199,1.532 c 0,0.27 0.06,0.527 0.132,0.572 0.073,0.045 0.102,-0.176 0.065,-0.49 -0.082,-0.7 -0.197,-0.748 -0.197,-0.082 m 12.328,0.635 -0.911,0.959 0.958,-0.911 c 0.891,-0.847 1.035,-1.006 0.911,-1.006 -0.026,0 -0.457,0.431 -0.958,0.958 m 1.918,0.75 -1.329,1.375 1.375,-1.329 c 1.277,-1.235 1.451,-1.421 1.329,-1.421 -0.025,0 -0.643,0.619 -1.375,1.375 m 19.588,-0.458 c -0.405,0.412 -0.699,0.75 -0.653,0.75 0.046,0 0.414,-0.338 0.819,-0.75 0.405,-0.413 0.699,-0.75 0.653,-0.75 -0.046,0 -0.414,0.337 -0.819,0.75 m -1.5,1.667 c -0.405,0.412 -0.699,0.75 -0.653,0.75 0.046,0 0.414,-0.338 0.819,-0.75 0.405,-0.413 0.699,-0.75 0.653,-0.75 -0.046,0 -0.414,0.337 -0.819,0.75 m -13.092,0.291 -0.658,0.709 0.708,-0.659 C 339.284,91.145 339.41,91 339.284,91 c -0.027,0 -0.346,0.319 -0.709,0.708 m -1.742,2.042 c -0.405,0.412 -0.698,0.75 -0.652,0.75 0.045,0 0.414,-0.338 0.819,-0.75 0.405,-0.413 0.699,-0.75 0.653,-0.75 -0.046,0 -0.415,0.337 -0.82,0.75 m -10.135,2.041 c 1.529,0.028 4.079,0.028 5.666,0 1.587,-0.027 0.336,-0.049 -2.781,-0.05 -3.116,0 -4.415,0.023 -2.885,0.05 M 347.071,100 c 0,1.971 0.024,2.777 0.053,1.792 0.03,-0.986 0.03,-2.598 0,-3.584 -0.029,-0.985 -0.053,-0.179 -0.053,1.792 m -22.002,0.75 c 0,1.65 0.025,2.302 0.055,1.45 0.031,-0.853 0.03,-2.203 0,-3 -0.031,-0.798 -0.055,-0.1 -0.055,1.55 m 0.243,3.292 c 0.141,0.18 0.428,0.282 0.75,0.266 l 0.521,-0.025 -0.5,-0.073 c -0.275,-0.04 -0.612,-0.16 -0.75,-0.266 -0.217,-0.169 -0.22,-0.156 -0.021,0.098 m 20,0 c 0.141,0.18 0.428,0.282 0.75,0.266 l 0.521,-0.025 -0.5,-0.073 c -0.275,-0.04 -0.612,-0.16 -0.75,-0.266 -0.217,-0.169 -0.22,-0.156 -0.021,0.098"
       stroke="none"
       fill="#04d1f9"
       fill-rule="evenodd"
       inkscape:connector-curvature="0" />
    <path
       id="path1"
       d="m 326.708,46.692 c -0.155,0.155 -0.208,1.28 -0.208,4.411 0,4.977 0.07,4.687 -1.163,4.827 -1.839,0.208 -3.104,1.564 -3.287,3.522 -0.073,0.78 -0.175,1.101 -0.367,1.161 -2.166,0.679 -3.258,3.02 -2.347,5.029 0.382,0.841 0.364,0.891 -0.481,1.366 -0.349,0.196 -0.773,0.593 -0.941,0.883 -0.168,0.289 -0.375,0.572 -0.46,0.629 -0.322,0.216 -0.168,2.612 0.201,3.131 0.456,0.639 0.436,0.793 -0.135,1.089 -2.723,1.408 -2.869,3.939 -0.381,6.62 0.551,0.594 0.59,0.973 0.099,0.973 -1.767,0 -2.874,3.498 -1.673,5.286 0.461,0.687 1.391,1.381 1.85,1.381 0.179,0 0.223,0.318 0.199,1.458 -0.044,2.191 0.65,3.247 2.546,3.876 l 0.757,0.251 -0.056,0.954 c -0.12,2.054 1.195,3.957 2.737,3.962 0.175,0 0.6,0.079 0.944,0.174 l 0.625,0.174 v 2.972 c 0,3.29 0.037,3.411 1.027,3.315 0.858,-0.083 0.967,-0.488 0.97,-3.594 l 0.003,-2.709 h 4.258 c 4.69,0 4.835,-0.026 5.621,-1.032 0.738,-0.946 1.75,-2.172 2.792,-3.384 3.011,-3.504 3.139,-3.734 2.443,-4.388 -0.664,-0.624 -1.226,-0.33 -2.422,1.267 -0.606,0.809 -1.281,1.615 -3.026,3.613 -0.504,0.578 -1.083,1.251 -1.286,1.495 l -0.369,0.445 -5.854,-0.049 -5.854,-0.05 -0.318,-0.393 c -0.225,-0.278 -0.319,-0.656 -0.319,-1.281 0,-1.518 0.174,-1.576 4.776,-1.578 l 3.808,-0.002 2.583,-2.781 c 1.421,-1.53 3.242,-3.468 4.048,-4.307 1.64,-1.708 1.943,-2.396 1.307,-2.971 -0.542,-0.492 -1.03,-0.229 -2.24,1.204 -0.61,0.724 -1.401,1.578 -1.756,1.899 -0.355,0.321 -1.331,1.374 -2.168,2.339 -0.837,0.966 -1.753,1.95 -2.036,2.188 l -0.514,0.433 -5.112,-0.005 c -5.523,-0.006 -5.487,0 -5.965,-0.921 -0.373,-0.72 -0.281,-1.224 0.336,-1.841 l 0.567,-0.566 h 4.313 c 4.668,0 5.053,-0.069 5.053,-0.901 0,-0.91 -0.146,-0.933 -5.976,-0.933 -6.482,0 -7.004,-0.123 -7.018,-1.651 -0.015,-1.515 2.266,-2.395 3.315,-1.279 1.128,1.201 3.364,1.392 4.791,0.411 0.397,-0.273 0.725,-0.587 0.728,-0.697 0.004,-0.11 0.226,-0.456 0.493,-0.768 l 0.485,-0.567 0.659,0.737 c 1.446,1.614 3.829,2.033 4.986,0.875 0.121,-0.121 0.311,-0.278 0.422,-0.349 1.092,-0.699 1.493,-2.847 0.778,-4.171 L 333.159,77.25 333.534,77 c 1.538,-1.025 2.055,-1.919 2.037,-3.521 -0.014,-1.256 -0.07,-1.354 -1.966,-3.421 l -1.144,-1.249 0.394,-0.263 c 1.951,-1.3 2.755,-4.105 1.495,-5.218 -0.055,-0.048 -1.431,-1.441 -3.058,-3.094 l -2.959,-3.005 -0.002,-4.906 c -0.003,-5.41 -0.049,-5.703 -0.919,-5.789 -0.273,-0.027 -0.59,0.044 -0.704,0.158 m 18.718,0.178 c -0.311,0.444 -0.398,11.358 -0.093,11.547 0.092,0.056 0.167,0.252 0.167,0.435 0,0.449 1.244,2.256 1.735,2.52 0.718,0.386 2.01,1.702 2.39,2.436 0.375,0.724 0.608,7.525 0.257,7.525 -0.064,0 -1.141,-0.993 -2.392,-2.208 -3.608,-3.502 -5.237,-3.995 -7.386,-2.234 -2.824,2.314 -2.346,4.502 1.898,8.692 3.285,3.243 3.644,4.045 3.136,7 -0.247,1.44 -0.023,1.955 0.82,1.885 1.062,-0.088 1.482,-1.604 1.221,-4.41 -0.191,-2.047 -0.589,-2.668 -3.845,-5.989 -2.48,-2.53 -2.8,-2.92 -2.872,-3.5 -0.223,-1.801 1.436,-3.034 3.13,-2.326 0.885,0.37 9.752,9.493 10.09,10.381 0.256,0.674 0.189,6.438 -0.081,6.987 -0.127,0.26 -0.371,0.745 -0.541,1.078 -0.316,0.618 -2.005,2.489 -5.727,6.346 -2.488,2.578 -2.297,2.036 -2.314,6.548 -0.016,4.162 0.049,4.466 0.977,4.555 0.955,0.091 1.003,-0.1 1.016,-4.045 0.014,-4.204 -0.163,-3.698 2.086,-5.981 3.287,-3.336 5.901,-6.349 5.903,-6.803 0,-0.124 0.15,-0.471 0.333,-0.771 0.399,-0.655 0.509,-7.643 0.137,-8.721 -0.262,-0.761 -1.218,-2.019 -2.454,-3.228 L 352,73.594 351.996,69.255 c -0.002,-2.386 -0.074,-4.601 -0.159,-4.922 -0.506,-1.907 -0.731,-2.217 -3.193,-4.388 -1.61,-1.419 -1.533,-1.069 -1.637,-7.378 -0.097,-5.896 -0.123,-6.067 -0.935,-6.067 -0.212,0 -0.503,0.167 -0.646,0.37 m -15.879,14.441 c 1.813,1.8 3.336,3.423 3.383,3.608 0.232,0.903 -0.693,1.914 -1.751,1.914 -0.888,0 -7.179,-6.491 -7.179,-7.407 0,-0.753 0.258,-1.112 1.003,-1.403 0.807,-0.313 1.209,-0.022 4.544,3.288 m -1.182,6.472 c 2.873,2.872 5.158,5.287 5.215,5.514 0.285,1.136 -0.893,2.292 -1.908,1.872 -0.519,-0.215 -9.851,-9.392 -10.38,-10.208 -0.477,-0.735 -0.378,-1.351 0.315,-1.96 1.052,-0.923 1.039,-0.932 6.758,4.782 m -6.893,0.778 c 0.464,0.257 10.15,9.887 10.39,10.33 0.444,0.818 -0.529,2.109 -1.59,2.109 -0.772,0 -10.814,-9.718 -11.022,-10.666 -0.29,-1.319 1.076,-2.409 2.222,-1.773 m 0.527,8.337 c 2.678,2.654 2.886,3.122 1.836,4.126 -0.971,0.927 -1.678,0.589 -4.281,-2.05 -2.211,-2.242 -2.437,-2.649 -1.992,-3.584 0.76,-1.593 1.595,-1.309 4.437,1.508"
       stroke="none"
       fill="#edf1f1"
       fill-rule="evenodd"
       inkscape:connector-curvature="0" />
  </g>
</svg>
