<svg id="svg" version="1.1" xmlns="http://www.w3.org/2000/svg" xmlns:xlink="http://www.w3.org/1999/xlink" width="400" height="246.9982847341338" viewBox="0, 0, 400,246.9982847341338"><g id="svgg"><path id="path0" d="M66.831 84.483 C 61.902 84.966,56.953 87.086,54.105 89.935 C 52.215 91.824,50.323 95.511,50.037 97.861 C 49.797 99.826,50.014 100.005,53.121 100.423 C 60.671 101.438,61.098 101.387,61.673 99.400 C 62.877 95.241,67.314 92.895,71.429 94.241 C 74.509 95.248,75.550 96.984,75.656 101.289 L 75.726 104.122 75.062 104.445 C 74.697 104.623,72.863 104.937,70.985 105.143 C 64.138 105.895,63.503 106.015,59.666 107.294 C 50.365 110.395,46.103 119.388,49.309 129.151 C 49.991 131.230,52.996 135.127,53.927 135.142 C 54.032 135.144,54.535 135.409,55.045 135.731 C 55.556 136.053,56.360 136.400,56.832 136.501 C 57.304 136.602,57.809 136.780,57.954 136.896 C 58.099 137.012,59.433 137.175,60.919 137.257 C 67.056 137.598,71.357 136.226,75.283 132.674 C 77.615 130.565,77.561 130.566,79.012 132.630 C 80.669 134.988,82.981 137.122,83.879 137.122 C 84.431 137.122,85.322 136.456,87.959 134.076 C 88.437 133.645,89.493 132.739,90.306 132.063 C 93.082 129.756,93.161 129.400,91.412 127.084 C 90.870 126.366,90.426 125.662,90.426 125.520 C 90.426 125.378,90.336 125.263,90.227 125.263 C 89.976 125.263,89.309 123.756,88.915 122.298 C 88.709 121.535,88.563 117.193,88.450 108.462 C 88.310 97.677,88.223 95.535,87.878 94.405 C 86.595 90.205,84.206 87.823,79.185 85.736 C 76.585 84.656,70.925 84.082,66.831 84.483 M189.376 84.476 C 185.476 84.834,180.299 86.707,178.390 88.450 C 178.166 88.653,177.651 89.098,177.245 89.438 C 176.159 90.346,174.169 92.905,173.787 93.885 C 173.708 94.089,173.545 94.478,173.425 94.750 C 172.451 96.958,172.165 99.269,172.801 99.796 C 173.136 100.074,175.911 100.514,180.358 100.993 C 183.059 101.283,183.537 101.069,184.172 99.282 C 185.367 95.922,187.592 94.185,191.016 93.940 C 195.747 93.602,198.402 96.523,198.390 102.055 C 198.385 104.696,198.588 104.571,193.329 105.156 C 187.032 105.856,186.905 105.878,183.323 106.903 C 182.576 107.117,181.614 107.444,181.186 107.630 C 180.757 107.816,180.342 107.968,180.263 107.968 C 179.808 107.968,176.577 110.184,175.456 111.265 C 168.417 118.058,169.517 131.796,177.413 135.707 C 181.952 137.954,188.618 137.912,193.329 135.605 C 195.568 134.509,195.797 134.354,197.801 132.585 C 200.055 130.596,200.051 130.596,201.256 132.366 C 203.489 135.644,206.121 137.674,207.114 136.884 C 209.250 135.183,212.675 132.213,214.164 130.772 C 215.371 129.602,215.379 129.288,214.243 127.659 C 213.883 127.142,213.477 126.531,213.342 126.300 C 213.206 126.069,213.030 125.825,212.950 125.757 C 212.871 125.689,212.454 124.882,212.024 123.965 L 211.242 122.296 211.242 111.325 C 211.242 100.667,210.913 94.856,210.264 94.009 C 210.160 93.873,209.995 93.428,209.897 93.020 C 209.800 92.613,209.451 91.925,209.122 91.493 C 208.793 91.060,208.524 90.632,208.524 90.540 C 208.524 90.449,207.878 89.747,207.088 88.980 C 203.500 85.495,196.810 83.794,189.376 84.476 M121.062 85.087 C 117.590 85.804,112.662 90.001,112.662 92.241 C 112.662 92.776,112.155 93.027,111.897 92.620 C 111.778 92.432,111.676 91.056,111.670 89.561 C 111.653 85.670,111.935 85.874,106.438 85.773 C 101.020 85.673,100.435 85.759,99.935 86.726 C 99.288 87.977,99.506 135.383,100.162 136.108 C 100.613 136.606,100.857 136.628,106.033 136.628 L 111.434 136.628 111.924 135.825 C 112.398 135.046,112.413 134.536,112.414 118.933 C 112.415 101.777,112.426 101.609,113.658 99.307 C 115.786 95.330,121.897 95.414,123.750 99.444 C 124.567 101.219,124.613 102.120,124.751 119.004 C 124.829 128.403,124.984 136.185,125.097 136.298 C 125.412 136.614,136.025 136.703,136.600 136.395 C 137.072 136.143,137.087 135.710,137.198 119.890 C 137.333 100.624,137.326 100.688,139.799 98.200 C 141.574 96.413,145.310 95.960,147.153 97.308 C 149.838 99.273,149.722 98.317,149.722 118.430 C 149.722 135.314,149.729 135.553,150.226 136.087 C 151.010 136.928,161.035 136.928,161.819 136.087 C 162.468 135.390,162.607 98.939,161.974 95.244 C 161.328 91.472,158.293 86.720,156.529 86.720 C 156.373 86.720,156.115 86.590,155.956 86.432 C 153.928 84.403,145.060 84.373,142.524 86.386 C 142.338 86.533,142.057 86.697,141.900 86.749 C 140.816 87.107,137.677 90.548,137.274 91.818 C 136.824 93.236,135.145 92.819,135.145 91.289 C 135.145 90.437,130.886 85.979,130.072 85.979 C 129.982 85.979,129.558 85.821,129.129 85.627 C 127.204 84.757,123.775 84.528,121.062 85.087 M279.308 85.104 C 271.673 86.418,265.714 92.738,263.456 101.915 C 262.236 106.875,262.106 114.555,263.170 118.839 C 263.322 119.450,263.498 120.340,263.562 120.815 C 263.626 121.291,263.763 121.791,263.867 121.927 C 263.971 122.063,264.139 122.560,264.240 123.031 C 264.341 123.502,264.510 124.058,264.616 124.266 C 264.722 124.474,265.219 125.473,265.719 126.486 C 268.134 131.371,273.849 136.628,276.746 136.628 C 276.946 136.628,277.215 136.724,277.344 136.842 C 277.606 137.081,282.137 137.863,283.261 137.863 C 284.386 137.863,288.917 137.081,289.179 136.842 C 289.308 136.724,289.577 136.628,289.777 136.628 C 292.691 136.628,298.866 130.992,301.198 126.204 C 301.616 125.347,302.059 124.452,302.183 124.216 C 302.307 123.980,302.409 123.663,302.409 123.512 C 302.409 123.361,302.559 122.887,302.743 122.459 C 304.954 117.304,304.959 105.353,302.751 100.115 C 302.563 99.669,302.409 99.139,302.409 98.938 C 302.409 98.737,302.307 98.380,302.183 98.144 C 302.059 97.908,301.616 97.013,301.198 96.155 C 300.105 93.910,298.912 92.198,297.280 90.529 C 295.874 89.091,295.567 88.829,294.118 87.821 C 290.446 85.268,284.593 84.194,279.308 85.104 M333.292 85.097 C 329.831 85.868,327.039 88.217,325.199 91.907 C 323.893 94.526,323.659 94.248,323.649 90.068 C 323.638 85.531,324.094 85.855,317.727 85.855 C 312.849 85.855,312.539 85.883,312.186 86.350 C 311.611 87.112,311.607 135.257,312.182 136.078 C 312.772 136.921,323.101 136.938,323.884 136.098 C 324.365 135.581,324.380 135.155,324.469 119.606 C 324.564 103.124,324.592 102.643,325.578 100.881 C 325.744 100.584,325.880 100.172,325.880 99.966 C 325.880 99.128,328.428 96.934,329.897 96.507 C 332.767 95.673,334.961 96.781,336.444 99.815 L 337.109 101.174 337.177 117.727 C 337.249 134.993,337.273 135.632,337.890 136.249 C 338.456 136.815,348.488 136.809,349.296 136.243 L 349.846 135.858 349.846 117.587 C 349.846 95.340,349.719 94.034,347.187 90.124 C 344.390 85.806,338.948 83.837,333.292 85.097 M223.450 85.918 C 222.649 86.469,222.261 92.012,222.870 94.206 C 223.250 95.575,223.511 95.615,232.142 95.615 C 241.330 95.615,240.840 95.374,238.511 98.747 C 235.538 103.053,234.474 104.585,232.709 107.103 C 231.756 108.462,230.371 110.463,229.630 111.550 C 228.890 112.637,227.812 114.192,227.236 115.005 C 226.660 115.818,225.329 117.708,224.279 119.205 C 223.228 120.702,222.279 122.038,222.170 122.174 C 221.336 123.216,221.124 124.727,221.124 129.618 C 221.124 135.768,221.329 136.133,224.062 134.863 C 225.122 134.370,225.729 134.107,227.301 133.461 C 228.059 133.148,230.032 132.599,232.489 132.016 C 235.143 131.386,243.424 131.386,246.078 132.016 C 248.826 132.668,250.595 133.169,251.078 133.430 C 251.314 133.558,251.638 133.663,251.799 133.663 C 251.960 133.663,252.768 133.983,253.594 134.373 C 257.421 136.184,257.779 135.780,257.649 129.791 C 257.534 124.462,256.763 123.515,251.266 121.956 C 250.383 121.706,249.382 121.403,249.043 121.284 C 247.990 120.914,245.093 120.524,242.125 120.353 C 238.296 120.132,238.218 119.986,240.452 117.233 C 240.562 117.097,241.358 115.985,242.221 114.762 C 243.732 112.620,244.648 111.309,248.179 106.238 C 249.077 104.947,250.480 102.946,251.297 101.791 C 252.113 100.636,253.635 98.413,254.679 96.850 L 256.578 94.009 256.578 90.138 C 256.578 88.010,256.486 86.175,256.372 86.062 C 256.116 85.805,223.819 85.664,223.450 85.918 M285.625 94.620 C 289.398 95.697,290.920 100.563,290.920 111.550 C 290.920 122.412,289.170 126.938,284.605 127.879 C 278.715 129.092,275.994 123.675,275.908 110.562 C 275.825 97.875,278.967 92.719,285.625 94.620 M75.734 112.699 C 76.793 117.521,74.530 124.597,71.155 127.017 C 68.109 129.201,63.144 128.008,62.366 124.906 C 62.278 124.556,62.107 124.208,61.986 124.134 C 61.436 123.794,61.743 118.857,62.401 117.468 C 63.565 115.007,67.104 112.469,69.470 112.398 C 69.785 112.388,70.266 112.285,70.537 112.168 C 70.809 112.051,72.051 111.948,73.297 111.938 L 75.563 111.921 75.734 112.699 M198.347 114.515 C 198.585 122.143,195.370 127.702,190.449 128.175 C 183.075 128.884,181.616 117.153,188.635 113.592 C 190.119 112.840,190.636 112.656,191.952 112.412 C 192.689 112.276,193.350 112.106,193.422 112.034 C 193.493 111.963,194.614 111.936,195.911 111.974 L 198.271 112.044 198.347 114.515 " stroke="none" fill="#f9f9f9" fill-rule="evenodd"></path><path id="path2" d="M234.095 139.461 C 233.959 139.502,233.181 139.669,232.366 139.830 C 230.568 140.186,228.440 140.787,227.387 141.237 C 226.959 141.419,226.523 141.569,226.418 141.569 C 226.080 141.569,223.253 143.040,222.236 143.745 C 221.476 144.272,221.229 144.618,221.169 145.242 L 221.090 146.055 223.022 145.944 C 224.084 145.883,226.621 145.697,228.660 145.531 C 233.379 145.147,239.933 145.311,241.137 145.842 C 243.919 147.072,244.031 149.706,241.642 157.752 C 241.521 158.159,241.069 159.438,240.637 160.593 C 240.205 161.748,239.747 163.050,239.620 163.487 C 239.493 163.924,239.282 164.347,239.151 164.428 C 239.020 164.509,238.912 164.763,238.911 164.993 C 238.911 165.223,238.744 165.729,238.541 166.118 C 238.027 167.104,238.062 168.166,238.613 168.310 C 240.999 168.934,247.156 160.175,249.075 153.428 C 250.553 148.233,251.019 142.249,250.021 141.291 C 248.485 139.818,237.157 138.516,234.095 139.461 M91.082 142.762 C 90.857 143.010,90.673 143.383,90.673 143.589 C 90.673 144.034,93.481 146.818,95.432 148.308 C 95.828 148.610,96.281 148.976,96.439 149.122 C 96.597 149.267,97.671 150.085,98.826 150.939 C 99.981 151.793,100.964 152.591,101.009 152.713 C 101.054 152.834,101.193 152.934,101.317 152.934 C 101.498 152.934,103.697 154.425,104.880 155.350 C 105.247 155.637,110.749 158.993,111.180 159.193 C 111.384 159.287,112.106 159.696,112.786 160.102 C 113.972 160.811,121.516 164.582,122.792 165.104 C 123.132 165.243,123.743 165.499,124.151 165.674 C 124.558 165.849,125.337 166.172,125.880 166.393 C 126.424 166.613,127.061 166.899,127.297 167.029 C 127.533 167.158,127.850 167.264,128.001 167.264 C 128.152 167.264,128.626 167.420,129.055 167.610 C 129.929 167.999,133.514 169.203,135.763 169.863 C 136.578 170.102,137.523 170.381,137.863 170.483 C 138.476 170.666,140.078 171.082,142.928 171.800 C 145.447 172.434,150.065 173.323,152.810 173.702 C 165.984 175.521,180.337 175.202,192.464 172.821 C 193.620 172.594,195.065 172.313,195.676 172.195 C 196.821 171.976,198.643 171.531,201.235 170.839 C 202.051 170.622,203.051 170.357,203.459 170.252 C 203.867 170.146,204.589 169.935,205.065 169.783 C 207.200 169.099,210.668 167.947,211.118 167.772 C 211.390 167.666,212.557 167.222,213.712 166.784 C 214.867 166.346,216.146 165.837,216.553 165.653 C 216.961 165.469,217.851 165.077,218.530 164.784 C 220.749 163.824,224.920 161.729,226.502 160.780 C 227.354 160.270,228.116 159.852,228.196 159.852 C 228.276 159.852,228.835 159.518,229.439 159.111 C 230.043 158.703,230.589 158.369,230.651 158.369 C 230.777 158.369,233.775 156.369,233.972 156.153 C 234.040 156.079,234.512 155.741,235.020 155.402 C 237.974 153.438,235.915 149.854,232.701 151.366 C 230.879 152.224,228.412 153.181,228.025 153.181 C 227.778 153.181,227.516 153.279,227.442 153.399 C 227.368 153.519,226.500 153.874,225.513 154.187 C 224.526 154.500,223.613 154.847,223.484 154.957 C 223.355 155.067,223.053 155.158,222.813 155.158 C 222.573 155.158,222.011 155.310,221.565 155.496 C 220.560 155.915,219.258 156.370,218.283 156.644 C 217.875 156.759,216.930 157.034,216.183 157.256 C 214.519 157.749,212.996 158.158,210.253 158.845 C 209.098 159.134,207.720 159.488,207.192 159.632 C 206.663 159.775,205.718 159.990,205.091 160.109 C 204.465 160.228,203.175 160.485,202.224 160.679 C 199.777 161.180,198.555 161.388,192.464 162.340 C 180.769 164.169,160.147 163.913,148.116 161.789 C 147.301 161.645,145.967 161.431,145.151 161.314 C 143.537 161.083,140.946 160.580,138.233 159.971 C 137.282 159.757,136.059 159.494,135.516 159.385 C 134.972 159.277,134.027 159.050,133.416 158.881 C 132.804 158.711,131.692 158.410,130.945 158.210 C 128.949 157.677,126.954 157.121,126.251 156.902 C 125.911 156.796,124.966 156.516,124.151 156.280 C 123.335 156.044,122.303 155.694,121.857 155.504 C 121.411 155.313,120.834 155.158,120.574 155.158 C 120.315 155.158,120.035 155.046,119.951 154.910 C 119.867 154.775,119.610 154.663,119.380 154.662 C 119.150 154.661,118.644 154.494,118.255 154.291 C 117.865 154.088,117.438 153.922,117.304 153.922 C 117.170 153.922,116.710 153.769,116.282 153.581 C 115.854 153.393,114.558 152.883,113.403 152.448 C 112.248 152.012,110.717 151.388,109.999 151.060 C 109.282 150.732,108.645 150.463,108.584 150.463 C 108.207 150.463,98.494 145.717,96.479 144.549 C 92.631 142.317,91.749 142.025,91.082 142.762 " stroke="none" fill="#f39807" fill-rule="evenodd"></path><path id="path3" d="M67.409 83.878 C 67.321 83.966,66.432 84.132,65.434 84.247 C 62.701 84.562,61.611 84.893,58.431 86.371 C 56.053 87.477,52.417 90.617,52.003 91.923 C 51.919 92.187,51.760 92.403,51.649 92.403 C 51.538 92.403,51.382 92.597,51.302 92.835 C 51.222 93.073,51.056 93.434,50.933 93.638 C 50.442 94.450,49.907 95.909,49.907 96.438 C 49.907 96.746,49.805 97.104,49.680 97.233 C 48.012 98.951,50.226 101.050,53.705 101.050 C 54.674 101.050,56.338 101.217,57.403 101.421 C 60.508 102.015,62.014 101.456,62.014 99.710 C 62.014 99.360,62.111 99.074,62.230 99.074 C 62.349 99.074,62.509 98.768,62.585 98.394 C 63.156 95.614,67.438 93.887,71.595 94.761 C 73.910 95.248,75.436 98.187,75.308 101.915 L 75.232 104.138 73.626 104.297 C 68.052 104.849,66.618 105.034,66.210 105.252 C 65.958 105.387,65.217 105.498,64.562 105.499 C 63.908 105.500,63.054 105.666,62.665 105.869 C 62.276 106.072,61.696 106.238,61.376 106.238 C 61.056 106.238,60.374 106.421,59.860 106.643 C 59.346 106.866,58.647 107.154,58.308 107.284 C 57.296 107.670,55.172 108.777,54.388 109.327 C 53.406 110.015,50.711 112.941,50.278 113.788 C 50.006 114.320,49.645 114.903,49.475 115.085 C 49.305 115.267,49.166 115.575,49.166 115.771 C 49.166 115.967,49.063 116.321,48.937 116.557 C 46.828 120.503,47.770 128.908,50.757 132.794 C 52.229 134.709,53.790 135.815,56.702 137.004 C 59.258 138.048,66.634 138.112,68.496 137.106 C 68.732 136.979,69.056 136.875,69.217 136.875 C 69.701 136.875,72.746 135.331,72.959 134.978 C 73.067 134.798,73.292 134.651,73.458 134.651 C 73.624 134.651,74.276 134.179,74.906 133.601 C 77.734 131.010,77.282 131.085,78.638 132.983 C 81.658 137.214,83.832 138.324,85.748 136.613 C 86.213 136.198,86.886 135.614,87.242 135.316 C 87.869 134.791,90.018 132.925,91.951 131.225 C 93.339 130.004,93.295 128.823,91.785 126.771 C 91.174 125.941,90.673 125.150,90.673 125.015 C 90.673 124.879,90.562 124.768,90.426 124.768 C 90.290 124.768,90.178 124.629,90.178 124.460 C 90.177 124.290,89.988 123.817,89.759 123.410 C 89.390 122.754,89.320 121.232,89.155 110.315 C 88.965 97.646,88.799 94.629,88.263 94.093 C 88.094 93.925,87.956 93.624,87.956 93.425 C 87.956 92.907,87.157 91.167,86.920 91.167 C 86.810 91.167,86.720 91.002,86.720 90.799 C 86.720 90.324,83.858 87.412,82.891 86.903 C 82.483 86.689,81.760 86.331,81.285 86.108 C 80.809 85.884,80.105 85.542,79.721 85.346 C 79.336 85.151,78.800 84.991,78.531 84.991 C 78.261 84.991,77.798 84.856,77.501 84.691 C 76.529 84.151,67.836 83.451,67.409 83.878 M189.500 83.991 C 189.160 84.106,188.271 84.215,187.523 84.234 C 186.776 84.252,185.886 84.426,185.547 84.620 C 185.207 84.814,184.677 84.977,184.370 84.982 C 184.062 84.987,183.617 85.094,183.381 85.221 C 183.145 85.347,182.174 85.811,181.223 86.250 C 179.455 87.068,176.853 88.874,176.123 89.791 C 175.899 90.072,175.484 90.581,175.200 90.920 C 174.046 92.303,173.440 93.268,173.440 93.723 C 173.440 93.915,173.274 94.210,173.070 94.379 C 172.866 94.548,172.699 94.945,172.699 95.260 C 172.699 95.575,172.596 95.896,172.469 95.974 C 172.156 96.168,171.864 98.667,172.062 99.456 C 172.296 100.385,173.646 100.885,176.405 101.062 C 177.696 101.145,179.622 101.358,180.684 101.535 C 183.178 101.950,184.805 100.930,184.805 98.952 C 184.805 97.597,187.413 95.142,189.253 94.765 C 192.559 94.088,196.665 95.136,196.665 96.658 C 196.665 96.810,196.847 97.136,197.070 97.383 C 197.399 97.746,197.481 98.433,197.503 100.985 L 197.529 104.138 195.923 104.306 C 195.040 104.398,193.119 104.591,191.655 104.733 C 190.190 104.876,188.780 105.106,188.521 105.245 C 188.262 105.384,187.626 105.497,187.107 105.496 C 186.589 105.495,185.664 105.652,185.053 105.844 C 184.441 106.037,183.329 106.381,182.582 106.610 C 181.393 106.973,179.468 107.843,177.486 108.913 C 176.663 109.357,173.440 112.506,173.440 112.867 C 173.440 113.026,173.331 113.156,173.198 113.156 C 173.065 113.156,172.886 113.434,172.801 113.774 C 172.715 114.114,172.568 114.392,172.473 114.392 C 172.312 114.392,171.890 115.298,171.094 117.356 C 170.106 119.909,170.120 126.400,171.117 128.635 C 171.308 129.063,171.464 129.538,171.464 129.690 C 171.464 129.842,171.742 130.407,172.082 130.945 C 172.421 131.483,172.699 131.991,172.699 132.074 C 172.699 132.251,173.707 133.384,174.900 134.547 C 175.636 135.265,177.751 136.470,179.246 137.023 C 182.631 138.274,192.959 137.755,192.959 136.334 C 192.959 136.224,193.174 136.133,193.438 136.133 C 193.702 136.133,193.991 136.015,194.080 135.871 C 194.169 135.727,194.481 135.505,194.774 135.378 C 195.790 134.936,196.807 134.177,198.694 132.452 C 199.349 131.854,199.918 131.409,199.960 131.464 C 200.002 131.518,200.543 132.230,201.163 133.045 C 203.483 136.098,205.001 137.369,206.325 137.369 C 207.417 137.369,207.618 137.244,210.191 134.960 C 212.437 132.967,212.738 132.703,214.301 131.351 C 215.778 130.074,216.091 129.159,215.318 128.386 C 215.114 128.182,214.947 127.947,214.947 127.864 C 214.947 127.780,214.519 127.131,213.994 126.422 C 213.470 125.712,212.962 124.883,212.866 124.579 C 212.769 124.276,212.587 124.027,212.460 124.027 C 212.333 124.027,212.230 123.746,212.230 123.402 C 212.230 123.057,212.063 122.377,211.859 121.889 C 211.547 121.142,211.489 119.101,211.489 108.922 C 211.489 94.969,211.189 92.953,208.676 89.983 C 207.366 88.435,204.695 86.226,204.133 86.226 C 204.017 86.226,203.440 85.993,202.851 85.708 C 199.937 84.300,191.706 83.241,189.500 83.991 M76.590 84.981 C 81.456 86.156,85.414 88.823,86.927 91.949 C 88.261 94.704,88.273 94.841,88.450 108.462 C 88.563 117.193,88.709 121.535,88.915 122.298 C 89.309 123.756,89.976 125.263,90.227 125.263 C 90.336 125.263,90.426 125.378,90.426 125.520 C 90.426 125.662,90.870 126.366,91.412 127.084 C 93.161 129.400,93.082 129.756,90.306 132.063 C 89.493 132.739,88.437 133.645,87.959 134.076 C 85.322 136.456,84.431 137.122,83.879 137.122 C 82.981 137.122,80.669 134.988,79.012 132.630 C 77.561 130.566,77.615 130.565,75.283 132.674 C 71.357 136.226,67.056 137.598,60.919 137.257 C 59.433 137.175,58.099 137.012,57.954 136.896 C 57.809 136.780,57.304 136.602,56.832 136.501 C 56.360 136.400,55.556 136.053,55.045 135.731 C 54.535 135.409,54.032 135.144,53.927 135.142 C 52.996 135.127,49.991 131.230,49.309 129.151 C 46.103 119.388,50.365 110.395,59.666 107.294 C 63.503 106.015,64.138 105.895,70.985 105.143 C 72.863 104.937,74.697 104.623,75.062 104.445 L 75.726 104.122 75.656 101.289 C 75.550 96.984,74.509 95.248,71.429 94.241 C 67.314 92.895,62.877 95.241,61.673 99.400 C 61.207 101.009,60.571 101.282,57.937 101.005 C 52.562 100.440,50.533 100.081,50.201 99.636 C 49.378 98.532,50.625 94.596,52.717 91.694 C 55.143 88.326,58.173 86.481,63.743 84.977 C 66.701 84.178,73.274 84.180,76.590 84.981 M120.321 84.681 C 118.814 85.203,117.498 85.816,117.398 86.041 C 117.352 86.143,117.182 86.226,117.020 86.226 C 116.858 86.226,116.551 86.421,116.338 86.658 C 116.125 86.896,115.703 87.258,115.399 87.461 C 114.755 87.894,113.440 89.631,112.691 91.040 L 112.168 92.025 112.168 89.361 C 112.168 86.285,111.883 85.762,109.911 85.226 C 108.281 84.782,100.886 85.212,99.984 85.803 L 99.321 86.237 99.321 111.147 C 99.321 134.574,99.346 136.077,99.753 136.404 C 100.879 137.308,101.272 137.369,105.991 137.369 C 110.710 137.369,111.104 137.308,112.230 136.404 C 112.633 136.080,112.662 135.005,112.662 120.199 C 112.662 106.861,112.721 104.148,113.030 103.128 C 113.232 102.461,113.399 101.674,113.401 101.379 C 113.419 97.605,119.317 95.438,122.147 98.166 C 123.980 99.932,123.890 98.970,124.027 118.221 C 124.163 137.208,124.077 136.212,125.640 137.023 C 126.680 137.562,135.317 137.514,136.473 136.963 C 137.838 136.312,137.849 136.173,137.931 118.221 C 137.998 103.388,138.043 101.848,138.426 101.174 C 138.658 100.766,138.849 100.298,138.850 100.133 C 138.856 98.825,141.880 97.097,144.163 97.097 C 149.350 97.097,149.459 97.553,149.472 119.333 C 149.478 128.505,149.564 136.124,149.664 136.263 C 150.371 137.247,151.080 137.369,156.081 137.369 L 160.975 137.369 161.896 136.610 L 162.817 135.850 162.817 116.019 C 162.817 99.162,162.761 96.005,162.449 94.974 C 162.246 94.307,162.080 93.548,162.078 93.287 C 162.075 92.672,160.621 89.685,160.325 89.685 C 160.201 89.685,160.099 89.581,160.099 89.453 C 160.099 87.424,153.420 84.246,149.158 84.248 C 147.571 84.249,146.437 84.377,145.854 84.620 C 145.367 84.824,144.775 84.991,144.540 84.991 C 142.845 84.991,137.122 89.714,137.122 91.113 C 137.122 92.396,136.192 92.315,135.499 90.971 C 134.580 89.190,131.668 86.221,130.204 85.572 C 127.741 84.480,127.338 84.395,124.398 84.345 C 122.242 84.309,121.130 84.400,120.321 84.681 M198.888 84.913 C 202.950 85.893,208.524 89.148,208.524 90.540 C 208.524 90.632,208.793 91.060,209.122 91.493 C 209.451 91.925,209.800 92.613,209.897 93.020 C 209.995 93.428,210.160 93.873,210.264 94.009 C 210.913 94.856,211.242 100.667,211.242 111.325 L 211.242 122.296 212.024 123.965 C 212.454 124.882,212.871 125.689,212.950 125.757 C 213.030 125.825,213.206 126.069,213.342 126.300 C 213.477 126.531,213.883 127.142,214.243 127.659 C 215.379 129.288,215.371 129.602,214.164 130.772 C 212.675 132.213,209.250 135.183,207.114 136.884 C 206.121 137.674,203.489 135.644,201.256 132.366 C 200.051 130.596,200.055 130.596,197.801 132.585 C 190.982 138.604,180.159 139.112,174.695 133.671 C 169.136 128.134,169.514 117.000,175.456 111.265 C 176.577 110.184,179.808 107.968,180.263 107.968 C 180.342 107.968,180.757 107.816,181.186 107.630 C 181.614 107.444,182.576 107.117,183.323 106.903 C 186.905 105.878,187.032 105.856,193.329 105.156 C 198.588 104.571,198.385 104.696,198.390 102.055 C 198.402 96.523,195.747 93.602,191.016 93.940 C 187.592 94.185,185.367 95.922,184.172 99.282 C 183.537 101.069,183.059 101.283,180.358 100.993 C 175.911 100.514,173.136 100.074,172.801 99.796 C 172.165 99.269,172.451 96.958,173.425 94.750 C 173.545 94.478,173.708 94.089,173.787 93.885 C 174.169 92.905,176.159 90.346,177.245 89.438 C 177.651 89.098,178.166 88.653,178.390 88.450 C 179.692 87.261,182.587 85.984,186.288 84.964 C 189.038 84.206,195.843 84.179,198.888 84.913 M279.185 84.620 C 278.709 84.803,278.074 84.962,277.772 84.972 C 277.471 84.982,276.860 85.151,276.414 85.347 C 275.967 85.542,275.130 85.897,274.552 86.135 C 273.975 86.373,273.502 86.646,273.502 86.741 C 273.502 86.836,273.224 86.983,272.884 87.069 C 272.545 87.154,272.267 87.333,272.267 87.466 C 272.267 87.599,272.128 87.709,271.958 87.710 C 270.145 87.716,264.745 95.413,263.638 99.568 C 263.475 100.179,263.224 101.013,263.080 101.421 C 262.936 101.828,262.724 102.829,262.610 103.644 C 262.495 104.460,262.291 105.627,262.156 106.238 C 261.834 107.702,261.841 114.703,262.167 116.121 C 262.307 116.733,262.502 117.844,262.601 118.592 C 262.700 119.339,262.908 120.340,263.065 120.815 C 263.222 121.291,263.550 122.374,263.794 123.222 C 264.038 124.070,264.321 124.765,264.422 124.766 C 264.524 124.767,264.608 124.934,264.608 125.135 C 264.608 127.640,270.592 134.581,273.996 136.024 C 274.200 136.110,274.700 136.325,275.108 136.502 C 278.181 137.831,278.929 137.966,283.261 137.966 C 287.593 137.966,288.342 137.831,291.414 136.502 C 291.822 136.325,292.322 136.110,292.526 136.024 C 294.527 135.176,298.666 131.420,300.112 129.142 C 301.172 127.471,302.903 123.972,302.903 123.501 C 302.903 123.263,303.014 122.999,303.150 122.915 C 303.286 122.831,303.401 122.464,303.406 122.098 C 303.411 121.732,303.574 121.155,303.768 120.815 C 303.962 120.476,304.126 119.809,304.133 119.333 C 304.140 118.857,304.306 118.023,304.502 117.480 C 305.018 116.049,305.025 107.043,304.512 105.351 C 304.309 104.684,304.142 103.749,304.140 103.274 C 304.137 102.798,303.969 102.090,303.766 101.701 C 303.563 101.312,303.396 100.812,303.394 100.589 C 303.390 100.176,302.823 98.419,302.445 97.650 C 302.329 97.414,302.025 96.776,301.769 96.232 C 301.026 94.654,299.772 92.588,299.069 91.785 C 297.224 89.676,296.710 89.177,295.355 88.178 C 293.681 86.943,293.057 86.534,292.526 86.322 C 292.322 86.241,291.569 85.908,290.852 85.582 C 290.135 85.257,289.269 84.991,288.929 84.991 C 288.589 84.991,287.911 84.824,287.423 84.620 C 286.258 84.133,280.449 84.133,279.185 84.620 M333.045 84.620 C 332.705 84.814,332.214 84.977,331.953 84.982 C 330.737 85.004,325.880 88.785,325.880 89.710 C 325.880 89.813,325.741 90.044,325.571 90.223 C 325.401 90.403,325.014 91.050,324.710 91.662 L 324.158 92.773 324.154 89.736 C 324.149 85.133,323.581 84.785,316.692 85.152 C 312.830 85.357,312.527 85.409,311.935 85.965 L 311.303 86.559 311.303 111.176 C 311.303 130.505,311.370 135.872,311.612 136.165 C 312.526 137.270,313.056 137.369,318.052 137.369 C 322.635 137.369,322.879 137.344,323.682 136.803 L 324.521 136.238 324.649 120.806 C 324.777 105.339,324.812 104.709,325.678 102.162 C 325.817 101.754,325.992 101.147,326.067 100.813 C 326.339 99.612,328.682 97.241,329.823 97.013 C 331.922 96.593,333.585 96.923,334.608 97.962 C 336.672 100.057,336.585 99.203,336.739 118.804 L 336.875 135.941 337.730 136.655 L 338.585 137.369 343.460 137.369 C 347.968 137.369,348.401 137.330,349.214 136.850 L 350.093 136.332 350.095 116.529 C 350.097 94.340,350.138 94.927,348.292 90.920 C 347.667 89.564,345.494 86.986,344.966 86.974 C 344.796 86.970,344.657 86.867,344.657 86.744 C 344.657 86.474,342.049 85.212,340.334 84.651 C 338.718 84.123,333.950 84.103,333.045 84.620 M127.042 85.009 C 127.762 85.156,128.701 85.434,129.129 85.627 C 129.558 85.821,129.982 85.979,130.072 85.979 C 130.886 85.979,135.145 90.437,135.145 91.289 C 135.145 92.819,136.824 93.236,137.274 91.818 C 137.677 90.548,140.816 87.107,141.900 86.749 C 142.057 86.697,142.338 86.533,142.524 86.386 C 145.060 84.373,153.928 84.403,155.956 86.432 C 156.115 86.590,156.373 86.720,156.529 86.720 C 158.293 86.720,161.328 91.472,161.974 95.244 C 162.607 98.939,162.468 135.390,161.819 136.087 C 161.035 136.928,151.010 136.928,150.226 136.087 C 149.729 135.553,149.722 135.314,149.722 118.430 C 149.722 98.317,149.838 99.273,147.153 97.308 C 145.310 95.960,141.574 96.413,139.799 98.200 C 137.326 100.688,137.333 100.624,137.198 119.890 C 137.087 135.710,137.072 136.143,136.600 136.395 C 136.025 136.703,125.412 136.614,125.097 136.298 C 124.984 136.185,124.829 128.403,124.751 119.004 C 124.613 102.120,124.567 101.219,123.750 99.444 C 121.897 95.414,115.786 95.330,113.658 99.307 C 112.426 101.609,112.415 101.777,112.414 118.933 C 112.413 134.536,112.398 135.046,111.924 135.825 L 111.434 136.628 106.033 136.628 C 100.857 136.628,100.613 136.606,100.162 136.108 C 99.506 135.383,99.288 87.977,99.935 86.726 C 100.435 85.759,101.020 85.673,106.438 85.773 C 111.935 85.874,111.653 85.670,111.670 89.561 C 111.676 91.056,111.778 92.432,111.897 92.620 C 112.155 93.027,112.662 92.776,112.662 92.241 C 112.662 91.650,114.875 88.497,115.915 87.607 C 118.639 85.276,123.157 84.221,127.042 85.009 M286.967 85.092 C 290.323 85.667,292.514 86.609,295.347 88.697 C 297.336 90.162,299.824 93.333,301.198 96.155 C 301.616 97.013,302.059 97.908,302.183 98.144 C 302.307 98.380,302.409 98.737,302.409 98.938 C 302.409 99.139,302.563 99.669,302.751 100.115 C 304.959 105.353,304.954 117.304,302.743 122.459 C 302.559 122.887,302.409 123.361,302.409 123.512 C 302.409 123.663,302.307 123.980,302.183 124.216 C 302.059 124.452,301.616 125.347,301.198 126.204 C 298.866 130.992,292.691 136.628,289.777 136.628 C 289.577 136.628,289.308 136.724,289.179 136.842 C 288.917 137.081,284.386 137.863,283.261 137.863 C 282.137 137.863,277.606 137.081,277.344 136.842 C 277.215 136.724,276.946 136.628,276.746 136.628 C 273.849 136.628,268.134 131.371,265.719 126.486 C 265.219 125.473,264.722 124.474,264.616 124.266 C 264.510 124.058,264.341 123.502,264.240 123.031 C 264.139 122.560,263.971 122.063,263.867 121.927 C 263.763 121.791,263.626 121.291,263.562 120.815 C 263.498 120.340,263.322 119.450,263.170 118.839 C 262.106 114.555,262.236 106.875,263.456 101.915 C 266.461 89.700,275.617 83.148,286.967 85.092 M339.728 85.082 C 343.041 85.775,345.405 87.373,347.187 90.124 C 349.719 94.034,349.846 95.340,349.846 117.587 L 349.846 135.858 349.296 136.243 C 348.488 136.809,338.456 136.815,337.890 136.249 C 337.273 135.632,337.249 134.993,337.177 117.727 L 337.109 101.174 336.444 99.815 C 334.961 96.781,332.767 95.673,329.897 96.507 C 328.428 96.934,325.880 99.128,325.880 99.966 C 325.880 100.172,325.744 100.584,325.578 100.881 C 324.592 102.643,324.564 103.124,324.469 119.606 C 324.380 135.155,324.365 135.581,323.884 136.098 C 323.101 136.938,312.772 136.921,312.182 136.078 C 311.607 135.257,311.611 87.112,312.186 86.350 C 312.539 85.883,312.849 85.855,317.727 85.855 C 324.094 85.855,323.638 85.531,323.649 90.068 C 323.659 94.248,323.893 94.526,325.199 91.907 C 328.032 86.225,333.319 83.741,339.728 85.082 M222.995 85.823 L 222.112 86.655 222.112 90.406 C 222.112 96.418,221.578 96.093,231.604 96.172 C 239.431 96.234,239.922 96.300,239.047 97.174 C 238.838 97.384,238.666 97.666,238.666 97.800 C 238.666 97.934,238.582 98.081,238.481 98.126 C 238.379 98.172,237.851 98.874,237.307 99.687 C 236.763 100.500,236.232 101.278,236.126 101.416 C 234.860 103.071,232.983 105.805,232.983 105.995 C 232.983 106.129,232.896 106.238,232.790 106.238 C 232.683 106.238,232.384 106.600,232.125 107.041 C 231.705 107.757,230.882 108.934,227.308 113.931 C 226.761 114.697,226.313 115.447,226.313 115.599 C 226.313 115.750,226.198 115.874,226.058 115.874 C 225.918 115.874,225.731 116.069,225.643 116.306 C 225.555 116.544,224.906 117.525,224.200 118.485 C 222.939 120.200,221.857 121.817,221.150 123.039 C 220.570 124.043,220.431 134.187,220.986 135.035 C 221.621 136.003,222.455 136.290,223.205 135.798 C 223.546 135.575,223.959 135.392,224.123 135.392 C 224.287 135.392,224.596 135.248,224.811 135.072 C 225.025 134.896,225.812 134.546,226.560 134.294 C 227.307 134.043,228.030 133.754,228.166 133.654 C 228.301 133.554,228.885 133.394,229.461 133.299 C 230.038 133.203,230.573 133.024,230.649 132.900 C 230.726 132.776,231.207 132.674,231.718 132.674 C 232.229 132.674,233.224 132.503,233.931 132.293 C 236.247 131.605,246.152 132.067,247.858 132.943 C 248.090 133.062,248.732 133.232,249.284 133.320 C 249.837 133.408,250.349 133.577,250.422 133.695 C 250.494 133.813,250.725 133.910,250.935 133.910 C 251.144 133.910,251.721 134.089,252.217 134.307 C 253.171 134.727,254.061 135.117,255.447 135.721 C 256.412 136.142,257.071 135.874,257.796 134.766 C 258.417 133.818,258.357 126.325,257.719 125.135 C 257.079 123.941,254.139 122.051,252.920 122.051 C 252.750 122.051,252.392 121.899,252.124 121.714 C 251.856 121.529,251.303 121.314,250.896 121.236 C 249.601 120.990,247.710 120.545,246.897 120.295 C 246.464 120.163,244.612 119.986,242.781 119.903 C 239.330 119.747,239.161 119.676,239.958 118.715 C 240.508 118.052,243.113 114.368,243.113 114.254 C 243.113 114.182,243.224 113.989,243.360 113.825 C 244.148 112.875,245.831 110.400,245.831 110.191 C 245.831 110.055,245.914 109.944,246.016 109.943 C 246.118 109.942,246.479 109.525,246.819 109.016 C 247.159 108.508,247.522 107.980,247.627 107.844 C 247.731 107.708,248.480 106.652,249.290 105.497 C 250.100 104.342,250.848 103.284,250.953 103.146 C 251.057 103.008,251.699 102.065,252.378 101.050 C 253.057 100.034,253.863 98.925,254.169 98.585 C 254.475 98.245,254.725 97.870,254.725 97.753 C 254.725 97.635,255.038 97.134,255.421 96.638 C 257.518 93.928,258.031 87.250,256.269 85.616 L 255.595 84.991 239.736 84.991 L 223.877 84.991 222.995 85.823 M256.372 86.062 C 256.486 86.175,256.578 88.010,256.578 90.138 L 256.578 94.009 254.679 96.850 C 253.635 98.413,252.113 100.636,251.297 101.791 C 250.480 102.946,249.077 104.947,248.179 106.238 C 244.648 111.309,243.732 112.620,242.221 114.762 C 241.358 115.985,240.562 117.097,240.452 117.233 C 238.218 119.986,238.296 120.132,242.125 120.353 C 245.093 120.524,247.990 120.914,249.043 121.284 C 249.382 121.403,250.383 121.706,251.266 121.956 C 256.763 123.515,257.534 124.462,257.649 129.791 C 257.779 135.780,257.421 136.184,253.594 134.373 C 252.768 133.983,251.960 133.663,251.799 133.663 C 251.638 133.663,251.314 133.558,251.078 133.430 C 250.595 133.169,248.826 132.668,246.078 132.016 C 243.424 131.386,235.143 131.386,232.489 132.016 C 230.032 132.599,228.059 133.148,227.301 133.461 C 225.729 134.107,225.122 134.370,224.062 134.863 C 221.329 136.133,221.124 135.768,221.124 129.618 C 221.124 124.727,221.336 123.216,222.170 122.174 C 222.279 122.038,223.228 120.702,224.279 119.205 C 225.329 117.708,226.660 115.818,227.236 115.005 C 227.812 114.192,228.890 112.637,229.630 111.550 C 230.371 110.463,231.756 108.462,232.709 107.103 C 234.474 104.585,235.538 103.053,238.511 98.747 C 240.840 95.374,241.330 95.615,232.142 95.615 C 223.511 95.615,223.250 95.575,222.870 94.206 C 222.261 92.012,222.649 86.469,223.450 85.918 C 223.819 85.664,256.116 85.805,256.372 86.062 M281.706 94.470 C 277.597 95.623,275.842 100.495,275.908 110.562 C 275.994 123.675,278.715 129.092,284.605 127.879 C 289.170 126.938,290.920 122.412,290.920 111.550 C 290.920 97.956,288.075 92.682,281.706 94.470 M286.238 95.342 C 289.064 96.857,290.518 102.396,290.525 111.674 C 290.534 122.468,288.274 127.486,283.404 127.486 C 281.199 127.486,278.196 125.446,278.196 123.948 C 278.196 123.874,278.065 123.499,277.904 123.117 C 276.008 118.615,275.974 103.141,277.851 98.913 C 278.041 98.484,278.196 98.068,278.196 97.988 C 278.196 97.848,278.641 97.293,279.603 96.232 C 280.898 94.803,284.365 94.338,286.238 95.342 M70.537 112.168 C 70.266 112.285,69.785 112.388,69.470 112.398 C 67.104 112.469,63.565 115.007,62.401 117.468 C 61.743 118.857,61.436 123.794,61.986 124.134 C 62.107 124.208,62.278 124.556,62.366 124.906 C 63.144 128.008,68.109 129.201,71.155 127.017 C 74.530 124.597,76.793 117.521,75.734 112.699 L 75.563 111.921 73.297 111.938 C 72.051 111.948,70.809 112.051,70.537 112.168 M193.422 112.034 C 193.350 112.106,192.689 112.276,191.952 112.412 C 190.636 112.656,190.119 112.840,188.635 113.592 C 181.616 117.153,183.075 128.884,190.449 128.175 C 195.370 127.702,198.585 122.143,198.347 114.515 L 198.271 112.044 195.911 111.974 C 194.614 111.936,193.493 111.963,193.422 112.034 M75.305 115.256 C 75.389 118.670,74.985 120.807,73.811 123.162 C 73.092 124.603,71.239 126.745,70.711 126.745 C 70.567 126.745,70.275 126.919,70.062 127.132 C 69.054 128.140,65.045 127.593,63.742 126.271 C 62.490 125.000,61.401 119.988,62.261 119.456 C 62.397 119.372,62.508 119.059,62.508 118.759 C 62.508 117.537,65.084 114.161,66.036 114.137 C 66.202 114.132,66.553 113.966,66.817 113.766 C 67.081 113.567,67.531 113.403,67.817 113.403 C 68.104 113.403,68.455 113.287,68.597 113.145 C 68.739 113.003,69.892 112.780,71.160 112.649 C 72.428 112.517,73.526 112.350,73.599 112.277 C 73.672 112.204,74.069 112.178,74.482 112.218 L 75.232 112.292 75.305 115.256 M197.501 116.419 C 197.472 120.632,197.475 120.616,196.343 123.039 C 194.758 126.430,192.541 127.718,188.603 127.534 C 184.254 127.331,183.229 118.757,187.130 115.209 C 188.302 114.144,189.573 113.403,190.233 113.403 C 190.478 113.403,190.997 113.237,191.386 113.034 C 191.775 112.831,192.705 112.653,193.453 112.639 C 194.200 112.625,195.090 112.521,195.429 112.409 C 195.769 112.298,196.380 112.225,196.788 112.249 L 197.529 112.292 197.501 116.419 " stroke="none" fill="#ffffff" fill-rule="evenodd"></path><path id="path4" d="M236.381 138.748 C 236.288 138.841,235.194 139.011,233.950 139.126 C 232.706 139.241,231.562 139.436,231.409 139.559 C 231.256 139.683,230.686 139.837,230.142 139.902 C 227.344 140.236,221.335 143.270,220.670 144.684 C 219.921 146.278,223.341 146.941,227.604 146.027 C 229.065 145.714,239.817 145.680,240.007 145.988 C 240.082 146.109,240.518 146.277,240.976 146.363 C 242.472 146.644,242.744 147.218,242.731 150.059 C 242.725 151.436,242.622 152.786,242.503 153.057 C 242.384 153.329,242.149 154.107,241.981 154.787 C 241.401 157.136,240.926 158.619,240.231 160.260 C 240.050 160.688,239.901 161.194,239.901 161.384 C 239.901 161.574,239.804 161.835,239.685 161.964 C 239.565 162.093,239.222 162.922,238.922 163.805 C 238.622 164.688,238.290 165.522,238.185 165.658 C 237.377 166.699,237.806 168.993,238.809 168.993 C 240.334 168.993,246.572 162.115,246.572 160.433 C 246.572 160.272,246.655 160.103,246.757 160.058 C 246.859 160.012,247.147 159.531,247.396 158.987 C 247.646 158.443,248.007 157.684,248.199 157.299 C 248.391 156.915,248.552 156.414,248.556 156.188 C 248.561 155.961,248.727 155.559,248.927 155.296 C 249.126 155.032,249.293 154.532,249.298 154.184 C 249.302 153.836,249.469 153.336,249.668 153.072 C 249.868 152.808,250.031 152.231,250.031 151.789 C 250.031 151.348,250.142 150.918,250.278 150.834 C 250.414 150.750,250.527 150.271,250.529 149.769 C 250.531 149.268,250.694 148.190,250.891 147.375 C 251.853 143.391,250.617 139.839,248.268 139.839 C 247.997 139.839,247.551 139.720,247.278 139.574 C 246.224 139.009,236.831 138.297,236.381 138.748 M246.325 139.812 C 250.120 140.757,250.355 140.988,250.473 143.888 C 250.710 149.767,248.467 157.052,244.667 162.745 C 243.192 164.955,240.464 167.904,239.599 168.224 C 238.262 168.719,237.733 167.667,238.541 166.118 C 238.744 165.729,238.911 165.223,238.911 164.993 C 238.912 164.763,239.020 164.509,239.151 164.428 C 239.282 164.347,239.493 163.924,239.620 163.487 C 239.747 163.050,240.205 161.748,240.637 160.593 C 241.069 159.438,241.521 158.159,241.642 157.752 C 244.031 149.706,243.919 147.072,241.137 145.842 C 239.933 145.311,233.379 145.147,228.660 145.531 C 226.621 145.697,224.084 145.883,223.022 145.944 L 221.090 146.055 221.169 145.242 C 221.229 144.618,221.476 144.272,222.236 143.745 C 223.253 143.040,226.080 141.569,226.418 141.569 C 226.523 141.569,226.959 141.419,227.387 141.237 C 228.440 140.787,230.568 140.186,232.366 139.830 C 233.181 139.669,233.959 139.502,234.095 139.461 C 235.182 139.125,244.661 139.398,246.325 139.812 M90.982 142.185 C 89.455 143.283,90.290 144.711,94.377 147.993 C 94.970 148.468,95.663 149.057,95.917 149.302 C 96.709 150.062,102.998 154.663,103.245 154.663 C 103.374 154.663,103.517 154.747,103.562 154.849 C 103.688 155.133,107.978 157.924,108.498 158.060 C 108.750 158.126,108.956 158.258,108.956 158.354 C 108.956 158.450,109.466 158.799,110.089 159.129 C 111.812 160.040,112.185 160.264,112.485 160.564 C 112.637 160.716,112.961 160.840,113.206 160.840 C 113.450 160.840,113.650 160.925,113.650 161.029 C 113.650 161.132,113.871 161.327,114.140 161.461 C 115.775 162.275,118.738 163.745,120.413 164.573 C 121.482 165.102,122.552 165.534,122.791 165.534 C 123.030 165.534,123.364 165.701,123.533 165.905 C 123.702 166.109,124.028 166.275,124.257 166.275 C 124.486 166.275,124.890 166.439,125.154 166.638 C 125.417 166.838,125.811 167.004,126.028 167.009 C 126.391 167.016,127.497 167.462,128.533 168.021 C 128.769 168.148,129.164 168.252,129.412 168.252 C 129.660 168.252,130.078 168.415,130.342 168.615 C 130.606 168.814,131.059 168.981,131.349 168.985 C 131.639 168.990,132.195 169.159,132.584 169.362 C 132.974 169.565,133.474 169.732,133.696 169.733 C 133.919 169.734,134.419 169.900,134.808 170.103 C 135.197 170.306,135.815 170.473,136.181 170.474 C 136.546 170.475,136.910 170.580,136.989 170.708 C 137.068 170.836,137.632 171.016,138.242 171.108 C 138.852 171.199,139.412 171.372,139.486 171.492 C 139.561 171.613,140.032 171.715,140.533 171.720 C 141.035 171.725,141.723 171.887,142.063 172.082 C 142.403 172.276,143.105 172.439,143.623 172.443 C 144.142 172.448,144.809 172.586,145.106 172.750 C 145.403 172.914,146.257 173.132,147.004 173.235 C 147.752 173.337,149.364 173.598,150.587 173.815 C 151.810 174.032,153.896 174.310,155.223 174.434 C 156.549 174.557,158.106 174.789,158.681 174.949 C 160.120 175.348,180.304 175.351,181.754 174.952 C 182.318 174.797,183.818 174.566,185.089 174.439 C 186.360 174.312,188.400 174.031,189.623 173.816 C 190.846 173.600,192.517 173.334,193.337 173.223 C 194.157 173.112,195.067 172.893,195.359 172.737 C 195.652 172.580,196.225 172.452,196.632 172.452 C 197.040 172.452,197.687 172.326,198.069 172.171 C 198.452 172.017,199.209 171.802,199.753 171.693 C 201.889 171.267,203.222 170.908,203.447 170.697 C 203.576 170.575,203.948 170.476,204.274 170.476 C 204.600 170.476,205.217 170.319,205.645 170.128 C 206.073 169.936,206.702 169.725,207.041 169.658 C 207.707 169.528,208.922 169.110,210.167 168.582 C 210.595 168.400,211.117 168.252,211.326 168.252 C 211.535 168.252,211.775 168.141,211.859 168.005 C 211.943 167.869,212.183 167.758,212.392 167.758 C 212.777 167.758,213.996 167.282,215.276 166.631 C 215.661 166.435,216.098 166.275,216.248 166.275 C 216.536 166.275,217.247 165.957,221.277 164.019 C 222.652 163.358,223.903 162.817,224.057 162.817 C 224.210 162.817,224.336 162.716,224.336 162.594 C 224.336 162.471,224.642 162.253,225.015 162.109 C 225.389 161.966,226.251 161.512,226.930 161.101 C 227.610 160.690,228.388 160.240,228.660 160.099 C 228.931 159.959,229.487 159.622,229.895 159.351 C 230.303 159.080,230.831 158.790,231.069 158.708 C 231.306 158.626,231.501 158.461,231.501 158.341 C 231.501 158.221,231.605 158.122,231.732 158.122 C 233.143 158.122,236.936 154.434,236.936 153.062 C 236.936 150.464,234.161 149.941,230.431 151.837 C 230.046 152.033,229.532 152.193,229.288 152.193 C 229.043 152.193,228.705 152.359,228.536 152.563 C 228.367 152.767,228.024 152.934,227.773 152.934 C 227.361 152.934,226.141 153.385,225.019 153.952 C 224.783 154.072,224.387 154.169,224.140 154.169 C 223.892 154.169,223.473 154.332,223.210 154.532 C 222.946 154.731,222.446 154.898,222.098 154.903 C 221.750 154.907,221.250 155.074,220.986 155.273 C 220.722 155.473,220.299 155.639,220.046 155.644 C 219.620 155.651,217.717 156.207,216.553 156.664 C 216.282 156.771,215.674 156.934,215.203 157.028 C 214.732 157.121,214.176 157.281,213.967 157.383 C 213.437 157.645,211.574 158.124,210.253 158.340 C 209.642 158.440,208.899 158.654,208.602 158.816 C 208.305 158.978,207.749 159.112,207.366 159.114 C 206.984 159.116,206.226 159.278,205.683 159.474 C 205.139 159.670,204.284 159.835,203.782 159.841 C 203.281 159.847,202.812 159.947,202.740 160.062 C 202.669 160.178,201.864 160.343,200.952 160.428 C 200.040 160.513,199.180 160.696,199.042 160.835 C 198.903 160.974,198.218 161.087,197.519 161.087 C 196.821 161.087,195.703 161.253,195.036 161.455 C 194.369 161.657,193.212 161.827,192.464 161.832 C 191.717 161.836,190.661 161.950,190.117 162.085 C 185.497 163.228,157.814 163.226,153.924 162.082 C 153.449 161.942,152.358 161.828,151.499 161.828 C 150.640 161.828,149.711 161.708,149.436 161.560 C 149.161 161.413,148.084 161.231,147.044 161.157 C 146.003 161.082,144.956 160.920,144.717 160.797 C 144.478 160.674,143.588 160.471,142.740 160.345 C 139.840 159.917,138.480 159.652,137.785 159.382 C 137.402 159.232,136.735 159.107,136.303 159.102 C 135.870 159.097,135.238 158.934,134.898 158.740 C 134.558 158.546,133.870 158.383,133.369 158.378 C 132.867 158.373,132.390 158.261,132.308 158.129 C 132.227 157.998,131.606 157.816,130.929 157.726 C 130.252 157.637,129.639 157.467,129.566 157.349 C 129.493 157.231,129.236 157.134,128.996 157.134 C 128.472 157.134,125.319 156.214,124.710 155.884 C 124.474 155.756,124.070 155.652,123.812 155.652 C 123.554 155.652,123.024 155.486,122.635 155.283 C 122.246 155.080,121.745 154.913,121.523 154.912 C 121.301 154.911,120.800 154.744,120.411 154.541 C 120.022 154.338,119.516 154.172,119.286 154.171 C 119.056 154.170,118.799 154.058,118.715 153.922 C 118.631 153.786,118.312 153.675,118.007 153.675 C 117.701 153.675,117.235 153.512,116.971 153.312 C 116.707 153.113,116.263 152.946,115.983 152.942 C 115.703 152.937,115.258 152.771,114.995 152.571 C 114.731 152.372,114.330 152.205,114.103 152.201 C 113.876 152.196,113.376 152.033,112.991 151.837 C 112.606 151.642,111.847 151.301,111.303 151.079 C 108.717 150.026,107.516 149.504,106.694 149.076 C 106.334 148.888,105.909 148.734,105.750 148.734 C 105.592 148.734,105.295 148.567,105.091 148.363 C 104.887 148.159,104.506 147.993,104.244 147.993 C 103.982 147.993,103.768 147.881,103.768 147.746 C 103.768 147.610,103.573 147.494,103.335 147.488 C 103.098 147.482,102.458 147.205,101.915 146.872 C 101.371 146.539,100.760 146.199,100.556 146.117 C 99.660 145.757,98.356 145.088,96.978 144.282 C 96.160 143.803,95.046 143.192,94.503 142.923 C 93.959 142.654,93.450 142.346,93.371 142.240 C 93.061 141.820,91.538 141.786,90.982 142.185 M93.758 143.071 C 94.575 143.490,95.800 144.155,96.479 144.549 C 98.494 145.717,108.207 150.463,108.584 150.463 C 108.645 150.463,109.282 150.732,109.999 151.060 C 110.717 151.388,112.248 152.012,113.403 152.448 C 114.558 152.883,115.854 153.393,116.282 153.581 C 116.710 153.769,117.170 153.922,117.304 153.922 C 117.438 153.922,117.865 154.088,118.255 154.291 C 118.644 154.494,119.150 154.661,119.380 154.662 C 119.610 154.663,119.867 154.775,119.951 154.910 C 120.035 155.046,120.315 155.158,120.574 155.158 C 120.834 155.158,121.411 155.313,121.857 155.504 C 122.303 155.694,123.335 156.044,124.151 156.280 C 124.966 156.516,125.911 156.796,126.251 156.902 C 126.954 157.121,128.949 157.677,130.945 158.210 C 131.692 158.410,132.804 158.711,133.416 158.881 C 134.027 159.050,134.972 159.277,135.516 159.385 C 136.059 159.494,137.282 159.757,138.233 159.971 C 140.946 160.580,143.537 161.083,145.151 161.314 C 145.967 161.431,147.301 161.645,148.116 161.789 C 155.034 163.010,162.282 163.533,172.329 163.535 C 180.292 163.537,187.581 163.104,192.464 162.340 C 198.555 161.388,199.777 161.180,202.224 160.679 C 203.175 160.485,204.465 160.228,205.091 160.109 C 205.718 159.990,206.663 159.775,207.192 159.632 C 207.720 159.488,209.098 159.134,210.253 158.845 C 212.996 158.158,214.519 157.749,216.183 157.256 C 216.930 157.034,217.875 156.759,218.283 156.644 C 219.258 156.370,220.560 155.915,221.565 155.496 C 222.011 155.310,222.573 155.158,222.813 155.158 C 223.053 155.158,223.355 155.067,223.484 154.957 C 223.613 154.847,224.526 154.500,225.513 154.187 C 226.500 153.874,227.368 153.519,227.442 153.399 C 227.516 153.279,227.778 153.181,228.025 153.181 C 228.412 153.181,230.879 152.224,232.701 151.366 C 235.915 149.854,237.974 153.438,235.020 155.402 C 234.512 155.741,234.040 156.079,233.972 156.153 C 233.775 156.369,230.777 158.369,230.651 158.369 C 230.589 158.369,230.043 158.703,229.439 159.111 C 228.835 159.518,228.276 159.852,228.196 159.852 C 228.116 159.852,227.354 160.270,226.502 160.780 C 224.920 161.729,220.749 163.824,218.530 164.784 C 217.851 165.077,216.961 165.469,216.553 165.653 C 216.146 165.837,214.867 166.346,213.712 166.784 C 212.557 167.222,211.390 167.666,211.118 167.772 C 210.668 167.947,207.200 169.099,205.065 169.783 C 204.589 169.935,203.867 170.146,203.459 170.252 C 203.051 170.357,202.051 170.622,201.235 170.839 C 198.643 171.531,196.821 171.976,195.676 172.195 C 195.065 172.313,193.620 172.594,192.464 172.821 C 180.337 175.202,165.984 175.521,152.810 173.702 C 150.065 173.323,145.447 172.434,142.928 171.800 C 140.078 171.082,138.476 170.666,137.863 170.483 C 137.523 170.381,136.578 170.102,135.763 169.863 C 133.514 169.203,129.929 167.999,129.055 167.610 C 128.626 167.420,128.152 167.264,128.001 167.264 C 127.850 167.264,127.533 167.158,127.297 167.029 C 127.061 166.899,126.424 166.613,125.880 166.393 C 125.337 166.172,124.558 165.849,124.151 165.674 C 123.743 165.499,123.132 165.243,122.792 165.104 C 121.516 164.582,113.972 160.811,112.786 160.102 C 112.106 159.696,111.384 159.287,111.180 159.193 C 110.749 158.993,105.247 155.637,104.880 155.350 C 103.697 154.425,101.498 152.934,101.317 152.934 C 101.193 152.934,101.054 152.834,101.009 152.713 C 100.964 152.591,99.981 151.793,98.826 150.939 C 97.671 150.085,96.597 149.267,96.439 149.122 C 96.281 148.976,95.828 148.610,95.432 148.308 C 93.481 146.818,90.673 144.034,90.673 143.589 C 90.673 142.255,91.796 142.067,93.758 143.071 " stroke="none" fill="#f39807" fill-rule="evenodd"></path></g></svg>
