<svg id="svg" xmlns="http://www.w3.org/2000/svg" xmlns:xlink="http://www.w3.org/1999/xlink" width="400" height="66.30316248636859" viewBox="0, 0, 400,66.30316248636859" version="1.1"><g id="svgg"><path id="path0" d="M22.667 0.112 C 22.438 0.149,21.537 0.292,20.667 0.430 C 11.124 1.945,0.170 9.185,0.166 13.981 C 0.163 16.712,2.150 18.709,3.513 17.346 C 4.125 16.734,4.123 16.299,3.500 15.250 C 2.679 13.867,2.937 13.054,4.726 11.380 C 11.472 5.070,19.987 2.142,29.110 2.996 L 31.396 3.210 31.865 2.686 C 32.946 1.475,32.263 0.580,29.999 0.240 C 28.556 0.023,23.745 -0.061,22.667 0.112 M35.730 1.985 C 35.122 2.356,34.901 3.026,35.172 3.681 C 35.373 4.166,35.675 4.342,37.583 5.089 C 46.824 8.709,54.301 17.916,55.916 27.667 C 56.336 30.198,56.640 30.623,57.922 30.471 C 59.164 30.324,59.250 28.826,58.241 24.917 C 55.582 14.610,48.128 6.173,38.229 2.267 C 36.466 1.571,36.418 1.566,35.730 1.985 M23.000 7.113 C 17.660 7.660,11.742 10.412,7.875 14.147 C 6.888 15.101,6.759 15.648,7.345 16.394 C 7.988 17.211,8.672 17.030,10.500 15.556 C 19.762 8.090,32.232 7.892,40.750 15.076 C 42.389 16.458,42.798 16.570,43.662 15.870 C 44.758 14.983,43.750 13.536,40.587 11.455 C 35.385 8.031,29.125 6.486,23.000 7.113 M23.917 14.104 C 21.627 14.351,20.833 14.804,20.833 15.863 C 20.833 17.054,21.602 17.306,24.241 16.983 C 32.281 15.997,40.123 21.639,41.837 29.644 C 42.203 31.355,42.230 34.170,41.904 36.672 C 41.717 38.103,43.154 38.873,44.149 37.875 C 45.381 36.640,45.373 30.730,44.133 27.093 C 41.264 18.674,32.681 13.159,23.917 14.104 M103.000 16.594 C 102.771 16.633,102.058 16.749,101.417 16.851 C 97.778 17.432,94.409 19.501,92.098 22.571 C 83.169 34.435,93.103 52.201,107.051 49.315 C 113.515 47.978,118.721 42.741,115.232 41.086 C 114.113 40.555,113.771 40.713,111.849 42.648 C 103.738 50.812,90.978 42.509,93.148 30.478 C 94.894 20.799,105.046 16.975,111.636 23.514 C 113.520 25.384,114.547 25.532,115.509 24.072 C 117.521 21.020,108.544 15.654,103.000 16.594 M141.667 16.823 C 131.162 19.041,125.786 31.668,131.183 41.445 C 137.346 52.611,152.457 52.221,158.129 40.750 C 164.090 28.694,154.114 14.194,141.667 16.823 M175.960 17.085 C 174.957 17.650,175.000 16.937,175.000 33.083 C 175.000 49.293,174.953 48.542,175.995 49.081 C 176.969 49.584,178.080 49.327,178.734 48.446 C 179.079 47.982,179.084 47.828,179.167 36.333 L 179.250 24.691 182.500 28.717 C 184.287 30.932,187.139 34.471,188.838 36.580 C 198.852 49.023,198.802 48.964,199.434 49.172 C 200.247 49.441,201.274 49.280,201.782 48.805 C 202.708 47.940,202.667 48.690,202.667 32.950 L 202.667 18.383 202.287 17.819 C 201.511 16.668,200.073 16.517,199.105 17.485 L 198.583 18.006 198.500 30.017 L 198.417 42.028 189.833 31.329 C 185.112 25.444,180.866 20.131,180.397 19.523 C 178.325 16.835,177.352 16.300,175.960 17.085 M217.188 17.314 C 216.278 18.163,216.523 19.659,217.669 20.251 C 218.064 20.455,219.032 20.500,223.075 20.500 L 228.000 20.500 228.000 34.296 C 228.000 49.454,227.938 48.534,229.002 49.084 C 230.008 49.605,231.486 49.164,231.837 48.239 C 231.938 47.974,232.000 42.624,232.000 34.156 L 232.000 20.500 236.925 20.500 C 242.203 20.500,242.493 20.459,243.073 19.631 C 243.471 19.062,243.404 18.007,242.932 17.417 L 242.532 16.917 230.120 16.872 L 217.709 16.827 217.188 17.314 M258.365 17.059 C 257.272 17.666,257.336 16.667,257.334 33.127 L 257.333 48.005 257.885 48.607 C 258.772 49.574,259.926 49.614,260.832 48.707 L 261.500 48.039 261.500 42.853 L 261.500 37.667 265.828 37.667 L 270.155 37.667 270.911 38.833 C 272.311 40.994,273.110 42.242,274.166 43.917 C 277.703 49.524,278.143 49.942,279.651 49.132 C 281.269 48.262,281.120 47.380,278.719 43.602 C 277.636 41.898,276.244 39.700,275.625 38.716 L 274.500 36.928 275.482 36.526 C 284.071 33.002,282.659 18.980,273.516 17.019 C 272.215 16.740,258.877 16.775,258.365 17.059 M307.376 17.107 C 306.718 17.432,306.375 17.968,305.579 19.917 C 305.242 20.742,304.719 22.017,304.418 22.750 C 304.116 23.483,303.453 25.096,302.944 26.333 C 302.435 27.571,301.706 29.333,301.325 30.250 C 300.566 32.070,300.016 33.407,298.616 36.833 C 298.110 38.071,297.006 40.733,296.162 42.750 C 294.196 47.447,294.100 48.359,295.495 49.081 C 297.511 50.123,297.914 49.559,301.297 40.957 L 301.740 39.830 308.635 39.873 L 315.530 39.917 317.232 44.130 C 319.206 49.015,319.367 49.250,320.751 49.250 C 321.542 49.250,321.726 49.184,322.169 48.742 C 323.249 47.661,323.683 48.928,315.244 28.500 C 314.846 27.537,313.719 24.800,312.738 22.417 C 311.757 20.033,310.796 17.907,310.603 17.692 C 309.818 16.823,308.454 16.576,307.376 17.107 M338.067 17.400 L 337.500 17.967 337.500 33.310 L 337.500 48.654 337.865 48.994 C 338.166 49.274,338.452 49.333,339.500 49.333 C 341.556 49.333,341.403 49.795,341.500 43.305 L 341.583 37.750 345.932 37.706 L 350.280 37.661 351.570 39.706 C 352.907 41.824,355.248 45.487,356.667 47.678 C 357.958 49.672,359.744 49.957,360.599 48.303 C 361.128 47.280,360.865 46.720,357.164 41.000 C 355.657 38.672,354.629 36.982,354.690 36.932 C 354.723 36.905,355.350 36.599,356.083 36.251 C 362.090 33.402,363.188 24.682,358.172 19.655 C 355.526 17.002,354.824 16.843,345.775 16.837 L 338.633 16.833 338.067 17.400 M374.570 17.024 C 374.104 17.250,373.667 18.024,373.667 18.624 C 373.667 19.099,375.167 21.676,382.310 33.475 L 384.667 37.368 384.667 42.536 C 384.667 48.869,384.817 49.333,386.866 49.333 C 388.669 49.333,388.833 48.772,388.833 42.602 L 388.833 37.505 392.528 31.377 C 396.968 24.015,397.534 23.074,397.750 22.703 C 397.842 22.546,398.307 21.775,398.784 20.990 C 400.433 18.277,400.179 16.833,398.053 16.833 C 396.682 16.833,396.758 16.731,391.667 25.403 C 389.054 29.853,386.842 33.494,386.750 33.494 C 386.658 33.495,385.924 32.353,385.118 30.956 C 384.312 29.559,383.059 27.404,382.333 26.167 C 381.608 24.929,380.242 22.575,379.299 20.934 C 376.923 16.804,376.221 16.223,374.570 17.024 M14.581 17.743 C 12.256 19.396,11.678 20.466,12.606 21.394 C 13.427 22.215,15.474 21.263,16.958 19.369 C 18.079 17.940,16.155 16.624,14.581 17.743 M46.583 19.026 C 45.557 19.587,45.598 20.284,46.798 22.667 C 51.453 31.916,49.573 42.605,42.010 49.890 C 40.031 51.797,39.793 52.486,40.860 53.233 C 41.813 53.901,42.567 53.470,45.206 50.750 C 52.544 43.183,54.260 31.077,49.371 21.350 C 48.214 19.048,47.552 18.496,46.583 19.026 M146.728 20.582 C 153.565 22.030,157.521 30.557,154.823 38.029 C 151.515 47.188,140.154 48.622,135.317 40.491 C 129.586 30.856,136.694 18.456,146.728 20.582 M273.417 21.000 C 278.458 23.520,278.133 31.979,272.929 33.725 C 272.233 33.958,271.294 34.000,266.804 34.000 L 261.500 34.000 261.500 27.244 L 261.500 20.487 267.042 20.535 C 272.574 20.583,272.585 20.584,273.417 21.000 M353.587 21.025 C 357.646 23.168,358.396 29.499,354.957 32.591 C 353.443 33.951,353.093 34.011,346.946 33.961 L 341.583 33.917 341.540 27.200 L 341.496 20.484 347.123 20.533 L 352.750 20.583 353.587 21.025 M308.833 22.016 C 308.833 22.117,308.942 22.436,309.075 22.725 C 309.208 23.014,309.888 24.712,310.587 26.500 C 311.285 28.287,312.260 30.762,312.753 32.000 C 313.245 33.237,313.837 34.756,314.067 35.375 L 314.485 36.500 308.558 36.500 C 303.884 36.500,302.648 36.456,302.713 36.292 C 302.758 36.177,303.902 33.346,305.253 30.000 C 306.605 26.654,307.896 23.448,308.122 22.875 C 308.490 21.940,308.833 21.526,308.833 22.016 M56.679 35.272 C 56.489 35.514,56.333 35.758,56.333 35.814 C 56.330 36.351,55.605 40.072,55.273 41.250 C 52.572 50.844,45.139 58.583,35.583 61.752 C 32.602 62.740,32.500 62.806,32.500 63.742 C 32.500 65.047,33.331 65.411,35.141 64.901 C 45.003 62.119,53.146 54.760,56.979 45.166 C 58.242 42.004,59.383 36.590,58.987 35.635 C 58.604 34.711,57.284 34.503,56.679 35.272 M7.198 41.844 C 4.872 43.007,3.991 45.136,5.511 45.922 C 6.222 46.290,6.713 46.130,7.368 45.315 C 8.734 43.615,9.854 43.731,11.676 45.760 C 18.241 53.068,30.043 54.163,37.571 48.163 C 41.682 44.887,42.872 42.366,40.530 41.898 C 39.955 41.783,40.058 41.699,37.677 44.225 C 32.399 49.827,23.559 50.819,16.929 46.553 C 16.276 46.132,14.925 44.958,13.899 43.918 C 11.232 41.215,9.519 40.684,7.198 41.844 M7.576 49.742 C 5.707 51.612,12.695 56.601,19.638 58.354 C 26.322 60.042,37.000 58.429,37.000 55.732 C 37.000 54.432,36.025 54.119,34.137 54.812 C 26.124 57.752,17.347 56.213,10.772 50.715 C 8.904 49.153,8.338 48.980,7.576 49.742 M0.409 52.409 C -0.481 53.299,-0.009 54.173,2.851 56.922 C 8.764 62.607,16.387 65.831,24.590 66.118 L 27.263 66.211 27.748 65.794 C 28.403 65.230,28.429 64.292,27.804 63.754 C 27.415 63.419,27.138 63.376,24.812 63.285 C 16.595 62.962,9.153 59.581,3.633 53.663 C 1.875 51.779,1.273 51.545,0.409 52.409 " stroke="none" fill="#f8f8f8" fill-rule="evenodd"></path></g></svg>
