<?xml version="1.0" encoding="UTF-8" standalone="no"?>
<svg
   xmlns:dc="http://purl.org/dc/elements/1.1/"
   xmlns:cc="http://creativecommons.org/ns#"
   xmlns:rdf="http://www.w3.org/1999/02/22-rdf-syntax-ns#"
   xmlns:svg="http://www.w3.org/2000/svg"
   xmlns="http://www.w3.org/2000/svg"
   xmlns:sodipodi="http://sodipodi.sourceforge.net/DTD/sodipodi-0.dtd"
   xmlns:inkscape="http://www.inkscape.org/namespaces/inkscape"
   inkscape:version="1.0rc1 (09960d6, 2020-04-09)"
   sodipodi:docname="cravern.svg"
   viewBox="0 0 1000 500"
   height="500"
   width="1000"
   version="1.1"
   id="svg">
  <metadata
     id="metadata7299">
    <rdf:RDF>
      <cc:Work
         rdf:about="">
        <dc:format>image/svg+xml</dc:format>
        <dc:type
           rdf:resource="http://purl.org/dc/dcmitype/StillImage" />
        <dc:title></dc:title>
      </cc:Work>
    </rdf:RDF>
  </metadata>
  <defs
     id="defs7297" />
  <sodipodi:namedview
     inkscape:current-layer="svg"
     inkscape:window-maximized="0"
     inkscape:window-y="71"
     inkscape:window-x="90"
     inkscape:cy="285.7035"
     inkscape:cx="555.83319"
     inkscape:zoom="0.61520126"
     showgrid="false"
     id="namedview7295"
     inkscape:window-height="741"
     inkscape:window-width="1428"
     inkscape:pageshadow="2"
     inkscape:pageopacity="0"
     guidetolerance="10"
     gridtolerance="10"
     objecttolerance="10"
     borderopacity="1"
     bordercolor="#666666"
     pagecolor="#ffffff" />
  <g
     transform="matrix(2.7830285,0,0,2.8366389,-38.824303,118.03877)"
     id="svgg">
    <path
       inkscape:connector-curvature="0"
       fill-rule="evenodd"
       fill="#ffffff"
       stroke="none"
       d="m 271.5,18.354 c -8.263,0.554 -13.325,2.61 -14.929,6.063 -0.213,0.458 -0.839,2.483 -1.392,4.5 -0.963,3.512 -1.691,6.02 -4.643,16 -4.202,14.202 -5.951,21.604 -7.359,31.143 l -0.464,3.143 0.602,0.266 c 1.092,0.482 3.744,0.382 4.816,-0.183 2.522,-1.329 2.732,-1.812 4.939,-11.369 1.63,-7.061 1.594,-6.917 1.762,-6.917 0.456,0 3.294,1.419 4.918,2.459 2.029,1.299 3.387,2.489 7.75,6.791 8.86,8.738 12.085,10.465 19.583,10.489 6.131,0.02 8.901,-1.376 8.913,-4.489 0.008,-2.254 -1.616,-2.926 -5.677,-2.35 -4.133,0.585 -8.211,-0.741 -11.836,-3.849 -1.022,-0.876 -1.492,-1.4 -4.253,-4.731 -1.019,-1.23 -2.688,-3.11 -3.708,-4.178 -2.177,-2.278 -2.094,-2.074 -0.906,-2.222 2.731,-0.341 8.824,-2.176 12.717,-3.83 10.209,-4.335 16.399,-10.803 18.08,-18.893 C 302.793,24.749 290.38,17.088 271.5,18.354 m 88.583,0.314 c -1.846,0.746 -2.278,1.237 -2.793,3.179 -0.253,0.955 -1.025,3.874 -1.714,6.486 -1.457,5.521 -3.358,12.699 -4.744,17.917 -0.535,2.017 -1.548,5.842 -2.249,8.5 -2.017,7.642 -3.089,11.646 -3.19,11.917 -0.054,0.145 -0.333,-0.379 -0.665,-1.25 -7.572,-19.856 -11.774,-28.653 -17.944,-37.568 -5.579,-8.061 -8.57,-9.54 -13.117,-6.49 l -0.75,0.503 -0.723,3.111 c -1.842,7.934 -4.954,20.69 -9.935,40.724 -1.976,7.945 -3.592,14.527 -3.592,14.625 0,0.278 3.484,0.218 4.965,-0.086 2.392,-0.491 3.369,-1.248 3.877,-3.001 3.323,-11.473 8.211,-30.587 10.711,-41.883 l 0.716,-3.231 0.505,0.648 c 1.94,2.484 5.971,9.367 7.604,12.981 3.451,7.636 6.569,15.507 11.655,29.417 1.827,4.994 2.82,6.187 5.371,6.45 1.365,0.141 4.504,-0.907 6.219,-2.077 0.114,-0.078 0.623,-1.75 1.132,-3.716 0.509,-1.965 1.34,-5.112 1.846,-6.991 1.858,-6.898 2.741,-10.186 3.961,-14.75 0.687,-2.566 1.812,-6.766 2.501,-9.333 2.571,-9.583 5.975,-24.642 5.72,-25.307 -0.353,-0.919 -3.784,-1.415 -5.367,-0.775 m -311.75,1.914 c -15.754,2.481 -26.458,15.557 -27.424,33.501 -0.496,9.204 3.001,16.203 10.179,20.374 13.364,7.767 37.166,2.581 44.025,-9.591 0.684,-1.213 0.7,-1.169 -0.564,-1.467 -2.283,-0.537 -2.868,-0.258 -5.666,2.704 C 64.142,71.121 58.436,73.729 50.818,74.36 32.67,75.864 22.079,61.932 27.865,44.167 33.755,26.08 53.828,17.933 62.437,30.133 c 2.508,3.554 3.692,4.106 5.67,2.646 1.476,-1.09 1.448,-0.99 0.739,-2.628 C 65.622,22.694 57.872,19.079 48.333,20.582 m 229.245,4.755 c 9.915,0.821 14.882,4.543 14.087,10.554 -1.024,7.742 -8.177,12.818 -21.998,15.61 -3.243,0.655 -12.86,1.861 -13.081,1.641 -0.167,-0.167 1.522,-6.334 3.759,-13.725 0.948,-3.133 3.487,-12.21 3.491,-12.48 0.008,-0.616 0.46,-0.775 3.414,-1.199 3.594,-0.515 7.239,-0.657 10.328,-0.401 M 82.775,36.671 c -0.262,0.078 -0.73,0.316 -1.041,0.527 -0.645,0.44 -0.631,0.325 -0.393,3.302 0.092,1.146 0.275,3.808 0.408,5.917 0.926,14.691 1.487,20.288 2.939,29.308 0.246,1.528 0.374,1.628 2.145,1.668 2.527,0.056 3.237,-0.955 3.145,-4.476 -0.289,-11.05 1.334,-20.555 4.638,-27.155 2.872,-5.74 7.258,-6.565 8.886,-1.672 0.758,2.277 2.322,3.049 4.409,2.174 3.597,-1.508 -1.49,-8.527 -6.433,-8.876 -6.359,-0.449 -11.623,6.246 -14.079,17.908 -0.47,2.231 -0.563,1.478 -0.734,-5.974 C 86.5,42.108 86.237,37.193 86.004,36.945 85.644,36.563 83.688,36.397 82.775,36.671 m 44.808,-0.061 c -6.068,0.664 -11.683,7.706 -14.241,17.859 -3.499,13.888 -1.111,23.767 5.741,23.754 6.01,-0.011 9.802,-2.898 14.578,-11.1 1.305,-2.242 1.26,-2.224 1.497,-0.579 0.109,0.755 0.312,2.16 0.45,3.123 0.907,6.296 2.243,8.078 6.059,8.076 1.977,-10e-4 3.399,-0.341 4.306,-1.027 2.019,-1.53 1.147,-2.663 -1.707,-2.219 -4.933,0.768 -5.892,-2.496 -5.365,-18.257 0.471,-14.076 -3.241,-20.513 -11.318,-19.63 m 20.026,0.633 c -1.658,0.591 -1.687,0.801 -0.609,4.341 3.13,10.271 6.596,18.947 11.427,28.603 1.037,2.073 2.079,4.245 2.316,4.827 0.945,2.328 2.732,3.133 4.722,2.128 1.174,-0.594 1.537,-1.462 2.531,-6.059 2.868,-13.267 6.721,-22.912 12.194,-30.526 1.137,-1.582 1.151,-1.643 0.435,-1.869 -2.802,-0.886 -5.086,0.459 -7.837,4.613 -1.358,2.052 -2.398,4.01 -3.891,7.33 -2.334,5.188 -4.11,10.492 -5.159,15.406 -0.249,1.166 -0.519,2.079 -0.6,2.029 -0.763,-0.472 -5.187,-11.078 -8.143,-19.522 -3.667,-10.471 -3.914,-11.103 -4.437,-11.326 -0.634,-0.271 -2.155,-0.258 -2.949,0.025 m 52.724,0.374 c -7.658,1.317 -15.482,11.632 -16.849,22.216 -0.93,7.203 0.792,12.054 5.358,15.089 5.744,3.819 16.633,3.044 22.908,-1.63 3.237,-2.412 5.742,-6.143 4.462,-6.646 -1.925,-0.756 -3.673,-0.057 -6.212,2.485 -3.277,3.28 -5.909,4.369 -10.563,4.369 -6.567,0 -10.503,-3.784 -10.516,-10.111 -0.005,-2.447 -0.179,-2.264 1.927,-2.04 13.007,1.381 25.392,-9.41 21.778,-18.975 -1.275,-3.376 -7.136,-5.643 -12.293,-4.757 m 3.916,3.445 c 7.144,3.27 1.307,16.106 -7.858,17.282 -1.486,0.19 -4.773,-0.065 -6.316,-0.491 -0.806,-0.222 -0.149,-2.842 1.763,-7.032 3.851,-8.441 8.061,-11.751 12.411,-9.759 M 129,41.371 c 5.026,1.556 6.308,9.931 2.993,19.546 -3.725,10.801 -9.566,16.131 -13.232,12.073 -2.177,-2.41 -2.458,-6.671 -0.998,-15.19 2.1,-12.259 6.05,-18.035 11.237,-16.429"
       id="path0" />
  </g>
</svg>
