<?xml version="1.0" encoding="UTF-8" standalone="no"?>
<svg
   xmlns:dc="http://purl.org/dc/elements/1.1/"
   xmlns:cc="http://creativecommons.org/ns#"
   xmlns:rdf="http://www.w3.org/1999/02/22-rdf-syntax-ns#"
   xmlns:svg="http://www.w3.org/2000/svg"
   xmlns="http://www.w3.org/2000/svg"
   xmlns:sodipodi="http://sodipodi.sourceforge.net/DTD/sodipodi-0.dtd"
   xmlns:inkscape="http://www.inkscape.org/namespaces/inkscape"
   inkscape:version="1.0rc1 (09960d6, 2020-04-09)"
   sodipodi:docname="creo.svg"
   viewBox="0 0 700 700.00001"
   height="700"
   width="700"
   version="1.1"
   id="svg">
  <metadata
     id="metadata2010">
    <rdf:RDF>
      <cc:Work
         rdf:about="">
        <dc:format>image/svg+xml</dc:format>
        <dc:type
           rdf:resource="http://purl.org/dc/dcmitype/StillImage" />
        <dc:title></dc:title>
      </cc:Work>
    </rdf:RDF>
  </metadata>
  <defs
     id="defs2008" />
  <sodipodi:namedview
     inkscape:current-layer="svg"
     inkscape:window-maximized="0"
     inkscape:window-y="23"
     inkscape:window-x="0"
     inkscape:cy="406.50524"
     inkscape:cx="186.67685"
     inkscape:zoom="0.42299884"
     showgrid="false"
     id="namedview2006"
     inkscape:window-height="559"
     inkscape:window-width="1024"
     inkscape:pageshadow="2"
     inkscape:pageopacity="0"
     guidetolerance="10"
     gridtolerance="10"
     objecttolerance="10"
     borderopacity="1"
     bordercolor="#666666"
     pagecolor="#ffffff" />
  <g
     transform="matrix(2.1027683,0,0,2.0168548,-99.224995,-38.10539)"
     id="svgg">
    <path
       inkscape:connector-curvature="0"
       fill-rule="evenodd"
       fill="#6ebe4c"
       stroke="none"
       d="m 209.797,36.305 c -1.903,1.161 -7.733,4.562 -10.352,6.038 -0.813,0.459 -3.197,1.849 -5.298,3.09 -2.1,1.241 -3.867,2.256 -3.927,2.256 -0.059,0 -1.59,0.89 -3.403,1.978 -1.813,1.088 -4.122,2.438 -5.131,3.001 -3.3,1.841 -9.562,5.438 -11.261,6.469 -0.915,0.556 -2.467,1.466 -3.448,2.023 -0.982,0.557 -1.693,1.105 -1.581,1.217 0.113,0.113 0.417,0.033 0.676,-0.178 0.259,-0.21 1.054,-0.715 1.765,-1.121 0.712,-0.406 2.708,-1.56 4.437,-2.564 1.728,-1.004 3.891,-2.249 4.805,-2.766 0.915,-0.518 5.324,-3.068 9.797,-5.668 8.907,-5.176 12.137,-7.047 20.054,-11.611 l 5.266,-3.036 1.943,1.102 c 1.068,0.606 2.525,1.426 3.236,1.823 1.457,0.811 15.056,8.715 21.257,12.354 2.237,1.312 4.982,2.893 6.1,3.513 1.118,0.619 6.691,3.832 12.384,7.14 5.694,3.308 10.934,6.343 11.646,6.745 0.711,0.402 1.505,0.903 1.764,1.113 0.26,0.211 0.559,0.296 0.666,0.189 0.159,-0.16 -3.321,-2.336 -6.682,-4.178 -0.406,-0.223 -1.443,-0.852 -2.303,-1.397 -0.86,-0.545 -1.626,-0.99 -1.703,-0.99 -0.145,0 -1.837,-0.973 -13.184,-7.577 -24.95,-14.521 -34.809,-20.15 -35.242,-20.121 -0.238,0.015 -1.265,0.536 -2.281,1.156 M 160.148,65.11 c -2.501,1.446 -4.48,2.696 -4.4,2.776 0.158,0.158 8.341,-4.483 8.929,-5.063 0.685,-0.676 -0.036,-0.312 -4.529,2.287 m -10.24,5.928 c -4.438,2.571 -11.515,6.65 -16.082,9.269 -0.711,0.408 -2.791,1.62 -4.621,2.692 -1.83,1.073 -3.909,2.279 -4.621,2.681 -0.712,0.401 -4.371,2.524 -8.133,4.716 -3.762,2.192 -8.553,4.978 -10.648,6.19 -2.095,1.212 -3.744,2.27 -3.663,2.35 0.081,0.081 2.96,-1.495 6.397,-3.501 6.613,-3.86 22.367,-12.972 24.55,-14.2 0.712,-0.4 2.791,-1.601 4.621,-2.669 7.516,-4.385 12.346,-7.196 14.88,-8.659 1.474,-0.851 2.68,-1.624 2.68,-1.716 0,-0.263 0.102,-0.317 -5.36,2.847 m 121.811,-1.402 c 0,0.099 1.539,1.051 3.42,2.117 1.88,1.066 3.886,2.261 4.457,2.656 0.571,0.395 1.12,0.635 1.221,0.535 0.101,-0.101 -1.78,-1.305 -4.18,-2.676 -2.4,-1.372 -4.488,-2.565 -4.641,-2.652 -0.152,-0.087 -0.277,-0.078 -0.277,0.02 m 9.797,5.7 c 0.337,0.346 11.412,6.847 22.181,13.019 0.61,0.35 1.99,1.158 3.066,1.797 1.076,0.638 2.03,1.16 2.119,1.16 0.088,0 1.038,0.556 2.109,1.235 1.071,0.679 2.863,1.737 3.981,2.352 1.119,0.615 5.111,2.91 8.873,5.101 3.761,2.191 7.754,4.482 8.872,5.091 3.338,1.819 1.579,0.503 -2.31,-1.729 -1.983,-1.137 -5.227,-3.01 -7.209,-4.16 -1.983,-1.151 -8.263,-4.786 -13.956,-8.078 -5.693,-3.292 -13.928,-8.064 -18.299,-10.604 -8.635,-5.017 -9.99,-5.762 -9.427,-5.184 M 93.288,103.815 c -8.311,4.794 -9.369,5.471 -9.369,5.996 0,0.162 3.285,2.195 7.301,4.518 4.016,2.323 12.708,7.351 19.316,11.173 6.608,3.822 14.593,8.443 17.745,10.27 3.152,1.827 6.229,3.611 6.839,3.963 0.61,0.353 2.003,1.172 3.095,1.82 1.092,0.647 2.058,1.105 2.146,1.017 0.088,-0.089 -2.136,-1.487 -4.943,-3.109 -4.565,-2.636 -26.703,-15.459 -29.503,-17.088 -0.61,-0.355 -1.99,-1.167 -3.066,-1.806 -1.077,-0.638 -2.036,-1.16 -2.133,-1.16 -0.097,0 -0.849,-0.425 -1.672,-0.945 -1.668,-1.053 -1.835,-1.15 -8.841,-5.149 -6.031,-3.443 -6.054,-3.46 -5.504,-4.122 0.23,-0.278 0.552,-0.505 0.713,-0.505 0.162,0 1.597,-0.773 3.19,-1.717 2.852,-1.692 3.666,-2.165 6.592,-3.831 5.031,-2.865 6.98,-4.105 6.377,-4.057 -0.051,0.004 -3.778,2.134 -8.283,4.732 m 241.647,2.384 c 0,0.225 3.681,2.489 4.046,2.489 0.165,0 0.498,0.238 0.74,0.529 0.478,0.577 0.443,0.606 -3.059,2.591 -0.981,0.556 -1.715,1.081 -1.629,1.167 0.255,0.255 5.445,-2.962 5.446,-3.377 0.001,-0.211 -1.121,-1.042 -2.494,-1.848 -2.831,-1.663 -3.05,-1.774 -3.05,-1.551 m -6.615,10.437 c -3.333,1.931 -6.102,3.512 -6.154,3.512 -0.052,0 -1.234,0.696 -2.627,1.547 -1.394,0.852 -4.197,2.491 -6.23,3.643 -3.797,2.151 -4.94,2.811 -12.57,7.265 -2.44,1.424 -5.184,3.008 -6.099,3.52 -0.915,0.511 -4.159,2.388 -7.209,4.169 -3.05,1.782 -6.098,3.555 -6.773,3.941 -0.675,0.385 -3.337,1.921 -5.915,3.413 -2.578,1.492 -8.93,5.163 -14.115,8.156 -5.184,2.994 -10.591,6.133 -12.014,6.975 -1.424,0.843 -3.17,1.846 -3.882,2.23 -0.712,0.383 -2.209,1.247 -3.327,1.918 -1.118,0.672 -4.945,2.911 -8.503,4.976 -3.558,2.066 -6.636,3.937 -6.839,4.159 -0.38,0.415 0.073,0.167 6.1,-3.331 1.931,-1.121 4.011,-2.327 4.621,-2.68 0.61,-0.352 3.687,-2.135 6.839,-3.961 3.151,-1.826 8.891,-5.147 12.754,-7.379 3.863,-2.233 13.429,-7.771 21.257,-12.307 7.828,-4.536 15.397,-8.909 16.821,-9.717 1.423,-0.809 3.918,-2.254 5.545,-3.212 5.353,-3.153 9.955,-5.824 11.645,-6.758 0.915,-0.505 4.159,-2.375 7.209,-4.156 3.05,-1.78 7.833,-4.568 10.628,-6.195 4.387,-2.553 5.445,-3.24 4.99,-3.24 -0.051,0 -2.82,1.58 -6.152,3.512 M 73.075,128.527 c -0.136,0.136 -0.247,33.714 -0.247,74.618 v 74.37 l 1.017,0.426 c 1.002,0.42 1.005,0.418 0.185,-0.17 l -0.832,-0.597 v -74.055 c 0,-68.555 0.083,-75.459 0.898,-74.14 0.116,0.187 1.167,0.891 2.337,1.563 1.169,0.673 2.458,1.416 2.865,1.651 9.092,5.26 12.689,7.165 9.717,5.145 -0.748,-0.508 -1.447,-0.924 -1.552,-0.924 -0.219,0 -8.117,-4.581 -11.576,-6.714 -2.515,-1.551 -2.458,-1.527 -2.812,-1.173 m 272.368,3.013 c -2.66,1.562 -5.571,3.277 -6.47,3.811 -0.899,0.533 -4.213,2.433 -7.365,4.221 -5.735,3.254 -8.567,4.883 -10.893,6.269 -3.42,2.038 -5.384,3.142 -5.588,3.142 -0.124,0 -0.667,0.311 -1.207,0.691 -0.539,0.38 -3.809,2.321 -7.266,4.313 -3.456,1.992 -7.199,4.152 -8.318,4.801 -1.118,0.648 -5.61,3.253 -9.981,5.788 -4.372,2.535 -11.192,6.498 -15.157,8.807 -3.965,2.309 -8.873,5.139 -10.906,6.289 -5.791,3.274 -13.348,7.654 -17.19,9.963 -1.932,1.16 -4.463,2.628 -5.626,3.261 -1.162,0.633 -3.037,1.741 -4.166,2.464 -1.129,0.722 -2.103,1.313 -2.164,1.313 -0.197,0 -9.285,5.24 -9.763,5.629 -0.522,0.425 -0.705,148.706 -0.184,149.028 0.153,0.095 3.522,-1.74 7.486,-4.077 3.964,-2.337 7.707,-4.495 8.317,-4.795 0.61,-0.301 2.146,-1.159 3.413,-1.909 3.237,-1.914 19.57,-11.423 22.565,-13.137 1.368,-0.782 3.862,-2.238 5.543,-3.234 1.68,-0.997 3.125,-1.812 3.211,-1.812 0.086,0 2.232,-1.236 4.769,-2.747 2.538,-1.511 5.696,-3.332 7.02,-4.046 1.323,-0.715 3.747,-2.14 5.387,-3.168 1.64,-1.028 3.05,-1.869 3.132,-1.869 0.082,0 2.871,-1.605 6.196,-3.567 3.326,-1.961 6.959,-4.063 8.073,-4.67 1.115,-0.607 2.65,-1.498 3.412,-1.979 0.763,-0.481 1.452,-0.875 1.532,-0.875 0.08,0 3.452,-1.937 7.493,-4.305 4.042,-2.368 7.899,-4.617 8.572,-4.997 2.569,-1.451 8.769,-5.025 12.27,-7.071 0.711,-0.416 2.375,-1.366 3.697,-2.112 1.321,-0.745 3.234,-1.851 4.251,-2.459 l 1.848,-1.104 0.094,-74.373 c 0.088,-70.668 0.061,-74.372 -0.555,-74.349 -0.356,0.013 -2.823,1.303 -5.482,2.865 m -254.87,7.077 c 0,0.211 0.153,0.385 0.341,0.385 0.187,0 1.809,0.856 3.604,1.903 4.497,2.622 7.464,4.339 8.994,5.204 0.712,0.402 2.209,1.279 3.327,1.948 1.118,0.669 6.858,4 12.754,7.402 5.897,3.402 11.22,6.478 11.83,6.834 2.283,1.334 5.76,3.339 13.124,7.571 4.168,2.394 8.078,4.644 8.688,4.999 0.61,0.355 3.771,2.186 7.024,4.069 3.253,1.882 8.493,4.92 11.645,6.75 6.696,3.888 7.233,4.196 10.166,5.824 1.22,0.677 2.634,1.511 3.143,1.852 0.508,0.342 1.672,1.039 2.587,1.55 3.813,2.127 12.775,7.369 13.025,7.618 0.405,0.405 0.378,148.09 -0.028,148.225 -0.187,0.062 -1.233,-0.418 -2.324,-1.067 -1.092,-0.649 -4.647,-2.708 -7.9,-4.576 -3.253,-1.868 -11.155,-6.442 -17.56,-10.165 -14.639,-8.511 -20.121,-11.687 -21.996,-12.745 -0.814,-0.459 -2.893,-1.667 -4.621,-2.684 -1.729,-1.017 -3.891,-2.269 -4.806,-2.78 -0.915,-0.512 -4.742,-2.719 -8.503,-4.904 -8.432,-4.898 -8.55,-4.965 -11.276,-6.478 -1.22,-0.678 -2.634,-1.511 -3.142,-1.853 -0.508,-0.341 -1.673,-1.036 -2.588,-1.543 -0.915,-0.507 -6.321,-3.628 -12.014,-6.936 -5.694,-3.308 -11.267,-6.522 -12.385,-7.144 -1.118,-0.622 -3.091,-1.776 -4.384,-2.565 -1.294,-0.789 -2.426,-1.36 -2.517,-1.269 -0.091,0.092 1.383,1.048 3.275,2.125 1.893,1.078 5.022,2.898 6.953,4.045 1.932,1.147 4.27,2.508 5.197,3.024 0.926,0.517 8.412,4.847 16.636,9.623 8.223,4.776 20.441,11.847 27.151,15.714 6.709,3.867 14.279,8.238 16.82,9.714 2.542,1.475 8.697,5.046 13.679,7.936 4.981,2.889 11.053,6.418 13.493,7.841 2.44,1.424 5.185,3.007 6.1,3.518 0.915,0.512 2.69,1.535 3.944,2.275 1.254,0.739 2.627,1.344 3.05,1.344 h 0.769 V 277.15 c 0,-58.69 -0.095,-74.169 -0.462,-74.621 -0.254,-0.314 -3.872,-2.533 -8.04,-4.932 -4.169,-2.4 -9.575,-5.518 -12.015,-6.931 -2.44,-1.413 -5.102,-2.95 -5.915,-3.415 -4.956,-2.836 -12.667,-7.283 -24.03,-13.859 -7.116,-4.118 -13.438,-7.776 -14.048,-8.128 -13.424,-7.754 -22.193,-12.829 -28.592,-16.55 -4.339,-2.523 -8.415,-4.886 -9.057,-5.251 -0.642,-0.365 -2.166,-1.24 -3.386,-1.945 -5.142,-2.971 -5.73,-3.268 -5.73,-2.901 m 50.277,4.236 c 0,0.084 1.872,1.233 4.159,2.553 2.288,1.32 5.656,3.27 7.486,4.333 1.83,1.064 3.885,2.25 4.567,2.637 0.681,0.387 4.84,2.802 9.242,5.367 4.401,2.565 8.502,4.947 9.112,5.294 0.61,0.346 2.773,1.594 4.806,2.772 2.033,1.178 4.279,2.467 4.991,2.864 0.711,0.397 1.46,0.847 1.663,0.999 0.203,0.152 1.285,0.779 2.403,1.393 1.118,0.614 6.669,3.799 12.334,7.077 5.666,3.279 10.433,5.962 10.593,5.962 0.442,0 13.335,-7.484 13.173,-7.647 -0.077,-0.077 -1.619,0.718 -3.425,1.767 -9.878,5.737 -9.615,5.61 -10.566,5.106 -0.469,-0.248 -4.429,-2.525 -8.8,-5.06 -4.372,-2.536 -8.697,-5.031 -9.612,-5.547 -0.915,-0.515 -2.284,-1.326 -3.043,-1.802 -0.758,-0.476 -1.451,-0.866 -1.54,-0.866 -0.089,0 -1.465,-0.772 -3.057,-1.716 -3.411,-2.022 -4.008,-2.37 -8.626,-5.023 -5.705,-3.276 -13.181,-7.605 -17.93,-10.381 -2.44,-1.426 -5.736,-3.319 -7.324,-4.206 -1.589,-0.888 -3.976,-2.275 -5.306,-3.083 -1.33,-0.808 -2.526,-1.472 -2.657,-1.477 -0.132,-0.004 -0.656,-0.333 -1.164,-0.731 -0.877,-0.686 -1.479,-0.924 -1.479,-0.585 M 75.046,278.527 c 0,0.141 8.206,4.918 9.058,5.272 0.203,0.085 -0.028,-0.145 -0.515,-0.51 -0.816,-0.614 -1.789,-1.19 -5.77,-3.418 -0.813,-0.455 -1.637,-0.979 -1.83,-1.163 -0.361,-0.344 -0.943,-0.455 -0.943,-0.181"
       id="path0" />
    <path
       inkscape:connector-curvature="0"
       fill-rule="evenodd"
       fill="#4d585a"
       stroke="none"
       d="m 206.839,38.507 c -2.846,1.65 -6.673,3.865 -8.503,4.923 -1.83,1.058 -6.987,4.05 -11.46,6.65 -4.473,2.6 -8.882,5.15 -9.797,5.668 -1.433,0.81 -3.681,2.11 -9.149,5.291 -0.661,0.384 -1.742,1.013 -2.403,1.397 -5.57,3.24 -7.716,4.48 -9.15,5.288 -0.915,0.515 -4.159,2.399 -7.209,4.185 -3.05,1.787 -6.845,3.977 -8.434,4.867 -1.588,0.89 -3.501,2.003 -4.251,2.473 -0.75,0.47 -2.111,1.272 -3.026,1.781 -0.915,0.51 -4.866,2.782 -8.78,5.05 -3.915,2.268 -10.319,5.979 -14.233,8.247 -3.914,2.268 -7.865,4.536 -8.78,5.04 -0.915,0.504 -1.844,1.058 -2.065,1.232 -0.221,0.173 -1.551,0.954 -2.957,1.736 -3.057,1.7 -4.234,2.379 -8.04,4.636 -1.593,0.944 -3.028,1.717 -3.19,1.717 -0.161,0 -0.483,0.227 -0.713,0.505 -0.55,0.662 -0.527,0.679 5.504,4.122 7.006,3.999 7.173,4.096 8.841,5.149 0.823,0.52 1.575,0.945 1.672,0.945 0.097,0 1.056,0.522 2.133,1.16 2.45,1.453 1.902,1.135 15.82,9.198 6.405,3.71 13.642,7.905 16.081,9.321 2.44,1.416 5.102,2.951 5.915,3.41 2.706,1.529 4.049,2.305 6.1,3.526 1.119,0.665 3.281,1.909 4.806,2.764 1.525,0.855 4.769,2.721 7.209,4.147 4.749,2.776 12.225,7.105 17.93,10.381 4.618,2.653 5.215,3.001 8.626,5.023 1.592,0.944 2.968,1.716 3.057,1.716 0.089,0 0.782,0.39 1.54,0.866 0.759,0.476 2.128,1.287 3.043,1.802 0.915,0.516 5.24,3.011 9.612,5.547 4.371,2.535 8.331,4.812 8.8,5.06 0.741,0.393 1.127,0.296 2.958,-0.738 3.202,-1.81 4.132,-2.343 6.541,-3.748 1.22,-0.712 2.967,-1.712 3.882,-2.222 1.987,-1.108 13.755,-7.967 16.636,-9.697 1.118,-0.671 2.615,-1.535 3.327,-1.918 0.712,-0.384 2.458,-1.387 3.882,-2.23 1.423,-0.842 6.83,-3.981 12.014,-6.975 5.185,-2.993 11.537,-6.664 14.115,-8.156 2.578,-1.492 5.24,-3.028 5.915,-3.413 0.675,-0.386 3.723,-2.159 6.773,-3.941 3.05,-1.781 6.294,-3.658 7.209,-4.169 0.915,-0.512 3.659,-2.096 6.099,-3.52 7.501,-4.378 8.749,-5.1 12.57,-7.273 2.033,-1.156 4.612,-2.652 5.73,-3.324 1.118,-0.672 2.615,-1.552 3.327,-1.955 0.712,-0.404 4.039,-2.32 7.394,-4.259 3.355,-1.94 7.002,-4.04 8.105,-4.668 2.139,-1.219 2.392,-1.663 1.279,-2.252 -0.384,-0.203 -1.697,-0.972 -2.916,-1.709 -1.219,-0.736 -2.966,-1.754 -3.88,-2.262 -0.915,-0.507 -4.742,-2.714 -8.503,-4.903 -3.762,-2.19 -7.754,-4.484 -8.873,-5.099 -1.118,-0.615 -2.91,-1.673 -3.981,-2.352 -1.071,-0.679 -2.021,-1.235 -2.109,-1.235 -0.089,0 -1.043,-0.522 -2.119,-1.16 -1.076,-0.639 -2.456,-1.447 -3.066,-1.797 -2.612,-1.497 -8.968,-5.184 -15.157,-8.793 -3.66,-2.134 -7.154,-4.168 -7.764,-4.52 -0.61,-0.352 -2.606,-1.511 -4.436,-2.574 -1.83,-1.064 -3.992,-2.31 -4.806,-2.768 -2.286,-1.289 -3.343,-1.9 -14.418,-8.335 -5.693,-3.308 -11.266,-6.521 -12.384,-7.14 -1.118,-0.62 -3.863,-2.201 -6.1,-3.513 -8.51,-4.994 -20.044,-11.683 -21.996,-12.757 -1.118,-0.615 -2.532,-1.421 -3.142,-1.79 -1.414,-0.857 -0.702,-1.108 -6.655,2.342 M 73.388,129.062 c -0.107,0.282 -0.152,33.759 -0.1,74.394 l 0.095,73.881 1.663,0.94 c 0.915,0.517 2.246,1.273 2.958,1.68 0.711,0.406 2.042,1.155 2.957,1.664 0.915,0.508 2.105,1.234 2.645,1.611 0.54,0.378 1.077,0.687 1.195,0.687 0.118,0 1.256,0.636 2.531,1.413 1.274,0.777 3.232,1.922 4.35,2.544 1.118,0.622 6.691,3.836 12.385,7.144 5.693,3.308 11.099,6.429 12.014,6.936 0.915,0.507 2.08,1.202 2.588,1.543 0.508,0.342 1.922,1.175 3.142,1.853 2.726,1.513 2.844,1.58 11.276,6.478 3.761,2.185 7.588,4.392 8.503,4.904 0.915,0.511 3.077,1.763 4.806,2.78 1.728,1.017 3.807,2.225 4.621,2.684 1.875,1.058 7.357,4.234 21.996,12.745 6.405,3.723 14.307,8.297 17.56,10.165 3.253,1.868 6.808,3.927 7.9,4.576 1.091,0.649 2.137,1.129 2.324,1.067 0.406,-0.135 0.433,-147.82 0.028,-148.225 -0.25,-0.249 -9.212,-5.491 -13.025,-7.618 -0.915,-0.511 -2.079,-1.208 -2.587,-1.55 -0.509,-0.341 -1.923,-1.175 -3.143,-1.852 -2.933,-1.628 -3.47,-1.936 -10.166,-5.824 -3.152,-1.83 -8.392,-4.868 -11.645,-6.75 -3.253,-1.883 -6.414,-3.714 -7.024,-4.069 -0.61,-0.355 -4.52,-2.605 -8.688,-4.999 -7.364,-4.232 -10.841,-6.237 -13.124,-7.571 -0.61,-0.356 -5.933,-3.432 -11.83,-6.834 -5.896,-3.402 -11.636,-6.733 -12.754,-7.402 -1.118,-0.669 -2.615,-1.546 -3.327,-1.948 -1.53,-0.865 -4.497,-2.582 -8.994,-5.204 -1.795,-1.047 -3.417,-1.903 -3.604,-1.903 -0.188,0 -0.341,-0.167 -0.341,-0.37 0,-0.203 -0.145,-0.37 -0.322,-0.37 -0.264,0 -6.319,-3.356 -11.323,-6.276 -0.61,-0.356 -1.775,-1.031 -2.588,-1.5 -0.813,-0.469 -1.766,-1.097 -2.118,-1.395 -0.538,-0.456 -0.67,-0.46 -0.834,-0.029"
       id="path2" />
  </g>
</svg>
