<svg id="svg" version="1.1" xmlns="http://www.w3.org/2000/svg" xmlns:xlink="http://www.w3.org/1999/xlink" width="400" height="71.47470398277717" viewBox="0, 0, 400,71.47470398277717"><g id="svgg"><path id="path0" d="M35.510 14.285 C 35.103 14.324,34.691 14.459,34.594 14.586 C 34.423 14.809,34.095 14.855,29.218 15.331 C 27.372 15.511,26.587 15.865,25.917 16.818 C 25.619 17.242,24.115 19.216,22.500 21.303 C 21.529 22.558,21.024 23.229,20.721 23.667 C 20.437 24.076,19.618 25.093,19.042 25.750 C 18.629 26.222,18.105 27.327,18.233 27.455 C 18.430 27.652,19.904 27.532,20.663 27.258 C 21.073 27.110,22.422 26.876,23.660 26.738 C 24.898 26.601,26.325 26.384,26.831 26.256 C 27.799 26.010,29.911 25.756,32.417 25.584 C 33.242 25.527,35.229 25.335,36.833 25.158 C 41.516 24.641,43.288 24.779,42.086 25.566 C 41.855 25.717,41.667 25.918,41.667 26.011 C 41.667 26.105,40.490 27.359,39.052 28.799 C 36.234 31.619,32.029 36.396,30.962 37.987 C 30.803 38.223,30.376 38.829,30.011 39.333 C 29.647 39.837,29.192 40.535,29.000 40.883 C 28.808 41.231,28.542 41.558,28.409 41.609 C 27.930 41.793,28.564 42.941,29.414 43.430 C 29.691 43.589,30.040 43.838,30.192 43.984 C 30.343 44.130,30.896 44.587,31.421 45.000 C 32.349 45.730,35.342 48.236,41.173 53.167 C 44.383 55.881,44.522 55.943,45.646 55.147 C 46.410 54.606,46.578 54.472,47.627 53.557 C 47.927 53.297,48.475 52.821,48.847 52.500 C 49.218 52.179,49.738 51.729,50.002 51.500 C 50.267 51.271,50.908 50.746,51.428 50.333 C 51.947 49.921,53.663 48.496,55.242 47.167 C 56.820 45.837,58.575 44.375,59.141 43.917 C 59.717 43.450,60.149 42.973,60.123 42.833 C 60.052 42.460,57.076 42.531,54.500 42.968 C 52.014 43.389,46.182 43.639,45.458 43.355 C 45.045 43.193,44.800 42.667,45.138 42.667 C 45.213 42.667,45.697 42.348,46.212 41.958 C 46.728 41.569,47.397 41.079,47.700 40.870 C 48.002 40.661,48.512 40.305,48.833 40.079 C 49.154 39.853,49.732 39.515,50.118 39.329 C 50.504 39.143,50.870 38.909,50.931 38.810 C 50.993 38.710,51.390 38.478,51.813 38.294 C 52.237 38.110,52.696 37.861,52.834 37.740 C 53.077 37.529,55.528 36.199,57.583 35.164 C 58.133 34.887,58.771 34.549,59.000 34.415 C 59.229 34.280,59.679 34.055,60.000 33.915 C 60.321 33.775,60.771 33.554,61.000 33.424 C 61.229 33.294,61.717 33.046,62.083 32.873 C 62.450 32.700,62.975 32.440,63.250 32.296 C 63.525 32.151,64.012 31.911,64.333 31.761 C 64.654 31.612,65.104 31.383,65.333 31.253 C 66.079 30.831,68.249 29.833,68.421 29.833 C 68.514 29.833,68.850 29.657,69.170 29.441 C 69.489 29.226,70.031 28.958,70.374 28.845 C 71.481 28.484,71.782 27.668,71.125 26.817 C 69.890 25.217,69.616 24.872,69.244 24.455 C 69.018 24.202,68.833 23.938,68.833 23.870 C 68.833 23.802,68.572 23.447,68.253 23.082 C 67.934 22.716,67.672 22.365,67.670 22.301 C 67.668 22.238,67.273 21.711,66.792 21.132 C 65.833 19.977,65.439 19.465,64.637 18.333 C 64.345 17.921,64.059 17.546,64.003 17.500 C 63.947 17.454,63.740 17.186,63.543 16.904 C 62.680 15.667,62.201 15.505,58.389 15.153 C 55.517 14.889,54.879 14.783,54.701 14.542 C 54.493 14.260,38.078 14.041,35.510 14.285 M139.500 19.159 C 135.633 19.988,132.755 21.532,130.152 24.175 C 129.116 25.226,127.500 27.306,127.500 27.587 C 127.500 27.687,127.310 28.026,127.078 28.340 C 126.846 28.655,126.553 29.251,126.427 29.665 C 126.301 30.078,126.046 30.754,125.861 31.167 C 124.922 33.261,124.922 40.073,125.861 42.167 C 126.046 42.579,126.301 43.255,126.427 43.669 C 126.553 44.082,126.846 44.678,127.078 44.993 C 127.310 45.307,127.500 45.652,127.500 45.759 C 127.500 45.950,127.835 46.425,129.118 48.053 C 129.465 48.494,130.313 49.337,131.000 49.925 C 131.688 50.513,132.397 51.127,132.578 51.289 C 132.758 51.451,133.208 51.738,133.578 51.928 C 133.947 52.117,134.475 52.393,134.750 52.540 C 136.316 53.377,137.245 53.718,138.983 54.094 C 141.381 54.613,143.394 54.826,144.352 54.662 C 148.355 53.979,149.312 53.771,149.776 53.484 C 150.067 53.304,150.705 53.040,151.194 52.896 C 151.683 52.752,152.197 52.534,152.335 52.411 C 152.659 52.124,153.526 51.496,154.593 50.779 C 157.178 49.040,158.846 46.278,157.688 45.656 C 157.379 45.490,156.962 45.199,156.761 45.010 C 156.560 44.821,156.315 44.667,156.216 44.667 C 156.118 44.667,155.673 44.417,155.227 44.111 C 153.937 43.226,153.297 43.204,152.647 44.025 C 152.175 44.620,150.705 45.932,149.374 46.943 C 147.431 48.420,142.287 49.152,140.333 48.229 C 139.921 48.035,139.303 47.785,138.961 47.676 C 138.618 47.566,138.294 47.405,138.241 47.319 C 138.155 47.179,137.169 46.487,135.801 45.605 C 135.536 45.434,135.040 44.879,134.701 44.371 C 134.361 43.864,133.878 43.141,133.628 42.766 C 132.001 40.328,131.256 36.132,132.071 34.000 C 132.194 33.679,132.450 32.982,132.641 32.451 C 132.831 31.919,133.146 31.282,133.340 31.034 C 133.533 30.786,134.066 30.002,134.522 29.292 C 134.979 28.581,135.416 28.000,135.493 28.000 C 135.628 28.000,136.882 27.120,137.907 26.306 C 138.412 25.905,139.784 25.324,141.250 24.889 C 142.548 24.504,145.320 24.683,146.636 25.237 C 147.197 25.473,147.748 25.667,147.860 25.667 C 148.607 25.667,151.990 28.355,152.758 29.560 C 153.116 30.120,154.272 30.098,154.907 29.518 C 155.096 29.346,155.512 29.074,155.833 28.913 C 156.154 28.752,156.613 28.462,156.854 28.268 C 157.095 28.075,157.523 27.791,157.805 27.637 C 158.844 27.071,157.028 24.251,154.558 22.595 C 154.205 22.358,153.467 21.834,152.917 21.430 C 152.367 21.026,151.579 20.603,151.167 20.488 C 150.754 20.374,150.117 20.110,149.750 19.901 C 147.840 18.811,142.819 18.448,139.500 19.159 M287.867 19.700 C 287.714 19.853,287.667 23.855,287.667 36.696 L 287.667 53.492 288.081 53.764 C 288.628 54.122,293.444 54.059,293.891 53.688 C 294.249 53.391,294.323 20.056,293.967 19.700 C 293.686 19.419,288.148 19.419,287.867 19.700 M300.458 19.680 C 300.020 19.935,300.004 53.324,300.442 53.688 C 300.637 53.850,301.351 53.930,302.900 53.963 C 305.544 54.018,305.897 53.897,305.957 52.913 C 306.105 50.495,306.182 50.129,306.486 50.404 C 306.646 50.548,306.860 50.667,306.963 50.667 C 307.065 50.667,307.659 51.154,308.282 51.750 C 308.904 52.346,309.466 52.833,309.529 52.833 C 309.593 52.833,310.006 53.053,310.447 53.321 C 311.612 54.029,314.292 54.715,315.833 54.700 C 317.205 54.687,320.849 53.850,321.314 53.442 C 321.462 53.311,321.958 53.014,322.417 52.780 C 323.266 52.347,325.297 50.673,325.564 50.186 C 325.645 50.038,325.874 49.729,326.073 49.500 C 326.555 48.945,327.594 47.189,327.750 46.667 C 327.818 46.438,328.057 45.810,328.281 45.272 C 329.432 42.505,329.053 37.085,327.487 33.917 C 326.601 32.126,324.283 29.504,322.995 28.838 C 322.768 28.721,322.433 28.492,322.250 28.329 C 322.067 28.167,321.579 27.919,321.167 27.780 C 320.754 27.640,320.042 27.351,319.583 27.138 C 318.302 26.541,313.092 26.547,312.083 27.146 C 311.717 27.363,311.128 27.644,310.774 27.769 C 310.047 28.028,309.326 28.559,308.146 29.708 C 306.747 31.070,306.669 30.800,306.668 24.575 C 306.667 21.162,306.613 19.846,306.467 19.700 C 306.214 19.447,300.889 19.429,300.458 19.680 M367.533 19.700 C 367.380 19.853,367.333 23.855,367.333 36.696 L 367.333 53.492 367.748 53.764 C 368.295 54.122,373.111 54.059,373.558 53.688 C 373.916 53.391,373.990 20.056,373.633 19.700 C 373.352 19.419,367.814 19.419,367.533 19.700 M379.033 19.700 C 378.676 20.057,378.751 53.391,379.110 53.688 C 379.319 53.861,380.042 53.917,382.084 53.917 C 384.126 53.917,384.850 53.861,385.058 53.688 C 385.416 53.391,385.490 20.056,385.133 19.700 C 384.852 19.419,379.314 19.419,379.033 19.700 M239.542 21.665 L 239.000 21.995 239.000 24.223 C 239.000 26.739,238.752 27.333,237.700 27.333 C 236.790 27.333,236.667 27.685,236.667 30.271 C 236.667 32.863,236.718 33.000,237.682 33.000 C 239.038 33.000,238.993 32.772,239.047 39.917 C 239.105 47.590,239.235 48.511,240.578 50.750 C 241.754 52.711,244.958 53.993,248.696 53.999 C 250.150 54.001,250.167 53.965,250.167 50.771 C 250.167 47.569,250.220 47.667,248.478 47.667 C 245.686 47.667,245.764 47.881,245.697 39.919 L 245.645 33.588 246.007 33.294 C 246.301 33.056,246.695 33.000,248.068 33.000 C 250.252 33.000,250.167 33.109,250.167 30.337 C 250.167 27.309,250.184 27.333,248.004 27.333 L 246.361 27.333 246.014 26.772 C 245.708 26.278,245.667 25.948,245.667 24.013 L 245.667 21.816 245.089 21.575 C 244.134 21.176,240.240 21.239,239.542 21.665 M174.000 26.820 C 173.232 26.972,171.969 27.711,170.833 28.672 C 170.329 29.099,169.673 29.496,169.375 29.554 L 168.833 29.658 168.833 28.937 C 168.833 27.547,168.426 27.333,165.770 27.333 C 162.465 27.333,162.833 25.640,162.833 40.835 C 162.833 52.363,162.857 53.479,163.108 53.688 C 163.433 53.958,167.297 54.092,168.500 53.876 L 169.250 53.741 169.333 45.898 L 169.417 38.056 170.061 36.804 C 171.547 33.916,173.725 32.601,176.565 32.879 C 178.002 33.019,178.505 32.603,178.851 30.988 C 178.954 30.509,179.216 29.735,179.434 29.267 C 179.839 28.397,179.938 27.590,179.688 27.195 C 179.421 26.775,175.530 26.518,174.000 26.820 M219.048 26.830 C 218.479 26.895,217.906 27.037,217.775 27.146 C 217.644 27.255,217.077 27.524,216.514 27.744 C 214.875 28.387,212.636 30.508,212.413 31.632 C 212.364 31.880,212.164 32.673,211.969 33.393 L 211.614 34.704 212.077 36.600 C 212.678 39.068,213.789 40.621,215.476 41.354 C 215.875 41.528,216.382 41.812,216.603 41.985 C 216.841 42.173,217.427 42.349,218.044 42.418 C 218.615 42.482,219.496 42.680,220.000 42.857 C 220.504 43.034,221.761 43.285,222.792 43.415 C 225.751 43.788,226.959 44.534,227.119 46.088 L 227.213 47.001 226.398 47.816 C 224.773 49.441,218.569 48.993,215.676 47.042 C 215.245 46.751,214.975 46.682,214.593 46.763 C 213.893 46.913,213.864 46.938,213.449 47.731 C 213.062 48.474,212.746 49.005,211.882 50.371 C 211.298 51.295,211.340 51.708,212.041 51.929 C 212.248 51.994,212.678 52.224,212.997 52.440 C 213.316 52.656,213.699 52.833,213.849 52.833 C 213.998 52.833,214.538 53.057,215.050 53.330 C 215.562 53.603,216.304 53.873,216.699 53.931 C 217.094 53.988,218.003 54.180,218.721 54.358 C 221.267 54.987,226.697 54.527,228.399 53.537 C 228.684 53.372,229.267 53.104,229.694 52.943 C 230.584 52.607,232.870 50.351,233.257 49.426 C 233.791 48.147,234.054 46.464,233.846 45.653 C 233.737 45.228,233.583 44.419,233.503 43.855 C 233.250 42.067,231.660 40.094,229.833 39.302 C 229.421 39.123,228.959 38.864,228.808 38.727 C 228.657 38.590,227.982 38.380,227.308 38.261 C 226.634 38.142,225.558 37.887,224.917 37.694 C 224.275 37.502,223.054 37.270,222.203 37.180 C 219.536 36.897,218.402 36.041,218.570 34.441 C 218.757 32.663,220.976 31.870,224.056 32.480 C 224.988 32.665,226.231 32.901,226.818 33.005 C 227.406 33.109,228.296 33.425,228.797 33.707 L 229.707 34.221 230.270 33.917 C 230.642 33.717,230.977 33.324,231.253 32.765 C 231.483 32.299,231.836 31.709,232.037 31.455 C 232.594 30.753,232.572 29.341,232.000 29.074 C 231.771 28.967,231.096 28.645,230.500 28.359 C 227.118 26.732,223.799 26.289,219.048 26.830 M263.583 26.811 C 263.217 26.879,262.741 27.031,262.525 27.149 C 262.310 27.266,261.729 27.502,261.235 27.672 C 260.740 27.842,260.084 28.173,259.777 28.407 C 259.470 28.642,259.149 28.833,259.065 28.833 C 258.716 28.833,255.333 32.328,255.333 32.688 C 255.333 32.786,255.174 33.089,254.979 33.362 C 254.785 33.636,254.441 34.360,254.216 34.971 C 253.991 35.583,253.689 36.383,253.545 36.750 C 253.150 37.754,253.167 43.446,253.568 44.500 C 253.725 44.913,254.007 45.687,254.196 46.220 C 254.551 47.226,255.432 48.803,255.976 49.404 C 256.147 49.594,256.356 49.880,256.440 50.038 C 256.657 50.448,259.467 52.833,259.732 52.833 C 259.854 52.833,260.245 53.032,260.602 53.274 C 261.832 54.110,265.684 54.906,267.313 54.661 C 268.657 54.458,271.151 53.731,271.474 53.448 C 271.626 53.315,271.975 53.091,272.250 52.950 C 272.525 52.809,273.196 52.266,273.741 51.743 C 274.998 50.538,275.186 50.615,275.417 52.431 L 275.583 53.745 276.250 53.863 C 277.562 54.095,280.980 54.019,281.508 53.746 L 282.000 53.491 282.000 40.987 C 282.000 25.707,282.404 27.333,278.607 27.333 C 275.840 27.333,275.501 27.457,275.499 28.468 C 275.496 30.258,274.996 30.795,274.182 29.881 C 273.853 29.512,273.322 29.033,273.002 28.816 C 272.683 28.599,272.289 28.289,272.127 28.127 C 271.966 27.966,271.731 27.833,271.607 27.833 C 271.482 27.833,270.938 27.596,270.398 27.306 C 269.364 26.751,265.444 26.466,263.583 26.811 M343.250 26.827 C 342.351 27.015,340.032 27.995,339.387 28.458 C 339.100 28.665,338.801 28.833,338.722 28.833 C 338.332 28.833,335.571 31.750,334.931 32.838 C 334.251 33.993,333.439 35.900,333.124 37.083 C 332.820 38.223,332.902 43.614,333.237 44.500 C 333.392 44.913,333.674 45.687,333.863 46.220 C 334.218 47.226,335.099 48.803,335.642 49.404 C 335.814 49.594,336.023 49.880,336.107 50.038 C 336.324 50.448,339.133 52.833,339.399 52.833 C 339.521 52.833,339.912 53.032,340.268 53.274 C 341.490 54.104,345.334 54.903,346.980 54.668 C 348.238 54.489,350.820 53.728,351.151 53.439 C 351.297 53.311,351.642 53.091,351.917 52.950 C 352.192 52.809,352.863 52.266,353.408 51.743 C 354.664 50.538,354.853 50.615,355.083 52.431 L 355.250 53.745 355.917 53.863 C 357.228 54.095,360.646 54.019,361.175 53.746 L 361.667 53.491 361.667 40.853 L 361.667 28.215 361.258 27.774 C 360.409 26.858,355.310 27.192,355.206 28.171 C 354.943 30.643,354.771 30.845,353.791 29.833 C 352.753 28.762,351.772 28.023,351.046 27.765 C 350.700 27.642,350.126 27.369,349.770 27.158 C 349.063 26.739,344.723 26.518,343.250 26.827 M99.340 27.698 C 99.031 28.030,99.000 28.275,99.004 30.406 C 99.009 33.804,98.410 33.486,104.914 33.540 L 110.246 33.583 110.469 34.051 C 110.666 34.461,110.656 34.570,110.388 34.946 C 109.927 35.594,109.201 36.691,108.874 37.233 C 108.714 37.499,108.377 37.958,108.125 38.255 C 107.873 38.551,107.667 38.849,107.667 38.916 C 107.667 38.984,107.404 39.396,107.083 39.833 C 106.763 40.270,106.500 40.683,106.500 40.749 C 106.500 40.816,106.306 41.106,106.068 41.394 C 105.831 41.681,105.305 42.442,104.900 43.083 C 104.495 43.725,104.049 44.400,103.909 44.583 C 103.769 44.767,103.326 45.442,102.925 46.083 C 102.525 46.725,102.003 47.485,101.765 47.773 C 101.528 48.060,101.333 48.344,101.333 48.402 C 101.333 48.518,100.426 49.911,99.750 50.833 C 98.164 52.996,97.938 53.533,98.489 53.827 C 99.075 54.141,120.676 54.058,121.130 53.741 C 121.573 53.430,121.719 48.162,121.292 47.885 C 121.177 47.811,118.579 47.712,115.518 47.667 C 109.056 47.570,109.157 47.597,110.217 46.236 C 110.556 45.801,110.833 45.357,110.833 45.248 C 110.833 45.140,110.991 44.909,111.184 44.734 C 111.377 44.560,111.680 44.154,111.858 43.833 C 112.155 43.295,112.370 42.969,113.340 41.583 C 113.698 41.072,114.037 40.552,114.917 39.163 C 115.785 37.791,116.379 36.919,116.503 36.833 C 116.568 36.787,116.776 36.445,116.965 36.072 C 117.154 35.699,117.432 35.292,117.583 35.167 C 117.734 35.041,118.005 34.671,118.186 34.344 C 118.366 34.018,118.696 33.487,118.918 33.167 C 119.141 32.846,119.478 32.358,119.667 32.083 C 119.856 31.808,120.193 31.321,120.415 31.000 C 120.638 30.679,121.012 30.060,121.246 29.625 C 121.481 29.190,121.745 28.833,121.833 28.833 C 122.093 28.833,122.211 28.061,122.008 27.682 C 121.822 27.334,121.815 27.333,110.751 27.333 L 99.680 27.333 99.340 27.698 M182.380 27.542 C 181.984 28.053,182.003 28.413,182.479 29.401 C 182.747 29.960,183.056 30.747,183.164 31.152 C 183.272 31.556,183.467 32.049,183.597 32.248 C 183.728 32.447,183.954 33.016,184.100 33.513 C 184.246 34.010,184.498 34.642,184.660 34.917 C 184.822 35.192,185.046 35.792,185.157 36.250 C 185.268 36.708,185.496 37.308,185.664 37.583 C 185.832 37.858,186.057 38.421,186.165 38.833 C 186.272 39.246,186.502 39.829,186.676 40.128 C 186.850 40.428,187.116 41.097,187.267 41.616 C 187.418 42.135,187.719 42.895,187.937 43.304 C 188.155 43.714,188.333 44.208,188.333 44.401 C 188.333 44.594,188.513 45.090,188.733 45.503 C 188.953 45.916,189.221 46.590,189.330 47.002 C 189.438 47.413,189.669 47.995,189.843 48.295 C 190.017 48.595,190.281 49.260,190.431 49.774 C 190.580 50.288,190.837 50.943,191.001 51.229 C 191.751 52.534,191.727 54.062,190.933 55.638 C 190.718 56.066,190.487 56.679,190.421 57.000 C 190.355 57.321,190.163 57.824,189.994 58.117 C 189.173 59.545,188.894 61.667,189.527 61.667 C 189.604 61.667,189.667 61.779,189.667 61.917 C 189.667 62.127,190.037 62.167,192.000 62.167 C 193.915 62.167,194.333 62.124,194.333 61.928 C 194.333 61.792,194.529 61.666,194.786 61.636 C 195.076 61.602,195.309 61.433,195.432 61.167 C 195.538 60.938,195.852 60.262,196.130 59.667 C 196.407 59.071,196.686 58.321,196.750 58.000 C 196.814 57.679,197.007 57.171,197.179 56.872 C 197.352 56.572,197.615 55.907,197.764 55.393 C 197.913 54.879,198.170 54.224,198.335 53.938 C 198.500 53.651,198.688 53.154,198.755 52.833 C 198.821 52.512,199.090 51.821,199.354 51.296 C 199.618 50.772,199.833 50.202,199.833 50.030 C 199.833 49.857,200.012 49.381,200.230 48.971 C 200.447 48.561,200.749 47.802,200.900 47.283 C 201.051 46.764,201.315 46.095,201.488 45.795 C 201.660 45.495,201.853 44.987,201.917 44.667 C 201.980 44.346,202.171 43.842,202.341 43.547 C 202.511 43.251,202.806 42.486,202.997 41.845 C 203.187 41.204,203.414 40.637,203.500 40.583 C 203.586 40.530,203.813 39.962,204.003 39.322 C 204.194 38.681,204.489 37.915,204.659 37.620 C 204.829 37.325,205.020 36.821,205.083 36.500 C 205.147 36.179,205.340 35.671,205.512 35.372 C 205.685 35.072,205.949 34.397,206.098 33.872 C 206.248 33.346,206.507 32.692,206.673 32.417 C 206.839 32.142,207.067 31.542,207.179 31.083 C 207.291 30.625,207.559 29.943,207.775 29.569 C 208.844 27.710,208.396 27.333,205.109 27.333 L 202.396 27.333 201.967 27.792 C 201.442 28.353,201.079 29.061,200.920 29.833 C 200.855 30.154,200.632 30.717,200.425 31.083 C 200.218 31.450,199.957 32.125,199.845 32.583 C 199.733 33.042,199.503 33.642,199.333 33.917 C 199.164 34.192,198.934 34.792,198.824 35.250 C 198.713 35.708,198.479 36.321,198.305 36.612 C 198.131 36.904,197.882 37.549,197.752 38.047 C 197.623 38.545,197.370 39.207,197.191 39.518 C 197.012 39.829,196.813 40.346,196.748 40.667 C 196.606 41.373,195.336 44.000,195.137 44.000 C 195.059 44.000,194.876 43.719,194.730 43.375 C 194.585 43.031,194.296 42.412,194.089 42.000 C 193.882 41.587,193.627 40.898,193.523 40.468 C 193.419 40.038,193.189 39.438,193.013 39.135 C 192.837 38.831,192.605 38.247,192.497 37.836 C 192.388 37.425,192.129 36.750,191.920 36.336 C 191.712 35.922,191.487 35.321,191.421 35.000 C 191.355 34.679,191.166 34.182,191.002 33.896 C 190.837 33.609,190.575 32.934,190.420 32.396 C 190.264 31.857,190.003 31.192,189.839 30.917 C 189.675 30.642,189.446 30.012,189.331 29.517 C 189.192 28.920,188.927 28.402,188.541 27.976 L 187.961 27.333 185.251 27.333 C 183.280 27.333,182.497 27.390,182.380 27.542 M269.500 33.007 C 270.100 33.102,270.769 33.325,271.000 33.507 C 271.229 33.688,271.593 33.912,271.808 34.004 C 272.385 34.250,273.995 35.981,274.362 36.750 C 274.538 37.117,274.808 37.642,274.963 37.917 C 275.188 38.315,275.246 38.858,275.248 40.583 L 275.250 42.750 274.556 44.083 C 272.246 48.524,267.062 49.846,263.250 46.965 C 262.792 46.618,262.367 46.334,262.306 46.334 C 262.206 46.333,261.388 45.149,260.881 44.268 C 260.769 44.075,260.479 43.183,260.236 42.286 L 259.793 40.655 260.254 38.916 C 260.508 37.959,260.855 36.968,261.025 36.713 C 261.196 36.459,261.482 36.025,261.662 35.750 C 261.842 35.475,262.310 35.004,262.703 34.703 C 263.095 34.402,263.704 33.937,264.054 33.669 C 264.451 33.367,264.985 33.145,265.471 33.081 C 265.899 33.025,266.362 32.955,266.500 32.925 C 267.055 32.807,268.478 32.846,269.500 33.007 M316.246 33.008 C 316.885 33.100,317.560 33.287,317.746 33.423 C 317.932 33.559,318.346 33.849,318.667 34.068 C 320.595 35.382,321.580 37.058,322.165 40.021 C 322.342 40.920,321.588 43.921,320.998 44.667 C 320.816 44.896,320.516 45.365,320.331 45.708 C 320.145 46.052,319.938 46.334,319.872 46.334 C 319.805 46.334,319.375 46.618,318.917 46.965 C 315.088 49.859,309.922 48.543,307.608 44.083 L 306.917 42.750 306.917 40.583 C 306.917 38.437,306.922 38.406,307.500 37.270 C 308.087 36.116,309.928 34.000,310.345 34.000 C 310.466 34.000,310.757 33.818,310.991 33.595 C 311.680 32.940,313.991 32.682,316.246 33.008 M349.167 33.007 C 349.762 33.101,350.438 33.324,350.667 33.502 C 350.896 33.680,351.327 33.949,351.625 34.099 C 352.263 34.420,353.677 36.001,354.070 36.833 C 354.221 37.154,354.473 37.642,354.630 37.917 C 354.859 38.318,354.914 38.843,354.912 40.583 L 354.909 42.750 354.219 44.083 C 351.923 48.522,346.728 49.846,342.917 46.965 C 342.458 46.618,342.034 46.334,341.973 46.334 C 341.872 46.333,341.055 45.149,340.547 44.268 C 340.019 43.352,339.479 40.754,339.659 39.993 C 340.076 38.230,340.475 36.979,340.733 36.627 C 340.886 36.420,341.156 36.025,341.333 35.750 C 341.510 35.475,341.977 35.004,342.369 34.703 C 342.762 34.402,343.370 33.937,343.721 33.669 C 344.118 33.367,344.652 33.145,345.137 33.081 C 345.566 33.025,346.029 32.955,346.167 32.925 C 346.722 32.807,348.145 32.846,349.167 33.007 " stroke="none" fill="#ffffff" fill-rule="evenodd"></path><path id="path1" d="M35.510 14.285 C 35.103 14.324,34.691 14.459,34.594 14.586 C 34.423 14.809,34.095 14.855,29.218 15.331 C 27.372 15.511,26.587 15.865,25.917 16.818 C 25.619 17.242,24.115 19.216,22.500 21.303 C 21.529 22.558,21.024 23.229,20.721 23.667 C 20.437 24.076,19.618 25.093,19.042 25.750 C 18.629 26.222,18.105 27.327,18.233 27.455 C 18.430 27.652,19.904 27.532,20.663 27.258 C 21.073 27.110,22.422 26.876,23.660 26.738 C 24.898 26.601,26.325 26.384,26.831 26.256 C 27.799 26.010,29.911 25.756,32.417 25.584 C 33.242 25.527,35.229 25.335,36.833 25.158 C 41.516 24.641,43.288 24.779,42.086 25.566 C 41.855 25.717,41.667 25.918,41.667 26.011 C 41.667 26.105,40.490 27.359,39.052 28.799 C 36.234 31.619,32.029 36.396,30.962 37.987 C 30.803 38.223,30.376 38.829,30.011 39.333 C 29.647 39.837,29.192 40.535,29.000 40.883 C 28.808 41.231,28.542 41.558,28.409 41.609 C 27.930 41.793,28.564 42.941,29.414 43.430 C 29.691 43.589,30.040 43.838,30.192 43.984 C 30.343 44.130,30.896 44.587,31.421 45.000 C 32.349 45.730,35.342 48.236,41.173 53.167 C 44.383 55.881,44.522 55.943,45.646 55.147 C 46.410 54.606,46.578 54.472,47.627 53.557 C 47.927 53.297,48.475 52.821,48.847 52.500 C 49.218 52.179,49.738 51.729,50.002 51.500 C 50.267 51.271,50.908 50.746,51.428 50.333 C 51.947 49.921,53.663 48.496,55.242 47.167 C 56.820 45.837,58.575 44.375,59.141 43.917 C 59.717 43.450,60.149 42.973,60.123 42.833 C 60.052 42.460,57.076 42.531,54.500 42.968 C 52.014 43.389,46.182 43.639,45.458 43.355 C 45.045 43.193,44.800 42.667,45.138 42.667 C 45.213 42.667,45.697 42.348,46.212 41.958 C 46.728 41.569,47.397 41.079,47.700 40.870 C 48.002 40.661,48.512 40.305,48.833 40.079 C 49.154 39.853,49.732 39.515,50.118 39.329 C 50.504 39.143,50.870 38.909,50.931 38.810 C 50.993 38.710,51.390 38.478,51.813 38.294 C 52.237 38.110,52.696 37.861,52.834 37.740 C 53.077 37.529,55.528 36.199,57.583 35.164 C 58.133 34.887,58.771 34.549,59.000 34.415 C 59.229 34.280,59.679 34.055,60.000 33.915 C 60.321 33.775,60.771 33.554,61.000 33.424 C 61.229 33.294,61.717 33.046,62.083 32.873 C 62.450 32.700,62.975 32.440,63.250 32.296 C 63.525 32.151,64.012 31.911,64.333 31.761 C 64.654 31.612,65.104 31.383,65.333 31.253 C 66.079 30.831,68.249 29.833,68.421 29.833 C 68.514 29.833,68.850 29.657,69.170 29.441 C 69.489 29.226,70.031 28.958,70.374 28.845 C 71.481 28.484,71.782 27.668,71.125 26.817 C 69.890 25.217,69.616 24.872,69.244 24.455 C 69.018 24.202,68.833 23.938,68.833 23.870 C 68.833 23.802,68.572 23.447,68.253 23.082 C 67.934 22.716,67.672 22.365,67.670 22.301 C 67.668 22.238,67.273 21.711,66.792 21.132 C 65.833 19.977,65.439 19.465,64.637 18.333 C 64.345 17.921,64.059 17.546,64.003 17.500 C 63.947 17.454,63.740 17.186,63.543 16.904 C 62.680 15.667,62.201 15.505,58.389 15.153 C 55.517 14.889,54.879 14.783,54.701 14.542 C 54.493 14.260,38.078 14.041,35.510 14.285 M139.500 19.159 C 135.633 19.988,132.755 21.532,130.152 24.175 C 129.116 25.226,127.500 27.306,127.500 27.587 C 127.500 27.687,127.310 28.026,127.078 28.340 C 126.846 28.655,126.553 29.251,126.427 29.665 C 126.301 30.078,126.046 30.754,125.861 31.167 C 124.922 33.261,124.922 40.073,125.861 42.167 C 126.046 42.579,126.301 43.255,126.427 43.669 C 126.553 44.082,126.846 44.678,127.078 44.993 C 127.310 45.307,127.500 45.652,127.500 45.759 C 127.500 45.950,127.835 46.425,129.118 48.053 C 129.465 48.494,130.313 49.337,131.000 49.925 C 131.688 50.513,132.397 51.127,132.578 51.289 C 132.758 51.451,133.208 51.738,133.578 51.928 C 133.947 52.117,134.475 52.393,134.750 52.540 C 136.316 53.377,137.245 53.718,138.983 54.094 C 141.381 54.613,143.394 54.826,144.352 54.662 C 148.355 53.979,149.312 53.771,149.776 53.484 C 150.067 53.304,150.705 53.040,151.194 52.896 C 151.683 52.752,152.197 52.534,152.335 52.411 C 152.659 52.124,153.526 51.496,154.593 50.779 C 157.178 49.040,158.846 46.278,157.688 45.656 C 157.379 45.490,156.962 45.199,156.761 45.010 C 156.560 44.821,156.315 44.667,156.216 44.667 C 156.118 44.667,155.673 44.417,155.227 44.111 C 153.937 43.226,153.297 43.204,152.647 44.025 C 152.175 44.620,150.705 45.932,149.374 46.943 C 147.431 48.420,142.287 49.152,140.333 48.229 C 139.921 48.035,139.303 47.785,138.961 47.676 C 138.618 47.566,138.294 47.405,138.241 47.319 C 138.155 47.179,137.169 46.487,135.801 45.605 C 135.536 45.434,135.040 44.879,134.701 44.371 C 134.361 43.864,133.878 43.141,133.628 42.766 C 132.001 40.328,131.256 36.132,132.071 34.000 C 132.194 33.679,132.450 32.982,132.641 32.451 C 132.831 31.919,133.146 31.282,133.340 31.034 C 133.533 30.786,134.066 30.002,134.522 29.292 C 134.979 28.581,135.416 28.000,135.493 28.000 C 135.628 28.000,136.882 27.120,137.907 26.306 C 138.412 25.905,139.784 25.324,141.250 24.889 C 142.548 24.504,145.320 24.683,146.636 25.237 C 147.197 25.473,147.748 25.667,147.860 25.667 C 148.607 25.667,151.990 28.355,152.758 29.560 C 153.116 30.120,154.272 30.098,154.907 29.518 C 155.096 29.346,155.512 29.074,155.833 28.913 C 156.154 28.752,156.613 28.462,156.854 28.268 C 157.095 28.075,157.523 27.791,157.805 27.637 C 158.844 27.071,157.028 24.251,154.558 22.595 C 154.205 22.358,153.467 21.834,152.917 21.430 C 152.367 21.026,151.579 20.603,151.167 20.488 C 150.754 20.374,150.117 20.110,149.750 19.901 C 147.840 18.811,142.819 18.448,139.500 19.159 M287.867 19.700 C 287.714 19.853,287.667 23.855,287.667 36.696 L 287.667 53.492 288.081 53.764 C 288.628 54.122,293.444 54.059,293.891 53.688 C 294.249 53.391,294.323 20.056,293.967 19.700 C 293.686 19.419,288.148 19.419,287.867 19.700 M300.458 19.680 C 300.020 19.935,300.004 53.324,300.442 53.688 C 300.637 53.850,301.351 53.930,302.900 53.963 C 305.544 54.018,305.897 53.897,305.957 52.913 C 306.105 50.495,306.182 50.129,306.486 50.404 C 306.646 50.548,306.860 50.667,306.963 50.667 C 307.065 50.667,307.659 51.154,308.282 51.750 C 308.904 52.346,309.466 52.833,309.529 52.833 C 309.593 52.833,310.006 53.053,310.447 53.321 C 311.612 54.029,314.292 54.715,315.833 54.700 C 317.205 54.687,320.849 53.850,321.314 53.442 C 321.462 53.311,321.958 53.014,322.417 52.780 C 323.266 52.347,325.297 50.673,325.564 50.186 C 325.645 50.038,325.874 49.729,326.073 49.500 C 326.555 48.945,327.594 47.189,327.750 46.667 C 327.818 46.438,328.057 45.810,328.281 45.272 C 329.432 42.505,329.053 37.085,327.487 33.917 C 326.601 32.126,324.283 29.504,322.995 28.838 C 322.768 28.721,322.433 28.492,322.250 28.329 C 322.067 28.167,321.579 27.919,321.167 27.780 C 320.754 27.640,320.042 27.351,319.583 27.138 C 318.302 26.541,313.092 26.547,312.083 27.146 C 311.717 27.363,311.128 27.644,310.774 27.769 C 310.047 28.028,309.326 28.559,308.146 29.708 C 306.747 31.070,306.669 30.800,306.668 24.575 C 306.667 21.162,306.613 19.846,306.467 19.700 C 306.214 19.447,300.889 19.429,300.458 19.680 M367.533 19.700 C 367.380 19.853,367.333 23.855,367.333 36.696 L 367.333 53.492 367.748 53.764 C 368.295 54.122,373.111 54.059,373.558 53.688 C 373.916 53.391,373.990 20.056,373.633 19.700 C 373.352 19.419,367.814 19.419,367.533 19.700 M379.033 19.700 C 378.676 20.057,378.751 53.391,379.110 53.688 C 379.319 53.861,380.042 53.917,382.084 53.917 C 384.126 53.917,384.850 53.861,385.058 53.688 C 385.416 53.391,385.490 20.056,385.133 19.700 C 384.852 19.419,379.314 19.419,379.033 19.700 M239.542 21.665 L 239.000 21.995 239.000 24.223 C 239.000 26.739,238.752 27.333,237.700 27.333 C 236.790 27.333,236.667 27.685,236.667 30.271 C 236.667 32.863,236.718 33.000,237.682 33.000 C 239.038 33.000,238.993 32.772,239.047 39.917 C 239.105 47.590,239.235 48.511,240.578 50.750 C 241.754 52.711,244.958 53.993,248.696 53.999 C 250.150 54.001,250.167 53.965,250.167 50.771 C 250.167 47.569,250.220 47.667,248.478 47.667 C 245.686 47.667,245.764 47.881,245.697 39.919 L 245.645 33.588 246.007 33.294 C 246.301 33.056,246.695 33.000,248.068 33.000 C 250.252 33.000,250.167 33.109,250.167 30.337 C 250.167 27.309,250.184 27.333,248.004 27.333 L 246.361 27.333 246.014 26.772 C 245.708 26.278,245.667 25.948,245.667 24.013 L 245.667 21.816 245.089 21.575 C 244.134 21.176,240.240 21.239,239.542 21.665 M174.000 26.820 C 173.232 26.972,171.969 27.711,170.833 28.672 C 170.329 29.099,169.673 29.496,169.375 29.554 L 168.833 29.658 168.833 28.937 C 168.833 27.547,168.426 27.333,165.770 27.333 C 162.465 27.333,162.833 25.640,162.833 40.835 C 162.833 52.363,162.857 53.479,163.108 53.688 C 163.433 53.958,167.297 54.092,168.500 53.876 L 169.250 53.741 169.333 45.898 L 169.417 38.056 170.061 36.804 C 171.547 33.916,173.725 32.601,176.565 32.879 C 178.002 33.019,178.505 32.603,178.851 30.988 C 178.954 30.509,179.216 29.735,179.434 29.267 C 179.839 28.397,179.938 27.590,179.688 27.195 C 179.421 26.775,175.530 26.518,174.000 26.820 M219.048 26.830 C 218.479 26.895,217.906 27.037,217.775 27.146 C 217.644 27.255,217.077 27.524,216.514 27.744 C 214.875 28.387,212.636 30.508,212.413 31.632 C 212.364 31.880,212.164 32.673,211.969 33.393 L 211.614 34.704 212.077 36.600 C 212.678 39.068,213.789 40.621,215.476 41.354 C 215.875 41.528,216.382 41.812,216.603 41.985 C 216.841 42.173,217.427 42.349,218.044 42.418 C 218.615 42.482,219.496 42.680,220.000 42.857 C 220.504 43.034,221.761 43.285,222.792 43.415 C 225.751 43.788,226.959 44.534,227.119 46.088 L 227.213 47.001 226.398 47.816 C 224.773 49.441,218.569 48.993,215.676 47.042 C 215.245 46.751,214.975 46.682,214.593 46.763 C 213.893 46.913,213.864 46.938,213.449 47.731 C 213.062 48.474,212.746 49.005,211.882 50.371 C 211.298 51.295,211.340 51.708,212.041 51.929 C 212.248 51.994,212.678 52.224,212.997 52.440 C 213.316 52.656,213.699 52.833,213.849 52.833 C 213.998 52.833,214.538 53.057,215.050 53.330 C 215.562 53.603,216.304 53.873,216.699 53.931 C 217.094 53.988,218.003 54.180,218.721 54.358 C 221.267 54.987,226.697 54.527,228.399 53.537 C 228.684 53.372,229.267 53.104,229.694 52.943 C 230.584 52.607,232.870 50.351,233.257 49.426 C 233.791 48.147,234.054 46.464,233.846 45.653 C 233.737 45.228,233.583 44.419,233.503 43.855 C 233.250 42.067,231.660 40.094,229.833 39.302 C 229.421 39.123,228.959 38.864,228.808 38.727 C 228.657 38.590,227.982 38.380,227.308 38.261 C 226.634 38.142,225.558 37.887,224.917 37.694 C 224.275 37.502,223.054 37.270,222.203 37.180 C 219.536 36.897,218.402 36.041,218.570 34.441 C 218.757 32.663,220.976 31.870,224.056 32.480 C 224.988 32.665,226.231 32.901,226.818 33.005 C 227.406 33.109,228.296 33.425,228.797 33.707 L 229.707 34.221 230.270 33.917 C 230.642 33.717,230.977 33.324,231.253 32.765 C 231.483 32.299,231.836 31.709,232.037 31.455 C 232.594 30.753,232.572 29.341,232.000 29.074 C 231.771 28.967,231.096 28.645,230.500 28.359 C 227.118 26.732,223.799 26.289,219.048 26.830 M263.583 26.811 C 263.217 26.879,262.741 27.031,262.525 27.149 C 262.310 27.266,261.729 27.502,261.235 27.672 C 260.740 27.842,260.084 28.173,259.777 28.407 C 259.470 28.642,259.149 28.833,259.065 28.833 C 258.716 28.833,255.333 32.328,255.333 32.688 C 255.333 32.786,255.174 33.089,254.979 33.362 C 254.785 33.636,254.441 34.360,254.216 34.971 C 253.991 35.583,253.689 36.383,253.545 36.750 C 253.150 37.754,253.167 43.446,253.568 44.500 C 253.725 44.913,254.007 45.687,254.196 46.220 C 254.551 47.226,255.432 48.803,255.976 49.404 C 256.147 49.594,256.356 49.880,256.440 50.038 C 256.657 50.448,259.467 52.833,259.732 52.833 C 259.854 52.833,260.245 53.032,260.602 53.274 C 261.832 54.110,265.684 54.906,267.313 54.661 C 268.657 54.458,271.151 53.731,271.474 53.448 C 271.626 53.315,271.975 53.091,272.250 52.950 C 272.525 52.809,273.196 52.266,273.741 51.743 C 274.998 50.538,275.186 50.615,275.417 52.431 L 275.583 53.745 276.250 53.863 C 277.562 54.095,280.980 54.019,281.508 53.746 L 282.000 53.491 282.000 40.987 C 282.000 25.707,282.404 27.333,278.607 27.333 C 275.840 27.333,275.501 27.457,275.499 28.468 C 275.496 30.258,274.996 30.795,274.182 29.881 C 273.853 29.512,273.322 29.033,273.002 28.816 C 272.683 28.599,272.289 28.289,272.127 28.127 C 271.966 27.966,271.731 27.833,271.607 27.833 C 271.482 27.833,270.938 27.596,270.398 27.306 C 269.364 26.751,265.444 26.466,263.583 26.811 M343.250 26.827 C 342.351 27.015,340.032 27.995,339.387 28.458 C 339.100 28.665,338.801 28.833,338.722 28.833 C 338.332 28.833,335.571 31.750,334.931 32.838 C 334.251 33.993,333.439 35.900,333.124 37.083 C 332.820 38.223,332.902 43.614,333.237 44.500 C 333.392 44.913,333.674 45.687,333.863 46.220 C 334.218 47.226,335.099 48.803,335.642 49.404 C 335.814 49.594,336.023 49.880,336.107 50.038 C 336.324 50.448,339.133 52.833,339.399 52.833 C 339.521 52.833,339.912 53.032,340.268 53.274 C 341.490 54.104,345.334 54.903,346.980 54.668 C 348.238 54.489,350.820 53.728,351.151 53.439 C 351.297 53.311,351.642 53.091,351.917 52.950 C 352.192 52.809,352.863 52.266,353.408 51.743 C 354.664 50.538,354.853 50.615,355.083 52.431 L 355.250 53.745 355.917 53.863 C 357.228 54.095,360.646 54.019,361.175 53.746 L 361.667 53.491 361.667 40.853 L 361.667 28.215 361.258 27.774 C 360.409 26.858,355.310 27.192,355.206 28.171 C 354.943 30.643,354.771 30.845,353.791 29.833 C 352.753 28.762,351.772 28.023,351.046 27.765 C 350.700 27.642,350.126 27.369,349.770 27.158 C 349.063 26.739,344.723 26.518,343.250 26.827 M99.340 27.698 C 99.031 28.030,99.000 28.275,99.004 30.406 C 99.009 33.804,98.410 33.486,104.914 33.540 L 110.246 33.583 110.469 34.051 C 110.666 34.461,110.656 34.570,110.388 34.946 C 109.927 35.594,109.201 36.691,108.874 37.233 C 108.714 37.499,108.377 37.958,108.125 38.255 C 107.873 38.551,107.667 38.849,107.667 38.916 C 107.667 38.984,107.404 39.396,107.083 39.833 C 106.763 40.270,106.500 40.683,106.500 40.749 C 106.500 40.816,106.306 41.106,106.068 41.394 C 105.831 41.681,105.305 42.442,104.900 43.083 C 104.495 43.725,104.049 44.400,103.909 44.583 C 103.769 44.767,103.326 45.442,102.925 46.083 C 102.525 46.725,102.003 47.485,101.765 47.773 C 101.528 48.060,101.333 48.344,101.333 48.402 C 101.333 48.518,100.426 49.911,99.750 50.833 C 98.164 52.996,97.938 53.533,98.489 53.827 C 99.075 54.141,120.676 54.058,121.130 53.741 C 121.573 53.430,121.719 48.162,121.292 47.885 C 121.177 47.811,118.579 47.712,115.518 47.667 C 109.056 47.570,109.157 47.597,110.217 46.236 C 110.556 45.801,110.833 45.357,110.833 45.248 C 110.833 45.140,110.991 44.909,111.184 44.734 C 111.377 44.560,111.680 44.154,111.858 43.833 C 112.155 43.295,112.370 42.969,113.340 41.583 C 113.698 41.072,114.037 40.552,114.917 39.163 C 115.785 37.791,116.379 36.919,116.503 36.833 C 116.568 36.787,116.776 36.445,116.965 36.072 C 117.154 35.699,117.432 35.292,117.583 35.167 C 117.734 35.041,118.005 34.671,118.186 34.344 C 118.366 34.018,118.696 33.487,118.918 33.167 C 119.141 32.846,119.478 32.358,119.667 32.083 C 119.856 31.808,120.193 31.321,120.415 31.000 C 120.638 30.679,121.012 30.060,121.246 29.625 C 121.481 29.190,121.745 28.833,121.833 28.833 C 122.093 28.833,122.211 28.061,122.008 27.682 C 121.822 27.334,121.815 27.333,110.751 27.333 L 99.680 27.333 99.340 27.698 M182.380 27.542 C 181.984 28.053,182.003 28.413,182.479 29.401 C 182.747 29.960,183.056 30.747,183.164 31.152 C 183.272 31.556,183.467 32.049,183.597 32.248 C 183.728 32.447,183.954 33.016,184.100 33.513 C 184.246 34.010,184.498 34.642,184.660 34.917 C 184.822 35.192,185.046 35.792,185.157 36.250 C 185.268 36.708,185.496 37.308,185.664 37.583 C 185.832 37.858,186.057 38.421,186.165 38.833 C 186.272 39.246,186.502 39.829,186.676 40.128 C 186.850 40.428,187.116 41.097,187.267 41.616 C 187.418 42.135,187.719 42.895,187.937 43.304 C 188.155 43.714,188.333 44.208,188.333 44.401 C 188.333 44.594,188.513 45.090,188.733 45.503 C 188.953 45.916,189.221 46.590,189.330 47.002 C 189.438 47.413,189.669 47.995,189.843 48.295 C 190.017 48.595,190.281 49.260,190.431 49.774 C 190.580 50.288,190.837 50.943,191.001 51.229 C 191.751 52.534,191.727 54.062,190.933 55.638 C 190.718 56.066,190.487 56.679,190.421 57.000 C 190.355 57.321,190.163 57.824,189.994 58.117 C 189.173 59.545,188.894 61.667,189.527 61.667 C 189.604 61.667,189.667 61.779,189.667 61.917 C 189.667 62.127,190.037 62.167,192.000 62.167 C 193.915 62.167,194.333 62.124,194.333 61.928 C 194.333 61.792,194.529 61.666,194.786 61.636 C 195.076 61.602,195.309 61.433,195.432 61.167 C 195.538 60.938,195.852 60.262,196.130 59.667 C 196.407 59.071,196.686 58.321,196.750 58.000 C 196.814 57.679,197.007 57.171,197.179 56.872 C 197.352 56.572,197.615 55.907,197.764 55.393 C 197.913 54.879,198.170 54.224,198.335 53.938 C 198.500 53.651,198.688 53.154,198.755 52.833 C 198.821 52.512,199.090 51.821,199.354 51.296 C 199.618 50.772,199.833 50.202,199.833 50.030 C 199.833 49.857,200.012 49.381,200.230 48.971 C 200.447 48.561,200.749 47.802,200.900 47.283 C 201.051 46.764,201.315 46.095,201.488 45.795 C 201.660 45.495,201.853 44.987,201.917 44.667 C 201.980 44.346,202.171 43.842,202.341 43.547 C 202.511 43.251,202.806 42.486,202.997 41.845 C 203.187 41.204,203.414 40.637,203.500 40.583 C 203.586 40.530,203.813 39.962,204.003 39.322 C 204.194 38.681,204.489 37.915,204.659 37.620 C 204.829 37.325,205.020 36.821,205.083 36.500 C 205.147 36.179,205.340 35.671,205.512 35.372 C 205.685 35.072,205.949 34.397,206.098 33.872 C 206.248 33.346,206.507 32.692,206.673 32.417 C 206.839 32.142,207.067 31.542,207.179 31.083 C 207.291 30.625,207.559 29.943,207.775 29.569 C 208.844 27.710,208.396 27.333,205.109 27.333 L 202.396 27.333 201.967 27.792 C 201.442 28.353,201.079 29.061,200.920 29.833 C 200.855 30.154,200.632 30.717,200.425 31.083 C 200.218 31.450,199.957 32.125,199.845 32.583 C 199.733 33.042,199.503 33.642,199.333 33.917 C 199.164 34.192,198.934 34.792,198.824 35.250 C 198.713 35.708,198.479 36.321,198.305 36.612 C 198.131 36.904,197.882 37.549,197.752 38.047 C 197.623 38.545,197.370 39.207,197.191 39.518 C 197.012 39.829,196.813 40.346,196.748 40.667 C 196.606 41.373,195.336 44.000,195.137 44.000 C 195.059 44.000,194.876 43.719,194.730 43.375 C 194.585 43.031,194.296 42.412,194.089 42.000 C 193.882 41.587,193.627 40.898,193.523 40.468 C 193.419 40.038,193.189 39.438,193.013 39.135 C 192.837 38.831,192.605 38.247,192.497 37.836 C 192.388 37.425,192.129 36.750,191.920 36.336 C 191.712 35.922,191.487 35.321,191.421 35.000 C 191.355 34.679,191.166 34.182,191.002 33.896 C 190.837 33.609,190.575 32.934,190.420 32.396 C 190.264 31.857,190.003 31.192,189.839 30.917 C 189.675 30.642,189.446 30.012,189.331 29.517 C 189.192 28.920,188.927 28.402,188.541 27.976 L 187.961 27.333 185.251 27.333 C 183.280 27.333,182.497 27.390,182.380 27.542 M269.500 33.007 C 270.100 33.102,270.769 33.325,271.000 33.507 C 271.229 33.688,271.593 33.912,271.808 34.004 C 272.385 34.250,273.995 35.981,274.362 36.750 C 274.538 37.117,274.808 37.642,274.963 37.917 C 275.188 38.315,275.246 38.858,275.248 40.583 L 275.250 42.750 274.556 44.083 C 272.246 48.524,267.062 49.846,263.250 46.965 C 262.792 46.618,262.367 46.334,262.306 46.334 C 262.206 46.333,261.388 45.149,260.881 44.268 C 260.769 44.075,260.479 43.183,260.236 42.286 L 259.793 40.655 260.254 38.916 C 260.508 37.959,260.855 36.968,261.025 36.713 C 261.196 36.459,261.482 36.025,261.662 35.750 C 261.842 35.475,262.310 35.004,262.703 34.703 C 263.095 34.402,263.704 33.937,264.054 33.669 C 264.451 33.367,264.985 33.145,265.471 33.081 C 265.899 33.025,266.362 32.955,266.500 32.925 C 267.055 32.807,268.478 32.846,269.500 33.007 M316.246 33.008 C 316.885 33.100,317.560 33.287,317.746 33.423 C 317.932 33.559,318.346 33.849,318.667 34.068 C 320.595 35.382,321.580 37.058,322.165 40.021 C 322.342 40.920,321.588 43.921,320.998 44.667 C 320.816 44.896,320.516 45.365,320.331 45.708 C 320.145 46.052,319.938 46.334,319.872 46.334 C 319.805 46.334,319.375 46.618,318.917 46.965 C 315.088 49.859,309.922 48.543,307.608 44.083 L 306.917 42.750 306.917 40.583 C 306.917 38.437,306.922 38.406,307.500 37.270 C 308.087 36.116,309.928 34.000,310.345 34.000 C 310.466 34.000,310.757 33.818,310.991 33.595 C 311.680 32.940,313.991 32.682,316.246 33.008 M349.167 33.007 C 349.762 33.101,350.438 33.324,350.667 33.502 C 350.896 33.680,351.327 33.949,351.625 34.099 C 352.263 34.420,353.677 36.001,354.070 36.833 C 354.221 37.154,354.473 37.642,354.630 37.917 C 354.859 38.318,354.914 38.843,354.912 40.583 L 354.909 42.750 354.219 44.083 C 351.923 48.522,346.728 49.846,342.917 46.965 C 342.458 46.618,342.034 46.334,341.973 46.334 C 341.872 46.333,341.055 45.149,340.547 44.268 C 340.019 43.352,339.479 40.754,339.659 39.993 C 340.076 38.230,340.475 36.979,340.733 36.627 C 340.886 36.420,341.156 36.025,341.333 35.750 C 341.510 35.475,341.977 35.004,342.369 34.703 C 342.762 34.402,343.370 33.937,343.721 33.669 C 344.118 33.367,344.652 33.145,345.137 33.081 C 345.566 33.025,346.029 32.955,346.167 32.925 C 346.722 32.807,348.145 32.846,349.167 33.007 " stroke="none" fill="#ffffff" fill-rule="evenodd"></path><path id="path2" d="M35.510 14.285 C 35.103 14.324,34.691 14.459,34.594 14.586 C 34.423 14.809,34.095 14.855,29.218 15.331 C 27.372 15.511,26.587 15.865,25.917 16.818 C 25.619 17.242,24.115 19.216,22.500 21.303 C 21.529 22.558,21.024 23.229,20.721 23.667 C 20.437 24.076,19.618 25.093,19.042 25.750 C 18.629 26.222,18.105 27.327,18.233 27.455 C 18.430 27.652,19.904 27.532,20.663 27.258 C 21.073 27.110,22.422 26.876,23.660 26.738 C 24.898 26.601,26.325 26.384,26.831 26.256 C 27.799 26.010,29.911 25.756,32.417 25.584 C 33.242 25.527,35.229 25.335,36.833 25.158 C 41.516 24.641,43.288 24.779,42.086 25.566 C 41.855 25.717,41.667 25.918,41.667 26.011 C 41.667 26.105,40.490 27.359,39.052 28.799 C 36.234 31.619,32.029 36.396,30.962 37.987 C 30.803 38.223,30.376 38.829,30.011 39.333 C 29.647 39.837,29.192 40.535,29.000 40.883 C 28.808 41.231,28.542 41.558,28.409 41.609 C 27.930 41.793,28.564 42.941,29.414 43.430 C 29.691 43.589,30.040 43.838,30.192 43.984 C 30.343 44.130,30.896 44.587,31.421 45.000 C 32.349 45.730,35.342 48.236,41.173 53.167 C 44.383 55.881,44.522 55.943,45.646 55.147 C 46.410 54.606,46.578 54.472,47.627 53.557 C 47.927 53.297,48.475 52.821,48.847 52.500 C 49.218 52.179,49.738 51.729,50.002 51.500 C 50.267 51.271,50.908 50.746,51.428 50.333 C 51.947 49.921,53.663 48.496,55.242 47.167 C 56.820 45.837,58.575 44.375,59.141 43.917 C 59.717 43.450,60.149 42.973,60.123 42.833 C 60.052 42.460,57.076 42.531,54.500 42.968 C 52.014 43.389,46.182 43.639,45.458 43.355 C 45.045 43.193,44.800 42.667,45.138 42.667 C 45.213 42.667,45.697 42.348,46.212 41.958 C 46.728 41.569,47.397 41.079,47.700 40.870 C 48.002 40.661,48.512 40.305,48.833 40.079 C 49.154 39.853,49.732 39.515,50.118 39.329 C 50.504 39.143,50.870 38.909,50.931 38.810 C 50.993 38.710,51.390 38.478,51.813 38.294 C 52.237 38.110,52.696 37.861,52.834 37.740 C 53.077 37.529,55.528 36.199,57.583 35.164 C 58.133 34.887,58.771 34.549,59.000 34.415 C 59.229 34.280,59.679 34.055,60.000 33.915 C 60.321 33.775,60.771 33.554,61.000 33.424 C 61.229 33.294,61.717 33.046,62.083 32.873 C 62.450 32.700,62.975 32.440,63.250 32.296 C 63.525 32.151,64.012 31.911,64.333 31.761 C 64.654 31.612,65.104 31.383,65.333 31.253 C 66.079 30.831,68.249 29.833,68.421 29.833 C 68.514 29.833,68.850 29.657,69.170 29.441 C 69.489 29.226,70.031 28.958,70.374 28.845 C 71.481 28.484,71.782 27.668,71.125 26.817 C 69.890 25.217,69.616 24.872,69.244 24.455 C 69.018 24.202,68.833 23.938,68.833 23.870 C 68.833 23.802,68.572 23.447,68.253 23.082 C 67.934 22.716,67.672 22.365,67.670 22.301 C 67.668 22.238,67.273 21.711,66.792 21.132 C 65.833 19.977,65.439 19.465,64.637 18.333 C 64.345 17.921,64.059 17.546,64.003 17.500 C 63.947 17.454,63.740 17.186,63.543 16.904 C 62.680 15.667,62.201 15.505,58.389 15.153 C 55.517 14.889,54.879 14.783,54.701 14.542 C 54.493 14.260,38.078 14.041,35.510 14.285 M139.500 19.159 C 135.633 19.988,132.755 21.532,130.152 24.175 C 129.116 25.226,127.500 27.306,127.500 27.587 C 127.500 27.687,127.310 28.026,127.078 28.340 C 126.846 28.655,126.553 29.251,126.427 29.665 C 126.301 30.078,126.046 30.754,125.861 31.167 C 124.922 33.261,124.922 40.073,125.861 42.167 C 126.046 42.579,126.301 43.255,126.427 43.669 C 126.553 44.082,126.846 44.678,127.078 44.993 C 127.310 45.307,127.500 45.652,127.500 45.759 C 127.500 45.950,127.835 46.425,129.118 48.053 C 129.465 48.494,130.313 49.337,131.000 49.925 C 131.688 50.513,132.397 51.127,132.578 51.289 C 132.758 51.451,133.208 51.738,133.578 51.928 C 133.947 52.117,134.475 52.393,134.750 52.540 C 136.316 53.377,137.245 53.718,138.983 54.094 C 141.381 54.613,143.394 54.826,144.352 54.662 C 148.355 53.979,149.312 53.771,149.776 53.484 C 150.067 53.304,150.705 53.040,151.194 52.896 C 151.683 52.752,152.197 52.534,152.335 52.411 C 152.659 52.124,153.526 51.496,154.593 50.779 C 157.178 49.040,158.846 46.278,157.688 45.656 C 157.379 45.490,156.962 45.199,156.761 45.010 C 156.560 44.821,156.315 44.667,156.216 44.667 C 156.118 44.667,155.673 44.417,155.227 44.111 C 153.937 43.226,153.297 43.204,152.647 44.025 C 152.175 44.620,150.705 45.932,149.374 46.943 C 147.431 48.420,142.287 49.152,140.333 48.229 C 139.921 48.035,139.303 47.785,138.961 47.676 C 138.618 47.566,138.294 47.405,138.241 47.319 C 138.155 47.179,137.169 46.487,135.801 45.605 C 135.536 45.434,135.040 44.879,134.701 44.371 C 134.361 43.864,133.878 43.141,133.628 42.766 C 132.001 40.328,131.256 36.132,132.071 34.000 C 132.194 33.679,132.450 32.982,132.641 32.451 C 132.831 31.919,133.146 31.282,133.340 31.034 C 133.533 30.786,134.066 30.002,134.522 29.292 C 134.979 28.581,135.416 28.000,135.493 28.000 C 135.628 28.000,136.882 27.120,137.907 26.306 C 138.412 25.905,139.784 25.324,141.250 24.889 C 142.548 24.504,145.320 24.683,146.636 25.237 C 147.197 25.473,147.748 25.667,147.860 25.667 C 148.607 25.667,151.990 28.355,152.758 29.560 C 153.116 30.120,154.272 30.098,154.907 29.518 C 155.096 29.346,155.512 29.074,155.833 28.913 C 156.154 28.752,156.613 28.462,156.854 28.268 C 157.095 28.075,157.523 27.791,157.805 27.637 C 158.844 27.071,157.028 24.251,154.558 22.595 C 154.205 22.358,153.467 21.834,152.917 21.430 C 152.367 21.026,151.579 20.603,151.167 20.488 C 150.754 20.374,150.117 20.110,149.750 19.901 C 147.840 18.811,142.819 18.448,139.500 19.159 M287.867 19.700 C 287.714 19.853,287.667 23.855,287.667 36.696 L 287.667 53.492 288.081 53.764 C 288.628 54.122,293.444 54.059,293.891 53.688 C 294.249 53.391,294.323 20.056,293.967 19.700 C 293.686 19.419,288.148 19.419,287.867 19.700 M300.458 19.680 C 300.020 19.935,300.004 53.324,300.442 53.688 C 300.637 53.850,301.351 53.930,302.900 53.963 C 305.544 54.018,305.897 53.897,305.957 52.913 C 306.105 50.495,306.182 50.129,306.486 50.404 C 306.646 50.548,306.860 50.667,306.963 50.667 C 307.065 50.667,307.659 51.154,308.282 51.750 C 308.904 52.346,309.466 52.833,309.529 52.833 C 309.593 52.833,310.006 53.053,310.447 53.321 C 311.612 54.029,314.292 54.715,315.833 54.700 C 317.205 54.687,320.849 53.850,321.314 53.442 C 321.462 53.311,321.958 53.014,322.417 52.780 C 323.266 52.347,325.297 50.673,325.564 50.186 C 325.645 50.038,325.874 49.729,326.073 49.500 C 326.555 48.945,327.594 47.189,327.750 46.667 C 327.818 46.438,328.057 45.810,328.281 45.272 C 329.432 42.505,329.053 37.085,327.487 33.917 C 326.601 32.126,324.283 29.504,322.995 28.838 C 322.768 28.721,322.433 28.492,322.250 28.329 C 322.067 28.167,321.579 27.919,321.167 27.780 C 320.754 27.640,320.042 27.351,319.583 27.138 C 318.302 26.541,313.092 26.547,312.083 27.146 C 311.717 27.363,311.128 27.644,310.774 27.769 C 310.047 28.028,309.326 28.559,308.146 29.708 C 306.747 31.070,306.669 30.800,306.668 24.575 C 306.667 21.162,306.613 19.846,306.467 19.700 C 306.214 19.447,300.889 19.429,300.458 19.680 M367.533 19.700 C 367.380 19.853,367.333 23.855,367.333 36.696 L 367.333 53.492 367.748 53.764 C 368.295 54.122,373.111 54.059,373.558 53.688 C 373.916 53.391,373.990 20.056,373.633 19.700 C 373.352 19.419,367.814 19.419,367.533 19.700 M379.033 19.700 C 378.676 20.057,378.751 53.391,379.110 53.688 C 379.319 53.861,380.042 53.917,382.084 53.917 C 384.126 53.917,384.850 53.861,385.058 53.688 C 385.416 53.391,385.490 20.056,385.133 19.700 C 384.852 19.419,379.314 19.419,379.033 19.700 M239.542 21.665 L 239.000 21.995 239.000 24.223 C 239.000 26.739,238.752 27.333,237.700 27.333 C 236.790 27.333,236.667 27.685,236.667 30.271 C 236.667 32.863,236.718 33.000,237.682 33.000 C 239.038 33.000,238.993 32.772,239.047 39.917 C 239.105 47.590,239.235 48.511,240.578 50.750 C 241.754 52.711,244.958 53.993,248.696 53.999 C 250.150 54.001,250.167 53.965,250.167 50.771 C 250.167 47.569,250.220 47.667,248.478 47.667 C 245.686 47.667,245.764 47.881,245.697 39.919 L 245.645 33.588 246.007 33.294 C 246.301 33.056,246.695 33.000,248.068 33.000 C 250.252 33.000,250.167 33.109,250.167 30.337 C 250.167 27.309,250.184 27.333,248.004 27.333 L 246.361 27.333 246.014 26.772 C 245.708 26.278,245.667 25.948,245.667 24.013 L 245.667 21.816 245.089 21.575 C 244.134 21.176,240.240 21.239,239.542 21.665 M174.000 26.820 C 173.232 26.972,171.969 27.711,170.833 28.672 C 170.329 29.099,169.673 29.496,169.375 29.554 L 168.833 29.658 168.833 28.937 C 168.833 27.547,168.426 27.333,165.770 27.333 C 162.465 27.333,162.833 25.640,162.833 40.835 C 162.833 52.363,162.857 53.479,163.108 53.688 C 163.433 53.958,167.297 54.092,168.500 53.876 L 169.250 53.741 169.333 45.898 L 169.417 38.056 170.061 36.804 C 171.547 33.916,173.725 32.601,176.565 32.879 C 178.002 33.019,178.505 32.603,178.851 30.988 C 178.954 30.509,179.216 29.735,179.434 29.267 C 179.839 28.397,179.938 27.590,179.688 27.195 C 179.421 26.775,175.530 26.518,174.000 26.820 M219.048 26.830 C 218.479 26.895,217.906 27.037,217.775 27.146 C 217.644 27.255,217.077 27.524,216.514 27.744 C 214.875 28.387,212.636 30.508,212.413 31.632 C 212.364 31.880,212.164 32.673,211.969 33.393 L 211.614 34.704 212.077 36.600 C 212.678 39.068,213.789 40.621,215.476 41.354 C 215.875 41.528,216.382 41.812,216.603 41.985 C 216.841 42.173,217.427 42.349,218.044 42.418 C 218.615 42.482,219.496 42.680,220.000 42.857 C 220.504 43.034,221.761 43.285,222.792 43.415 C 225.751 43.788,226.959 44.534,227.119 46.088 L 227.213 47.001 226.398 47.816 C 224.773 49.441,218.569 48.993,215.676 47.042 C 215.245 46.751,214.975 46.682,214.593 46.763 C 213.893 46.913,213.864 46.938,213.449 47.731 C 213.062 48.474,212.746 49.005,211.882 50.371 C 211.298 51.295,211.340 51.708,212.041 51.929 C 212.248 51.994,212.678 52.224,212.997 52.440 C 213.316 52.656,213.699 52.833,213.849 52.833 C 213.998 52.833,214.538 53.057,215.050 53.330 C 215.562 53.603,216.304 53.873,216.699 53.931 C 217.094 53.988,218.003 54.180,218.721 54.358 C 221.267 54.987,226.697 54.527,228.399 53.537 C 228.684 53.372,229.267 53.104,229.694 52.943 C 230.584 52.607,232.870 50.351,233.257 49.426 C 233.791 48.147,234.054 46.464,233.846 45.653 C 233.737 45.228,233.583 44.419,233.503 43.855 C 233.250 42.067,231.660 40.094,229.833 39.302 C 229.421 39.123,228.959 38.864,228.808 38.727 C 228.657 38.590,227.982 38.380,227.308 38.261 C 226.634 38.142,225.558 37.887,224.917 37.694 C 224.275 37.502,223.054 37.270,222.203 37.180 C 219.536 36.897,218.402 36.041,218.570 34.441 C 218.757 32.663,220.976 31.870,224.056 32.480 C 224.988 32.665,226.231 32.901,226.818 33.005 C 227.406 33.109,228.296 33.425,228.797 33.707 L 229.707 34.221 230.270 33.917 C 230.642 33.717,230.977 33.324,231.253 32.765 C 231.483 32.299,231.836 31.709,232.037 31.455 C 232.594 30.753,232.572 29.341,232.000 29.074 C 231.771 28.967,231.096 28.645,230.500 28.359 C 227.118 26.732,223.799 26.289,219.048 26.830 M263.583 26.811 C 263.217 26.879,262.741 27.031,262.525 27.149 C 262.310 27.266,261.729 27.502,261.235 27.672 C 260.740 27.842,260.084 28.173,259.777 28.407 C 259.470 28.642,259.149 28.833,259.065 28.833 C 258.716 28.833,255.333 32.328,255.333 32.688 C 255.333 32.786,255.174 33.089,254.979 33.362 C 254.785 33.636,254.441 34.360,254.216 34.971 C 253.991 35.583,253.689 36.383,253.545 36.750 C 253.150 37.754,253.167 43.446,253.568 44.500 C 253.725 44.913,254.007 45.687,254.196 46.220 C 254.551 47.226,255.432 48.803,255.976 49.404 C 256.147 49.594,256.356 49.880,256.440 50.038 C 256.657 50.448,259.467 52.833,259.732 52.833 C 259.854 52.833,260.245 53.032,260.602 53.274 C 261.832 54.110,265.684 54.906,267.313 54.661 C 268.657 54.458,271.151 53.731,271.474 53.448 C 271.626 53.315,271.975 53.091,272.250 52.950 C 272.525 52.809,273.196 52.266,273.741 51.743 C 274.998 50.538,275.186 50.615,275.417 52.431 L 275.583 53.745 276.250 53.863 C 277.562 54.095,280.980 54.019,281.508 53.746 L 282.000 53.491 282.000 40.987 C 282.000 25.707,282.404 27.333,278.607 27.333 C 275.840 27.333,275.501 27.457,275.499 28.468 C 275.496 30.258,274.996 30.795,274.182 29.881 C 273.853 29.512,273.322 29.033,273.002 28.816 C 272.683 28.599,272.289 28.289,272.127 28.127 C 271.966 27.966,271.731 27.833,271.607 27.833 C 271.482 27.833,270.938 27.596,270.398 27.306 C 269.364 26.751,265.444 26.466,263.583 26.811 M343.250 26.827 C 342.351 27.015,340.032 27.995,339.387 28.458 C 339.100 28.665,338.801 28.833,338.722 28.833 C 338.332 28.833,335.571 31.750,334.931 32.838 C 334.251 33.993,333.439 35.900,333.124 37.083 C 332.820 38.223,332.902 43.614,333.237 44.500 C 333.392 44.913,333.674 45.687,333.863 46.220 C 334.218 47.226,335.099 48.803,335.642 49.404 C 335.814 49.594,336.023 49.880,336.107 50.038 C 336.324 50.448,339.133 52.833,339.399 52.833 C 339.521 52.833,339.912 53.032,340.268 53.274 C 341.490 54.104,345.334 54.903,346.980 54.668 C 348.238 54.489,350.820 53.728,351.151 53.439 C 351.297 53.311,351.642 53.091,351.917 52.950 C 352.192 52.809,352.863 52.266,353.408 51.743 C 354.664 50.538,354.853 50.615,355.083 52.431 L 355.250 53.745 355.917 53.863 C 357.228 54.095,360.646 54.019,361.175 53.746 L 361.667 53.491 361.667 40.853 L 361.667 28.215 361.258 27.774 C 360.409 26.858,355.310 27.192,355.206 28.171 C 354.943 30.643,354.771 30.845,353.791 29.833 C 352.753 28.762,351.772 28.023,351.046 27.765 C 350.700 27.642,350.126 27.369,349.770 27.158 C 349.063 26.739,344.723 26.518,343.250 26.827 M99.340 27.698 C 99.031 28.030,99.000 28.275,99.004 30.406 C 99.009 33.804,98.410 33.486,104.914 33.540 L 110.246 33.583 110.469 34.051 C 110.666 34.461,110.656 34.570,110.388 34.946 C 109.927 35.594,109.201 36.691,108.874 37.233 C 108.714 37.499,108.377 37.958,108.125 38.255 C 107.873 38.551,107.667 38.849,107.667 38.916 C 107.667 38.984,107.404 39.396,107.083 39.833 C 106.763 40.270,106.500 40.683,106.500 40.749 C 106.500 40.816,106.306 41.106,106.068 41.394 C 105.831 41.681,105.305 42.442,104.900 43.083 C 104.495 43.725,104.049 44.400,103.909 44.583 C 103.769 44.767,103.326 45.442,102.925 46.083 C 102.525 46.725,102.003 47.485,101.765 47.773 C 101.528 48.060,101.333 48.344,101.333 48.402 C 101.333 48.518,100.426 49.911,99.750 50.833 C 98.164 52.996,97.938 53.533,98.489 53.827 C 99.075 54.141,120.676 54.058,121.130 53.741 C 121.573 53.430,121.719 48.162,121.292 47.885 C 121.177 47.811,118.579 47.712,115.518 47.667 C 109.056 47.570,109.157 47.597,110.217 46.236 C 110.556 45.801,110.833 45.357,110.833 45.248 C 110.833 45.140,110.991 44.909,111.184 44.734 C 111.377 44.560,111.680 44.154,111.858 43.833 C 112.155 43.295,112.370 42.969,113.340 41.583 C 113.698 41.072,114.037 40.552,114.917 39.163 C 115.785 37.791,116.379 36.919,116.503 36.833 C 116.568 36.787,116.776 36.445,116.965 36.072 C 117.154 35.699,117.432 35.292,117.583 35.167 C 117.734 35.041,118.005 34.671,118.186 34.344 C 118.366 34.018,118.696 33.487,118.918 33.167 C 119.141 32.846,119.478 32.358,119.667 32.083 C 119.856 31.808,120.193 31.321,120.415 31.000 C 120.638 30.679,121.012 30.060,121.246 29.625 C 121.481 29.190,121.745 28.833,121.833 28.833 C 122.093 28.833,122.211 28.061,122.008 27.682 C 121.822 27.334,121.815 27.333,110.751 27.333 L 99.680 27.333 99.340 27.698 M182.380 27.542 C 181.984 28.053,182.003 28.413,182.479 29.401 C 182.747 29.960,183.056 30.747,183.164 31.152 C 183.272 31.556,183.467 32.049,183.597 32.248 C 183.728 32.447,183.954 33.016,184.100 33.513 C 184.246 34.010,184.498 34.642,184.660 34.917 C 184.822 35.192,185.046 35.792,185.157 36.250 C 185.268 36.708,185.496 37.308,185.664 37.583 C 185.832 37.858,186.057 38.421,186.165 38.833 C 186.272 39.246,186.502 39.829,186.676 40.128 C 186.850 40.428,187.116 41.097,187.267 41.616 C 187.418 42.135,187.719 42.895,187.937 43.304 C 188.155 43.714,188.333 44.208,188.333 44.401 C 188.333 44.594,188.513 45.090,188.733 45.503 C 188.953 45.916,189.221 46.590,189.330 47.002 C 189.438 47.413,189.669 47.995,189.843 48.295 C 190.017 48.595,190.281 49.260,190.431 49.774 C 190.580 50.288,190.837 50.943,191.001 51.229 C 191.751 52.534,191.727 54.062,190.933 55.638 C 190.718 56.066,190.487 56.679,190.421 57.000 C 190.355 57.321,190.163 57.824,189.994 58.117 C 189.173 59.545,188.894 61.667,189.527 61.667 C 189.604 61.667,189.667 61.779,189.667 61.917 C 189.667 62.127,190.037 62.167,192.000 62.167 C 193.915 62.167,194.333 62.124,194.333 61.928 C 194.333 61.792,194.529 61.666,194.786 61.636 C 195.076 61.602,195.309 61.433,195.432 61.167 C 195.538 60.938,195.852 60.262,196.130 59.667 C 196.407 59.071,196.686 58.321,196.750 58.000 C 196.814 57.679,197.007 57.171,197.179 56.872 C 197.352 56.572,197.615 55.907,197.764 55.393 C 197.913 54.879,198.170 54.224,198.335 53.938 C 198.500 53.651,198.688 53.154,198.755 52.833 C 198.821 52.512,199.090 51.821,199.354 51.296 C 199.618 50.772,199.833 50.202,199.833 50.030 C 199.833 49.857,200.012 49.381,200.230 48.971 C 200.447 48.561,200.749 47.802,200.900 47.283 C 201.051 46.764,201.315 46.095,201.488 45.795 C 201.660 45.495,201.853 44.987,201.917 44.667 C 201.980 44.346,202.171 43.842,202.341 43.547 C 202.511 43.251,202.806 42.486,202.997 41.845 C 203.187 41.204,203.414 40.637,203.500 40.583 C 203.586 40.530,203.813 39.962,204.003 39.322 C 204.194 38.681,204.489 37.915,204.659 37.620 C 204.829 37.325,205.020 36.821,205.083 36.500 C 205.147 36.179,205.340 35.671,205.512 35.372 C 205.685 35.072,205.949 34.397,206.098 33.872 C 206.248 33.346,206.507 32.692,206.673 32.417 C 206.839 32.142,207.067 31.542,207.179 31.083 C 207.291 30.625,207.559 29.943,207.775 29.569 C 208.844 27.710,208.396 27.333,205.109 27.333 L 202.396 27.333 201.967 27.792 C 201.442 28.353,201.079 29.061,200.920 29.833 C 200.855 30.154,200.632 30.717,200.425 31.083 C 200.218 31.450,199.957 32.125,199.845 32.583 C 199.733 33.042,199.503 33.642,199.333 33.917 C 199.164 34.192,198.934 34.792,198.824 35.250 C 198.713 35.708,198.479 36.321,198.305 36.612 C 198.131 36.904,197.882 37.549,197.752 38.047 C 197.623 38.545,197.370 39.207,197.191 39.518 C 197.012 39.829,196.813 40.346,196.748 40.667 C 196.606 41.373,195.336 44.000,195.137 44.000 C 195.059 44.000,194.876 43.719,194.730 43.375 C 194.585 43.031,194.296 42.412,194.089 42.000 C 193.882 41.587,193.627 40.898,193.523 40.468 C 193.419 40.038,193.189 39.438,193.013 39.135 C 192.837 38.831,192.605 38.247,192.497 37.836 C 192.388 37.425,192.129 36.750,191.920 36.336 C 191.712 35.922,191.487 35.321,191.421 35.000 C 191.355 34.679,191.166 34.182,191.002 33.896 C 190.837 33.609,190.575 32.934,190.420 32.396 C 190.264 31.857,190.003 31.192,189.839 30.917 C 189.675 30.642,189.446 30.012,189.331 29.517 C 189.192 28.920,188.927 28.402,188.541 27.976 L 187.961 27.333 185.251 27.333 C 183.280 27.333,182.497 27.390,182.380 27.542 M269.500 33.007 C 270.100 33.102,270.769 33.325,271.000 33.507 C 271.229 33.688,271.593 33.912,271.808 34.004 C 272.385 34.250,273.995 35.981,274.362 36.750 C 274.538 37.117,274.808 37.642,274.963 37.917 C 275.188 38.315,275.246 38.858,275.248 40.583 L 275.250 42.750 274.556 44.083 C 272.246 48.524,267.062 49.846,263.250 46.965 C 262.792 46.618,262.367 46.334,262.306 46.334 C 262.206 46.333,261.388 45.149,260.881 44.268 C 260.769 44.075,260.479 43.183,260.236 42.286 L 259.793 40.655 260.254 38.916 C 260.508 37.959,260.855 36.968,261.025 36.713 C 261.196 36.459,261.482 36.025,261.662 35.750 C 261.842 35.475,262.310 35.004,262.703 34.703 C 263.095 34.402,263.704 33.937,264.054 33.669 C 264.451 33.367,264.985 33.145,265.471 33.081 C 265.899 33.025,266.362 32.955,266.500 32.925 C 267.055 32.807,268.478 32.846,269.500 33.007 M316.246 33.008 C 316.885 33.100,317.560 33.287,317.746 33.423 C 317.932 33.559,318.346 33.849,318.667 34.068 C 320.595 35.382,321.580 37.058,322.165 40.021 C 322.342 40.920,321.588 43.921,320.998 44.667 C 320.816 44.896,320.516 45.365,320.331 45.708 C 320.145 46.052,319.938 46.334,319.872 46.334 C 319.805 46.334,319.375 46.618,318.917 46.965 C 315.088 49.859,309.922 48.543,307.608 44.083 L 306.917 42.750 306.917 40.583 C 306.917 38.437,306.922 38.406,307.500 37.270 C 308.087 36.116,309.928 34.000,310.345 34.000 C 310.466 34.000,310.757 33.818,310.991 33.595 C 311.680 32.940,313.991 32.682,316.246 33.008 M349.167 33.007 C 349.762 33.101,350.438 33.324,350.667 33.502 C 350.896 33.680,351.327 33.949,351.625 34.099 C 352.263 34.420,353.677 36.001,354.070 36.833 C 354.221 37.154,354.473 37.642,354.630 37.917 C 354.859 38.318,354.914 38.843,354.912 40.583 L 354.909 42.750 354.219 44.083 C 351.923 48.522,346.728 49.846,342.917 46.965 C 342.458 46.618,342.034 46.334,341.973 46.334 C 341.872 46.333,341.055 45.149,340.547 44.268 C 340.019 43.352,339.479 40.754,339.659 39.993 C 340.076 38.230,340.475 36.979,340.733 36.627 C 340.886 36.420,341.156 36.025,341.333 35.750 C 341.510 35.475,341.977 35.004,342.369 34.703 C 342.762 34.402,343.370 33.937,343.721 33.669 C 344.118 33.367,344.652 33.145,345.137 33.081 C 345.566 33.025,346.029 32.955,346.167 32.925 C 346.722 32.807,348.145 32.846,349.167 33.007 " stroke="none" fill="#ffffff" fill-rule="evenodd"></path><path id="path4" d="M35.510 14.285 C 35.103 14.324,34.691 14.459,34.594 14.586 C 34.423 14.809,34.095 14.855,29.218 15.331 C 27.372 15.511,26.587 15.865,25.917 16.818 C 25.619 17.242,24.115 19.216,22.500 21.303 C 21.529 22.558,21.024 23.229,20.721 23.667 C 20.437 24.076,19.618 25.093,19.042 25.750 C 18.629 26.222,18.105 27.327,18.233 27.455 C 18.430 27.652,19.904 27.532,20.663 27.258 C 21.073 27.110,22.422 26.876,23.660 26.738 C 24.898 26.601,26.325 26.384,26.831 26.256 C 27.799 26.010,29.911 25.756,32.417 25.584 C 33.242 25.527,35.229 25.335,36.833 25.158 C 41.516 24.641,43.288 24.779,42.086 25.566 C 41.855 25.717,41.667 25.918,41.667 26.011 C 41.667 26.105,40.490 27.359,39.052 28.799 C 36.234 31.619,32.029 36.396,30.962 37.987 C 30.803 38.223,30.376 38.829,30.011 39.333 C 29.647 39.837,29.192 40.535,29.000 40.883 C 28.808 41.231,28.542 41.558,28.409 41.609 C 27.930 41.793,28.564 42.941,29.414 43.430 C 29.691 43.589,30.040 43.838,30.192 43.984 C 30.343 44.130,30.896 44.587,31.421 45.000 C 32.349 45.730,35.342 48.236,41.173 53.167 C 44.383 55.881,44.522 55.943,45.646 55.147 C 46.410 54.606,46.578 54.472,47.627 53.557 C 47.927 53.297,48.475 52.821,48.847 52.500 C 49.218 52.179,49.738 51.729,50.002 51.500 C 50.267 51.271,50.908 50.746,51.428 50.333 C 51.947 49.921,53.663 48.496,55.242 47.167 C 56.820 45.837,58.575 44.375,59.141 43.917 C 59.717 43.450,60.149 42.973,60.123 42.833 C 60.052 42.460,57.076 42.531,54.500 42.968 C 52.014 43.389,46.182 43.639,45.458 43.355 C 45.045 43.193,44.800 42.667,45.138 42.667 C 45.213 42.667,45.697 42.348,46.212 41.958 C 46.728 41.569,47.397 41.079,47.700 40.870 C 48.002 40.661,48.512 40.305,48.833 40.079 C 49.154 39.853,49.732 39.515,50.118 39.329 C 50.504 39.143,50.870 38.909,50.931 38.810 C 50.993 38.710,51.390 38.478,51.813 38.294 C 52.237 38.110,52.696 37.861,52.834 37.740 C 53.077 37.529,55.528 36.199,57.583 35.164 C 58.133 34.887,58.771 34.549,59.000 34.415 C 59.229 34.280,59.679 34.055,60.000 33.915 C 60.321 33.775,60.771 33.554,61.000 33.424 C 61.229 33.294,61.717 33.046,62.083 32.873 C 62.450 32.700,62.975 32.440,63.250 32.296 C 63.525 32.151,64.012 31.911,64.333 31.761 C 64.654 31.612,65.104 31.383,65.333 31.253 C 66.079 30.831,68.249 29.833,68.421 29.833 C 68.514 29.833,68.850 29.657,69.170 29.441 C 69.489 29.226,70.031 28.958,70.374 28.845 C 71.481 28.484,71.782 27.668,71.125 26.817 C 69.890 25.217,69.616 24.872,69.244 24.455 C 69.018 24.202,68.833 23.938,68.833 23.870 C 68.833 23.802,68.572 23.447,68.253 23.082 C 67.934 22.716,67.672 22.365,67.670 22.301 C 67.668 22.238,67.273 21.711,66.792 21.132 C 65.833 19.977,65.439 19.465,64.637 18.333 C 64.345 17.921,64.059 17.546,64.003 17.500 C 63.947 17.454,63.740 17.186,63.543 16.904 C 62.680 15.667,62.201 15.505,58.389 15.153 C 55.517 14.889,54.879 14.783,54.701 14.542 C 54.493 14.260,38.078 14.041,35.510 14.285 M139.500 19.159 C 135.633 19.988,132.755 21.532,130.152 24.175 C 129.116 25.226,127.500 27.306,127.500 27.587 C 127.500 27.687,127.310 28.026,127.078 28.340 C 126.846 28.655,126.553 29.251,126.427 29.665 C 126.301 30.078,126.046 30.754,125.861 31.167 C 124.922 33.261,124.922 40.073,125.861 42.167 C 126.046 42.579,126.301 43.255,126.427 43.669 C 126.553 44.082,126.846 44.678,127.078 44.993 C 127.310 45.307,127.500 45.652,127.500 45.759 C 127.500 45.950,127.835 46.425,129.118 48.053 C 129.465 48.494,130.313 49.337,131.000 49.925 C 131.688 50.513,132.397 51.127,132.578 51.289 C 132.758 51.451,133.208 51.738,133.578 51.928 C 133.947 52.117,134.475 52.393,134.750 52.540 C 136.316 53.377,137.245 53.718,138.983 54.094 C 141.381 54.613,143.394 54.826,144.352 54.662 C 148.355 53.979,149.312 53.771,149.776 53.484 C 150.067 53.304,150.705 53.040,151.194 52.896 C 151.683 52.752,152.197 52.534,152.335 52.411 C 152.659 52.124,153.526 51.496,154.593 50.779 C 157.178 49.040,158.846 46.278,157.688 45.656 C 157.379 45.490,156.962 45.199,156.761 45.010 C 156.560 44.821,156.315 44.667,156.216 44.667 C 156.118 44.667,155.673 44.417,155.227 44.111 C 153.937 43.226,153.297 43.204,152.647 44.025 C 152.175 44.620,150.705 45.932,149.374 46.943 C 147.431 48.420,142.287 49.152,140.333 48.229 C 139.921 48.035,139.303 47.785,138.961 47.676 C 138.618 47.566,138.294 47.405,138.241 47.319 C 138.155 47.179,137.169 46.487,135.801 45.605 C 135.536 45.434,135.040 44.879,134.701 44.371 C 134.361 43.864,133.878 43.141,133.628 42.766 C 132.001 40.328,131.256 36.132,132.071 34.000 C 132.194 33.679,132.450 32.982,132.641 32.451 C 132.831 31.919,133.146 31.282,133.340 31.034 C 133.533 30.786,134.066 30.002,134.522 29.292 C 134.979 28.581,135.416 28.000,135.493 28.000 C 135.628 28.000,136.882 27.120,137.907 26.306 C 138.412 25.905,139.784 25.324,141.250 24.889 C 142.548 24.504,145.320 24.683,146.636 25.237 C 147.197 25.473,147.748 25.667,147.860 25.667 C 148.607 25.667,151.990 28.355,152.758 29.560 C 153.116 30.120,154.272 30.098,154.907 29.518 C 155.096 29.346,155.512 29.074,155.833 28.913 C 156.154 28.752,156.613 28.462,156.854 28.268 C 157.095 28.075,157.523 27.791,157.805 27.637 C 158.844 27.071,157.028 24.251,154.558 22.595 C 154.205 22.358,153.467 21.834,152.917 21.430 C 152.367 21.026,151.579 20.603,151.167 20.488 C 150.754 20.374,150.117 20.110,149.750 19.901 C 147.840 18.811,142.819 18.448,139.500 19.159 M287.867 19.700 C 287.714 19.853,287.667 23.855,287.667 36.696 L 287.667 53.492 288.081 53.764 C 288.628 54.122,293.444 54.059,293.891 53.688 C 294.249 53.391,294.323 20.056,293.967 19.700 C 293.686 19.419,288.148 19.419,287.867 19.700 M300.458 19.680 C 300.020 19.935,300.004 53.324,300.442 53.688 C 300.637 53.850,301.351 53.930,302.900 53.963 C 305.544 54.018,305.897 53.897,305.957 52.913 C 306.105 50.495,306.182 50.129,306.486 50.404 C 306.646 50.548,306.860 50.667,306.963 50.667 C 307.065 50.667,307.659 51.154,308.282 51.750 C 308.904 52.346,309.466 52.833,309.529 52.833 C 309.593 52.833,310.006 53.053,310.447 53.321 C 311.612 54.029,314.292 54.715,315.833 54.700 C 317.205 54.687,320.849 53.850,321.314 53.442 C 321.462 53.311,321.958 53.014,322.417 52.780 C 323.266 52.347,325.297 50.673,325.564 50.186 C 325.645 50.038,325.874 49.729,326.073 49.500 C 326.555 48.945,327.594 47.189,327.750 46.667 C 327.818 46.438,328.057 45.810,328.281 45.272 C 329.432 42.505,329.053 37.085,327.487 33.917 C 326.601 32.126,324.283 29.504,322.995 28.838 C 322.768 28.721,322.433 28.492,322.250 28.329 C 322.067 28.167,321.579 27.919,321.167 27.780 C 320.754 27.640,320.042 27.351,319.583 27.138 C 318.302 26.541,313.092 26.547,312.083 27.146 C 311.717 27.363,311.128 27.644,310.774 27.769 C 310.047 28.028,309.326 28.559,308.146 29.708 C 306.747 31.070,306.669 30.800,306.668 24.575 C 306.667 21.162,306.613 19.846,306.467 19.700 C 306.214 19.447,300.889 19.429,300.458 19.680 M367.533 19.700 C 367.380 19.853,367.333 23.855,367.333 36.696 L 367.333 53.492 367.748 53.764 C 368.295 54.122,373.111 54.059,373.558 53.688 C 373.916 53.391,373.990 20.056,373.633 19.700 C 373.352 19.419,367.814 19.419,367.533 19.700 M379.033 19.700 C 378.676 20.057,378.751 53.391,379.110 53.688 C 379.319 53.861,380.042 53.917,382.084 53.917 C 384.126 53.917,384.850 53.861,385.058 53.688 C 385.416 53.391,385.490 20.056,385.133 19.700 C 384.852 19.419,379.314 19.419,379.033 19.700 M239.542 21.665 L 239.000 21.995 239.000 24.223 C 239.000 26.739,238.752 27.333,237.700 27.333 C 236.790 27.333,236.667 27.685,236.667 30.271 C 236.667 32.863,236.718 33.000,237.682 33.000 C 239.038 33.000,238.993 32.772,239.047 39.917 C 239.105 47.590,239.235 48.511,240.578 50.750 C 241.754 52.711,244.958 53.993,248.696 53.999 C 250.150 54.001,250.167 53.965,250.167 50.771 C 250.167 47.569,250.220 47.667,248.478 47.667 C 245.686 47.667,245.764 47.881,245.697 39.919 L 245.645 33.588 246.007 33.294 C 246.301 33.056,246.695 33.000,248.068 33.000 C 250.252 33.000,250.167 33.109,250.167 30.337 C 250.167 27.309,250.184 27.333,248.004 27.333 L 246.361 27.333 246.014 26.772 C 245.708 26.278,245.667 25.948,245.667 24.013 L 245.667 21.816 245.089 21.575 C 244.134 21.176,240.240 21.239,239.542 21.665 M174.000 26.820 C 173.232 26.972,171.969 27.711,170.833 28.672 C 170.329 29.099,169.673 29.496,169.375 29.554 L 168.833 29.658 168.833 28.937 C 168.833 27.547,168.426 27.333,165.770 27.333 C 162.465 27.333,162.833 25.640,162.833 40.835 C 162.833 52.363,162.857 53.479,163.108 53.688 C 163.433 53.958,167.297 54.092,168.500 53.876 L 169.250 53.741 169.333 45.898 L 169.417 38.056 170.061 36.804 C 171.547 33.916,173.725 32.601,176.565 32.879 C 178.002 33.019,178.505 32.603,178.851 30.988 C 178.954 30.509,179.216 29.735,179.434 29.267 C 179.839 28.397,179.938 27.590,179.688 27.195 C 179.421 26.775,175.530 26.518,174.000 26.820 M219.048 26.830 C 218.479 26.895,217.906 27.037,217.775 27.146 C 217.644 27.255,217.077 27.524,216.514 27.744 C 214.875 28.387,212.636 30.508,212.413 31.632 C 212.364 31.880,212.164 32.673,211.969 33.393 L 211.614 34.704 212.077 36.600 C 212.678 39.068,213.789 40.621,215.476 41.354 C 215.875 41.528,216.382 41.812,216.603 41.985 C 216.841 42.173,217.427 42.349,218.044 42.418 C 218.615 42.482,219.496 42.680,220.000 42.857 C 220.504 43.034,221.761 43.285,222.792 43.415 C 225.751 43.788,226.959 44.534,227.119 46.088 L 227.213 47.001 226.398 47.816 C 224.773 49.441,218.569 48.993,215.676 47.042 C 215.245 46.751,214.975 46.682,214.593 46.763 C 213.893 46.913,213.864 46.938,213.449 47.731 C 213.062 48.474,212.746 49.005,211.882 50.371 C 211.298 51.295,211.340 51.708,212.041 51.929 C 212.248 51.994,212.678 52.224,212.997 52.440 C 213.316 52.656,213.699 52.833,213.849 52.833 C 213.998 52.833,214.538 53.057,215.050 53.330 C 215.562 53.603,216.304 53.873,216.699 53.931 C 217.094 53.988,218.003 54.180,218.721 54.358 C 221.267 54.987,226.697 54.527,228.399 53.537 C 228.684 53.372,229.267 53.104,229.694 52.943 C 230.584 52.607,232.870 50.351,233.257 49.426 C 233.791 48.147,234.054 46.464,233.846 45.653 C 233.737 45.228,233.583 44.419,233.503 43.855 C 233.250 42.067,231.660 40.094,229.833 39.302 C 229.421 39.123,228.959 38.864,228.808 38.727 C 228.657 38.590,227.982 38.380,227.308 38.261 C 226.634 38.142,225.558 37.887,224.917 37.694 C 224.275 37.502,223.054 37.270,222.203 37.180 C 219.536 36.897,218.402 36.041,218.570 34.441 C 218.757 32.663,220.976 31.870,224.056 32.480 C 224.988 32.665,226.231 32.901,226.818 33.005 C 227.406 33.109,228.296 33.425,228.797 33.707 L 229.707 34.221 230.270 33.917 C 230.642 33.717,230.977 33.324,231.253 32.765 C 231.483 32.299,231.836 31.709,232.037 31.455 C 232.594 30.753,232.572 29.341,232.000 29.074 C 231.771 28.967,231.096 28.645,230.500 28.359 C 227.118 26.732,223.799 26.289,219.048 26.830 M263.583 26.811 C 263.217 26.879,262.741 27.031,262.525 27.149 C 262.310 27.266,261.729 27.502,261.235 27.672 C 260.740 27.842,260.084 28.173,259.777 28.407 C 259.470 28.642,259.149 28.833,259.065 28.833 C 258.716 28.833,255.333 32.328,255.333 32.688 C 255.333 32.786,255.174 33.089,254.979 33.362 C 254.785 33.636,254.441 34.360,254.216 34.971 C 253.991 35.583,253.689 36.383,253.545 36.750 C 253.150 37.754,253.167 43.446,253.568 44.500 C 253.725 44.913,254.007 45.687,254.196 46.220 C 254.551 47.226,255.432 48.803,255.976 49.404 C 256.147 49.594,256.356 49.880,256.440 50.038 C 256.657 50.448,259.467 52.833,259.732 52.833 C 259.854 52.833,260.245 53.032,260.602 53.274 C 261.832 54.110,265.684 54.906,267.313 54.661 C 268.657 54.458,271.151 53.731,271.474 53.448 C 271.626 53.315,271.975 53.091,272.250 52.950 C 272.525 52.809,273.196 52.266,273.741 51.743 C 274.998 50.538,275.186 50.615,275.417 52.431 L 275.583 53.745 276.250 53.863 C 277.562 54.095,280.980 54.019,281.508 53.746 L 282.000 53.491 282.000 40.987 C 282.000 25.707,282.404 27.333,278.607 27.333 C 275.840 27.333,275.501 27.457,275.499 28.468 C 275.496 30.258,274.996 30.795,274.182 29.881 C 273.853 29.512,273.322 29.033,273.002 28.816 C 272.683 28.599,272.289 28.289,272.127 28.127 C 271.966 27.966,271.731 27.833,271.607 27.833 C 271.482 27.833,270.938 27.596,270.398 27.306 C 269.364 26.751,265.444 26.466,263.583 26.811 M343.250 26.827 C 342.351 27.015,340.032 27.995,339.387 28.458 C 339.100 28.665,338.801 28.833,338.722 28.833 C 338.332 28.833,335.571 31.750,334.931 32.838 C 334.251 33.993,333.439 35.900,333.124 37.083 C 332.820 38.223,332.902 43.614,333.237 44.500 C 333.392 44.913,333.674 45.687,333.863 46.220 C 334.218 47.226,335.099 48.803,335.642 49.404 C 335.814 49.594,336.023 49.880,336.107 50.038 C 336.324 50.448,339.133 52.833,339.399 52.833 C 339.521 52.833,339.912 53.032,340.268 53.274 C 341.490 54.104,345.334 54.903,346.980 54.668 C 348.238 54.489,350.820 53.728,351.151 53.439 C 351.297 53.311,351.642 53.091,351.917 52.950 C 352.192 52.809,352.863 52.266,353.408 51.743 C 354.664 50.538,354.853 50.615,355.083 52.431 L 355.250 53.745 355.917 53.863 C 357.228 54.095,360.646 54.019,361.175 53.746 L 361.667 53.491 361.667 40.853 L 361.667 28.215 361.258 27.774 C 360.409 26.858,355.310 27.192,355.206 28.171 C 354.943 30.643,354.771 30.845,353.791 29.833 C 352.753 28.762,351.772 28.023,351.046 27.765 C 350.700 27.642,350.126 27.369,349.770 27.158 C 349.063 26.739,344.723 26.518,343.250 26.827 M99.340 27.698 C 99.031 28.030,99.000 28.275,99.004 30.406 C 99.009 33.804,98.410 33.486,104.914 33.540 L 110.246 33.583 110.469 34.051 C 110.666 34.461,110.656 34.570,110.388 34.946 C 109.927 35.594,109.201 36.691,108.874 37.233 C 108.714 37.499,108.377 37.958,108.125 38.255 C 107.873 38.551,107.667 38.849,107.667 38.916 C 107.667 38.984,107.404 39.396,107.083 39.833 C 106.763 40.270,106.500 40.683,106.500 40.749 C 106.500 40.816,106.306 41.106,106.068 41.394 C 105.831 41.681,105.305 42.442,104.900 43.083 C 104.495 43.725,104.049 44.400,103.909 44.583 C 103.769 44.767,103.326 45.442,102.925 46.083 C 102.525 46.725,102.003 47.485,101.765 47.773 C 101.528 48.060,101.333 48.344,101.333 48.402 C 101.333 48.518,100.426 49.911,99.750 50.833 C 98.164 52.996,97.938 53.533,98.489 53.827 C 99.075 54.141,120.676 54.058,121.130 53.741 C 121.573 53.430,121.719 48.162,121.292 47.885 C 121.177 47.811,118.579 47.712,115.518 47.667 C 109.056 47.570,109.157 47.597,110.217 46.236 C 110.556 45.801,110.833 45.357,110.833 45.248 C 110.833 45.140,110.991 44.909,111.184 44.734 C 111.377 44.560,111.680 44.154,111.858 43.833 C 112.155 43.295,112.370 42.969,113.340 41.583 C 113.698 41.072,114.037 40.552,114.917 39.163 C 115.785 37.791,116.379 36.919,116.503 36.833 C 116.568 36.787,116.776 36.445,116.965 36.072 C 117.154 35.699,117.432 35.292,117.583 35.167 C 117.734 35.041,118.005 34.671,118.186 34.344 C 118.366 34.018,118.696 33.487,118.918 33.167 C 119.141 32.846,119.478 32.358,119.667 32.083 C 119.856 31.808,120.193 31.321,120.415 31.000 C 120.638 30.679,121.012 30.060,121.246 29.625 C 121.481 29.190,121.745 28.833,121.833 28.833 C 122.093 28.833,122.211 28.061,122.008 27.682 C 121.822 27.334,121.815 27.333,110.751 27.333 L 99.680 27.333 99.340 27.698 M182.380 27.542 C 181.984 28.053,182.003 28.413,182.479 29.401 C 182.747 29.960,183.056 30.747,183.164 31.152 C 183.272 31.556,183.467 32.049,183.597 32.248 C 183.728 32.447,183.954 33.016,184.100 33.513 C 184.246 34.010,184.498 34.642,184.660 34.917 C 184.822 35.192,185.046 35.792,185.157 36.250 C 185.268 36.708,185.496 37.308,185.664 37.583 C 185.832 37.858,186.057 38.421,186.165 38.833 C 186.272 39.246,186.502 39.829,186.676 40.128 C 186.850 40.428,187.116 41.097,187.267 41.616 C 187.418 42.135,187.719 42.895,187.937 43.304 C 188.155 43.714,188.333 44.208,188.333 44.401 C 188.333 44.594,188.513 45.090,188.733 45.503 C 188.953 45.916,189.221 46.590,189.330 47.002 C 189.438 47.413,189.669 47.995,189.843 48.295 C 190.017 48.595,190.281 49.260,190.431 49.774 C 190.580 50.288,190.837 50.943,191.001 51.229 C 191.751 52.534,191.727 54.062,190.933 55.638 C 190.718 56.066,190.487 56.679,190.421 57.000 C 190.355 57.321,190.163 57.824,189.994 58.117 C 189.173 59.545,188.894 61.667,189.527 61.667 C 189.604 61.667,189.667 61.779,189.667 61.917 C 189.667 62.127,190.037 62.167,192.000 62.167 C 193.915 62.167,194.333 62.124,194.333 61.928 C 194.333 61.792,194.529 61.666,194.786 61.636 C 195.076 61.602,195.309 61.433,195.432 61.167 C 195.538 60.938,195.852 60.262,196.130 59.667 C 196.407 59.071,196.686 58.321,196.750 58.000 C 196.814 57.679,197.007 57.171,197.179 56.872 C 197.352 56.572,197.615 55.907,197.764 55.393 C 197.913 54.879,198.170 54.224,198.335 53.938 C 198.500 53.651,198.688 53.154,198.755 52.833 C 198.821 52.512,199.090 51.821,199.354 51.296 C 199.618 50.772,199.833 50.202,199.833 50.030 C 199.833 49.857,200.012 49.381,200.230 48.971 C 200.447 48.561,200.749 47.802,200.900 47.283 C 201.051 46.764,201.315 46.095,201.488 45.795 C 201.660 45.495,201.853 44.987,201.917 44.667 C 201.980 44.346,202.171 43.842,202.341 43.547 C 202.511 43.251,202.806 42.486,202.997 41.845 C 203.187 41.204,203.414 40.637,203.500 40.583 C 203.586 40.530,203.813 39.962,204.003 39.322 C 204.194 38.681,204.489 37.915,204.659 37.620 C 204.829 37.325,205.020 36.821,205.083 36.500 C 205.147 36.179,205.340 35.671,205.512 35.372 C 205.685 35.072,205.949 34.397,206.098 33.872 C 206.248 33.346,206.507 32.692,206.673 32.417 C 206.839 32.142,207.067 31.542,207.179 31.083 C 207.291 30.625,207.559 29.943,207.775 29.569 C 208.844 27.710,208.396 27.333,205.109 27.333 L 202.396 27.333 201.967 27.792 C 201.442 28.353,201.079 29.061,200.920 29.833 C 200.855 30.154,200.632 30.717,200.425 31.083 C 200.218 31.450,199.957 32.125,199.845 32.583 C 199.733 33.042,199.503 33.642,199.333 33.917 C 199.164 34.192,198.934 34.792,198.824 35.250 C 198.713 35.708,198.479 36.321,198.305 36.612 C 198.131 36.904,197.882 37.549,197.752 38.047 C 197.623 38.545,197.370 39.207,197.191 39.518 C 197.012 39.829,196.813 40.346,196.748 40.667 C 196.606 41.373,195.336 44.000,195.137 44.000 C 195.059 44.000,194.876 43.719,194.730 43.375 C 194.585 43.031,194.296 42.412,194.089 42.000 C 193.882 41.587,193.627 40.898,193.523 40.468 C 193.419 40.038,193.189 39.438,193.013 39.135 C 192.837 38.831,192.605 38.247,192.497 37.836 C 192.388 37.425,192.129 36.750,191.920 36.336 C 191.712 35.922,191.487 35.321,191.421 35.000 C 191.355 34.679,191.166 34.182,191.002 33.896 C 190.837 33.609,190.575 32.934,190.420 32.396 C 190.264 31.857,190.003 31.192,189.839 30.917 C 189.675 30.642,189.446 30.012,189.331 29.517 C 189.192 28.920,188.927 28.402,188.541 27.976 L 187.961 27.333 185.251 27.333 C 183.280 27.333,182.497 27.390,182.380 27.542 M269.500 33.007 C 270.100 33.102,270.769 33.325,271.000 33.507 C 271.229 33.688,271.593 33.912,271.808 34.004 C 272.385 34.250,273.995 35.981,274.362 36.750 C 274.538 37.117,274.808 37.642,274.963 37.917 C 275.188 38.315,275.246 38.858,275.248 40.583 L 275.250 42.750 274.556 44.083 C 272.246 48.524,267.062 49.846,263.250 46.965 C 262.792 46.618,262.367 46.334,262.306 46.334 C 262.206 46.333,261.388 45.149,260.881 44.268 C 260.769 44.075,260.479 43.183,260.236 42.286 L 259.793 40.655 260.254 38.916 C 260.508 37.959,260.855 36.968,261.025 36.713 C 261.196 36.459,261.482 36.025,261.662 35.750 C 261.842 35.475,262.310 35.004,262.703 34.703 C 263.095 34.402,263.704 33.937,264.054 33.669 C 264.451 33.367,264.985 33.145,265.471 33.081 C 265.899 33.025,266.362 32.955,266.500 32.925 C 267.055 32.807,268.478 32.846,269.500 33.007 M316.246 33.008 C 316.885 33.100,317.560 33.287,317.746 33.423 C 317.932 33.559,318.346 33.849,318.667 34.068 C 320.595 35.382,321.580 37.058,322.165 40.021 C 322.342 40.920,321.588 43.921,320.998 44.667 C 320.816 44.896,320.516 45.365,320.331 45.708 C 320.145 46.052,319.938 46.334,319.872 46.334 C 319.805 46.334,319.375 46.618,318.917 46.965 C 315.088 49.859,309.922 48.543,307.608 44.083 L 306.917 42.750 306.917 40.583 C 306.917 38.437,306.922 38.406,307.500 37.270 C 308.087 36.116,309.928 34.000,310.345 34.000 C 310.466 34.000,310.757 33.818,310.991 33.595 C 311.680 32.940,313.991 32.682,316.246 33.008 M349.167 33.007 C 349.762 33.101,350.438 33.324,350.667 33.502 C 350.896 33.680,351.327 33.949,351.625 34.099 C 352.263 34.420,353.677 36.001,354.070 36.833 C 354.221 37.154,354.473 37.642,354.630 37.917 C 354.859 38.318,354.914 38.843,354.912 40.583 L 354.909 42.750 354.219 44.083 C 351.923 48.522,346.728 49.846,342.917 46.965 C 342.458 46.618,342.034 46.334,341.973 46.334 C 341.872 46.333,341.055 45.149,340.547 44.268 C 340.019 43.352,339.479 40.754,339.659 39.993 C 340.076 38.230,340.475 36.979,340.733 36.627 C 340.886 36.420,341.156 36.025,341.333 35.750 C 341.510 35.475,341.977 35.004,342.369 34.703 C 342.762 34.402,343.370 33.937,343.721 33.669 C 344.118 33.367,344.652 33.145,345.137 33.081 C 345.566 33.025,346.029 32.955,346.167 32.925 C 346.722 32.807,348.145 32.846,349.167 33.007 " stroke="none" fill="#ffffff" fill-rule="evenodd"></path></g></svg>
