<?xml version="1.0" encoding="UTF-8" standalone="no"?>
<svg
   xmlns:dc="http://purl.org/dc/elements/1.1/"
   xmlns:cc="http://creativecommons.org/ns#"
   xmlns:rdf="http://www.w3.org/1999/02/22-rdf-syntax-ns#"
   xmlns:svg="http://www.w3.org/2000/svg"
   xmlns="http://www.w3.org/2000/svg"
   xmlns:sodipodi="http://sodipodi.sourceforge.net/DTD/sodipodi-0.dtd"
   xmlns:inkscape="http://www.inkscape.org/namespaces/inkscape"
   sodipodi:docname="csbalogo.svg"
   inkscape:version="1.0rc1 (09960d6, 2020-04-09)"
   id="svg15074"
   version="1.1"
   viewBox="0 0 1000 500"
   height="500mm"
   width="1000mm">
  <defs
     id="defs15068" />
  <sodipodi:namedview
     inkscape:window-maximized="0"
     inkscape:window-y="23"
     inkscape:window-x="0"
     inkscape:window-height="943"
     inkscape:window-width="1252"
     showguides="true"
     showgrid="false"
     inkscape:document-rotation="0"
     inkscape:current-layer="layer1"
     inkscape:document-units="mm"
     inkscape:cy="1012.762"
     inkscape:cx="1868.2435"
     inkscape:zoom="0.18332787"
     inkscape:pageshadow="2"
     inkscape:pageopacity="0.0"
     borderopacity="1.0"
     bordercolor="#666666"
     pagecolor="#ffffff"
     id="base" />
  <metadata
     id="metadata15071">
    <rdf:RDF>
      <cc:Work
         rdf:about="">
        <dc:format>image/svg+xml</dc:format>
        <dc:type
           rdf:resource="http://purl.org/dc/dcmitype/StillImage" />
        <dc:title></dc:title>
      </cc:Work>
    </rdf:RDF>
  </metadata>
  <g
     id="layer1"
     inkscape:groupmode="layer"
     inkscape:label="Layer 1">
    <path
       inkscape:export-ydpi="999.88788"
       inkscape:export-xdpi="999.88788"
       inkscape:export-filename="/Users/tejasmehta/Documents/CSBSALogoNewLightBlue.png.png"
       inkscape:connector-curvature="0"
       style="opacity:1;fill:#002792;fill-opacity:1;stroke:none;stroke-width:19.8451;stroke-linecap:round;stroke-linejoin:round;stroke-miterlimit:4;stroke-dasharray:none;stroke-dashoffset:0;stroke-opacity:1"
       d="M 186.02563,88.731027 A 163.68155,192.72875 0 0 0 22.340148,281.45903 a 163.68155,192.72875 0 0 0 163.685482,192.728 163.68155,192.72875 0 0 0 9.44548,-0.39296 h 596.52013 a 163.68155,192.72875 0 0 0 6.66784,0.39296 163.68155,192.72875 0 0 0 163.68107,-192.728 163.68155,192.72875 0 0 0 -163.68107,-192.728003 163.68155,192.72875 0 0 0 -9.44986,0.39296 H 192.69413 a 163.68155,192.72875 0 0 0 -6.6685,-0.39296 z M 288.68312,131.55707 H 695.8792 a 163.68155,192.72875 0 0 0 -0.006,0.006 h 102.65342 a 127.30784,149.90014 0 0 1 0.1274,-0.006 127.30784,149.90014 0 0 1 127.30918,149.90196 127.30784,149.90014 0 0 1 -127.30918,149.90208 127.30784,149.90014 0 0 0 -0.006,0 H 695.99588 288.79552 186.01991 A 127.30784,149.90014 0 0 1 58.710948,281.45903 127.30784,149.90014 0 0 1 186.01573,131.56253 h 102.66639 a 163.68155,192.72875 0 0 0 -0.004,-0.006 z"
       id="path1649-1-2-7" />
    <path
       inkscape:export-ydpi="999.88788"
       inkscape:export-xdpi="999.88788"
       inkscape:export-filename="/Users/tejasmehta/Documents/CSBSALogoNewLightBlue.png.png"
       style="opacity:1;fill:#30a9ff;fill-opacity:1;stroke:none;stroke-width:21.8666;stroke-linecap:round;stroke-linejoin:round;stroke-miterlimit:4;stroke-dasharray:none;stroke-dashoffset:0;stroke-opacity:1"
       d="M 215.06992,174.38965 A 107.07101,107.07153 0 0 0 108.00013,281.46021 107.07101,107.07153 0 0 0 215.06992,388.53069 h 107.06966 v -42.82596 h -21.57844 -85.49122 a 64.242565,64.242918 0 0 1 -64.24387,-64.24452 64.242565,64.242918 0 0 1 64.24387,-64.24452 h 85.52388 0.63708 v -42.82604 z"
       id="path819-10-9-5"
       inkscape:connector-curvature="0" />
    <path
       inkscape:transform-center-y="9.3370756e-06"
       inkscape:export-ydpi="999.88788"
       inkscape:export-xdpi="999.88788"
       inkscape:export-filename="/Users/tejasmehta/Documents/CSBSALogoNewLightBlue.png.png"
       sodipodi:type="star"
       style="opacity:1;fill:#002792;fill-opacity:1;stroke:none;stroke-width:1.72925;stroke-linecap:round;stroke-linejoin:round;stroke-miterlimit:4;stroke-dasharray:none;stroke-dashoffset:0;stroke-opacity:1"
       id="path836-6-6-0-5-1-0-4"
       sodipodi:sides="4"
       sodipodi:cx="62.03994"
       sodipodi:cy="146.76112"
       sodipodi:r1="7.0710678"
       sodipodi:r2="5"
       sodipodi:arg1="0.78539816"
       sodipodi:arg2="1.5707963"
       inkscape:flatsided="true"
       inkscape:rounded="0"
       inkscape:randomized="0"
       d="m 67.03994,151.76112 -10,0 0,-10 10,0 z"
       inkscape:transform-center-x="-0.0003998005"
       transform="matrix(10.707101,0,0,4.2828612,-147.56886,-432.75449)" />
    <path
       inkscape:export-ydpi="999.88788"
       inkscape:export-xdpi="999.88788"
       inkscape:export-filename="/Users/tejasmehta/Documents/CSBSALogoNewLightBlue.png.png"
       inkscape:connector-curvature="0"
       style="opacity:1;fill:#002792;fill-opacity:1;stroke:none;stroke-width:21.8666;stroke-linecap:round;stroke-linejoin:round;stroke-miterlimit:4;stroke-dasharray:none;stroke-dashoffset:0;stroke-opacity:1"
       d="M 741.54732,174.39051 A 107.07101,107.07153 0 0 0 634.47744,281.46097 107.07101,107.07153 0 0 0 741.54732,388.53155 107.07101,107.07153 0 0 0 805.787,366.99131 v 21.54024 h 42.83086 V 281.46097 A 107.07101,107.07153 0 0 0 741.54732,174.39051 Z m 0,42.8315 a 64.242565,64.242918 0 0 1 64.23968,64.23896 64.242565,64.242918 0 0 1 -64.23968,64.24462 64.242565,64.242918 0 0 1 -64.24364,-64.24462 64.242565,64.242918 0 0 1 64.24364,-64.23896 z"
       id="path819-9-6-1-6-3" />
    <path
       inkscape:export-ydpi="999.88788"
       inkscape:export-xdpi="999.88788"
       inkscape:export-filename="/Users/tejasmehta/Documents/CSBSALogoNewLightBlue.png.png"
       inkscape:connector-curvature="0"
       style="opacity:1;fill:#30a9ff;fill-opacity:1;stroke:none;stroke-width:21.8666;stroke-linecap:round;stroke-linejoin:round;stroke-miterlimit:4;stroke-dasharray:none;stroke-dashoffset:0;stroke-opacity:1"
       d="m 463.16348,89.118307 v 0.107 192.235583 10.7065 h 0.64886 c 5.49424,54.66944 51.47704,96.30668 106.4222,96.36396 59.13284,-5.4e-4 107.06904,-47.93722 107.06968,-107.07046 -6.4e-4,-59.13314 -47.93684,-107.06992 -107.06968,-107.07046 -23.183,0.0428 -45.727,7.59822 -64.2445,21.5458 v -106.710923 -0.107 z m 107.0701,128.101783 c 35.4786,-8.6e-4 64.2415,28.75952 64.24354,64.23894 7.4e-4,35.4817 -28.7628,64.2455 -64.24354,64.24464 -35.4817,8.6e-4 -64.24536,-28.76294 -64.2445,-64.24464 0.002,-35.47942 28.76494,-64.2398 64.2445,-64.23894 z"
       id="path819-9-4-6-6" />
    <path
       inkscape:export-ydpi="999.88788"
       inkscape:export-xdpi="999.88788"
       inkscape:export-filename="/Users/tejasmehta/Documents/CSBSALogoNewLightBlue.png.png"
       inkscape:connector-curvature="0"
       style="opacity:1;fill:#002792;fill-opacity:1;stroke:none;stroke-width:21.3996;stroke-linecap:round;stroke-linejoin:round;stroke-miterlimit:4;stroke-dasharray:none;stroke-dashoffset:0;stroke-opacity:1"
       d="m 356.09382,174.38859 a 62.098465,64.242918 0 0 0 -62.09752,64.24452 62.098465,64.242918 0 0 0 62.09752,64.23894 62.098465,64.242918 0 0 0 3.6963,-0.1938 62.098465,64.242918 0 0 0 -0.0536,0.1938 h 58.45668 a 21.414188,21.414306 0 0 1 21.413,21.4186 21.414188,21.414306 0 0 1 -21.413,21.41302 h -58.47364 -48.5963 v 42.82594 h 107.06988 a 62.098465,64.242918 0 0 0 62.09762,-64.23896 62.098465,64.242918 0 0 0 -62.09762,-64.24452 62.098465,64.242918 0 0 0 -3.6631,0.1328 62.098465,64.242918 0 0 0 0.0428,-0.1328 H 356.0999 a 21.414188,21.414306 0 0 1 -21.4127,-21.41302 21.414188,21.414306 0 0 1 21.4127,-21.4186 21.414188,21.414306 0 0 1 0.1434,0.006 h 58.31886 48.60208 v -42.83142 z"
       id="path853-1-2-44" />
    <path
       inkscape:export-ydpi="999.88788"
       inkscape:export-xdpi="999.88788"
       inkscape:export-filename="/Users/tejasmehta/Documents/CSBSALogoNewLightBlue.png.png"
       sodipodi:type="star"
       style="opacity:1;fill:#002792;fill-opacity:1;stroke:none;stroke-width:0.691702;stroke-linecap:round;stroke-linejoin:round;stroke-miterlimit:4;stroke-dasharray:none;stroke-dashoffset:0;stroke-opacity:1"
       id="path836-4-7-5-4-8"
       sodipodi:sides="4"
       sodipodi:cx="67.22406"
       sodipodi:cy="139.19092"
       sodipodi:r1="2.8284271"
       sodipodi:r2="2"
       sodipodi:arg1="0.78539816"
       sodipodi:arg2="1.5707963"
       inkscape:flatsided="true"
       inkscape:rounded="0"
       inkscape:randomized="0"
       d="m 69.22406,141.19092 -4,0 0,-4 4,0 z"
       transform="matrix(26.767738,0,0,-10.707153,-1530.8307,1857.4545)" />
    <path
       inkscape:export-ydpi="999.88788"
       inkscape:export-xdpi="999.88788"
       inkscape:export-filename="/Users/tejasmehta/Documents/CSBSALogoNewLightBlue.png.png"
       style="opacity:1;fill:#30a9ff;fill-opacity:1;stroke:none;stroke-width:21.8666;stroke-linecap:round;stroke-linejoin:round;stroke-miterlimit:4;stroke-dasharray:none;stroke-dashoffset:0;stroke-opacity:1"
       d="m 215.06992,345.70345 v 42.82594 a 107.07101,107.07153 0 0 0 85.52976,-42.82594 z"
       id="path819-1-18-1"
       inkscape:connector-curvature="0" />
  </g>
</svg>
