<?xml version="1.0" encoding="UTF-8" standalone="no"?>
<svg
   xmlns:dc="http://purl.org/dc/elements/1.1/"
   xmlns:cc="http://creativecommons.org/ns#"
   xmlns:rdf="http://www.w3.org/1999/02/22-rdf-syntax-ns#"
   xmlns:svg="http://www.w3.org/2000/svg"
   xmlns="http://www.w3.org/2000/svg"
   xmlns:sodipodi="http://sodipodi.sourceforge.net/DTD/sodipodi-0.dtd"
   xmlns:inkscape="http://www.inkscape.org/namespaces/inkscape"
   inkscape:version="1.0rc1 (09960d6, 2020-04-09)"
   sodipodi:docname="drone.svg"
   viewBox="0 0 1000 500.00001"
   height="500"
   width="1000"
   version="1.1"
   id="svg">
  <metadata
     id="metadata10174">
    <rdf:RDF>
      <cc:Work
         rdf:about="">
        <dc:format>image/svg+xml</dc:format>
        <dc:type
           rdf:resource="http://purl.org/dc/dcmitype/StillImage" />
        <dc:title></dc:title>
      </cc:Work>
    </rdf:RDF>
  </metadata>
  <defs
     id="defs10172" />
  <sodipodi:namedview
     inkscape:current-layer="svg"
     inkscape:window-maximized="1"
     inkscape:window-y="23"
     inkscape:window-x="0"
     inkscape:cy="315.76888"
     inkscape:cx="293.05128"
     inkscape:zoom="0.74342218"
     showgrid="false"
     id="namedview10170"
     inkscape:window-height="1014"
     inkscape:window-width="1792"
     inkscape:pageshadow="2"
     inkscape:pageopacity="0"
     guidetolerance="10"
     gridtolerance="10"
     objecttolerance="10"
     borderopacity="1"
     bordercolor="#666666"
     pagecolor="#ffffff" />
  <g
     transform="matrix(2.3508946,0,0,2.1056434,25.677852,44.618613)"
     id="svgg">
    <path
       inkscape:connector-curvature="0"
       fill-rule="evenodd"
       fill="#000000"
       stroke="none"
       d="m 54.571,2.493 c -0.152,0.183 -0.411,0.333 -0.576,0.333 -0.165,0 -0.299,0.136 -0.299,0.303 0,0.166 -0.147,0.359 -0.326,0.428 -0.24,0.092 -0.327,0.471 -0.327,1.436 v 1.311 h 2.066 2.065 v -1.06 c 0,-0.677 -0.118,-1.158 -0.326,-1.331 -0.18,-0.149 -0.326,-0.433 -0.326,-0.631 0,-0.2 -0.315,-0.496 -0.707,-0.663 C 55.427,2.452 55.05,2.281 54.978,2.238 54.907,2.195 54.723,2.309 54.571,2.493 m 291.575,0.091 c -0.386,0.193 -0.704,0.51 -0.707,0.705 -0.002,0.194 -0.151,0.475 -0.33,0.624 -0.216,0.179 -0.326,0.666 -0.326,1.44 v 1.169 h 2.065 2.065 V 5 c 0,-1.208 -0.067,-1.522 -0.326,-1.522 -0.179,0 -0.326,-0.146 -0.326,-0.326 0,-0.179 -0.105,-0.326 -0.233,-0.326 -0.128,0 -0.38,-0.147 -0.559,-0.326 -0.379,-0.379 -0.4,-0.378 -1.323,0.084 M 196.835,9.667 c -0.232,0.176 -0.777,0.322 -1.211,0.326 -0.433,0.004 -0.91,0.154 -1.059,0.333 -0.149,0.179 -0.463,0.326 -0.699,0.326 -0.236,0 -0.689,0.139 -1.006,0.309 -0.318,0.17 -0.724,0.367 -0.903,0.437 -0.18,0.071 -0.62,0.322 -0.979,0.559 -0.358,0.236 -0.799,0.496 -0.978,0.577 -0.179,0.081 -0.683,0.424 -1.118,0.763 -0.436,0.339 -0.854,0.616 -0.93,0.616 -0.075,0 -0.578,0.44 -1.116,0.978 l -0.978,0.979 H 173.39 c -10.817,0 -12.503,0.043 -12.738,0.326 -0.149,0.179 -0.398,0.326 -0.555,0.326 -0.537,0 -1.8,0.978 -2.307,1.787 -0.279,0.446 -0.581,0.812 -0.67,0.816 -0.09,0.003 -0.163,0.194 -0.163,0.425 0,0.23 -0.124,0.548 -0.275,0.706 -0.151,0.158 -0.392,0.532 -0.536,0.831 -0.144,0.299 -0.558,1.033 -0.92,1.63 -0.362,0.598 -0.766,1.356 -0.898,1.685 -0.132,0.329 -0.321,0.598 -0.419,0.598 -0.098,0 -0.243,0.293 -0.322,0.652 -0.079,0.359 -0.212,0.652 -0.296,0.652 -0.084,0 -0.265,0.269 -0.404,0.598 -0.138,0.329 -0.55,1.087 -0.913,1.685 -0.364,0.598 -0.768,1.329 -0.897,1.626 -0.129,0.296 -0.302,0.59 -0.384,0.652 -0.082,0.062 -0.505,0.798 -0.94,1.635 -0.435,0.837 -0.973,1.838 -1.196,2.225 l -0.405,0.704 -44.26,0.057 c -36.182,0.047 -44.323,0.11 -44.604,0.343 -0.193,0.16 -0.71,0.256 -1.175,0.218 l -0.83,-0.069 -0.058,-6.467 -0.058,-6.468 h -1.935 c -2.908,0 -2.623,-0.744 -2.623,6.852 v 6.588 l -0.939,0.454 c -0.516,0.25 -1.274,0.455 -1.684,0.456 -0.411,0 -1.027,0.147 -1.37,0.326 -0.342,0.178 -0.886,0.324 -1.208,0.324 -0.322,0 -0.776,0.144 -1.008,0.32 -0.232,0.175 -0.679,0.322 -0.993,0.326 -0.314,0.004 -0.693,0.153 -0.842,0.333 -0.149,0.179 -0.506,0.326 -0.794,0.326 -0.288,0 -0.58,0.147 -0.649,0.326 C 43.053,39.853 42.866,40 42.705,40 c -0.732,0 -2.388,1.408 -3.52,2.993 -0.603,0.845 -0.715,4.738 -0.163,5.703 0.173,0.302 0.314,1.133 0.318,1.875 0.005,0.911 0.111,1.418 0.334,1.603 0.182,0.151 0.326,0.625 0.326,1.072 0,0.441 0.144,0.991 0.319,1.223 0.176,0.232 0.322,0.673 0.326,0.979 0.004,0.306 0.151,0.746 0.326,0.978 0.176,0.232 0.323,0.63 0.326,0.884 0.004,0.255 0.154,0.585 0.333,0.733 0.18,0.149 0.327,0.396 0.327,0.548 0,0.382 1.55,3.366 1.748,3.366 0.089,0 0.222,0.244 0.297,0.543 0.075,0.299 0.233,0.543 0.35,0.543 0.117,0 0.213,0.1 0.213,0.221 0,0.295 2.691,3.04 2.98,3.04 0.125,0 0.35,0.147 0.498,0.326 0.149,0.18 0.448,0.327 0.664,0.327 0.216,0 0.539,0.146 0.718,0.326 0.388,0.387 4.401,0.479 4.526,0.103 0.041,-0.122 0.465,-0.28 0.942,-0.349 1.965,-0.288 4.89,-2.295 4.89,-3.355 0,-0.239 0.146,-0.491 0.326,-0.56 0.179,-0.069 0.326,-0.34 0.326,-0.604 0,-0.263 0.143,-0.668 0.319,-0.9 0.176,-0.232 0.322,-0.646 0.326,-0.918 0.004,-0.273 0.154,-0.553 0.333,-0.621 0.187,-0.072 0.326,-0.397 0.326,-0.761 0,-0.365 0.139,-0.689 0.326,-0.761 0.181,-0.07 0.326,-0.393 0.326,-0.728 0,-0.331 0.147,-0.724 0.326,-0.872 0.18,-0.149 0.326,-0.507 0.326,-0.795 0,-0.288 0.147,-0.58 0.327,-0.649 0.187,-0.071 0.326,-0.396 0.326,-0.76 0,-0.365 0.139,-0.69 0.326,-0.761 0.181,-0.07 0.326,-0.393 0.326,-0.728 0,-0.331 0.147,-0.724 0.326,-0.873 C 64.853,52.242 65,51.9 65,51.63 c 0,-0.269 0.147,-0.612 0.326,-0.76 0.179,-0.149 0.326,-0.507 0.326,-0.795 0,-0.288 0.147,-0.58 0.326,-0.649 0.182,-0.069 0.326,-0.392 0.326,-0.727 0,-0.331 0.147,-0.724 0.326,-0.873 0.18,-0.149 0.327,-0.491 0.327,-0.761 0,-0.269 0.146,-0.612 0.326,-0.761 0.179,-0.148 0.326,-0.506 0.326,-0.794 0,-0.288 0.146,-0.58 0.326,-0.649 0.183,-0.07 0.326,-0.394 0.326,-0.738 0,-0.338 0.128,-0.743 0.284,-0.901 0.156,-0.158 0.346,-0.451 0.421,-0.65 0.237,-0.625 1.262,-0.638 47.084,-0.571 49.964,0.072 45.06,-0.088 45.387,1.477 0.062,0.299 0.254,0.803 0.425,1.121 0.172,0.317 0.312,0.823 0.312,1.123 0,0.3 0.104,0.581 0.231,0.623 0.128,0.043 0.287,0.491 0.355,0.997 0.068,0.505 0.204,0.919 0.302,0.919 0.099,0 0.246,0.367 0.329,0.815 0.082,0.448 0.282,1.008 0.444,1.244 0.163,0.236 0.299,0.676 0.302,0.978 0.004,0.303 0.151,0.74 0.326,0.972 0.176,0.232 0.32,0.697 0.32,1.032 0,0.336 0.093,0.611 0.207,0.611 0.114,0 0.275,0.367 0.357,0.815 0.082,0.449 0.282,1.008 0.445,1.244 0.162,0.236 0.298,0.676 0.302,0.979 0.004,0.302 0.15,0.739 0.326,0.971 0.176,0.232 0.319,0.588 0.319,0.79 0,0.203 0.146,0.649 0.325,0.991 0.178,0.343 0.325,0.837 0.326,1.099 0.001,0.262 0.099,0.537 0.219,0.611 0.575,0.356 0.077,1.168 -2.266,3.696 -0.555,0.598 -1.274,1.478 -1.599,1.956 -0.325,0.478 -0.649,0.919 -0.72,0.978 -0.071,0.06 -0.503,0.647 -0.959,1.305 -0.456,0.657 -0.894,1.244 -0.974,1.304 -0.079,0.06 -0.212,0.256 -0.294,0.435 -0.082,0.179 -0.343,0.62 -0.58,0.978 -0.236,0.359 -0.551,0.897 -0.699,1.196 -0.149,0.299 -0.321,0.592 -0.384,0.652 -0.222,0.213 -2.395,4.716 -2.395,4.964 0,0.14 -0.098,0.253 -0.217,0.253 -0.12,0 -0.218,0.275 -0.218,0.611 0,0.336 -0.143,0.801 -0.319,1.033 -0.175,0.232 -0.323,0.715 -0.327,1.074 -0.005,0.359 -0.179,0.945 -0.388,1.304 -0.464,0.8 -0.539,17.458 -0.08,18.011 0.135,0.162 0.307,1.214 0.383,2.338 0.076,1.123 0.226,2.154 0.334,2.291 0.107,0.137 0.25,0.773 0.317,1.413 0.067,0.641 0.259,1.473 0.427,1.85 0.168,0.376 0.309,0.914 0.312,1.195 0.004,0.281 0.151,0.701 0.327,0.933 0.175,0.232 0.319,0.648 0.319,0.924 0,0.276 0.096,0.502 0.213,0.502 0.117,0 0.28,0.268 0.363,0.595 0.082,0.328 0.255,0.707 0.384,0.843 0.13,0.136 0.377,0.453 0.551,0.703 0.293,0.423 0.343,0.431 0.706,0.102 0.47,-0.425 0.613,-9.525 0.153,-9.678 -0.132,-0.044 -0.287,-0.565 -0.346,-1.159 -0.058,-0.594 -0.244,-1.388 -0.413,-1.765 -0.169,-0.377 -0.307,-1.067 -0.307,-1.533 0,-0.466 -0.116,-0.964 -0.259,-1.106 -0.142,-0.143 -0.327,-1.067 -0.411,-2.055 -0.083,-0.987 -0.258,-2.186 -0.388,-2.665 -0.382,-1.408 -0.318,-9.858 0.081,-10.622 0.179,-0.343 0.325,-0.936 0.325,-1.318 0,-0.381 0.143,-0.884 0.319,-1.116 0.176,-0.232 0.322,-0.63 0.326,-0.884 0.004,-0.255 0.154,-0.585 0.333,-0.734 0.179,-0.148 0.33,-0.478 0.336,-0.733 0.005,-0.254 0.249,-0.854 0.542,-1.332 0.293,-0.478 0.589,-1.016 0.658,-1.195 0.069,-0.18 0.217,-0.473 0.328,-0.653 0.111,-0.179 0.301,-0.521 0.422,-0.761 0.122,-0.239 0.413,-0.728 0.649,-1.086 0.235,-0.359 0.525,-0.873 0.643,-1.142 0.119,-0.269 0.316,-0.489 0.438,-0.489 0.123,0 0.223,-0.102 0.223,-0.226 0,-0.23 0.744,-1.358 1.265,-1.918 0.158,-0.17 0.451,-0.563 0.652,-0.875 0.392,-0.608 1.017,-1.392 1.589,-1.991 0.194,-0.204 0.39,-0.467 0.434,-0.584 0.045,-0.118 0.464,-0.668 0.931,-1.223 L 169.199,65 h 31.557 31.558 l 0.745,0.898 c 0.41,0.494 1.061,1.252 1.447,1.685 0.386,0.432 0.704,0.909 0.706,1.058 0.003,0.15 0.082,0.272 0.176,0.272 0.21,0 1.786,2.085 1.786,2.362 0,0.11 0.147,0.257 0.326,0.325 0.179,0.069 0.326,0.275 0.326,0.458 0,0.183 0.096,0.333 0.213,0.333 0.118,0 0.273,0.238 0.346,0.528 0.073,0.29 0.27,0.581 0.439,0.645 0.169,0.065 0.306,0.268 0.306,0.451 0,0.183 0.096,0.333 0.214,0.333 0.117,0 0.273,0.24 0.347,0.534 0.074,0.294 0.271,0.649 0.439,0.788 0.168,0.139 0.305,0.426 0.305,0.638 0,0.211 0.147,0.441 0.326,0.51 0.179,0.069 0.326,0.362 0.326,0.652 0,0.29 0.147,0.583 0.326,0.652 0.179,0.069 0.326,0.361 0.326,0.649 0,0.288 0.147,0.645 0.326,0.794 0.18,0.149 0.329,0.479 0.333,0.733 0.004,0.255 0.151,0.653 0.326,0.885 0.176,0.232 0.319,0.677 0.319,0.989 0,0.312 0.123,0.689 0.272,0.839 0.222,0.221 0.626,3.503 0.593,4.815 -0.147,5.747 -0.361,9.15 -0.593,9.381 -0.153,0.153 -0.272,0.805 -0.272,1.491 0,0.735 -0.126,1.386 -0.319,1.641 -0.175,0.232 -0.322,0.816 -0.326,1.297 -0.004,0.482 -0.14,1.069 -0.302,1.305 -0.162,0.236 -0.348,1.098 -0.411,1.916 -0.064,0.818 -0.225,1.596 -0.357,1.728 -0.39,0.39 -0.309,6.676 0.092,7.207 0.176,0.232 0.319,0.655 0.319,0.939 0,1.625 2.154,-1.673 2.735,-4.188 0.083,-0.358 0.225,-0.75 0.314,-0.869 0.09,-0.12 0.232,-0.731 0.317,-1.359 0.084,-0.627 0.242,-1.195 0.35,-1.262 0.109,-0.067 0.201,-0.532 0.207,-1.033 0.005,-0.501 0.112,-1.352 0.237,-1.89 0.672,-2.881 1.379,-18.151 0.869,-18.773 -0.113,-0.136 -0.275,-0.835 -0.361,-1.553 -0.086,-0.717 -0.233,-1.402 -0.327,-1.521 -0.095,-0.12 -0.243,-0.6 -0.33,-1.067 -0.088,-0.467 -0.291,-1.103 -0.453,-1.413 -0.162,-0.31 -0.295,-0.735 -0.296,-0.944 0,-0.21 -0.099,-0.381 -0.218,-0.381 -0.12,0 -0.218,-0.122 -0.217,-0.271 0,-0.353 -2.187,-4.749 -2.55,-5.125 -0.152,-0.158 -0.277,-0.427 -0.277,-0.598 0,-0.17 -0.075,-0.31 -0.168,-0.31 -0.092,0 -0.356,-0.35 -0.586,-0.777 -0.231,-0.428 -0.571,-0.957 -0.756,-1.176 -0.186,-0.219 -0.484,-0.614 -0.664,-0.878 -0.471,-0.694 -1.802,-2.476 -1.944,-2.604 -0.067,-0.06 -0.512,-0.596 -0.991,-1.192 -0.478,-0.595 -1.283,-1.525 -1.789,-2.065 -0.998,-1.065 -1.166,-1.824 -0.631,-2.85 0.162,-0.31 0.361,-0.922 0.443,-1.359 0.082,-0.437 0.243,-0.795 0.357,-0.795 0.114,0 0.207,-0.275 0.207,-0.61 0,-0.336 0.144,-0.801 0.32,-1.033 0.175,-0.232 0.322,-0.618 0.327,-0.857 0.005,-0.239 0.154,-0.715 0.333,-1.057 0.179,-0.343 0.325,-0.783 0.326,-0.978 0.001,-0.196 0.134,-0.61 0.296,-0.92 0.161,-0.31 0.361,-0.921 0.443,-1.358 0.082,-0.438 0.242,-0.795 0.357,-0.795 0.114,0 0.208,-0.221 0.208,-0.49 0.001,-0.269 0.148,-0.769 0.327,-1.111 0.178,-0.343 0.324,-0.768 0.324,-0.946 0,-0.177 0.138,-0.631 0.307,-1.008 0.169,-0.376 0.517,-1.32 0.775,-2.098 0.961,-2.904 1.033,-3.005 2.27,-3.151 0.608,-0.072 21.173,-0.101 45.702,-0.065 49.791,0.072 45.511,-0.068 45.511,1.488 0,0.328 0.147,0.651 0.327,0.72 0.179,0.069 0.326,0.361 0.326,0.649 0,0.288 0.146,0.645 0.326,0.794 0.179,0.149 0.326,0.491 0.326,0.761 0,0.27 0.147,0.612 0.326,0.761 0.179,0.149 0.326,0.542 0.326,0.873 0,0.335 0.145,0.658 0.326,0.727 0.179,0.069 0.326,0.361 0.326,0.649 0,0.288 0.147,0.646 0.326,0.794 0.18,0.149 0.326,0.492 0.326,0.761 0,0.27 0.147,0.612 0.326,0.761 0.18,0.149 0.327,0.542 0.327,0.873 0,0.335 0.144,0.658 0.326,0.727 0.187,0.072 0.326,0.397 0.326,0.761 0,0.365 0.139,0.689 0.326,0.761 0.179,0.069 0.326,0.354 0.326,0.634 0,0.28 0.143,0.699 0.319,0.931 0.176,0.232 0.322,0.631 0.326,0.888 0.004,0.256 0.154,0.522 0.333,0.591 0.179,0.069 0.326,0.379 0.326,0.691 0,0.311 0.147,0.712 0.326,0.892 0.18,0.179 0.326,0.551 0.326,0.827 0,0.276 0.147,0.623 0.326,0.772 0.18,0.149 0.327,0.506 0.327,0.794 0,0.288 0.146,0.58 0.326,0.649 0.186,0.071 0.326,0.396 0.326,0.754 0,0.346 0.091,0.629 0.202,0.629 0.112,0 0.268,0.205 0.348,0.456 0.185,0.584 0.801,1.2 1.385,1.385 0.251,0.08 0.456,0.236 0.456,0.348 0,0.111 0.189,0.202 0.419,0.202 0.231,0 0.566,0.147 0.746,0.326 0.179,0.18 0.656,0.327 1.061,0.327 0.404,0 0.924,0.143 1.156,0.319 0.607,0.459 4.561,0.464 5.019,0.007 0.179,-0.18 0.514,-0.326 0.745,-0.326 0.231,0 0.419,-0.089 0.419,-0.197 0,-0.107 0.294,-0.298 0.652,-0.423 0.359,-0.125 0.653,-0.33 0.653,-0.456 0,-0.126 0.097,-0.229 0.217,-0.229 0.282,0 1.087,-0.805 1.087,-1.087 0,-0.119 0.135,-0.217 0.301,-0.217 0.165,0 0.363,-0.171 0.44,-0.381 0.271,-0.739 0.807,-1.576 1.01,-1.576 0.113,0 0.205,-0.198 0.205,-0.441 0,-0.243 0.147,-0.498 0.327,-0.567 0.179,-0.069 0.326,-0.298 0.326,-0.51 0,-0.212 0.146,-0.507 0.326,-0.656 0.179,-0.148 0.326,-0.442 0.326,-0.652 0,-0.21 0.147,-0.503 0.326,-0.652 0.179,-0.149 0.326,-0.542 0.326,-0.873 0,-0.335 0.145,-0.658 0.326,-0.727 0.202,-0.078 0.326,-0.408 0.326,-0.867 0,-0.407 0.147,-0.862 0.326,-1.011 0.184,-0.153 0.326,-0.627 0.326,-1.087 0,-0.461 0.143,-0.934 0.326,-1.087 0.214,-0.177 0.327,-0.661 0.327,-1.398 0,-0.655 0.133,-1.305 0.319,-1.55 0.249,-0.329 0.32,-1.192 0.326,-3.945 l 0.007,-3.524 -1.359,-1.374 c -0.747,-0.756 -1.749,-1.567 -2.225,-1.803 -0.476,-0.235 -0.997,-0.55 -1.157,-0.7 -0.16,-0.149 -0.455,-0.274 -0.655,-0.278 -0.201,-0.004 -0.555,-0.151 -0.787,-0.326 -0.232,-0.176 -0.689,-0.32 -1.015,-0.32 -0.326,0 -0.627,-0.104 -0.669,-0.231 -0.043,-0.127 -0.516,-0.288 -1.051,-0.358 -0.535,-0.069 -1.167,-0.259 -1.402,-0.421 -0.236,-0.161 -0.899,-0.294 -1.473,-0.294 -1.456,0 -1.468,-0.06 -1.468,-7.273 0,-7.054 0.226,-6.423 -2.297,-6.423 h -1.61 l -0.057,6.468 -0.058,6.467 -0.837,0.069 c -0.46,0.038 -1.16,-0.084 -1.555,-0.272 -0.644,-0.305 -5.247,-0.34 -44.926,-0.34 h -44.209 l -0.256,-0.489 c -0.141,-0.269 -0.37,-0.758 -0.508,-1.087 -0.138,-0.329 -0.34,-0.598 -0.448,-0.598 -0.107,0 -0.196,-0.184 -0.196,-0.408 0,-0.225 -0.146,-0.53 -0.326,-0.679 -0.179,-0.149 -0.326,-0.398 -0.326,-0.555 0,-0.156 -0.122,-0.414 -0.272,-0.574 -0.149,-0.16 -0.467,-0.681 -0.706,-1.157 -0.239,-0.476 -0.636,-1.17 -0.882,-1.542 -0.247,-0.372 -0.736,-1.252 -1.087,-1.956 -0.351,-0.705 -0.761,-1.411 -0.911,-1.569 -0.15,-0.158 -0.272,-0.376 -0.272,-0.485 0,-0.109 -0.367,-0.813 -0.816,-1.565 -0.448,-0.752 -1.059,-1.854 -1.358,-2.449 -0.299,-0.596 -0.593,-1.132 -0.654,-1.192 -0.061,-0.059 -0.342,-0.451 -0.625,-0.869 -0.529,-0.782 -1.792,-1.739 -2.297,-1.739 -0.156,0 -0.406,-0.147 -0.555,-0.326 -0.234,-0.283 -1.919,-0.326 -12.721,-0.326 h -12.45 l -1.036,-0.979 c -0.57,-0.538 -1.17,-0.978 -1.334,-0.978 -0.164,0 -0.355,-0.147 -0.424,-0.326 -0.068,-0.179 -0.261,-0.326 -0.427,-0.326 -0.167,0 -0.303,-0.103 -0.303,-0.229 0,-0.126 -0.294,-0.331 -0.652,-0.456 -0.359,-0.125 -0.653,-0.315 -0.653,-0.423 0,-0.108 -0.183,-0.196 -0.408,-0.196 -0.224,0 -0.53,-0.147 -0.679,-0.327 -0.148,-0.179 -0.442,-0.326 -0.652,-0.326 -0.21,0 -0.503,-0.146 -0.652,-0.326 -0.149,-0.179 -0.491,-0.326 -0.761,-0.326 -0.269,0 -0.612,-0.147 -0.761,-0.326 -0.149,-0.179 -0.625,-0.329 -1.059,-0.333 -0.434,-0.004 -0.978,-0.15 -1.211,-0.326 -0.614,-0.465 -7.672,-0.465 -8.286,0 M 6.886,11.46 c 0.38,0.048 0.807,0.228 0.951,0.4 0.143,0.173 0.529,0.314 0.859,0.314 0.329,0 0.72,0.147 0.869,0.326 0.153,0.184 0.627,0.326 1.087,0.326 0.461,0 0.934,0.142 1.087,0.326 0.163,0.197 0.639,0.326 1.196,0.326 0.557,0 1.032,0.13 1.195,0.326 0.178,0.215 0.663,0.326 1.413,0.326 0.751,0 1.236,0.112 1.414,0.327 0.188,0.226 0.688,0.326 1.641,0.326 0.879,0 1.479,0.108 1.672,0.301 0.192,0.192 0.951,0.331 2.09,0.382 0.997,0.046 1.857,0.189 1.943,0.325 0.09,0.144 1.065,0.28 2.378,0.332 1.344,0.053 2.33,0.192 2.49,0.352 0.176,0.176 1.087,0.264 2.742,0.264 1.673,0 2.7,0.1 3.163,0.309 0.507,0.228 2.095,0.338 6.12,0.422 2.989,0.062 5.826,0.214 6.304,0.338 1.066,0.276 11.695,0.282 13.37,0.008 0.657,-0.108 3.885,-0.26 7.173,-0.339 3.876,-0.092 6.086,-0.228 6.284,-0.386 0.18,-0.144 1.509,-0.271 3.26,-0.31 1.983,-0.046 3.182,-0.171 3.642,-0.381 0.401,-0.184 1.357,-0.313 2.312,-0.313 1.02,0 1.859,-0.121 2.249,-0.325 0.382,-0.199 1.223,-0.325 2.173,-0.326 1.11,-10e-4 1.626,-0.094 1.82,-0.327 0.18,-0.218 0.678,-0.329 1.494,-0.333 0.729,-0.004 1.393,-0.136 1.645,-0.326 0.237,-0.18 0.887,-0.32 1.483,-0.32 0.653,0 1.186,-0.125 1.387,-0.326 0.179,-0.179 0.668,-0.326 1.087,-0.326 0.418,0 0.907,-0.146 1.087,-0.326 0.179,-0.179 0.649,-0.326 1.045,-0.326 0.395,0 0.84,-0.147 0.989,-0.326 0.149,-0.179 0.542,-0.326 0.873,-0.326 0.331,0 0.656,-0.14 0.721,-0.31 0.066,-0.171 0.394,-0.352 0.73,-0.403 C 102.66,11.411 81.168,11.37 54.565,11.372 27.962,11.373 6.506,11.413 6.886,11.46 m 292.897,0.388 c 0,0.236 0.242,0.326 0.876,0.326 0.578,0 0.919,0.111 1.002,0.326 0.07,0.183 0.393,0.326 0.738,0.326 0.337,0 0.76,0.147 0.94,0.326 0.179,0.18 0.705,0.326 1.169,0.326 0.464,0 1.034,0.144 1.266,0.319 0.232,0.176 0.782,0.323 1.221,0.327 0.44,0.003 0.947,0.153 1.126,0.333 0.217,0.216 0.76,0.326 1.619,0.326 0.885,0 1.379,0.103 1.564,0.326 0.183,0.22 0.674,0.326 1.507,0.326 0.751,0 1.402,0.125 1.658,0.319 0.294,0.222 0.996,0.321 2.309,0.326 1.38,0.005 1.974,0.095 2.213,0.333 0.245,0.245 0.849,0.326 2.428,0.326 1.356,0 2.345,0.11 2.787,0.31 0.467,0.212 1.758,0.337 4.055,0.393 2.044,0.05 3.556,0.185 3.844,0.342 0.684,0.374 29.89,0.373 30.572,-10e-4 0.292,-0.16 1.815,-0.291 3.953,-0.341 2.397,-0.056 3.692,-0.178 4.164,-0.392 0.447,-0.203 1.439,-0.311 2.855,-0.311 1.503,0 2.362,-0.1 2.794,-0.325 0.373,-0.194 1.232,-0.328 2.144,-0.333 0.99,-0.005 1.669,-0.119 1.944,-0.327 0.26,-0.197 0.927,-0.322 1.739,-0.326 0.812,-0.004 1.479,-0.129 1.739,-0.326 0.238,-0.18 0.901,-0.322 1.522,-0.326 0.62,-0.004 1.283,-0.146 1.521,-0.326 0.233,-0.176 0.819,-0.323 1.305,-0.326 0.485,-0.004 1.072,-0.151 1.304,-0.327 0.232,-0.175 0.798,-0.319 1.257,-0.319 0.541,0 0.879,-0.114 0.96,-0.326 0.076,-0.198 0.405,-0.326 0.836,-0.326 0.391,0 0.833,-0.147 0.982,-0.326 0.148,-0.179 0.552,-0.326 0.896,-0.326 0.411,0 0.625,-0.112 0.625,-0.326 0,-0.289 -5.446,-0.326 -47.717,-0.326 -42.271,0 -47.717,0.037 -47.717,0.326 m -98.805,59.317 c -0.335,0.383 -0.925,2.931 -0.725,3.131 0.098,0.098 0.244,0.662 0.325,1.254 0.081,0.592 0.278,1.206 0.437,1.366 0.159,0.159 0.289,0.47 0.289,0.691 0,0.221 0.164,0.727 0.364,1.125 0.2,0.399 0.494,0.984 0.652,1.302 0.159,0.317 0.289,0.819 0.289,1.114 0,1.237 0.61,1.11 0.769,-0.16 0.176,-1.409 -0.064,-4.466 -0.351,-4.466 -0.107,0 -0.258,-0.392 -0.335,-0.87 -0.076,-0.478 -0.216,-0.869 -0.311,-0.869 -0.095,0 -0.241,-0.318 -0.324,-0.707 -0.083,-0.388 -0.245,-0.823 -0.359,-0.966 -0.115,-0.142 -0.275,-0.694 -0.356,-1.226 -0.102,-0.674 -0.212,-0.892 -0.364,-0.719 m -24.127,18.558 c -0.237,0.061 -0.603,0.32 -0.811,0.575 -0.209,0.254 -0.479,0.581 -0.601,0.725 -0.136,0.161 -0.222,2.119 -0.222,5.055 v 4.792 h 25.435 25.435 v -4.424 c 0,-4.672 -0.098,-5.215 -1.142,-6.337 -0.391,-0.42 -46.526,-0.79 -48.094,-0.386 m -13.21,13.854 -0.815,0.749 0.008,10.391 0.008,10.392 0.481,0.565 c 1.173,1.378 -1.624,1.283 37.648,1.283 34.954,0 35.704,-0.009 36.565,-0.425 1.667,-0.805 1.594,-0.262 1.594,-11.886 v -10.368 l -0.815,-0.726 -0.815,-0.726 -36.522,0.001 -36.521,0.001 -0.816,0.749 m 3.098,26.271 c 0,0.514 0.106,1.04 0.235,1.169 0.132,0.132 0.287,1.55 0.354,3.25 0.067,1.659 0.211,3.13 0.322,3.27 0.11,0.14 0.285,1.656 0.389,3.369 0.104,1.714 0.288,3.605 0.41,4.203 0.121,0.598 0.227,1.987 0.234,3.087 0.007,1.101 0.105,2.226 0.217,2.5 0.112,0.275 0.265,0.964 0.339,1.532 l 0.135,1.033 h 31.258 c 29.498,0 31.276,-0.022 31.588,-0.381 0.247,-0.283 0.364,-1.151 0.461,-3.405 0.071,-1.663 0.231,-3.126 0.355,-3.25 0.123,-0.124 0.233,-1.11 0.243,-2.192 0.01,-1.082 0.113,-2.555 0.228,-3.272 0.115,-0.718 0.301,-2.655 0.415,-4.305 0.113,-1.651 0.304,-3.185 0.425,-3.41 0.12,-0.225 0.218,-1.247 0.218,-2.271 v -1.862 h -33.913 -33.913 v 0.935 m 32.137,28.996 c -0.558,0.05 -1.133,0.233 -1.277,0.406 -0.143,0.174 -0.401,0.315 -0.572,0.315 -0.361,0 -2.897,2.416 -2.897,2.76 0,0.127 -0.146,0.352 -0.326,0.501 -0.179,0.149 -0.326,0.53 -0.326,0.848 0,0.317 -0.155,0.799 -0.345,1.07 -0.954,1.362 0.222,5.125 2.235,7.156 1.767,1.781 3.098,2.286 5.784,2.196 1.497,-0.051 2.21,-0.16 2.272,-0.346 0.05,-0.149 0.33,-0.272 0.623,-0.272 0.292,0 0.588,-0.146 0.657,-0.326 0.069,-0.179 0.242,-0.326 0.385,-0.326 0.349,0 2.04,-1.691 2.203,-2.202 0.071,-0.224 0.22,-0.407 0.331,-0.407 0.112,0 0.204,-0.171 0.204,-0.38 0.001,-0.209 0.148,-0.661 0.327,-1.003 0.377,-0.724 0.468,-4.704 0.107,-4.704 -0.12,0 -0.218,-0.111 -0.218,-0.247 0,-0.886 -1.809,-3.396 -2.691,-3.734 -0.194,-0.075 -0.352,-0.236 -0.352,-0.36 0,-0.123 -0.163,-0.224 -0.363,-0.224 -0.2,0 -0.518,-0.137 -0.707,-0.305 -0.372,-0.33 -3.311,-0.572 -5.054,-0.416 m -26.919,22.634 c 0,0.965 0.105,1.801 0.244,1.94 0.145,0.146 0.288,1.461 0.353,3.25 0.061,1.653 0.208,3.129 0.327,3.279 0.12,0.15 0.267,1.617 0.326,3.261 0.06,1.643 0.2,3.102 0.311,3.242 0.111,0.14 0.287,1.656 0.391,3.37 0.104,1.713 0.288,3.604 0.409,4.202 0.122,0.598 0.227,1.998 0.234,3.112 0.007,1.114 0.112,2.209 0.232,2.434 0.121,0.225 0.282,1.295 0.359,2.378 l 0.14,1.969 25.456,-0.055 25.457,-0.056 0.06,-0.869 c 0.033,-0.478 0.148,-1.065 0.255,-1.305 0.107,-0.239 0.248,-1.748 0.315,-3.353 0.066,-1.605 0.22,-3.019 0.343,-3.141 0.122,-0.123 0.231,-1.108 0.241,-2.19 0.01,-1.082 0.112,-2.555 0.227,-3.272 0.115,-0.717 0.3,-2.624 0.411,-4.236 0.111,-1.612 0.295,-3.177 0.407,-3.478 0.113,-0.301 0.26,-1.797 0.327,-3.325 0.068,-1.528 0.209,-2.947 0.315,-3.152 0.107,-0.206 0.246,-1.573 0.31,-3.037 l 0.117,-2.663 H 200.74 171.957 v 1.695"
       id="path0" />
    <path
       inkscape:connector-curvature="0"
       fill-rule="evenodd"
       fill="#080404"
       stroke="none"
       d=""
       id="path1" />
    <path
       inkscape:connector-curvature="0"
       fill-rule="evenodd"
       fill="#080404"
       stroke="none"
       d=""
       id="path2" />
    <path
       inkscape:connector-curvature="0"
       fill-rule="evenodd"
       fill="#080404"
       stroke="none"
       d=""
       id="path3" />
    <path
       inkscape:connector-curvature="0"
       fill-rule="evenodd"
       fill="#080404"
       stroke="none"
       d=""
       id="path4" />
    <path
       inkscape:connector-curvature="0"
       fill-rule="evenodd"
       fill="#080404"
       stroke="none"
       d=""
       id="path5" />
    <path
       inkscape:connector-curvature="0"
       fill-rule="evenodd"
       fill="#080404"
       stroke="none"
       d=""
       id="path6" />
    <path
       inkscape:connector-curvature="0"
       fill-rule="evenodd"
       fill="#080404"
       stroke="none"
       d=""
       id="path7" />
    <path
       inkscape:connector-curvature="0"
       fill-rule="evenodd"
       fill="#080404"
       stroke="none"
       d=""
       id="path8" />
  </g>
  <path
     style="stroke-width:8.48492"
     inkscape:connector-curvature="0"
     d="m 196.94716,274.28388 h 201.2323 v 206.07248 h -201.2323 z"
     fill="none"
     id="path10755" />
  <path
     style="stroke-width:7.05002"
     inkscape:connector-curvature="0"
     d="M 281.32809,313.38944 H 182.4313 c -7.77046,0 -14.05747,6.3324 -14.05747,14.07201 l -0.0706,98.50403 c 0,7.7396 6.35765,14.07201 14.1281,14.07201 h 98.89679 c 7.77045,0 14.12812,-6.33241 14.12812,-14.07201 v -98.50403 c 0,-7.73961 -6.35767,-14.07201 -14.12812,-14.07201 z m -7.06406,77.39603 h -28.25622 v 28.14401 h -28.25623 v -28.14401 h -28.25622 v -28.14401 h 28.25622 v -28.14402 h 28.25623 v 28.14402 h 28.25622 z"
     id="path10757" />
  <path
     style="stroke-width:9.09364"
     inkscape:connector-curvature="0"
     d="M 651.10259,224.53785 H 883.61281 V 429.39701 H 651.10259 Z"
     fill="none"
     id="path11346" />
  <path
     style="stroke-width:7.46688"
     inkscape:connector-curvature="0"
     d="m 809.51225,433.90608 h 13.34429 c 6.75253,0 12.29926,-4.43885 13.10313,-10.12613 l 13.26389,-114.30029 h -40.19363 v -28.08957 h -15.8363 v 28.08957 h -39.95247 l 2.41163,16.22953 c 13.74622,3.25978 26.60818,9.15512 34.32535,15.67467 11.57577,9.8487 19.53411,20.04417 19.53411,36.68985 z m -137.14067,-6.93571 v -6.86633 h 120.82205 v 6.86633 c 0,3.81464 -3.61741,6.93571 -8.11911,6.93571 H 680.49069 c -4.50169,0 -8.11911,-3.12107 -8.11911,-6.93571 z M 793.19363,378.4205 c 0,-55.4856 -120.82205,-55.4856 -120.82205,0 z m -120.66127,13.94074 h 120.58089 v 13.8714 H 672.53236 Z"
     id="path11348" />
</svg>
