<svg id="svg" version="1.1" xmlns="http://www.w3.org/2000/svg" xmlns:xlink="http://www.w3.org/1999/xlink" width="1000"
     height="1000" viewBox="0, 0, 400,400">
    <g id="svgg">
        <path id="path0"
              d="M276.514 37.695 C 276.487 37.803,276.443 38.061,276.416 38.269 C 276.389 38.476,276.061 39.004,275.687 39.440 C 275.314 39.877,275.176 40.234,275.381 40.234 C 275.771 40.234,276.661 38.828,276.802 37.988 C 276.879 37.531,276.620 37.269,276.514 37.695 M268.359 47.803 C 268.896 48.117,269.408 48.300,269.498 48.210 C 269.741 47.968,269.447 47.783,268.359 47.493 L 267.383 47.233 268.359 47.803 M324.219 65.039 C 324.948 65.791,325.632 66.406,325.739 66.406 C 325.847 66.406,325.338 65.791,324.609 65.039 C 323.881 64.287,323.196 63.672,323.089 63.672 C 322.982 63.672,323.490 64.287,324.219 65.039 M335.156 75.977 C 335.885 76.729,336.569 77.344,336.677 77.344 C 336.784 77.344,336.276 76.729,335.547 75.977 C 334.818 75.225,334.134 74.609,334.026 74.609 C 333.919 74.609,334.427 75.225,335.156 75.977 M83.594 79.883 C 82.645 80.850,81.956 81.641,82.064 81.641 C 82.171 81.641,83.036 80.850,83.984 79.883 C 84.933 78.916,85.622 78.125,85.514 78.125 C 85.407 78.125,84.543 78.916,83.594 79.883 M199.508 81.493 C 201.705 81.998,201.563 75.902,201.563 169.228 C 201.563 221.903,201.703 255.078,201.926 255.078 C 202.987 255.078,292.507 236.218,293.340 235.819 C 296.571 234.270,298.026 235.161,247.287 207.617 C 222.354 194.082,202.010 182.832,202.079 182.617 C 202.199 182.240,206.768 179.270,250.995 150.807 C 299.075 119.865,295.677 122.258,294.543 120.139 C 293.923 118.981,298.639 120.994,246.289 99.533 C 213.585 86.125,202.046 81.558,200.586 81.444 C 199.512 81.360,199.027 81.382,199.508 81.493 M78.906 84.570 C 77.957 85.537,77.269 86.328,77.376 86.328 C 77.484 86.328,78.348 85.537,79.297 84.570 C 80.246 83.604,80.934 82.813,80.827 82.813 C 80.719 82.813,79.855 83.604,78.906 84.570 M382.096 180.348 C 381.750 180.994,381.749 181.271,382.091 181.482 C 382.358 181.647,382.437 181.591,382.284 181.344 C 382.143 181.114,382.230 180.858,382.478 180.776 C 382.726 180.693,382.845 180.371,382.741 180.060 C 382.599 179.634,382.440 179.705,382.096 180.348 M382.717 184.180 C 382.820 184.717,382.971 185.156,383.053 185.156 C 383.136 185.156,383.203 184.717,383.203 184.180 C 383.203 183.643,383.052 183.203,382.867 183.203 C 382.682 183.203,382.614 183.643,382.717 184.180 M373.828 189.063 C 374.364 189.409,374.101 189.627,373.311 189.490 C 373.134 189.459,373.105 189.622,373.248 189.853 C 373.428 190.144,373.657 190.148,373.996 189.866 C 374.266 189.643,374.640 189.590,374.828 189.749 C 375.016 189.909,374.934 189.731,374.646 189.355 C 374.359 188.979,373.925 188.675,373.683 188.678 C 373.440 188.681,373.506 188.854,373.828 189.063 M383.302 190.039 C 383.306 190.898,383.386 191.204,383.479 190.718 C 383.573 190.232,383.569 189.529,383.472 189.156 C 383.374 188.782,383.297 189.180,383.302 190.039 M383.302 210.352 C 383.306 211.211,383.386 211.517,383.479 211.031 C 383.573 210.545,383.569 209.842,383.472 209.468 C 383.374 209.095,383.297 209.492,383.302 210.352 M200.870 255.947 C 200.597 256.277,199.806 256.661,199.112 256.802 C 195.354 257.563,179.232 260.515,177.698 260.723 C 175.109 261.075,174.306 261.220,167.440 262.577 L 161.248 263.800 140.390 305.761 C 128.918 328.840,119.531 347.807,119.531 347.912 C 119.531 349.630,147.985 360.729,159.775 363.610 C 169.045 365.875,183.072 367.684,195.313 368.193 L 201.758 368.461 201.660 332.180 C 201.466 260.487,201.412 255.294,200.870 255.947 M105.640 287.305 C 105.640 293.105,105.694 295.533,105.761 292.699 C 105.827 289.865,105.827 285.119,105.761 282.152 C 105.694 279.185,105.640 281.504,105.640 287.305 M78.906 316.602 C 79.635 317.354,80.319 317.969,80.427 317.969 C 80.534 317.969,80.026 317.354,79.297 316.602 C 78.568 315.850,77.884 315.234,77.776 315.234 C 77.669 315.234,78.177 315.850,78.906 316.602 M83.594 321.289 C 84.323 322.041,85.007 322.656,85.114 322.656 C 85.222 322.656,84.713 322.041,83.984 321.289 C 83.256 320.537,82.571 319.922,82.464 319.922 C 82.357 319.922,82.865 320.537,83.594 321.289 M329.680 329.980 L 325.977 333.789 329.785 330.086 C 333.323 326.646,333.771 326.172,333.488 326.172 C 333.430 326.172,331.717 327.886,329.680 329.980 "
              stroke="none" fill="#d5832f" fill-rule="evenodd"></path>
        <path id="path1"
              d="M187.695 16.685 C 57.905 25.867,-21.851 163.550,34.954 280.364 C 38.891 288.461,45.237 299.514,46.190 299.935 C 46.352 300.007,46.484 300.247,46.484 300.470 C 46.484 300.793,49.883 305.897,51.243 307.617 C 51.413 307.832,52.194 308.877,52.979 309.938 C 53.764 311.000,54.559 312.055,54.745 312.282 C 54.932 312.509,55.978 313.838,57.070 315.234 C 61.442 320.823,74.373 334.259,79.600 338.643 C 80.734 339.594,82.404 341.041,83.311 341.860 C 84.218 342.679,85.066 343.351,85.194 343.354 C 85.322 343.357,85.791 343.667,86.235 344.043 C 86.680 344.419,87.454 345.071,87.955 345.492 C 88.457 345.913,90.537 347.452,92.578 348.912 C 94.619 350.371,96.729 351.914,97.266 352.340 C 97.803 352.766,98.386 353.117,98.563 353.120 C 98.739 353.123,99.970 353.889,101.297 354.822 C 102.625 355.756,103.975 356.636,104.297 356.778 C 104.619 356.920,105.586 357.478,106.445 358.017 C 107.305 358.557,108.359 359.178,108.789 359.399 C 109.219 359.619,110.449 360.321,111.523 360.959 C 113.840 362.334,122.502 366.686,125.000 367.731 C 125.967 368.135,127.549 368.803,128.516 369.215 C 129.482 369.627,130.625 370.113,131.055 370.294 C 131.484 370.475,132.478 370.905,133.262 371.249 C 134.047 371.593,134.884 371.875,135.123 371.875 C 135.362 371.875,135.863 372.045,136.236 372.252 C 136.609 372.459,139.111 373.357,141.797 374.247 C 146.537 375.818,147.280 376.045,150.586 376.942 C 151.445 377.176,152.412 377.442,152.734 377.535 C 155.410 378.306,157.932 378.941,158.855 379.076 C 159.463 379.164,160.400 379.348,160.938 379.483 C 162.136 379.785,163.068 379.966,164.844 380.241 C 165.596 380.358,166.738 380.574,167.383 380.723 C 168.027 380.871,168.818 381.031,169.141 381.080 C 169.463 381.128,170.430 381.276,171.289 381.409 C 172.148 381.542,173.467 381.739,174.219 381.845 C 174.971 381.952,176.201 382.127,176.953 382.235 C 192.681 384.478,214.159 384.009,231.250 381.048 C 235.886 380.245,236.828 380.056,237.120 379.876 C 237.269 379.784,238.075 379.603,238.911 379.475 C 241.330 379.103,241.992 378.977,241.992 378.889 C 241.992 378.844,242.344 378.754,242.773 378.689 C 244.050 378.496,245.927 378.002,246.875 377.609 C 247.197 377.476,247.988 377.264,248.633 377.139 C 250.442 376.788,250.553 376.756,251.074 376.431 C 251.343 376.263,251.562 376.215,251.563 376.324 C 251.563 376.433,252.178 376.266,252.930 375.951 C 253.682 375.637,254.297 375.492,254.297 375.629 C 254.297 375.765,254.561 375.658,254.883 375.391 C 255.205 375.123,255.469 375.035,255.469 375.195 C 255.469 375.355,255.759 375.245,256.115 374.950 C 256.470 374.655,256.778 374.470,256.798 374.539 C 256.819 374.608,257.343 374.471,257.963 374.236 C 258.584 374.000,259.462 373.737,259.917 373.651 C 260.371 373.566,260.786 373.461,260.840 373.418 C 260.894 373.375,261.113 373.296,261.328 373.242 C 261.543 373.188,261.807 373.101,261.914 373.047 C 262.021 372.993,262.241 372.913,262.402 372.868 C 262.563 372.823,263.223 372.564,263.867 372.292 C 264.512 372.020,265.215 371.762,265.430 371.720 C 265.645 371.677,266.216 371.425,266.699 371.159 C 267.183 370.893,267.578 370.774,267.578 370.894 C 267.578 371.014,268.018 370.824,268.555 370.472 C 269.092 370.120,269.531 369.944,269.531 370.081 C 269.531 370.218,269.971 370.043,270.508 369.691 C 271.045 369.339,271.484 369.166,271.484 369.307 C 271.484 369.449,272.319 369.075,273.340 368.477 C 274.360 367.879,275.240 367.434,275.295 367.488 C 275.350 367.543,276.428 367.066,277.690 366.429 C 278.952 365.792,280.093 365.380,280.226 365.513 C 280.360 365.646,280.469 365.540,280.469 365.276 C 280.469 365.013,280.645 364.906,280.859 365.039 C 281.074 365.172,281.250 365.084,281.250 364.844 C 281.250 364.604,281.426 364.516,281.641 364.648 C 281.855 364.781,282.031 364.693,282.031 364.453 C 282.031 364.213,282.207 364.125,282.422 364.258 C 282.637 364.391,282.813 364.303,282.813 364.063 C 282.813 363.822,282.988 363.734,283.203 363.867 C 283.418 364.000,283.594 363.912,283.594 363.672 C 283.594 363.432,283.770 363.344,283.984 363.477 C 284.199 363.609,284.375 363.562,284.375 363.371 C 284.375 363.180,285.298 362.599,286.426 362.080 C 287.554 361.560,288.709 360.915,288.992 360.646 C 289.276 360.377,289.935 360.050,290.457 359.919 C 290.979 359.788,291.406 359.536,291.406 359.358 C 291.406 359.180,292.021 358.812,292.773 358.541 C 293.525 358.269,294.141 357.918,294.141 357.760 C 294.141 357.603,294.523 357.353,294.990 357.205 C 295.456 357.057,296.168 356.629,296.570 356.254 C 296.973 355.879,297.953 355.241,298.749 354.837 C 299.544 354.432,300.254 353.970,300.326 353.809 C 300.397 353.647,300.705 353.516,301.009 353.516 C 301.313 353.516,301.563 353.370,301.563 353.191 C 301.563 353.012,302.046 352.617,302.637 352.312 C 303.228 352.007,304.149 351.362,304.684 350.879 C 305.218 350.396,305.878 350.000,306.148 350.000 C 306.419 350.000,306.641 349.824,306.641 349.609 C 306.641 349.395,306.890 349.219,307.194 349.219 C 307.498 349.219,307.806 349.063,307.878 348.873 C 308.015 348.507,311.589 345.703,311.917 345.703 C 312.023 345.703,312.438 345.396,312.841 345.020 C 314.093 343.848,316.850 341.619,317.519 341.236 C 317.870 341.036,318.692 340.332,319.345 339.674 C 319.999 339.015,321.374 337.773,322.400 336.914 C 324.817 334.891,334.891 324.817,336.914 322.400 C 337.773 321.374,339.015 319.999,339.674 319.345 C 340.332 318.692,341.036 317.870,341.236 317.519 C 341.619 316.850,343.848 314.093,345.020 312.841 C 345.396 312.438,345.703 312.023,345.703 311.917 C 345.703 311.589,348.507 308.015,348.873 307.878 C 349.063 307.806,349.219 307.498,349.219 307.194 C 349.219 306.890,349.395 306.641,349.609 306.641 C 349.824 306.641,350.000 306.371,350.000 306.042 C 350.000 305.713,350.264 305.343,350.586 305.219 C 350.908 305.096,351.172 304.750,351.172 304.450 C 351.172 304.151,351.348 303.906,351.563 303.906 C 351.777 303.906,351.953 303.676,351.953 303.394 C 351.953 303.112,352.305 302.504,352.734 302.043 C 353.164 301.582,353.516 301.036,353.516 300.830 C 353.516 300.624,353.647 300.397,353.809 300.326 C 353.970 300.254,354.432 299.544,354.837 298.749 C 355.241 297.953,355.879 296.973,356.254 296.570 C 356.629 296.168,357.057 295.456,357.205 294.990 C 357.353 294.523,357.603 294.141,357.760 294.141 C 357.918 294.141,358.269 293.525,358.541 292.773 C 358.812 292.021,359.180 291.406,359.358 291.406 C 359.536 291.406,359.788 290.979,359.919 290.457 C 360.050 289.935,360.377 289.276,360.646 288.992 C 360.915 288.709,361.560 287.554,362.080 286.426 C 362.599 285.298,363.180 284.375,363.371 284.375 C 363.562 284.375,363.609 284.199,363.477 283.984 C 363.344 283.770,363.432 283.594,363.672 283.594 C 363.912 283.594,364.000 283.418,363.867 283.203 C 363.734 282.988,363.822 282.813,364.063 282.813 C 364.303 282.813,364.391 282.637,364.258 282.422 C 364.125 282.207,364.213 282.031,364.453 282.031 C 364.693 282.031,364.781 281.855,364.648 281.641 C 364.516 281.426,364.604 281.250,364.844 281.250 C 365.084 281.250,365.172 281.074,365.039 280.859 C 364.906 280.645,364.994 280.469,365.234 280.469 C 365.475 280.469,365.562 280.293,365.430 280.078 C 365.297 279.863,365.404 279.688,365.667 279.688 C 365.930 279.688,366.037 279.578,365.903 279.445 C 365.769 279.311,366.127 278.300,366.697 277.199 C 367.268 276.097,367.699 275.063,367.656 274.902 C 367.613 274.741,367.783 274.609,368.034 274.609 C 368.285 274.609,368.379 274.499,368.245 274.365 C 368.110 274.230,368.260 273.616,368.578 273.001 C 368.896 272.386,369.109 271.830,369.051 271.764 C 368.993 271.699,369.257 271.170,369.638 270.588 C 370.019 270.007,370.218 269.531,370.081 269.531 C 369.944 269.531,370.120 269.092,370.472 268.555 C 370.824 268.018,371.014 267.578,370.894 267.578 C 370.774 267.578,370.893 267.183,371.159 266.699 C 371.425 266.216,371.677 265.645,371.720 265.430 C 371.762 265.215,372.020 264.512,372.292 263.867 C 372.564 263.223,372.823 262.563,372.868 262.402 C 372.913 262.241,372.985 262.065,373.028 262.012 C 373.071 261.958,373.162 261.650,373.229 261.328 C 373.492 260.069,375.122 255.252,375.410 254.883 C 375.578 254.668,375.730 254.360,375.748 254.199 C 375.766 254.038,375.794 253.862,375.810 253.809 C 375.826 253.755,375.916 253.271,376.010 252.734 C 376.104 252.197,376.293 251.494,376.430 251.172 C 376.568 250.850,376.743 250.234,376.821 249.805 C 376.899 249.375,377.075 248.760,377.213 248.438 C 377.351 248.115,377.498 247.676,377.539 247.461 C 377.581 247.246,377.656 246.982,377.705 246.875 C 377.754 246.768,377.858 246.416,377.937 246.094 C 378.015 245.771,378.190 245.068,378.325 244.531 C 378.460 243.994,378.624 243.203,378.689 242.773 C 378.754 242.344,378.844 241.992,378.889 241.992 C 378.934 241.992,379.045 241.553,379.134 241.016 C 379.443 239.165,379.588 238.477,379.670 238.477 C 379.716 238.477,379.815 238.125,379.891 237.695 C 379.967 237.266,380.129 236.387,380.250 235.742 C 380.372 235.098,380.544 234.131,380.632 233.594 C 380.721 233.057,380.898 232.046,381.026 231.348 C 381.521 228.657,381.964 225.708,382.213 223.438 C 382.295 222.686,382.472 221.104,382.607 219.922 C 383.990 207.754,384.126 188.754,382.860 184.494 C 382.656 183.808,382.635 183.192,382.814 183.127 C 383.249 182.967,382.821 180.859,382.353 180.859 C 382.151 180.859,382.111 181.062,382.264 181.310 C 382.441 181.597,382.371 181.655,382.070 181.469 C 381.712 181.248,381.749 180.947,382.222 180.226 C 382.564 179.703,382.762 179.140,382.660 178.975 C 382.498 178.714,382.316 177.509,381.822 173.438 C 381.757 172.900,381.604 171.889,381.482 171.191 C 381.360 170.492,381.184 169.438,381.091 168.847 C 380.999 168.257,380.806 167.158,380.662 166.406 C 380.518 165.654,380.341 164.688,380.268 164.258 C 380.138 163.491,379.920 162.486,379.465 160.547 C 379.338 160.010,379.171 159.219,379.092 158.789 C 378.958 158.059,378.857 157.624,378.297 155.371 C 377.990 154.131,377.885 153.791,377.609 153.125 C 377.476 152.803,377.264 152.012,377.139 151.367 C 376.788 149.558,376.756 149.447,376.431 148.926 C 376.263 148.657,376.215 148.438,376.324 148.438 C 376.433 148.438,376.266 147.822,375.951 147.070 C 375.637 146.318,375.492 145.703,375.629 145.703 C 375.765 145.703,375.658 145.439,375.391 145.117 C 375.123 144.795,375.035 144.531,375.195 144.531 C 375.355 144.531,375.267 144.268,375.000 143.945 C 374.733 143.623,374.645 143.359,374.805 143.359 C 374.965 143.359,374.877 143.096,374.609 142.773 C 374.342 142.451,374.254 142.188,374.414 142.188 C 374.574 142.188,374.486 141.924,374.219 141.602 C 373.951 141.279,373.863 141.016,374.023 141.016 C 374.183 141.016,374.096 140.752,373.828 140.430 C 373.561 140.107,373.473 139.844,373.633 139.844 C 373.793 139.844,373.705 139.580,373.438 139.258 C 373.170 138.936,373.082 138.672,373.242 138.672 C 373.402 138.672,373.314 138.408,373.047 138.086 C 372.779 137.764,372.674 137.500,372.813 137.500 C 372.951 137.500,372.806 137.104,372.489 136.621 C 372.172 136.138,371.883 135.566,371.847 135.352 C 371.811 135.137,371.609 134.521,371.399 133.984 C 371.188 133.447,370.981 132.832,370.939 132.617 C 370.896 132.402,370.643 131.831,370.378 131.348 C 370.112 130.864,370.003 130.469,370.135 130.469 C 370.268 130.469,369.996 129.854,369.531 129.102 C 369.067 128.350,368.803 127.734,368.945 127.734 C 369.088 127.734,368.841 127.146,368.396 126.427 C 367.952 125.708,367.703 125.005,367.844 124.865 C 367.984 124.724,367.894 124.609,367.643 124.609 C 367.393 124.609,367.224 124.478,367.269 124.316 C 367.371 123.951,361.923 112.981,361.110 111.914 C 360.783 111.484,360.415 110.737,360.293 110.254 C 360.171 109.771,359.928 109.375,359.754 109.375 C 359.579 109.375,359.233 108.760,358.984 108.008 C 358.736 107.256,358.383 106.641,358.199 106.641 C 358.015 106.641,357.742 106.253,357.592 105.780 C 357.442 105.307,357.078 104.679,356.784 104.385 C 356.490 104.091,356.250 103.599,356.250 103.292 C 356.250 102.985,356.074 102.734,355.859 102.734 C 355.645 102.734,355.469 102.471,355.469 102.148 C 355.469 101.826,355.293 101.563,355.078 101.563 C 354.863 101.563,354.688 101.299,354.688 100.977 C 354.688 100.654,354.512 100.391,354.297 100.391 C 354.082 100.391,353.906 100.127,353.906 99.805 C 353.906 99.482,353.734 99.219,353.523 99.219 C 353.312 99.219,353.033 98.792,352.902 98.270 C 352.771 97.749,352.416 97.227,352.113 97.111 C 351.810 96.995,351.563 96.630,351.563 96.301 C 351.563 95.972,351.387 95.703,351.172 95.703 C 350.957 95.703,350.781 95.458,350.781 95.159 C 350.781 94.860,350.518 94.514,350.195 94.390 C 349.873 94.266,349.609 93.896,349.609 93.567 C 349.609 93.238,349.434 92.969,349.219 92.969 C 349.004 92.969,348.828 92.780,348.828 92.550 C 348.828 92.320,348.608 91.902,348.340 91.622 C 348.071 91.341,347.588 90.711,347.266 90.221 C 346.943 89.732,346.372 89.056,345.996 88.720 C 345.620 88.383,345.313 87.889,345.313 87.622 C 345.313 87.355,344.961 86.949,344.531 86.719 C 344.102 86.489,343.750 86.131,343.750 85.924 C 343.750 85.716,343.442 85.213,343.066 84.806 C 342.690 84.398,341.943 83.514,341.406 82.840 C 340.869 82.166,339.814 80.937,339.063 80.108 C 338.311 79.280,336.641 77.420,335.352 75.976 C 331.624 71.801,322.130 62.500,321.595 62.500 C 321.427 62.500,320.762 61.980,320.117 61.345 C 317.142 58.412,316.455 57.812,316.068 57.813 C 315.839 57.813,315.464 57.461,315.234 57.031 C 315.004 56.602,314.553 56.250,314.232 56.250 C 313.910 56.250,313.546 55.986,313.423 55.664 C 313.299 55.342,312.959 55.078,312.667 55.078 C 312.376 55.078,311.949 54.727,311.719 54.297 C 311.489 53.867,311.038 53.516,310.716 53.516 C 310.395 53.516,310.031 53.252,309.907 52.930 C 309.783 52.607,309.456 52.344,309.180 52.344 C 308.903 52.344,308.572 52.069,308.443 51.733 C 308.314 51.397,308.030 51.233,307.813 51.367 C 307.595 51.502,307.311 51.337,307.182 51.001 C 307.053 50.665,306.703 50.391,306.404 50.391 C 306.104 50.391,305.859 50.215,305.859 50.000 C 305.859 49.785,305.590 49.609,305.261 49.609 C 304.932 49.609,304.562 49.346,304.438 49.023 C 304.314 48.701,303.968 48.437,303.669 48.438 C 303.370 48.438,303.125 48.262,303.125 48.047 C 303.125 47.832,302.861 47.656,302.539 47.656 C 302.217 47.656,301.953 47.480,301.953 47.266 C 301.953 47.051,301.689 46.875,301.367 46.875 C 301.045 46.875,300.781 46.689,300.781 46.461 C 300.781 46.234,300.624 46.145,300.432 46.264 C 300.239 46.383,299.977 46.206,299.848 45.871 C 299.720 45.537,299.438 45.372,299.222 45.506 C 299.005 45.640,298.828 45.563,298.828 45.336 C 298.828 45.108,298.564 44.922,298.242 44.922 C 297.920 44.922,297.656 44.746,297.656 44.531 C 297.656 44.316,297.393 44.141,297.070 44.141 C 296.748 44.141,296.484 43.954,296.484 43.727 C 296.484 43.499,296.307 43.423,296.091 43.556 C 295.875 43.690,295.593 43.526,295.464 43.191 C 295.336 42.856,295.073 42.680,294.881 42.799 C 294.689 42.918,294.531 42.818,294.531 42.578 C 294.531 42.338,294.355 42.250,294.141 42.383 C 293.926 42.516,293.750 42.438,293.750 42.211 C 293.750 41.983,293.486 41.797,293.164 41.797 C 292.842 41.797,292.578 41.611,292.578 41.383 C 292.578 41.156,292.402 41.078,292.188 41.211 C 291.973 41.344,291.797 41.256,291.797 41.016 C 291.797 40.775,291.621 40.688,291.406 40.820 C 291.191 40.953,291.016 40.876,291.016 40.648 C 291.016 40.421,290.752 40.234,290.430 40.234 C 290.107 40.234,289.844 40.029,289.844 39.779 C 289.844 39.528,289.737 39.430,289.607 39.560 C 289.477 39.690,289.010 39.462,288.571 39.052 C 288.132 38.643,287.623 38.400,287.441 38.513 C 287.259 38.626,287.109 38.521,287.109 38.281 C 287.109 38.041,286.934 37.953,286.719 38.086 C 286.504 38.219,286.328 38.131,286.328 37.891 C 286.328 37.650,286.152 37.563,285.938 37.695 C 285.723 37.828,285.547 37.740,285.547 37.500 C 285.547 37.260,285.371 37.172,285.156 37.305 C 284.941 37.437,284.766 37.350,284.766 37.109 C 284.766 36.869,284.590 36.781,284.375 36.914 C 284.160 37.047,283.984 36.959,283.984 36.719 C 283.984 36.479,283.809 36.391,283.594 36.523 C 283.379 36.656,283.203 36.568,283.203 36.328 C 283.203 36.088,283.027 36.000,282.813 36.133 C 282.598 36.266,282.422 36.209,282.422 36.008 C 282.422 35.618,280.084 34.516,279.590 34.673 C 279.429 34.724,279.297 34.579,279.297 34.352 C 279.297 34.124,279.121 34.047,278.906 34.180 C 278.691 34.312,278.516 34.225,278.516 33.984 C 278.516 33.744,278.340 33.656,278.125 33.789 C 277.910 33.922,277.734 33.844,277.734 33.617 C 277.734 33.389,277.603 33.239,277.441 33.283 C 277.280 33.328,276.599 33.071,275.928 32.713 C 275.257 32.355,274.598 32.173,274.464 32.307 C 274.329 32.442,274.219 32.337,274.219 32.073 C 274.219 31.810,274.043 31.703,273.828 31.836 C 273.613 31.969,273.438 31.910,273.438 31.706 C 273.438 31.404,272.582 31.030,271.094 30.682 C 270.986 30.657,270.503 30.417,270.020 30.148 C 269.536 29.880,269.138 29.798,269.135 29.967 C 269.131 30.135,268.984 30.045,268.807 29.766 C 268.629 29.486,268.105 29.229,267.641 29.194 C 267.177 29.159,266.797 29.006,266.797 28.854 C 266.797 28.585,264.721 28.003,264.210 28.129 C 264.070 28.163,263.847 28.027,263.716 27.825 C 263.510 27.510,260.282 26.294,258.870 26.000 C 258.610 25.945,257.871 25.683,257.227 25.415 C 242.601 19.351,209.233 15.162,187.695 16.685 M220.703 34.342 C 235.497 36.268,248.039 39.523,262.397 45.164 C 265.885 46.535,268.902 47.656,269.102 47.656 C 269.302 47.656,269.525 47.811,269.596 48.001 C 269.668 48.190,272.012 49.490,274.805 50.888 C 327.890 77.467,363.053 130.418,366.822 189.453 C 367.062 193.213,367.415 196.589,367.605 196.955 C 367.817 197.359,367.803 197.713,367.570 197.857 C 367.350 197.992,367.187 200.398,367.187 203.517 C 367.188 285.539,302.005 357.498,219.141 366.958 C 201.532 368.968,190.014 368.616,168.750 365.417 C 156.638 363.596,140.761 358.338,126.270 351.350 C 118.846 347.771,118.869 347.795,120.518 345.117 C 121.916 342.847,121.892 342.823,117.074 341.775 C 112.646 340.812,111.105 340.729,111.568 341.478 C 111.728 341.738,111.501 341.780,110.927 341.598 C 110.176 341.360,110.078 341.429,110.293 342.045 C 110.531 342.724,110.509 342.721,109.962 342.015 C 109.639 341.598,109.375 341.387,109.375 341.546 C 109.375 341.704,108.584 341.290,107.617 340.625 L 105.859 339.416 105.765 318.438 L 105.671 297.461 105.566 318.264 L 105.462 339.066 102.633 337.033 C 57.778 304.789,32.652 255.808,32.639 200.586 C 32.618 112.183,98.306 41.288,187.500 33.449 C 193.062 32.960,214.523 33.537,220.703 34.342 M276.802 37.988 C 276.661 38.828,275.771 40.234,275.381 40.234 C 275.176 40.234,275.314 39.877,275.687 39.440 C 276.061 39.004,276.389 38.476,276.416 38.269 C 276.497 37.645,276.555 37.500,276.723 37.500 C 276.812 37.500,276.847 37.720,276.802 37.988 M172.852 95.576 C 120.910 124.448,110.739 130.158,110.458 130.600 C 110.298 130.850,110.166 130.888,110.162 130.684 C 110.159 130.479,109.945 130.523,109.688 130.781 C 109.341 131.128,109.333 131.364,109.657 131.688 C 110.346 132.377,109.829 133.107,108.793 132.909 C 107.631 132.687,105.859 134.329,105.860 135.627 C 105.860 136.383,105.968 136.309,106.544 135.156 C 107.737 132.767,108.666 132.991,116.797 137.623 C 117.549 138.051,119.219 138.968,120.508 139.660 C 130.885 145.233,138.722 149.461,154.492 157.996 C 161.152 161.600,168.975 165.821,171.875 167.375 C 178.494 170.920,201.003 182.422,201.324 182.422 C 201.942 182.422,201.576 83.396,200.954 82.509 C 199.696 80.713,199.053 81.012,172.852 95.576 M200.102 186.959 C 199.407 187.693,198.476 189.038,198.034 189.948 C 197.284 191.489,197.281 191.543,197.981 190.739 C 198.393 190.265,198.869 190.001,199.037 190.153 C 199.206 190.305,199.235 190.128,199.103 189.759 C 198.970 189.390,199.058 188.967,199.296 188.819 C 199.559 188.657,199.620 188.729,199.451 189.002 C 199.298 189.250,199.353 189.453,199.573 189.453 C 199.793 189.453,200.163 189.097,200.396 188.661 C 200.630 188.225,200.987 187.972,201.191 188.098 C 201.399 188.226,201.563 187.716,201.563 186.937 C 201.563 186.172,201.519 185.564,201.465 185.585 C 201.411 185.606,200.798 186.224,200.102 186.959 M374.646 189.355 C 374.934 189.731,375.016 189.909,374.828 189.749 C 374.640 189.590,374.266 189.643,373.996 189.866 C 373.657 190.148,373.428 190.144,373.248 189.853 C 373.105 189.622,373.134 189.459,373.311 189.490 C 374.101 189.627,374.364 189.409,373.828 189.063 C 373.506 188.854,373.440 188.681,373.683 188.678 C 373.925 188.675,374.359 188.979,374.646 189.355 M197.266 254.352 C 195.654 254.713,190.205 256.050,185.156 257.324 C 180.107 258.598,174.219 260.041,172.070 260.532 C 169.922 261.023,166.857 261.744,165.260 262.136 C 163.663 262.527,162.231 262.770,162.078 262.676 C 161.926 262.582,161.700 262.767,161.577 263.088 C 161.288 263.839,161.050 263.861,167.615 262.536 C 173.057 261.437,174.606 261.161,177.930 260.694 C 178.789 260.573,181.865 260.043,184.766 259.517 C 200.355 256.689,201.563 256.329,201.563 254.515 C 201.563 253.502,201.134 253.485,197.266 254.352 M152.344 266.646 C 143.587 268.348,128.839 270.985,126.563 271.256 C 125.596 271.371,120.889 272.260,116.103 273.232 C 111.317 274.205,106.952 275.000,106.402 275.000 C 105.224 275.000,105.312 275.915,106.508 276.093 C 106.939 276.157,112.638 275.155,119.173 273.866 C 129.719 271.786,137.210 270.398,141.406 269.747 C 142.158 269.630,143.828 269.363,145.117 269.154 C 149.257 268.482,151.042 268.437,151.042 269.004 C 151.042 269.389,150.910 269.410,150.521 269.087 C 150.163 268.790,150.000 268.785,150.000 269.070 C 150.000 269.298,150.176 269.594,150.391 269.727 C 150.907 270.046,150.891 270.703,150.368 270.703 C 150.140 270.703,150.063 270.527,150.195 270.313 C 150.572 269.703,150.152 269.854,149.591 270.530 C 149.314 270.864,149.248 271.107,149.446 271.070 C 150.250 270.917,150.551 271.128,150.013 271.468 C 149.328 271.901,149.170 274.184,149.769 274.977 C 150.082 275.391,150.077 275.470,149.748 275.273 C 149.502 275.125,149.204 275.256,149.086 275.564 C 148.962 275.887,149.150 276.196,149.533 276.297 C 150.131 276.455,150.128 276.476,149.504 276.517 C 148.987 276.551,148.858 276.809,148.990 277.539 C 149.106 278.179,148.988 278.516,148.649 278.516 C 148.364 278.516,148.020 278.804,147.884 279.157 C 147.670 279.717,147.722 279.729,148.297 279.254 C 148.904 278.754,148.915 278.789,148.438 279.688 C 147.943 280.618,147.954 280.637,148.660 280.078 C 149.378 279.510,149.381 279.523,148.742 280.525 C 148.098 281.534,148.103 281.554,148.944 281.370 C 149.582 281.231,149.665 281.281,149.266 281.563 C 148.970 281.773,148.849 282.139,148.996 282.378 C 149.144 282.617,149.035 282.815,148.754 282.818 C 148.372 282.823,148.386 282.915,148.809 283.183 C 149.121 283.381,149.505 283.463,149.661 283.366 C 149.818 283.270,150.051 283.360,150.179 283.567 C 150.307 283.774,150.099 283.883,149.717 283.810 C 149.209 283.712,149.023 283.926,149.023 284.612 C 149.023 285.126,149.167 285.547,149.343 285.547 C 149.518 285.547,149.540 285.942,149.392 286.426 C 148.887 288.068,149.503 286.923,154.957 276.074 C 158.768 268.493,160.222 265.247,159.793 265.276 C 159.456 265.299,156.104 265.915,152.344 266.646 "
              stroke="none" fill="#b14407" fill-rule="evenodd"></path>
        <path id="path2"
              d="M107.649 134.573 L 106.571 135.737 107.485 135.993 L 108.398 136.250 107.520 136.289 C 106.628 136.329,106.528 136.609,106.500 139.160 C 106.494 139.751,106.303 140.242,106.076 140.252 C 105.850 140.262,106.191 140.524,106.836 140.834 C 107.719 141.259,107.777 141.340,107.070 141.162 C 106.307 140.970,106.179 141.047,106.382 141.577 C 106.539 141.986,106.477 142.132,106.216 141.971 C 105.942 141.802,105.865 142.128,105.990 142.925 C 106.095 143.592,106.021 144.236,105.825 144.357 C 105.629 144.478,105.469 144.929,105.469 145.359 C 105.469 145.880,105.631 146.042,105.957 145.847 C 106.344 145.614,106.346 145.676,105.969 146.143 C 105.599 146.599,105.488 157.538,105.475 194.661 L 105.458 242.590 106.416 243.026 C 107.189 243.379,107.497 243.340,108.012 242.825 C 108.363 242.474,108.817 242.188,109.022 242.188 C 109.227 242.188,112.423 240.195,116.123 237.760 C 119.824 235.325,123.643 232.839,124.609 232.235 C 125.576 231.631,126.510 230.895,126.684 230.599 C 126.859 230.303,127.166 230.164,127.368 230.288 C 127.569 230.413,127.734 230.329,127.734 230.101 C 127.734 229.874,127.983 229.688,128.288 229.688 C 128.592 229.688,128.900 229.516,128.971 229.305 C 129.072 229.009,161.178 208.176,167.211 204.492 C 167.915 204.063,169.120 203.329,169.890 202.861 C 170.659 202.394,171.465 201.860,171.680 201.675 C 171.895 201.489,173.828 200.188,175.977 198.784 C 182.293 194.654,191.790 188.508,192.507 188.086 C 193.966 187.227,194.791 186.490,195.040 185.822 C 195.184 185.437,195.919 184.863,196.674 184.547 C 197.566 184.175,198.047 183.712,198.047 183.227 C 198.047 182.815,198.354 182.406,198.730 182.317 C 199.175 182.212,198.528 181.740,196.875 180.966 C 192.572 178.949,187.477 175.936,187.789 175.592 C 187.952 175.412,187.882 175.382,187.633 175.525 C 187.100 175.829,185.865 175.433,186.111 175.036 C 186.203 174.886,184.401 173.833,182.104 172.696 C 177.534 170.433,172.747 167.883,154.492 157.988 C 147.832 154.378,140.716 150.565,138.680 149.514 C 136.643 148.463,134.797 147.459,134.578 147.284 C 134.359 147.109,131.631 145.605,128.516 143.942 C 120.383 139.601,118.476 138.566,115.625 136.951 C 112.241 135.033,109.767 133.937,109.373 134.181 C 109.196 134.290,108.978 134.161,108.889 133.895 C 108.787 133.588,108.330 133.838,107.649 134.573 "
              stroke="none" fill="#9f1700" fill-rule="evenodd"></path>
        <path id="path3"
              d="M317.969 82.227 C 318.698 82.979,319.382 83.594,319.489 83.594 C 319.597 83.594,319.088 82.979,318.359 82.227 C 317.631 81.475,316.946 80.859,316.839 80.859 C 316.732 80.859,317.240 81.475,317.969 82.227 M95.983 206.859 C 85.914 281.343,86.310 277.959,87.598 278.535 C 88.382 278.886,104.698 275.901,105.303 275.296 C 105.395 275.204,105.427 244.304,105.372 206.630 L 105.273 138.131 95.983 206.859 M366.895 191.992 C 366.900 192.852,366.980 193.157,367.073 192.671 C 367.167 192.185,367.163 191.482,367.065 191.109 C 366.967 190.735,366.891 191.133,366.895 191.992 M366.895 209.180 C 366.900 210.039,366.980 210.345,367.073 209.859 C 367.167 209.373,367.163 208.670,367.065 208.296 C 366.967 207.923,366.891 208.320,366.895 209.180 M317.960 319.043 L 314.648 322.461 318.066 319.149 C 321.241 316.073,321.662 315.625,321.378 315.625 C 321.320 315.625,319.782 317.163,317.960 319.043 M207.719 367.854 C 208.205 367.948,208.908 367.944,209.282 367.847 C 209.655 367.749,209.258 367.672,208.398 367.677 C 207.539 367.681,207.233 367.761,207.719 367.854 "
              stroke="none" fill="#f79836" fill-rule="evenodd"></path>
        <path id="path4"
              d="M106.889 133.231 C 106.323 133.677,105.859 134.196,105.859 134.386 C 105.859 134.575,106.309 134.280,106.859 133.730 C 107.551 133.038,108.149 132.786,108.801 132.910 C 109.318 133.009,109.649 132.940,109.535 132.756 C 109.176 132.174,107.954 132.393,106.889 133.231 M106.858 134.462 C 106.524 134.939,106.247 135.599,106.244 135.927 C 106.239 136.455,106.194 136.456,105.859 135.938 C 105.603 135.541,105.479 136.842,105.475 139.964 C 105.471 142.645,105.618 144.485,105.825 144.357 C 106.021 144.236,106.095 143.592,105.990 142.925 C 105.865 142.128,105.942 141.802,106.216 141.971 C 106.477 142.132,106.539 141.986,106.382 141.577 C 106.179 141.047,106.307 140.970,107.070 141.162 C 107.777 141.340,107.719 141.259,106.836 140.834 C 106.191 140.524,105.850 140.262,106.076 140.252 C 106.303 140.242,106.494 139.751,106.500 139.160 C 106.527 136.723,106.645 136.382,107.520 136.213 L 108.398 136.044 107.496 135.991 C 107.000 135.961,106.698 135.769,106.825 135.564 C 106.952 135.358,107.358 135.287,107.727 135.405 C 108.301 135.589,108.313 135.557,107.813 135.186 C 107.302 134.807,107.324 134.676,107.985 134.172 C 108.622 133.686,108.642 133.594,108.105 133.594 C 107.753 133.594,107.193 133.984,106.858 134.462 M190.430 177.564 C 191.719 178.316,194.268 179.664,196.094 180.558 C 198.139 181.560,199.152 182.241,198.730 182.332 C 198.354 182.413,198.047 182.815,198.047 183.227 C 198.047 183.712,197.566 184.175,196.674 184.547 C 195.919 184.863,195.184 185.437,195.040 185.822 C 194.791 186.490,193.966 187.227,192.507 188.086 C 191.790 188.508,182.293 194.654,175.977 198.784 C 173.828 200.188,171.895 201.489,171.680 201.675 C 171.465 201.860,170.659 202.394,169.890 202.861 C 169.120 203.329,167.915 204.063,167.211 204.492 C 161.178 208.176,129.072 229.009,128.971 229.305 C 128.900 229.516,128.592 229.688,128.288 229.688 C 127.983 229.688,127.734 229.874,127.734 230.101 C 127.734 230.329,127.590 230.426,127.413 230.317 C 127.237 230.207,126.831 230.417,126.511 230.782 C 126.191 231.147,124.233 232.500,122.159 233.789 C 120.085 235.078,118.382 236.382,118.374 236.686 C 118.366 236.991,118.256 237.137,118.131 237.011 C 118.005 236.885,115.976 237.998,113.622 239.485 C 111.268 240.971,109.186 242.188,108.996 242.188 C 108.805 242.188,108.363 242.474,108.012 242.825 C 107.498 243.339,107.188 243.378,106.421 243.029 L 105.469 242.595 105.469 258.749 L 105.469 274.904 107.324 274.720 C 109.307 274.523,137.298 268.877,138.281 268.475 C 138.604 268.344,139.100 268.275,139.384 268.322 C 139.669 268.369,140.108 268.254,140.361 268.066 C 140.614 267.879,141.084 267.742,141.406 267.763 C 141.729 267.783,142.080 267.688,142.188 267.552 C 142.295 267.415,146.749 266.236,152.086 264.931 C 157.423 263.627,161.843 262.502,161.909 262.432 C 162.543 261.755,181.597 222.902,181.429 222.629 C 181.305 222.429,181.369 222.266,181.570 222.266 C 181.938 222.266,183.066 219.941,182.921 219.480 C 182.878 219.345,183.188 218.922,183.609 218.541 C 184.030 218.160,184.375 217.647,184.375 217.402 C 184.375 217.014,196.097 193.311,198.529 188.780 C 199.016 187.873,199.630 187.126,199.893 187.120 C 200.707 187.102,201.586 185.334,201.474 183.942 C 201.370 182.650,201.214 182.538,195.117 179.396 C 188.688 176.083,186.282 175.143,190.430 177.564 "
              stroke="none" fill="#c02f01" fill-rule="evenodd"></path>
        <path id="path5"
              d="M107.550 132.221 C 106.399 133.321,106.302 133.498,107.130 132.990 C 107.721 132.628,108.556 132.423,108.985 132.535 C 109.995 132.799,110.220 132.400,109.566 131.506 C 109.076 130.836,108.956 130.879,107.550 132.221 M200.413 188.630 C 200.171 189.083,199.793 189.453,199.573 189.453 C 199.353 189.453,199.298 189.250,199.451 189.002 C 199.620 188.729,199.559 188.657,199.296 188.819 C 199.058 188.967,198.970 189.390,199.103 189.759 C 199.235 190.128,199.200 190.300,199.026 190.142 C 198.377 189.554,161.507 262.028,162.135 262.656 C 162.244 262.765,163.645 262.532,165.248 262.139 C 166.852 261.746,169.922 261.023,172.070 260.532 C 174.219 260.041,180.107 258.597,185.156 257.323 C 195.617 254.683,199.000 253.896,200.391 253.777 L 201.367 253.694 201.501 221.141 C 201.633 189.021,201.549 186.508,200.413 188.630 M149.023 268.641 C 147.985 268.730,145.962 269.022,141.406 269.743 C 136.903 270.455,129.619 271.806,119.141 273.873 C 112.588 275.166,106.816 276.146,106.315 276.050 C 105.543 275.904,105.437 276.005,105.626 276.708 C 105.748 277.165,105.851 291.461,105.854 308.477 L 105.859 339.416 107.617 340.625 C 108.584 341.290,109.375 341.704,109.375 341.546 C 109.375 341.387,109.639 341.598,109.962 342.015 C 110.509 342.721,110.531 342.724,110.293 342.045 C 110.078 341.429,110.176 341.360,110.927 341.598 C 111.501 341.780,111.728 341.738,111.568 341.478 C 110.977 340.523,120.873 342.075,121.512 343.037 C 121.804 343.479,149.382 287.903,149.316 287.003 C 149.289 286.623,149.429 286.412,149.629 286.535 C 149.828 286.659,149.886 286.487,149.758 286.153 C 149.630 285.820,149.413 285.547,149.275 285.547 C 149.136 285.547,149.023 285.126,149.023 284.612 C 149.023 283.926,149.209 283.712,149.717 283.810 C 150.099 283.883,150.307 283.774,150.179 283.567 C 150.051 283.360,149.818 283.270,149.661 283.366 C 149.505 283.463,149.121 283.381,148.809 283.183 C 148.386 282.915,148.372 282.823,148.754 282.818 C 149.035 282.815,149.144 282.617,148.996 282.378 C 148.849 282.139,148.970 281.773,149.266 281.563 C 149.665 281.281,149.582 281.231,148.944 281.370 C 148.103 281.554,148.098 281.534,148.742 280.525 C 149.381 279.523,149.378 279.510,148.660 280.078 C 147.954 280.637,147.943 280.618,148.438 279.688 C 148.915 278.789,148.904 278.754,148.297 279.254 C 147.722 279.729,147.670 279.717,147.884 279.157 C 148.020 278.804,148.364 278.516,148.649 278.516 C 148.984 278.516,149.106 278.181,148.995 277.568 C 148.874 276.900,149.025 276.568,149.509 276.442 C 150.142 276.276,150.143 276.259,149.524 276.217 C 149.097 276.188,148.934 275.959,149.077 275.588 C 149.200 275.267,149.502 275.125,149.748 275.273 C 150.077 275.470,150.082 275.391,149.769 274.977 C 149.170 274.184,149.328 271.901,150.013 271.468 C 150.551 271.128,150.250 270.917,149.446 271.070 C 149.248 271.107,149.314 270.864,149.591 270.530 C 150.152 269.854,150.572 269.703,150.195 270.313 C 150.063 270.527,150.140 270.703,150.368 270.703 C 150.891 270.703,150.907 270.046,150.391 269.727 C 150.176 269.594,150.000 269.298,150.000 269.070 C 150.000 268.785,150.163 268.790,150.521 269.087 C 150.910 269.410,151.042 269.389,151.042 269.004 C 151.042 268.721,150.851 268.501,150.618 268.516 C 150.386 268.530,149.668 268.587,149.023 268.641 M149.609 284.938 C 149.609 285.247,149.783 285.608,149.996 285.739 C 150.225 285.881,150.277 285.706,150.124 285.308 C 149.936 284.817,150.006 284.723,150.385 284.957 C 150.729 285.170,150.809 285.126,150.623 284.826 C 150.233 284.195,149.609 284.263,149.609 284.938 "
              stroke="none" fill="#b84307" fill-rule="evenodd"></path>
        <path id="path6"
              d="M276.514 37.695 C 276.487 37.803,276.443 38.061,276.416 38.269 C 276.389 38.476,276.061 39.004,275.687 39.440 C 275.314 39.877,275.176 40.234,275.381 40.234 C 275.771 40.234,276.661 38.828,276.802 37.988 C 276.879 37.531,276.620 37.269,276.514 37.695 M268.359 47.803 C 268.896 48.117,269.408 48.300,269.498 48.210 C 269.741 47.968,269.447 47.783,268.359 47.493 L 267.383 47.233 268.359 47.803 M324.219 65.039 C 324.948 65.791,325.632 66.406,325.739 66.406 C 325.847 66.406,325.338 65.791,324.609 65.039 C 323.881 64.287,323.196 63.672,323.089 63.672 C 322.982 63.672,323.490 64.287,324.219 65.039 M335.156 75.977 C 335.885 76.729,336.569 77.344,336.677 77.344 C 336.784 77.344,336.276 76.729,335.547 75.977 C 334.818 75.225,334.134 74.609,334.026 74.609 C 333.919 74.609,334.427 75.225,335.156 75.977 M83.594 79.883 C 82.645 80.850,81.956 81.641,82.064 81.641 C 82.171 81.641,83.036 80.850,83.984 79.883 C 84.933 78.916,85.622 78.125,85.514 78.125 C 85.407 78.125,84.543 78.916,83.594 79.883 M199.508 81.493 C 201.705 81.998,201.563 75.902,201.563 169.228 C 201.563 221.903,201.703 255.078,201.926 255.078 C 202.987 255.078,292.507 236.218,293.340 235.819 C 296.571 234.270,298.026 235.161,247.287 207.617 C 222.354 194.082,202.010 182.832,202.079 182.617 C 202.199 182.240,206.768 179.270,250.995 150.807 C 299.075 119.865,295.677 122.258,294.543 120.139 C 293.923 118.981,298.639 120.994,246.289 99.533 C 213.585 86.125,202.046 81.558,200.586 81.444 C 199.512 81.360,199.027 81.382,199.508 81.493 M78.906 84.570 C 77.957 85.537,77.269 86.328,77.376 86.328 C 77.484 86.328,78.348 85.537,79.297 84.570 C 80.246 83.604,80.934 82.813,80.827 82.813 C 80.719 82.813,79.855 83.604,78.906 84.570 M382.096 180.348 C 381.750 180.994,381.749 181.271,382.091 181.482 C 382.358 181.647,382.437 181.591,382.284 181.344 C 382.143 181.114,382.230 180.858,382.478 180.776 C 382.726 180.693,382.845 180.371,382.741 180.060 C 382.599 179.634,382.440 179.705,382.096 180.348 M382.717 184.180 C 382.820 184.717,382.971 185.156,383.053 185.156 C 383.136 185.156,383.203 184.717,383.203 184.180 C 383.203 183.643,383.052 183.203,382.867 183.203 C 382.682 183.203,382.614 183.643,382.717 184.180 M373.828 189.063 C 374.364 189.409,374.101 189.627,373.311 189.490 C 373.134 189.459,373.105 189.622,373.248 189.853 C 373.428 190.144,373.657 190.148,373.996 189.866 C 374.266 189.643,374.640 189.590,374.828 189.749 C 375.016 189.909,374.934 189.731,374.646 189.355 C 374.359 188.979,373.925 188.675,373.683 188.678 C 373.440 188.681,373.506 188.854,373.828 189.063 M383.302 190.039 C 383.306 190.898,383.386 191.204,383.479 190.718 C 383.573 190.232,383.569 189.529,383.472 189.156 C 383.374 188.782,383.297 189.180,383.302 190.039 M383.302 210.352 C 383.306 211.211,383.386 211.517,383.479 211.031 C 383.573 210.545,383.569 209.842,383.472 209.468 C 383.374 209.095,383.297 209.492,383.302 210.352 M200.870 255.947 C 200.597 256.277,199.806 256.661,199.112 256.802 C 195.354 257.563,179.232 260.515,177.698 260.723 C 175.109 261.075,174.306 261.220,167.440 262.577 L 161.248 263.800 140.390 305.761 C 128.918 328.840,119.531 347.807,119.531 347.912 C 119.531 349.630,147.985 360.729,159.775 363.610 C 169.045 365.875,183.072 367.684,195.313 368.193 L 201.758 368.461 201.660 332.180 C 201.466 260.487,201.412 255.294,200.870 255.947 M105.640 287.305 C 105.640 293.105,105.694 295.533,105.761 292.699 C 105.827 289.865,105.827 285.119,105.761 282.152 C 105.694 279.185,105.640 281.504,105.640 287.305 M78.906 316.602 C 79.635 317.354,80.319 317.969,80.427 317.969 C 80.534 317.969,80.026 317.354,79.297 316.602 C 78.568 315.850,77.884 315.234,77.776 315.234 C 77.669 315.234,78.177 315.850,78.906 316.602 M83.594 321.289 C 84.323 322.041,85.007 322.656,85.114 322.656 C 85.222 322.656,84.713 322.041,83.984 321.289 C 83.256 320.537,82.571 319.922,82.464 319.922 C 82.357 319.922,82.865 320.537,83.594 321.289 M329.680 329.980 L 325.977 333.789 329.785 330.086 C 333.323 326.646,333.771 326.172,333.488 326.172 C 333.430 326.172,331.717 327.886,329.680 329.980 "
              stroke="none" fill="#d5832f" fill-rule="evenodd"></path>
<!--        <path id="path7"-->
<!--              d="M188.259 33.593 C 81.275 41.552,9.453 144.839,39.271 247.852 C 49.389 282.805,72.342 315.150,102.128 336.427 L 105.273 338.674 105.373 307.165 C 105.428 289.835,105.425 275.607,105.365 275.547 C 105.305 275.488,101.481 276.224,96.867 277.184 C 87.469 279.138,86.729 279.115,86.705 276.864 C 86.694 275.810,105.184 137.276,105.710 134.470 C 106.080 132.499,108.997 130.748,146.119 110.217 C 167.081 98.624,187.295 87.421,191.041 85.322 C 201.069 79.701,193.759 77.806,248.034 100.103 C 298.172 120.700,295.928 119.635,294.520 122.168 C 294.103 122.919,280.061 132.173,247.910 152.887 C 210.883 176.742,201.997 182.625,202.413 183.009 C 202.697 183.271,223.232 194.510,248.047 207.985 C 295.178 233.579,294.635 233.268,294.451 234.536 C 294.243 235.966,292.765 236.319,247.070 245.842 L 201.758 255.285 201.659 311.627 L 201.560 367.969 203.221 367.965 C 276.301 367.795,343.860 313.979,362.100 241.406 C 389.722 131.507,300.810 25.220,188.259 33.593 "-->
<!--              stroke="none" fill="#fefaf7" fill-rule="evenodd"></path>-->
        <path id="path8"
              d="M184.961 15.660 C 82.338 23.963,6.187 113.017,14.038 215.544 C 22.281 323.189,116.768 400.128,224.219 386.692 C 323.796 374.240,395.082 285.047,385.919 184.375 C 376.633 82.365,287.315 7.378,184.961 15.660 M213.691 16.807 C 353.757 27.485,430.707 185.097,352.907 301.953 C 274.412 419.852,96.634 407.626,34.808 280.078 C -26.619 153.354,73.426 6.114,213.691 16.807 M186.719 175.586 C 187.256 175.893,187.871 176.144,188.086 176.144 C 188.301 176.144,188.037 175.893,187.500 175.586 C 186.963 175.279,186.348 175.028,186.133 175.028 C 185.918 175.028,186.182 175.279,186.719 175.586 M151.953 264.954 C 146.689 266.245,142.295 267.414,142.188 267.551 C 142.080 267.687,141.729 267.783,141.406 267.763 C 141.084 267.742,140.603 267.888,140.337 268.086 C 140.071 268.284,139.609 268.353,139.310 268.238 C 139.012 268.124,138.614 268.166,138.427 268.332 C 138.239 268.499,135.625 269.128,132.617 269.731 C 129.609 270.334,126.973 270.986,126.758 271.179 C 126.513 271.400,126.585 271.458,126.953 271.337 C 127.275 271.230,130.703 270.592,134.570 269.919 C 138.438 269.247,145.726 267.918,150.768 266.965 C 155.809 266.013,160.034 265.234,160.156 265.234 C 160.435 265.234,161.844 262.878,161.659 262.722 C 161.585 262.659,157.217 263.663,151.953 264.954 "
              stroke="none" fill="#8e2e03" fill-rule="evenodd"></path>
    </g>
</svg>
