<?xml version="1.0" encoding="UTF-8" standalone="no"?>
<svg
   xmlns:dc="http://purl.org/dc/elements/1.1/"
   xmlns:cc="http://creativecommons.org/ns#"
   xmlns:rdf="http://www.w3.org/1999/02/22-rdf-syntax-ns#"
   xmlns:svg="http://www.w3.org/2000/svg"
   xmlns="http://www.w3.org/2000/svg"
   xmlns:sodipodi="http://sodipodi.sourceforge.net/DTD/sodipodi-0.dtd"
   xmlns:inkscape="http://www.inkscape.org/namespaces/inkscape"
   inkscape:version="1.0rc1 (09960d6, 2020-04-09)"
   height="200"
   width="200"
   sodipodi:docname="gcp.svg"
   id="svg2607"
   version="1.1"
   viewBox="0 0 200 200">
  <metadata
     id="metadata2611">
    <rdf:RDF>
      <cc:Work
         rdf:about="">
        <dc:format>image/svg+xml</dc:format>
        <dc:type
           rdf:resource="http://purl.org/dc/dcmitype/StillImage" />
        <dc:title></dc:title>
      </cc:Work>
    </rdf:RDF>
  </metadata>
  <sodipodi:namedview
     inkscape:current-layer="svg2607"
     inkscape:window-maximized="0"
     inkscape:window-y="23"
     inkscape:window-x="0"
     inkscape:cy="80.601072"
     inkscape:cx="93.627805"
     inkscape:zoom="1.1853556"
     showgrid="false"
     id="namedview2609"
     inkscape:window-height="480"
     inkscape:window-width="776"
     inkscape:pageshadow="2"
     inkscape:pageopacity="0"
     guidetolerance="10"
     gridtolerance="10"
     objecttolerance="10"
     borderopacity="1"
     bordercolor="#666666"
     pagecolor="#ffffff" />
  <defs
     id="defs2585">
    <style
       id="style2583">.cls-1{fill:#ea4335;}.cls-2{fill:#4285f4;}.cls-3{fill:#34a853;}.cls-4{fill:#fbbc05;}.cls-5{fill:#5f6368;}</style>
  </defs>
  <path
     style="stroke-width:5.96796"
     inkscape:connector-curvature="0"
     id="path2587"
     d="m 123.627,59.539157 h 5.94107 l 16.93205,-17.085636 0.83175,-7.253901 a 76.1051,76.795435 0 0 0 -123.811886,37.468499 9.2086577,9.2921877 0 0 1 5.94107,-0.359697 l 33.864095,-5.635263 c 0,0 1.722909,-2.877581 2.61407,-2.697732 a 42.241004,42.624164 0 0 1 57.806601,-4.43627 z"
     class="cls-1" />
  <path
     style="stroke-width:5.96796"
     inkscape:connector-curvature="0"
     id="path2589"
     d="M 170.62086,72.668119 A 76.283332,76.975284 0 0 0 147.62892,35.25957 l -23.76428,23.979838 a 42.241004,42.624164 0 0 1 15.50619,33.811574 v 4.256421 a 21.150209,21.342059 0 1 1 0,42.684117 H 97.070423 l -4.21816,4.31637 v 25.59848 l 4.21816,4.25642 H 139.37083 A 55.014304,55.513327 0 0 0 170.62086,72.668119 Z"
     class="cls-2" />
  <path
     style="stroke-width:5.96796"
     inkscape:connector-curvature="0"
     id="path2591"
     d="M 54.710597,173.92299 H 97.011012 V 139.75171 H 54.710597 a 21.031386,21.222158 0 0 1 -8.733371,-1.91838 l -5.941069,1.85843 -17.050869,17.08564 -1.485268,5.99496 a 54.71725,55.21358 0 0 0 33.210577,11.15063 z"
     class="cls-3" />
  <path
     style="stroke-width:5.96796"
     inkscape:connector-curvature="0"
     id="path2593"
     d="M 54.710597,63.076183 A 55.014304,55.513327 0 0 0 21.50002,162.59251 L 46.036638,137.83333 A 21.150207,21.342057 0 1 1 74.019073,109.59707 L 98.55569,84.837887 A 54.954892,55.453378 0 0 0 54.710597,63.076183 Z"
     class="cls-4" />
</svg>
