<?xml version="1.0" encoding="UTF-8" standalone="no"?>
<svg
   xmlns:dc="http://purl.org/dc/elements/1.1/"
   xmlns:cc="http://creativecommons.org/ns#"
   xmlns:rdf="http://www.w3.org/1999/02/22-rdf-syntax-ns#"
   xmlns:svg="http://www.w3.org/2000/svg"
   xmlns="http://www.w3.org/2000/svg"
   xmlns:sodipodi="http://sodipodi.sourceforge.net/DTD/sodipodi-0.dtd"
   xmlns:inkscape="http://www.inkscape.org/namespaces/inkscape"
   version="1.0"
   width="1000"
   height="1000"
   id="svg849"
   sodipodi:docname="inkscape.svg"
   inkscape:version="1.0rc1 (09960d6, 2020-04-09)">
  <metadata
     id="metadata855">
    <rdf:RDF>
      <cc:Work
         rdf:about="">
        <dc:format>image/svg+xml</dc:format>
        <dc:type
           rdf:resource="http://purl.org/dc/dcmitype/StillImage" />
        <dc:title />
      </cc:Work>
    </rdf:RDF>
  </metadata>
  <defs
     id="defs853" />
  <sodipodi:namedview
     inkscape:document-rotation="0"
     pagecolor="#ffffff"
     bordercolor="#666666"
     borderopacity="1"
     objecttolerance="10"
     gridtolerance="10"
     guidetolerance="10"
     inkscape:pageopacity="0"
     inkscape:pageshadow="2"
     inkscape:window-width="1059"
     inkscape:window-height="527"
     id="namedview851"
     showgrid="false"
     inkscape:zoom="0.19872903"
     inkscape:cx="382.59231"
     inkscape:cy="414.57502"
     inkscape:window-x="0"
     inkscape:window-y="23"
     inkscape:window-maximized="0"
     inkscape:current-layer="svg849"
     inkscape:snap-perpendicular="false"
     inkscape:snap-tangential="false" />
  <path
     style="fill:#ffffff;stroke-width:2.23656;stroke-linecap:round;stroke-linejoin:round;stroke-dasharray:2.23656, 2.23656;paint-order:stroke markers fill"
     id="path1428"
     sodipodi:type="arc"
     sodipodi:cx="500.72333"
     sodipodi:cy="500.72333"
     sodipodi:rx="496.96432"
     sodipodi:ry="495.08481"
     sodipodi:start="0"
     sodipodi:end="6.272992"
     sodipodi:open="true"
     sodipodi:arc-type="arc"
     d="M 997.68765,500.72333 A 496.96432,495.08481 0 0 1 501.98975,995.80653 496.96432,495.08481 0 0 1 3.7654572,503.24659 496.96432,495.08481 0 0 1 496.92408,5.652987 496.96432,495.08481 0 0 1 997.66183,495.67686" />
  <g
     id="inkscape-logo"
     transform="matrix(2.2313258,0,0,2.2418052,62.47211,68.840838)">
    <path
       d="M 163.15,27.83 28.81,165.3 C -16.58,221.51 59.7,214.97 92.4,231.16 104.13,243.15 47.44,252 59.17,264 c 11.73,11.99 70.93,23.1 82.68,35.09 11.73,11.99 -24.01,24.71 -12.28,36.7 11.73,11.99 38.86,0.63 43.94,28.31 3.62,19.78 48.89,8.5 71.03,-7.7 11.73,-12 -22.44,-10.87 -10.71,-22.86 29.17,-29.83 56.33,-10.84 66.31,-40.73 4.93,-14.77 -42.94,-22.77 -31.19,-34.76 33.75,-19.71 150.4,-32.54 95.05,-87.89 L 224.75,27.83 c -17.03,-16.35 -45.45,-16.53 -61.6,0 z m 154.31,264.98 c 0,6.82 50.25,11.29 50.25,-1.61 -7.16,-20.72 -44.31,-19.32 -50.25,1.61 z M 91.1,329.05 c 11.9,10.29 30.28,-2.56 35.79,-16.92 -11.53,-15.32 -54.69,0.55 -35.79,16.92 z m 220.06,-22.23 c -15.34,13.76 1.72,27.72 16.84,18.83 3.37,-3.42 -0.09,-15.41 -16.84,-18.83 z"
       id="path842"
       inkscape:connector-curvature="0" />
    <path
       fill="#ffffff"
       d="m 131,238.6 c 3.59,2.23 57.89,13.26 71.16,15.46 4.6,0.97 1.34,5.71 -5,8.91 -14.3,3.8 -83.66,-24.37 -66.16,-24.37 z"
       id="path844"
       inkscape:connector-curvature="0" />
    <path
       fill="#ffffff"
       d="m 216.63,37.47 53.15,53.98 c 5.04,5.15 4.97,15.13 2.15,18 L 245.54,88.34 240.35,119.6 218.3,107.96 182.99,130.27 171.3,83.24 152.33,116.06 h -29 c -11.82,0 -13.21,-15 -2.47,-25.74 18.76,-20.25 40.29,-40.89 51.99,-52.85 11.76,-12.02 32.25,-11.68 43.78,0 z"
       id="path846"
       inkscape:connector-curvature="0" />
  </g>
</svg>
