<?xml version="1.0" encoding="UTF-8" standalone="no"?>
<svg
   xmlns:dc="http://purl.org/dc/elements/1.1/"
   xmlns:cc="http://creativecommons.org/ns#"
   xmlns:rdf="http://www.w3.org/1999/02/22-rdf-syntax-ns#"
   xmlns:svg="http://www.w3.org/2000/svg"
   xmlns="http://www.w3.org/2000/svg"
   xmlns:sodipodi="http://sodipodi.sourceforge.net/DTD/sodipodi-0.dtd"
   xmlns:inkscape="http://www.inkscape.org/namespaces/inkscape"
   inkscape:version="1.0rc1 (09960d6, 2020-04-09)"
   sodipodi:docname="java.svg"
   id="svg875"
   version="1"
   height="500"
   width="500">
  <metadata
     id="metadata881">
    <rdf:RDF>
      <cc:Work
         rdf:about="">
        <dc:format>image/svg+xml</dc:format>
        <dc:type
           rdf:resource="http://purl.org/dc/dcmitype/StillImage" />
        <dc:title></dc:title>
      </cc:Work>
    </rdf:RDF>
  </metadata>
  <defs
     id="defs879" />
  <sodipodi:namedview
     inkscape:current-layer="svg875"
     inkscape:window-maximized="0"
     inkscape:window-y="23"
     inkscape:window-x="0"
     inkscape:cy="247.82164"
     inkscape:cx="240.30013"
     inkscape:zoom="1.1023634"
     showgrid="false"
     id="namedview877"
     inkscape:window-height="801"
     inkscape:window-width="1123"
     inkscape:pageshadow="2"
     inkscape:pageopacity="0"
     guidetolerance="10"
     gridtolerance="10"
     objecttolerance="10"
     borderopacity="1"
     bordercolor="#666666"
     pagecolor="#ffffff" />
  <path
     inkscape:connector-curvature="0"
     id="path833"
     d="m 4.481757,247.23323 c -0.103586,2.90764 -0.4480701,5.75343 -0.4480701,8.68677 -4.4e-6,134.74915 110.1878231,243.22952 247.0579031,243.22952 136.87009,0 247.05793,-108.48037 247.05793,-243.22952 0,-2.93334 -0.3445,-5.77913 -0.4481,-8.68677 C 493.04262,377.8996 384.97243,481.77597 251.08469,481.77597 117.19342,481.77597 9.1267543,377.8996 4.4679481,247.23323 Z"
     style="opacity:0.2;stroke-width:8.75546" />
  <rect
     id="rect835"
     transform="matrix(0,-1,-1,0,0,0)"
     ry="247.0571"
     rx="243.22871"
     y="-498.14951"
     x="-490.46216"
     height="494.1142"
     width="486.45743"
     style="fill:#e74c3c;stroke-width:8.75546" />
  <g
     id="g853"
     transform="matrix(5.7361554,0,0,5.9500888,704.32094,-65.731921)"
     style="clip-rule:evenodd;opacity:0.2;fill-rule:evenodd;enable-background:new">
    <path
       inkscape:connector-curvature="0"
       id="path837"
       d="m -86.682,70.021 c 0,0 -2.2303,1.2982 1.5891,1.7362 4.6278,0.52836 6.9927,0.45227 12.091,-0.51144 0,0 1.3431,0.84021 3.2156,1.5679 -11.433,4.8982 -25.875,-0.28382 -16.896,-2.7927 z" />
    <path
       inkscape:connector-curvature="0"
       id="path839"
       d="m -88.08,63.628 c 0,0 -2.5019,1.8524 1.3204,2.2474 4.944,0.5104 8.8468,0.55226 15.604,-0.74823 0,0 0.93244,0.94717 2.4009,1.4648 -13.821,4.0426 -29.214,0.31805 -19.326,-2.964 z" />
    <path
       inkscape:connector-curvature="0"
       id="path841"
       d="m -76.304,52.781 c 2.8185,3.2444 -0.73906,6.1616 -0.73906,6.1616 0,0 7.1525,-3.6917 3.8684,-8.3168 -3.0684,-4.3112 -5.4208,-6.4528 7.3147,-13.839 1.29e-4,0 -19.992,4.9918 -10.444,15.994 z" />
    <path
       inkscape:connector-curvature="0"
       id="path843"
       d="m -61.183,74.75 c 0,0 1.6511,1.3611 -1.8185,2.4137 -6.5975,1.9983 -27.465,2.6011 -33.261,0.07996 -2.082,-0.90686 1.8242,-2.1638 3.0532,-2.4293 1.2815,-0.27723 2.0132,-0.22659 2.0132,-0.22659 -2.3172,-1.6317 -14.977,3.2046 -6.4297,4.5917 23.308,3.7781 42.488,-1.7017 36.442,-4.4294 z" />
    <path
       inkscape:connector-curvature="0"
       id="path845"
       d="m -85.609,57.003 c 0,0 -10.613,2.5215 -3.7582,3.4379 2.8952,0.38742 8.6634,0.29828 14.04,-0.15282 4.393,-0.36869 8.8016,-1.1572 8.8016,-1.1572 0,0 -1.5479,0.664 -2.6685,1.4288 -10.78,2.8352 -31.6,1.5148 -25.605,-1.3838 5.0675,-2.4515 9.1898,-2.1729 9.1898,-2.1729 z" />
    <path
       inkscape:connector-curvature="0"
       id="path847"
       d="m -66.569,67.644 c 10.957,-5.6922 5.8904,-11.163 2.3541,-10.426 -0.86475,0.18047 -1.2527,0.33678 -1.2527,0.33678 0,0 0.32218,-0.50472 0.93567,-0.72187 6.9959,-2.4584 12.375,7.2531 -2.256,11.099 -1.3e-4,0 0.1682,-0.15244 0.21896,-0.28808 z" />
    <path
       inkscape:connector-curvature="0"
       id="path849"
       d="m -73.174,24.859 c 0,0 6.0668,6.0703 -5.756,15.402 -9.4811,7.4886 -2.1617,11.757 -0.0034,16.636 -5.5348,-4.9933 -9.5945,-9.3895 -6.8715,-13.48 3.9987,-6.0043 15.078,-8.9163 12.631,-18.558 z" />
    <path
       inkscape:connector-curvature="0"
       id="path851"
       d="m -84.532,83.074 c 10.515,0.67227 26.667,-0.37411 27.049,-5.3501 0,0 -0.73479,1.8863 -8.6909,3.383 -8.9758,1.6898 -20.049,1.4931 -26.614,0.40912 0,0 1.3449,1.1132 8.2557,1.5579 z" />
  </g>
  <g
     id="g871"
     transform="matrix(5.7361554,0,0,5.9500888,704.32094,-74.41636)"
     style="clip-rule:evenodd;fill:#ffffff;fill-rule:evenodd;enable-background:new">
    <path
       inkscape:connector-curvature="0"
       id="path855"
       d="m -86.682,70.021 c 0,0 -2.2303,1.2982 1.5891,1.7362 4.6278,0.52836 6.9927,0.45227 12.091,-0.51144 0,0 1.3431,0.84021 3.2156,1.5679 -11.433,4.8982 -25.875,-0.28382 -16.896,-2.7927 z" />
    <path
       inkscape:connector-curvature="0"
       id="path857"
       d="m -88.08,63.628 c 0,0 -2.5019,1.8524 1.3204,2.2474 4.944,0.5104 8.8468,0.55226 15.604,-0.74823 0,0 0.93244,0.94717 2.4009,1.4648 -13.821,4.0426 -29.214,0.31805 -19.326,-2.964 z" />
    <path
       inkscape:connector-curvature="0"
       id="path859"
       d="m -76.304,52.781 c 2.8185,3.2444 -0.73906,6.1616 -0.73906,6.1616 0,0 7.1525,-3.6917 3.8684,-8.3168 -3.0684,-4.3112 -5.4208,-6.4528 7.3147,-13.839 1.29e-4,0 -19.992,4.9918 -10.444,15.994 z" />
    <path
       inkscape:connector-curvature="0"
       id="path861"
       d="m -61.183,74.75 c 0,0 1.6511,1.3611 -1.8185,2.4137 -6.5975,1.9983 -27.465,2.6011 -33.261,0.07996 -2.082,-0.90686 1.8242,-2.1638 3.0532,-2.4293 1.2815,-0.27723 2.0132,-0.22659 2.0132,-0.22659 -2.3172,-1.6317 -14.977,3.2046 -6.4297,4.5917 23.308,3.7781 42.488,-1.7017 36.442,-4.4294 z" />
    <path
       inkscape:connector-curvature="0"
       id="path863"
       d="m -85.609,57.003 c 0,0 -10.613,2.5215 -3.7582,3.4379 2.8952,0.38742 8.6634,0.29828 14.04,-0.15282 4.393,-0.36869 8.8016,-1.1572 8.8016,-1.1572 0,0 -1.5479,0.664 -2.6685,1.4288 -10.78,2.8352 -31.6,1.5148 -25.605,-1.3838 5.0675,-2.4515 9.1898,-2.1729 9.1898,-2.1729 z" />
    <path
       inkscape:connector-curvature="0"
       id="path865"
       d="m -66.569,67.644 c 10.957,-5.6922 5.8904,-11.163 2.3541,-10.426 -0.86475,0.18047 -1.2527,0.33678 -1.2527,0.33678 0,0 0.32218,-0.50472 0.93567,-0.72187 6.9959,-2.4584 12.375,7.2531 -2.256,11.099 -1.3e-4,0 0.1682,-0.15244 0.21896,-0.28808 z" />
    <path
       inkscape:connector-curvature="0"
       id="path867"
       d="m -73.174,24.859 c 0,0 6.0668,6.0703 -5.756,15.402 -9.4811,7.4886 -2.1617,11.757 -0.0034,16.636 -5.5348,-4.9933 -9.5945,-9.3895 -6.8715,-13.48 3.9987,-6.0043 15.078,-8.9163 12.631,-18.558 z" />
    <path
       inkscape:connector-curvature="0"
       id="path869"
       d="m -84.532,83.074 c 10.515,0.67227 26.667,-0.37411 27.049,-5.3501 0,0 -0.73479,1.8863 -8.6909,3.383 -8.9758,1.6898 -20.049,1.4931 -26.614,0.40912 0,0 1.3449,1.1132 8.2557,1.5579 z" />
  </g>
  <path
     inkscape:connector-curvature="0"
     id="path873"
     d="M 251.05752,4.0039062 C 114.18743,4.0039062 4,112.48389 4,247.23303 c 0,0.98643 0.099579,1.94632 0.1551109,2.91841 C 7.2569509,118.09731 116.15267,12.691266 251.05752,12.691266 c 134.89337,0 243.80005,105.387874 246.91965,237.426224 0.0552,-0.96072 0.13787,-1.90967 0.13787,-2.88446 0,-134.74914 -110.18744,-243.2291238 -247.05752,-243.2291238 z"
     style="opacity:0.2;fill:#ffffff;stroke-width:8.75546" />
</svg>
