<svg xmlns="http://www.w3.org/2000/svg" width="114" height="25" viewBox="0 0 114 25">
    <defs>
        <linearGradient id="prefix__a" x1="-.622%" x2="101.136%" y1="44.803%" y2="52.728%">
            <stop offset="6.9%" stop-color="#FFD226"/>
            <stop offset="44.3%" stop-color="#FFCF01"/>
            <stop offset="81.3%" stop-color="#FDB81C"/>
            <stop offset="97.6%" stop-color="#FAA61F"/>
        </linearGradient>
        <linearGradient id="prefix__b" x1="-5.482%" x2="94.276%" y1="38.875%" y2="36.88%">
            <stop offset="6.9%" stop-color="#FFD226"/>
            <stop offset="44.3%" stop-color="#FFCF01"/>
            <stop offset="81.3%" stop-color="#FDB81C"/>
            <stop offset="97.6%" stop-color="#FAA61F"/>
        </linearGradient>
        <linearGradient id="prefix__c" x1=".743%" x2="100.264%" y1="52.341%" y2="49.546%">
            <stop offset="6.9%" stop-color="#FFD226"/>
            <stop offset="44.3%" stop-color="#FFCF01"/>
            <stop offset="81.3%" stop-color="#FDB81C"/>
            <stop offset="97.6%" stop-color="#FAA61F"/>
        </linearGradient>
        <linearGradient id="prefix__d" x1=".148%" x2="100.09%" y1="49.901%" y2="50.244%">
            <stop offset="6.9%" stop-color="#FFD226"/>
            <stop offset="44.3%" stop-color="#FFCF01"/>
            <stop offset="81.3%" stop-color="#FDB81C"/>
            <stop offset="97.6%" stop-color="#FAA61F"/>
        </linearGradient>
        <linearGradient id="prefix__e" x1=".199%" x2="100.114%" y1="49.9%" y2="49.9%">
            <stop offset="6.9%" stop-color="#FFD226"/>
            <stop offset="44.3%" stop-color="#FFCF01"/>
            <stop offset="81.3%" stop-color="#FDB81C"/>
            <stop offset="97.6%" stop-color="#FAA61F"/>
        </linearGradient>
    </defs>
    <g fill="none">
        <g transform="translate(.497 .002)">
            <path fill="url(#prefix__a)" d="M2.583 11.973c.725-1.205 1.86-2.01 3.17-2.21 1.47-.23 3.18.475 4.33 1.745 2.275-1.365 5.055-1.765 7.265-1.96.71-.06 1.44-.055 2.14-.05.41.005.83.01 1.235 0 2.07-.05 2.285.37 2.415.625.14.28.105.615-.1.875-1.005 1.29-1.775 2.805-2.515 4.27-.18.355-.36.715-.55 1.075.085.065.17.13.255.19.575.435 1.12.85 1.71 1.19.815.47 1.7.8 2.635 1.15.395.145.8.3 1.2.46.325.13.535.455.52.805-.015.35-.245.66-.58.765l-2.25.72c-1.51.48-3.07.98-4.595 1.485-1.635.545-3.805 1.14-6.14.9-.13-.015-.26-.03-.39-.05-2.075-.29-3.905-1.185-5.32-2.595-.855-.855-1.48-1.855-2.085-2.825-.31-.5-.605-.97-.93-1.425-.96-1.345-2.205-2.475-3.595-3.265-.315-.175-.47-.53-.385-.88.08-.345.375-.595.73-.615l1.83-.38zm-.475 1.35c.97.755 2.32 1.955 3.045 2.97.35.49.67 1.005.98 1.5.585.94 1.14 1.83 1.885 2.57 1.27 1.265 2.945 2.04 4.855 2.235 2.065.21 4.05-.335 5.545-.835 1.535-.51 3.1-1.01 4.615-1.495.225-.07.455-.145.68-.215-.835-.315-1.69-.65-2.49-1.115-.665-.385-1.27-.845-1.855-1.285-.025-.02-.05-.04-.075-.055-.885 1.585-2 3.13-4.07 3.52-1.215.23-2.51-.025-3.55-.685-.735-.47-1.28-1.095-1.565-1.805-.345-.855-.3-1.79.12-2.63.48-.955 1.395-1.69 2.455-1.97 1.555-.41 3.405-.04 5.495 1.11.215.12.42.245.625.375.155-.295.305-.595.45-.89.63-1.245 1.28-2.525 2.09-3.715-.19-.005-.395-.01-.59-.005-.43.01-.86.005-1.285.005-.7-.005-1.36-.015-2.005.045-2.195.19-4.98.595-7.06 2.02-.36.245-.84.165-1.1-.185-.705-.96-2.08-1.825-3.34-1.63-.97.15-2.315.905-2.74 1.815l-1.115.35zm12.525 2.005c-.575-.08-1.105-.06-1.585.07-.66.175-1.255.65-1.55 1.235-.165.335-.315.86-.07 1.465.175.43.535.835 1.015 1.14.754.476 1.658.65 2.535.49 1.53-.285 2.41-1.565 3.175-2.965-.215-.135-.43-.265-.65-.385-1.055-.58-2.015-.93-2.87-1.05z"/>
            <circle cx="5.513" cy="12.923" r="1" fill="url(#prefix__b)"/>
            <path fill="url(#prefix__c)" d="M26.893 11.618c.08 2.19-.43 4.36-1.49 6.28l-1.5-.575c.92-1.655 1.5-3.74 1.43-5.645-.215-5.785-5.09-10.315-10.87-10.1-4.44.16-8.215 3.065-9.57 7.195-.945.23-1.505.535-1.82.785l-.025-.01c1.145-5.41 5.82-9.34 11.355-9.54 6.645-.245 12.245 4.965 12.49 11.61z"/>
            <path fill="url(#prefix__d)" d="M21.228 8.423c-.59.005-1.19.03-1.76.14-1.06-1.5-2.79-2.4-4.675-2.38-2.32.03-4.425 1.515-5.23 3.69l-.06-.02c-.415-.37-.82-.615-1.35-.785 1.13-2.595 3.78-4.41 6.62-4.455 2.695-.025 5.18 1.43 6.455 3.81z"/>
            <path fill="url(#prefix__e)" d="M21.528 8.368c-.59.01-1.19.04-1.76.155"/>
        </g>
        <path fill="#000" d="M46.86 13.905l-1.32 1.58v3.875h-2.69V5.745h2.685v6h.02l4.71-6h3.405l-5.015 6.01 5.185 7.61h-3.325l-3.63-5.46h-.025zm17.36-3.9v9.36h-2.385V18.23h-.045c-.665.86-1.6 1.29-2.8 1.29-.645 0-1.24-.115-1.795-.345-.537-.222-1.022-.552-1.425-.97-.395-.415-.705-.925-.93-1.525-.225-.6-.335-1.26-.335-1.97 0-.7.11-1.35.335-1.955.225-.605.53-1.12.92-1.545.39-.425.86-.76 1.405-1s1.13-.365 1.745-.365c1.14 0 2.06.405 2.76 1.215h.04V10h2.51v.005zm-3.09 6.56c.455-.475.685-1.09.685-1.845 0-.75-.225-1.375-.67-1.87-.445-.495-1.01-.75-1.69-.75-.685 0-1.26.24-1.72.72-.46.48-.69 1.115-.69 1.9 0 .755.225 1.37.67 1.845.445.475 1.02.71 1.725.71.67 0 1.235-.235 1.69-.71zm12.475-6.5c.4.145.76.375 1.065.68.31.305.545.72.705 1.235.16.52.245 1.13.245 1.835v5.56h-2.51V14.44c0-.86-.145-1.465-.44-1.815-.295-.35-.745-.525-1.355-.525-.65 0-1.165.22-1.55.665-.385.445-.575 1.075-.575 1.89v4.71h-2.51v-9.36h2.51v1.21h.03c.38-.445.83-.78 1.355-1.015.52-.235 1.07-.35 1.65-.35.52-.005.98.07 1.38.215zm13.61-.06v9.36H84.83V18.23h-.045c-.665.86-1.6 1.29-2.8 1.29-.645 0-1.24-.115-1.79-.345-.537-.22-1.023-.55-1.425-.97-.395-.415-.705-.925-.93-1.525-.225-.6-.335-1.26-.335-1.97 0-.7.11-1.35.335-1.955.225-.605.53-1.12.92-1.545.39-.425.86-.76 1.405-1s1.13-.365 1.745-.365c1.14 0 2.06.405 2.76 1.215h.04V10h2.505v.005zm-3.09 6.56c.455-.475.685-1.09.685-1.845 0-.75-.225-1.375-.67-1.87-.445-.495-1.01-.75-1.69-.75-.685 0-1.26.24-1.72.72-.46.48-.69 1.115-.69 1.9 0 .755.225 1.37.67 1.845.445.475 1.02.71 1.725.71.675 0 1.235-.235 1.69-.71zm11.12-6.71v2.75c-.25-.02-.47-.03-.665-.03-.75 0-1.335.23-1.755.685-.42.455-.63 1.04-.63 1.76v4.345h-2.51v-9.36h2.51v1.375h.03c.355-.495.775-.87 1.265-1.135.49-.265 1.01-.4 1.565-.4.085 0 .15 0 .19.01zm10.365.15l-5.045 13.155H98l1.665-4.37-3.745-8.78h2.62l2.295 5.795h.03l2.145-5.795h2.6v-.005zm.6 8.145l1.215-1.73c.78.73 1.645 1.095 2.595 1.095.355 0 .635-.07.845-.215.205-.145.31-.33.31-.56 0-.145-.06-.27-.185-.38-.125-.11-.3-.21-.52-.305-.22-.095-.555-.21-.995-.355-.28-.095-.53-.185-.755-.28-.22-.095-.45-.205-.68-.33-.23-.125-.43-.27-.595-.425-.165-.155-.315-.33-.45-.525-.138-.203-.241-.428-.305-.665-.072-.266-.107-.54-.105-.815 0-.555.15-1.045.445-1.475.295-.43.7-.755 1.21-.99s1.08-.345 1.72-.345c.655 0 1.255.095 1.805.28.55.185 1.09.485 1.62.9l-1.215 1.835c-.35-.33-.72-.58-1.11-.745-.39-.165-.765-.25-1.13-.25-.235 0-.45.06-.635.18-.19.12-.28.295-.28.52 0 .185.11.355.33.505.22.15.58.32 1.07.505 1.035.38 1.73.685 2.08.91.605.375.965.875 1.085 1.5.035.185.055.395.055.625 0 .865-.31 1.57-.93 2.105-.62.535-1.52.805-2.7.805-1.49 0-2.75-.46-3.795-1.375z"/>
    </g>
</svg>
