<?xml version="1.0" encoding="UTF-8" standalone="no"?>
<svg
   xmlns:dc="http://purl.org/dc/elements/1.1/"
   xmlns:cc="http://creativecommons.org/ns#"
   xmlns:rdf="http://www.w3.org/1999/02/22-rdf-syntax-ns#"
   xmlns:svg="http://www.w3.org/2000/svg"
   xmlns="http://www.w3.org/2000/svg"
   xmlns:sodipodi="http://sodipodi.sourceforge.net/DTD/sodipodi-0.dtd"
   xmlns:inkscape="http://www.inkscape.org/namespaces/inkscape"
   inkscape:version="1.0rc1 (09960d6, 2020-04-09)"
   sodipodi:docname="LocoEats.svg"
   id="svg5577"
   preserveAspectRatio="xMidYMid meet"
   viewBox="0 0 400 200"
   height="200pt"
   width="400pt"
   version="1.0">
  <defs
     id="defs5581" />
  <sodipodi:namedview
     inkscape:current-layer="svg5577"
     inkscape:window-maximized="0"
     inkscape:window-y="23"
     inkscape:window-x="0"
     inkscape:cy="197.11678"
     inkscape:cx="240.6655"
     inkscape:zoom="0.36427183"
     showgrid="false"
     id="namedview5579"
     inkscape:window-height="480"
     inkscape:window-width="776"
     inkscape:pageshadow="2"
     inkscape:pageopacity="0"
     guidetolerance="10"
     gridtolerance="10"
     objecttolerance="10"
     borderopacity="1"
     bordercolor="#666666"
     pagecolor="#ffffff" />
  <metadata
     id="metadata5545">
Created by potrace 1.16, written by Peter Selinger 2001-2019
<rdf:RDF>
  <cc:Work
     rdf:about="">
    <dc:format>image/svg+xml</dc:format>
    <dc:type
       rdf:resource="http://purl.org/dc/dcmitype/StillImage" />
    <dc:title></dc:title>
  </cc:Work>
</rdf:RDF>
</metadata>
  <g
     id="g5565"
     stroke="none"
     fill="#000000"
     transform="matrix(0.0522128,0,0,-0.05489037,-114.12966,239.36235)">
    <path
       inkscape:connector-curvature="0"
       id="path5547"
       d="m 2542,3032 3,-279 28,-37 c 16,-20 44,-45 63,-53 l 34,-17 v -446 -447 l 26,-24 c 23,-21 36,-24 119,-27 73,-3 101,0 129,13 67,32 67,31 64,457 l -3,383 h -35 -35 l -5,-386 c -4,-307 -8,-389 -19,-402 -10,-13 -30,-17 -82,-17 -37,0 -71,5 -74,10 -3,6 -6,207 -5,448 0,242 -2,446 -6,455 -3,10 -26,26 -50,37 -74,32 -78,51 -84,350 l -5,255 -33,3 -33,3 z" />
    <path
       inkscape:connector-curvature="0"
       id="path5549"
       d="m 2712,3298 c -9,-9 -12,-72 -12,-223 0,-221 3,-235 45,-235 42,0 45,14 45,235 0,221 -3,235 -45,235 -12,0 -26,-5 -33,-12 z" />
    <path
       inkscape:connector-curvature="0"
       id="path5551"
       d="m 2882,3298 c -9,-9 -12,-68 -12,-224 0,-228 3,-239 52,-232 l 23,3 v 230 230 l -25,3 c -14,2 -31,-3 -38,-10 z" />
    <path
       inkscape:connector-curvature="0"
       id="path5553"
       d="m 3055,3298 c -2,-7 -6,-129 -7,-270 -3,-241 -4,-258 -24,-284 -34,-46 -67,-65 -127,-73 -64,-9 -72,-13 -64,-36 8,-20 77,-20 146,1 34,10 66,29 91,54 55,55 62,98 58,380 l -3,235 -33,3 c -20,2 -34,-2 -37,-10 z" />
    <path
       inkscape:connector-curvature="0"
       id="path5555"
       d="m 3437,3293 c -4,-3 -7,-341 -7,-751 0,-823 -2,-796 63,-824 43,-18 192,-17 235,1 19,8 38,25 43,38 5,13 9,134 9,268 0,234 -1,245 -20,255 -14,8 -26,8 -40,0 -19,-10 -20,-21 -20,-254 0,-197 -3,-246 -14,-255 -9,-7 -42,-11 -87,-9 -68,3 -74,5 -80,28 -10,37 -11,1438 0,1444 17,11 153,-67 211,-121 34,-31 70,-76 84,-106 48,-99 56,-154 56,-389 v -218 h -124 c -90,0 -127,-4 -135,-13 -8,-10 -7,-17 1,-25 17,-17 309,-17 326,0 19,19 16,454 -3,536 -42,178 -154,298 -347,372 -73,28 -137,38 -151,23 z" />
    <path
       inkscape:connector-curvature="0"
       id="path5557"
       d="m 4570,2500 v -400 h 250 250 v 40 40 h -205 -205 v 360 360 h -45 -45 z" />
    <path
       inkscape:connector-curvature="0"
       id="path5559"
       d="m 5348,2697 c -124,-36 -179,-128 -179,-302 0,-101 8,-137 46,-201 75,-128 292,-149 413,-40 49,44 75,114 80,217 8,157 -37,263 -131,308 -57,28 -165,36 -229,18 z m 182,-89 c 65,-33 95,-96 95,-203 0,-140 -53,-226 -150,-240 -93,-15 -164,19 -198,93 -18,38 -22,65 -22,142 0,83 3,101 25,140 31,55 93,90 160,90 28,0 63,-9 90,-22 z" />
    <path
       inkscape:connector-curvature="0"
       id="path5561"
       d="m 6025,2693 c -73,-26 -107,-54 -141,-115 -28,-51 -29,-58 -29,-178 0,-120 1,-127 30,-180 17,-30 45,-65 64,-77 79,-53 200,-66 309,-33 40,13 42,15 42,53 0,36 -2,39 -22,33 -157,-45 -274,-21 -320,67 -33,62 -33,202 1,270 45,92 157,117 319,71 20,-6 22,-3 22,34 0,39 -2,42 -37,52 -72,21 -184,22 -238,3 z" />
    <path
       inkscape:connector-curvature="0"
       id="path5563"
       d="m 6627,2699 c -60,-14 -119,-61 -152,-121 -29,-51 -30,-58 -30,-178 1,-140 11,-173 71,-240 45,-50 109,-74 194,-74 175,0 273,113 272,314 0,42 -8,102 -17,134 -39,135 -179,203 -338,165 z m 154,-80 c 86,-29 126,-115 116,-251 -7,-101 -35,-154 -97,-185 -95,-49 -205,-17 -250,72 -21,42 -25,63 -25,140 1,76 5,99 25,140 40,81 136,115 231,84 z" />
  </g>
  <g
     id="g5575"
     stroke="none"
     fill="#b22222"
     transform="matrix(0.0522128,0,0,-0.05489037,-114.12966,239.36235)">
    <path
       inkscape:connector-curvature="0"
       id="path5567"
       d="m 8002,2699 c -29,-5 -68,-15 -87,-23 -32,-14 -35,-19 -35,-56 0,-23 3,-40 8,-38 58,30 99,42 163,46 129,8 179,-32 179,-143 0,-30 -2,-55 -4,-55 -2,0 -23,7 -47,16 -27,10 -75,17 -126,17 -66,0 -90,-4 -129,-24 -60,-30 -82,-60 -93,-128 -16,-99 13,-160 94,-200 42,-22 61,-25 149,-23 118,1 187,22 220,65 20,27 21,41 21,215 0,103 -3,199 -7,214 -11,39 -55,87 -95,103 -46,19 -145,26 -211,14 z m 201,-328 c 26,-10 27,-12 27,-95 0,-104 -5,-110 -113,-115 -137,-6 -207,32 -207,113 0,86 52,119 180,112 47,-2 97,-9 113,-15 z" />
    <path
       inkscape:connector-curvature="0"
       id="path5569"
       d="m 9065,2701 c -86,-22 -136,-75 -142,-150 -8,-90 39,-137 181,-183 120,-38 163,-85 134,-145 -32,-67 -151,-81 -260,-31 l -58,27 v -43 c 0,-39 3,-44 36,-59 78,-38 212,-39 281,-3 110,57 125,216 28,276 -19,12 -71,34 -117,49 -106,36 -126,48 -139,88 -29,89 98,133 232,78 l 60,-24 -3,41 c -3,38 -6,42 -51,59 -56,22 -139,31 -182,20 z" />
    <path
       inkscape:connector-curvature="0"
       id="path5571"
       d="m 8550,2785 v -85 h -50 -50 v -40 -40 h 50 50 v -197 c 0,-109 5,-215 10,-235 20,-70 103,-110 190,-90 31,7 35,12 38,44 l 3,37 -53,-6 c -97,-9 -107,18 -108,275 v 172 h 80 80 v 40 40 h -80 -80 v 85 85 h -40 -40 z" />
    <path
       inkscape:connector-curvature="0"
       id="path5573"
       d="m 7160,2500 v -400 h 250 250 v 40 40 h -210 -210 v 140 140 h 185 185 v 40 40 h -185 -185 v 140 140 h 210 210 v 40 40 h -250 -250 z" />
  </g>
</svg>
