<?xml version="1.0" encoding="UTF-8" standalone="no"?>
<svg
   xmlns:dc="http://purl.org/dc/elements/1.1/"
   xmlns:cc="http://creativecommons.org/ns#"
   xmlns:rdf="http://www.w3.org/1999/02/22-rdf-syntax-ns#"
   xmlns:svg="http://www.w3.org/2000/svg"
   xmlns="http://www.w3.org/2000/svg"
   xmlns:sodipodi="http://sodipodi.sourceforge.net/DTD/sodipodi-0.dtd"
   xmlns:inkscape="http://www.inkscape.org/namespaces/inkscape"
   inkscape:version="1.0rc1 (09960d6, 2020-04-09)"
   sodipodi:docname="image2vector (5).svg"
   version="1.1"
   viewBox="0 0 1000 500"
   height="5000"
   width="10000"
   id="svg">
  <metadata
     id="metadata9018">
    <rdf:RDF>
      <cc:Work
         rdf:about="">
        <dc:format>image/svg+xml</dc:format>
        <dc:type
           rdf:resource="http://purl.org/dc/dcmitype/StillImage" />
        <dc:title></dc:title>
      </cc:Work>
    </rdf:RDF>
  </metadata>
  <defs
     id="defs9016" />
  <sodipodi:namedview
     inkscape:current-layer="svg"
     inkscape:window-maximized="0"
     inkscape:window-y="0"
     inkscape:window-x="0"
     inkscape:cy="235.52045"
     inkscape:cx="542.63396"
     inkscape:zoom="0.95088254"
     showgrid="false"
     id="namedview9014"
     inkscape:window-height="1120"
     inkscape:window-width="1792"
     inkscape:pageshadow="2"
     inkscape:pageopacity="0"
     guidetolerance="10"
     gridtolerance="10"
     objecttolerance="10"
     borderopacity="1"
     bordercolor="#666666"
     pagecolor="#ffffff" />
  <g
     transform="matrix(3.2370082,0,0,3.3788068,-149.79776,-86.895059)"
     id="svgg">
    <path
       inkscape:connector-curvature="0"
       fill-rule="evenodd"
       fill="#2cacfc"
       stroke="none"
       d="m 81.1,68.594 c -10.838,1.555 -17.23,8.747 -16.418,18.474 0.575,6.899 3.875,11.547 13.171,18.551 4.165,3.139 5.102,5.678 2.571,6.969 -1.849,0.943 -8.99,0.385 -14.11,-1.102 -0.543,-0.157 -1.106,-0.286 -1.252,-0.286 -0.218,0 -0.257,1.646 -0.214,9.137 l 0.052,9.138 1.4,0.354 c 9.34,2.364 19.676,2.33 25.76,-0.085 12.766,-5.069 15.054,-21.84 4.444,-32.582 -0.836,-0.846 -2.882,-2.691 -4.547,-4.1 -4.5,-3.807 -4.757,-4.073 -4.757,-4.92 0,-1.766 2.198,-2.196 8.3,-1.625 l 1.4,0.131 v -8.511 -8.511 l -0.6,-0.11 C 91.979,68.727 83.683,68.224 81.1,68.594 m 141.146,0.013 c -12.867,1.624 -24.505,11.944 -26.944,23.893 -0.69,3.38 -0.754,4.011 -0.754,7.5 0,3.489 0.064,4.12 0.754,7.5 1.102,5.401 5.611,12.694 10.219,16.532 19.699,16.406 49.588,4.38 52.066,-20.948 1.958,-20.013 -15.443,-36.989 -35.341,-34.477 m -97.671,1.743 c -0.118,0.303 -1.559,4.105 -3.202,8.45 -1.644,4.345 -3.118,8.215 -3.277,8.6 -0.158,0.385 -0.706,1.825 -1.217,3.2 -0.511,1.375 -1.086,2.905 -1.277,3.4 -0.683,1.773 -3.214,8.428 -3.482,9.157 -0.15,0.409 -0.739,1.958 -1.309,3.443 -0.57,1.485 -1.339,3.51 -1.708,4.5 -0.37,0.99 -1.225,3.24 -1.902,5 -0.676,1.76 -1.685,4.415 -2.242,5.9 -0.557,1.485 -1.17,3.105 -1.362,3.6 -0.719,1.858 -1.597,4.23 -1.597,4.316 0,0.048 4.332,0.064 9.626,0.036 l 9.625,-0.052 0.949,-2.6 0.949,-2.6 h 8.952 8.953 l 0.589,1.6 c 0.325,0.88 0.773,2.073 0.997,2.65 l 0.406,1.05 h 9.577 c 5.267,0 9.577,-0.041 9.577,-0.091 0,-0.049 -0.086,-0.297 -0.191,-0.55 -0.104,-0.252 -0.519,-1.359 -0.92,-2.459 -0.402,-1.1 -1.027,-2.765 -1.39,-3.7 -0.894,-2.301 -2.394,-6.249 -3.342,-8.795 -0.429,-1.152 -0.992,-2.637 -1.251,-3.3 -0.258,-0.663 -0.88,-2.297 -1.381,-3.631 -0.502,-1.335 -1.001,-2.64 -1.11,-2.9 -0.109,-0.261 -1.247,-3.264 -2.529,-6.674 -1.283,-3.41 -2.73,-7.235 -3.217,-8.5 -0.969,-2.518 -1.839,-4.79 -2.603,-6.8 -0.272,-0.715 -0.623,-1.584 -0.78,-1.93 -0.157,-0.347 -0.286,-0.756 -0.286,-0.91 0,-0.154 -0.082,-0.366 -0.181,-0.47 -0.1,-0.105 -0.274,-0.505 -0.388,-0.89 -0.113,-0.385 -0.62,-1.78 -1.127,-3.1 -0.508,-1.32 -1.052,-2.769 -1.211,-3.221 -0.159,-0.451 -0.426,-1.149 -0.594,-1.55 L 139.395,69.8 h -7.303 -7.302 l -0.215,0.55 M 153.4,77.8 v 8 h 5.5 5.5 v 22.1 22.1 h 10.102 10.101 l -0.005,-22.05 -0.005,-22.05 5.503,-0.053 5.504,-0.053 V 77.797 69.8 h -21.1 -21.1 v 8 m 109,22.1 V 130 h 9.7 9.7 v -7.344 -7.343 l 0.667,1.093 c 0.367,0.602 1.458,2.444 2.424,4.094 0.967,1.65 1.927,3.244 2.133,3.542 0.207,0.298 0.376,0.592 0.376,0.654 0,0.062 0.245,0.493 0.545,0.958 0.3,0.465 0.646,1.026 0.769,1.246 0.123,0.22 0.414,0.715 0.647,1.1 0.232,0.385 0.571,0.993 0.753,1.35 l 0.332,0.65 h 11.377 c 9.091,0 11.377,-0.051 11.377,-0.255 0,-0.141 -0.405,-0.906 -0.9,-1.702 -0.495,-0.795 -0.9,-1.493 -0.9,-1.551 0,-0.058 -1.07,-1.97 -2.378,-4.249 -2.881,-5.02 -2.74,-4.774 -5.015,-8.801 l -1.84,-3.258 0.566,-0.425 c 10.412,-7.803 9.815,-26.269 -1.119,-34.58 C 295.765,70.733 290.921,69.8 273.679,69.8 H 262.4 v 30.1 m 52.4,0 V 130 h 10.3 10.3 V 99.9 69.8 H 325.1 314.8 V 99.9 M 87.85,77.33 89.2,77.458 v 0.972 0.971 l -2.85,-0.128 c -7.205,-0.324 -10.379,1.817 -10.282,6.937 0.058,3.083 1.481,5.254 6.546,9.99 9.465,8.85 11.197,11.277 11.202,15.7 0.012,8.261 -7.803,12.53 -19.092,10.43 -0.977,-0.181 -1.832,-0.33 -1.9,-0.33 -0.068,0 -0.124,-0.45 -0.124,-1 0,-0.55 0.045,-1 0.1,-0.999 0.055,0 0.91,0.152 1.9,0.338 9.904,1.857 16.744,-1.232 17.055,-7.703 0.219,-4.545 -1.352,-6.853 -9.808,-14.412 -5.757,-5.146 -7.95,-8.568 -7.945,-12.395 0.009,-6.173 5.138,-9.321 13.848,-8.499 m 141.952,0.148 c 18.418,2.99 25.505,25.429 12.25,38.786 -12.211,12.304 -33.745,6.337 -38.076,-10.551 -4.085,-15.929 9.583,-30.872 25.826,-28.235 m -95.427,1.673 c 0.372,0.962 0.897,2.334 1.168,3.049 0.271,0.715 0.62,1.584 0.775,1.93 0.155,0.347 0.282,0.687 0.282,0.757 0,0.069 0.355,1.046 0.788,2.17 0.433,1.123 1.148,2.988 1.587,4.143 0.44,1.155 2.033,5.34 3.54,9.3 1.507,3.96 2.94,7.74 3.185,8.4 0.244,0.66 0.636,1.623 0.872,2.139 0.235,0.516 0.428,1.033 0.428,1.149 0,0.115 0.5,1.492 1.111,3.061 0.612,1.568 1.21,3.121 1.33,3.451 0.121,0.33 0.326,0.87 0.458,1.2 0.131,0.33 0.426,1.077 0.656,1.66 l 0.419,1.059 -1.1,-0.059 -1.1,-0.06 -0.502,-1.3 c -0.276,-0.715 -0.66,-1.705 -0.852,-2.2 l -0.35,-0.9 h -14.975 -14.976 l -0.84,2.2 -0.841,2.2 -1.108,0.06 -1.108,0.059 0.506,-1.259 c 0.277,-0.693 0.595,-1.53 0.705,-1.86 0.11,-0.33 0.278,-0.78 0.373,-1 0.095,-0.22 0.403,-1.007 0.683,-1.75 0.662,-1.75 1.307,-3.44 2.117,-5.55 0.359,-0.935 0.872,-2.285 1.14,-3 0.268,-0.715 0.714,-1.885 0.992,-2.6 0.278,-0.715 0.631,-1.637 0.784,-2.05 0.153,-0.412 0.41,-1.087 0.571,-1.5 0.695,-1.78 2.232,-5.814 4.703,-12.35 1.456,-3.85 2.761,-7.27 2.9,-7.6 0.139,-0.33 0.499,-1.275 0.799,-2.1 1.046,-2.867 0.779,-2.6 2.604,-2.599 h 1.601 l 0.675,1.75 M 188.4,78.3 v 0.9 h -6.45 -6.45 l 0.052,21.7 0.052,21.7 H 174.502 173.4 V 100.9 79.2 h -6.4 -6.4 v -0.9 -0.9 h 13.9 13.9 v 0.9 m 99.1,-0.319 c 9.36,2.232 14.895,9.779 13.188,17.986 -0.274,1.318 -0.538,2.365 -0.69,2.733 -1.598,3.874 -4.487,6.698 -8.498,8.304 -0.66,0.265 -1.226,0.495 -1.258,0.513 -0.032,0.018 0.463,0.901 1.1,1.962 0.637,1.061 1.296,2.18 1.464,2.487 0.298,0.544 2.319,3.92 3.47,5.795 0.915,1.492 2.724,4.644 2.724,4.746 0,0.273 -2.366,0.071 -2.474,-0.212 -0.231,-0.602 -8.364,-14.095 -8.493,-14.091 -0.073,0.002 -0.898,0.142 -1.833,0.311 -1.258,0.227 -3.031,0.303 -6.823,0.292 -2.817,-0.009 -5.247,0.032 -5.4,0.091 -0.23,0.088 -0.268,1.255 -0.222,6.904 l 0.055,6.798 H 272.705 271.6 V 99.981 77.362 l 7.05,0.095 c 6.313,0.085 7.238,0.14 8.85,0.524 M 326,100 v 22.6 h -1 -1 V 100 77.4 h 1 1 V 100 M 131.02,81.651 c -0.485,1.347 -1,2.719 -1.146,3.049 -0.383,0.866 -3.267,8.453 -3.573,9.4 -0.142,0.44 -0.754,2.06 -1.36,3.6 -3.082,7.834 -6.941,17.983 -6.941,18.257 0,0.188 3.158,0.243 14.1,0.243 15.53,0 14.407,0.101 13.807,-1.243 -0.161,-0.361 -0.528,-1.287 -0.815,-2.057 -1.041,-2.788 -1.355,-3.611 -1.604,-4.2 -0.14,-0.33 -0.584,-1.5 -0.988,-2.6 -0.404,-1.1 -1.184,-3.17 -1.735,-4.6 -0.55,-1.43 -1.207,-3.14 -1.459,-3.8 -0.252,-0.66 -0.823,-2.145 -1.268,-3.3 -2.419,-6.268 -5.638,-14.838 -5.638,-15.006 0,-0.842 -0.647,0.217 -1.38,2.257 m 92.28,-2.326 c -3.212,0.633 -4.333,0.984 -6.318,1.984 -13.151,6.618 -15.798,23.601 -5.253,33.705 11.433,10.954 30.523,5.535 34.57,-9.814 0.417,-1.583 0.569,-2.971 0.569,-5.2 0,-2.229 -0.152,-3.617 -0.569,-5.2 -2.63,-9.973 -13.567,-17.332 -22.999,-15.475 m 50.448,13.825 0.048,13.95 4.252,-0.009 c 11.204,-0.025 15.878,-1.759 19.213,-7.131 1.879,-3.026 2.034,-9.348 0.317,-12.848 C 294.715,81.281 289.7,79.2 278.505,79.2 H 273.7 l 0.048,13.95 m 11.947,-6.443 c 3.407,0.887 4.893,2.707 4.946,6.056 0.063,4.01 -2.28,6.05 -7.491,6.525 l -1.35,0.123 V 92.906 86.4 h 1.358 c 0.747,0 1.889,0.138 2.537,0.307 m -56.646,1.28 c 11.312,2.893 12.802,18.214 2.26,23.237 -8.091,3.854 -17.587,-2.206 -17.587,-11.224 0,-8.043 7.59,-13.992 15.327,-12.013 M 133.097,103.9 c 0.512,1.32 1.156,2.985 1.431,3.7 0.275,0.715 0.674,1.682 0.886,2.148 0.691,1.517 0.844,1.452 -3.421,1.452 h -3.807 l 0.225,-0.421 c 0.124,-0.231 0.431,-0.974 0.682,-1.65 0.252,-0.676 0.971,-2.579 1.6,-4.229 0.628,-1.65 1.181,-3.125 1.229,-3.279 0.127,-0.405 0.156,-0.349 1.175,2.279"
       id="path0" />
    <path
       inkscape:connector-curvature="0"
       fill-rule="evenodd"
       fill="#2cb4fc"
       stroke="none"
       d="m 96.892,78.1 c 0,4.62 0.026,6.481 0.058,4.137 0.032,-2.345 0.032,-6.125 0,-8.4 -0.032,-2.276 -0.059,-0.357 -0.058,4.263 m 78.604,22.8 c 0,11.88 0.025,16.711 0.054,10.735 0.029,-5.976 0.029,-15.696 0,-21.6 -0.029,-5.904 -0.054,-1.015 -0.054,10.865 m 98.199,-7.8 c 0,7.59 0.025,10.666 0.055,6.835 0.03,-3.83 0.03,-10.04 0,-13.8 -0.031,-3.759 -0.055,-0.625 -0.055,6.965 m -0.005,22.7 c 0,3.685 0.027,5.193 0.06,3.35 0.033,-1.842 0.033,-4.857 0,-6.7 -0.033,-1.842 -0.06,-0.335 -0.06,3.35"
       id="path1" />
  </g>
</svg>
