<?xml version="1.0" encoding="UTF-8" standalone="no"?>
<svg width="186px" height="186px" viewBox="0 0 186 186" version="1.1" xmlns="http://www.w3.org/2000/svg" xmlns:xlink="http://www.w3.org/1999/xlink" xmlns:sketch="http://www.bohemiancoding.com/sketch/ns">
    <!-- Generator: Sketch 3.3.3 (12072) - http://www.bohemiancoding.com/sketch -->
    <title>Slice 1</title>
    <desc>Created with Sketch.</desc>
    <defs></defs>
    <g id="Page-1" stroke="none" stroke-width="1" fill="none" fill-rule="evenodd" sketch:type="MSPage">
        <g id="the-home-depot-logo" sketch:type="MSLayerGroup" fill="#FFFFFF">
            <g id="Group" sketch:type="MSShapeGroup">
                <path d="M0.958,185.041 L185.575,185.041 L185.575,0.424 L0.958,0.424 L0.958,185.041 Z M5.504,148.403 L5.504,142.423 L5.504,5.504 L142.423,5.504 L150.552,5.504 L181.252,5.504 L181.252,35.485 L181.252,44.294 L181.252,94.309 L181.252,97.698 L181.252,181.252 L97.694,181.252 L94.285,181.252 L44.293,181.252 L38.316,181.252 L5.504,181.252 L5.504,148.403 L5.504,148.403 Z" id="Shape"></path>
                <path d="M10.133,149.415 L37.324,176.602 C39.241,178.521 39.601,178.786 38.363,181.16 C38.346,181.191 38.331,181.222 38.316,181.253 L44.293,181.253 L56.801,168.742 C57.006,168.535 58.61,166.726 57.109,165.22 C56.383,164.491 55.449,164.491 54.569,164.958 C52.183,166.202 51.927,165.84 50.007,163.914 L22.82,136.73 C20.896,134.805 20.531,134.55 21.778,132.161 C22.245,131.281 22.236,130.351 21.511,129.62 C20.011,128.121 18.2,129.732 17.994,129.933 L5.503,142.422 L5.503,148.402 C5.525,148.39 5.548,148.379 5.57,148.367 C7.954,147.127 8.209,147.49 10.133,149.415 L10.133,149.415 Z" id="Shape"></path>
                <path d="M74.139,145.382 C71.753,146.633 71.493,146.268 69.576,144.344 L42.389,117.152 C40.471,115.235 40.105,114.977 41.351,112.593 C41.818,111.715 41.812,110.783 41.084,110.052 C39.579,108.557 37.772,110.159 37.565,110.366 L22.914,125.016 C22.705,125.229 21.099,127.033 22.603,128.536 C23.322,129.263 24.265,129.268 25.139,128.8 C27.525,127.563 27.786,127.924 29.699,129.841 L41.483,141.62 L36.932,146.178 L39.932,149.185 L44.493,144.626 L56.895,157.03 C58.813,158.949 59.179,159.209 57.93,161.591 C57.471,162.472 57.472,163.403 58.194,164.135 C59.696,165.632 61.509,164.03 61.72,163.823 L76.375,149.176 C76.581,148.967 78.179,147.155 76.679,145.649 C75.949,144.925 75.021,144.921 74.139,145.382 L74.139,145.382 Z" id="Shape"></path>
                <path d="M121.171,32.771 C123.556,31.526 123.813,31.894 125.732,33.807 L152.927,60.995 C154.85,62.918 155.207,63.179 153.967,65.562 C153.501,66.438 153.501,67.375 154.228,68.103 C155.728,69.605 157.546,68.001 157.754,67.794 L171.422,54.12 L132.605,15.321 L118.945,28.987 C118.738,29.191 117.129,31.01 118.633,32.509 C119.354,33.236 120.289,33.236 121.171,32.771 L121.171,32.771 Z" id="Shape"></path>
                <path d="M152.271,30.315 L155.488,33.528 C158.231,31.934 161.236,32.969 163.675,34.47 C164.822,35.089 165.961,35.619 167.052,34.527 C168.652,32.925 166.527,31.31 166.111,30.897 L154.91,19.693 C154.495,19.277 152.878,17.157 151.274,18.754 C150.19,19.841 150.713,20.989 151.326,22.123 C152.832,24.566 153.876,27.572 152.271,30.315 L152.271,30.315 Z" id="Shape"></path>
                <path d="M172.015,29.251 C171.083,30.178 171.604,31.321 172.02,32.464 C174.771,38.008 174.422,44.071 170.745,48.787 L173.748,51.792 L181.253,44.293 L181.253,35.484 L175.278,29.516 C175.071,29.307 173.675,27.593 172.015,29.251 L172.015,29.251 Z" id="Shape"></path>
                <path d="M137.947,15.996 C143.229,12.169 148.415,12.061 153.961,14.929 C154.996,15.444 155.774,15.703 156.657,14.819 C158.215,13.274 157.276,12.23 157.015,11.972 L150.551,5.504 L142.422,5.504 L134.935,12.99 L137.947,15.996 L137.947,15.996 Z" id="Shape"></path>
                <path d="M82.286,153.027 L74.819,160.495 C74.235,161.073 73.594,161.894 74.35,162.652 C75.083,163.379 75.724,162.912 76.512,162.533 C77.24,162.153 77.966,162.999 78.406,163.434 L93.692,178.722 C94.129,179.158 94.975,179.894 94.591,180.618 C94.487,180.84 94.375,181.049 94.285,181.252 L97.694,181.252 L104.104,174.844 L82.286,153.027 L82.286,153.027 Z" id="Shape"></path>
                <path d="M161.451,73.86 L163.146,75.552 C165.74,75.113 168.075,76.628 169.885,77.906 C170.611,78.465 171.515,79.074 172.33,78.259 C173.208,77.385 172.566,76.571 172.45,76.451 L165.651,69.655 L161.451,73.86 L161.451,73.86 Z" id="Shape"></path>
                <path d="M147.481,87.83 L152.113,92.462 C153.504,92.912 154.861,93.566 156.162,94.408 C156.837,93.621 156.267,92.76 155.736,92.059 C154.452,90.25 152.933,87.92 153.375,85.321 L151.681,83.631 L147.481,87.83 L147.481,87.83 Z" id="Shape"></path>
                <path d="M178.691,93.723 L160.14,75.171 L152.99,82.318 L171.548,100.872 C172.623,101.951 172.83,102.097 172.128,103.437 C171.865,103.933 171.867,104.457 172.274,104.863 C173.121,105.714 174.141,104.805 174.257,104.689 L181.251,97.698 L181.251,94.309 C179.919,95.007 179.769,94.803 178.691,93.723 L178.691,93.723 Z" id="Shape"></path>
                <path d="M171.287,175.522 L171.286,173.052 L172.279,173.052 L173.783,175.522 L174.751,175.522 L173.131,173.011 C173.965,172.908 174.606,172.461 174.606,171.444 C174.606,170.319 173.942,169.823 172.595,169.823 L170.425,169.823 L170.427,175.522 L171.287,175.522 L171.287,175.522 Z M172.462,170.556 C173.066,170.556 173.705,170.687 173.705,171.392 C173.705,172.267 173.052,172.32 172.319,172.32 L171.287,172.32 L171.286,170.556 L172.462,170.556 L172.462,170.556 Z" id="Shape"></path>
                <path d="M172.331,177.612 C175.022,177.612 177.324,175.522 177.324,172.658 C177.324,169.823 175.022,167.733 172.331,167.733 C169.613,167.733 167.314,169.823 167.314,172.658 C167.314,175.522 169.615,177.612 172.331,177.612 L172.331,177.612 Z M172.331,168.558 C174.568,168.558 176.332,170.32 176.332,172.659 C176.332,175.039 174.568,176.79 172.331,176.79 C170.07,176.79 168.309,175.039 168.309,172.659 C168.307,170.319 170.07,168.558 172.331,168.558 L172.331,168.558 Z" id="Shape"></path>
                <path d="M92.78,128.299 C89.468,129.852 87.702,128.503 86.405,127.204 L59.531,100.328 C58.232,99.032 56.88,97.269 58.434,93.956 L55.426,90.947 C45.436,102.906 49.183,116.904 59.506,127.232 C69.834,137.556 83.828,141.3 95.79,131.312 L92.78,128.299 L92.78,128.299 Z" id="Shape"></path>
                <path d="M57.756,88.622 L60.767,91.629 C64.075,90.076 65.842,91.424 67.141,92.718 L94.012,119.597 C95.316,120.891 96.664,122.662 95.114,125.975 L98.12,128.982 C108.111,117.018 104.363,103.024 94.04,92.697 C83.715,82.373 69.714,78.629 57.756,88.622 L57.756,88.622 Z" id="Shape"></path>
                <path d="M110.59,69.182 L89.131,58.8 L75.986,71.944 C75.367,72.563 73.807,74.116 75.412,75.726 C76.656,76.975 78.162,75.68 78.832,75.106 C79.767,74.282 80.601,74.695 81.839,75.01 C82.928,75.269 83.965,75.79 85.004,76.315 L127.931,97.604 L129.431,96.105 L108.433,57.295 L132.528,81.39 C134.449,83.312 134.812,83.574 133.568,85.952 C133.097,86.838 133.104,87.768 133.838,88.494 C135.335,89.995 137.148,88.396 137.357,88.185 L152.016,73.532 C152.226,73.323 153.823,71.51 152.323,70.008 C151.593,69.289 150.664,69.279 149.78,69.75 C147.395,70.991 147.142,70.629 145.219,68.707 L118.028,41.521 C116.105,39.602 115.739,39.345 116.99,36.955 C117.447,36.078 117.447,35.142 116.724,34.415 C115.221,32.912 113.41,34.519 113.206,34.724 L99.533,48.391 L110.698,69.083 L110.59,69.182 L110.59,69.182 Z" id="Shape"></path>
                <path d="M115.511,110.024 L121.414,104.129 C121.981,103.558 124.204,101.546 122.594,99.938 C120.365,97.706 119.079,103.038 111.766,97.377 L102.843,88.455 L91.386,82.792 L91.282,82.898 L108.762,100.383 C114.419,107.696 109.087,108.988 111.321,111.221 C112.927,112.824 114.942,110.598 115.511,110.024 L115.511,110.024 Z" id="Shape"></path>
                <path d="M103.958,153.174 C96.079,145.992 88.496,146.692 83.597,151.711 L85.291,153.403 C87.301,151.858 89.051,153.431 90.161,154.538 L102.584,166.968 C103.696,168.072 105.273,169.823 103.726,171.839 L105.417,173.531 C110.26,168.688 111.132,159.703 103.958,153.174 L103.958,153.174 Z" id="Shape"></path>
                <path d="M94.474,140.834 C94.359,140.949 93.453,141.976 94.297,142.819 C94.706,143.228 95.232,143.229 95.73,142.961 C97.068,142.265 97.217,142.471 98.297,143.547 L113.582,158.832 C114.659,159.914 114.864,160.061 114.161,161.4 C113.899,161.895 113.902,162.421 114.307,162.829 C115.154,163.674 116.176,162.768 116.293,162.654 L123.992,154.955 L102.172,133.135 L94.474,140.834 L94.474,140.834 Z" id="Shape"></path>
                <path d="M124.341,140.951 C123.816,141.475 124.113,142.116 124.344,142.756 C125.891,145.882 125.684,149.297 123.615,151.95 L125.309,153.642 L132.018,146.933 L126.181,141.097 C126.064,140.979 125.277,140.018 124.341,140.951 L124.341,140.951 Z" id="Shape"></path>
                <path d="M115.038,143.374 C116.587,142.469 118.275,143.055 119.644,143.895 C120.288,144.249 120.931,144.541 121.539,143.927 C122.447,143.021 121.251,142.115 121.02,141.887 L114.718,135.583 C114.484,135.349 113.578,134.152 112.673,135.054 C112.058,135.667 112.35,136.314 112.703,136.956 C113.55,138.328 114.132,140.018 113.226,141.56 L115.038,143.374 L115.038,143.374 Z" id="Shape"></path>
                <path d="M109.99,125.318 L103.487,131.82 L105.177,133.51 C108.156,131.356 111.069,131.297 114.194,132.901 C114.78,133.194 115.212,133.339 115.71,132.843 C116.587,131.965 116.058,131.383 115.913,131.235 L109.99,125.318 L109.99,125.318 Z" id="Shape"></path>
                <path d="M141.055,134.51 C139.713,135.214 139.566,135.004 138.492,133.93 L119.935,115.374 L112.235,123.072 C112.12,123.188 111.215,124.212 112.059,125.054 C112.467,125.464 112.992,125.47 113.487,125.203 C114.831,124.507 114.976,124.71 116.055,125.79 L131.341,141.069 C132.419,142.151 132.786,142.138 132.085,143.477 C131.822,143.974 131.894,144.431 132.302,144.842 C133.148,145.685 133.942,145.013 134.056,144.891 L142.312,136.635 C142.43,136.52 143.335,135.497 142.487,134.652 C142.078,134.246 141.553,134.249 141.055,134.51 L141.055,134.51 Z" id="Shape"></path>
                <path d="M128.108,109.362 C125.946,109.94 124.021,111.285 121.249,114.059 L122.941,115.75 C124.721,114.435 126.183,115.371 127.497,116.68 L131.902,121.084 C133.331,122.517 134.435,123.799 133.036,125.848 L134.727,127.536 C137.501,124.766 138.841,122.84 139.427,120.679 C139.905,118.799 139.781,117.123 139.19,115.585 C138.159,114.4 137.286,113.144 136.587,111.841 C134.181,109.523 131.467,108.506 128.108,109.362 L128.108,109.362 Z" id="Shape"></path>
                <path d="M155.463,116.776 L140.349,101.666 C139.62,100.938 138.865,99.949 139.742,98.083 L138.046,96.387 C133.901,101.35 133.957,106.927 136.589,111.841 C136.651,111.901 136.715,111.95 136.777,112.012 C137.888,113.123 138.699,114.307 139.192,115.585 C139.553,116.001 139.93,116.41 140.328,116.808 C146.13,122.617 154.008,124.714 160.745,119.08 L159.052,117.389 C157.184,118.266 156.193,117.507 155.463,116.776 L155.463,116.776 Z" id="Shape"></path>
                <path d="M154.275,94.625 L152.113,92.462 C147.919,91.106 143.433,91.67 139.36,95.075 L141.05,96.763 C142.917,95.891 143.906,96.647 144.638,97.38 L159.747,112.488 C160.478,113.22 161.235,114.21 160.36,116.076 L162.055,117.769 C167.688,111.026 165.581,103.155 159.776,97.35 C158.642,96.216 157.428,95.229 156.161,94.407 C156.133,94.44 156.116,94.474 156.083,94.507 C155.211,95.384 154.396,94.746 154.275,94.625 L154.275,94.625 Z" id="Shape"></path>
                <path d="M154.275,94.625 C154.395,94.746 155.211,95.384 156.084,94.508 C156.117,94.476 156.134,94.442 156.162,94.408 C154.861,93.566 153.504,92.912 152.113,92.462 L154.275,94.625 L154.275,94.625 Z" id="Shape"></path>
                <path d="M136.588,111.841 C137.286,113.144 138.159,114.401 139.191,115.585 C138.698,114.307 137.887,113.123 136.776,112.012 C136.714,111.95 136.65,111.9 136.588,111.841 L136.588,111.841 Z" id="Shape"></path>
                <path d="M44.551,91.901 C44.303,92.367 44.303,92.862 44.688,93.244 C45.483,94.041 46.442,93.189 46.552,93.082 L54.311,85.321 C54.42,85.211 55.27,84.251 54.475,83.457 C54.091,83.073 53.598,83.073 53.132,83.32 C51.871,83.978 51.734,83.786 50.719,82.771 L33.281,65.334 L26.564,72.051 L44.002,89.49 C45.017,90.503 45.208,90.64 44.551,91.901 L44.551,91.901 Z" id="Shape"></path>
                <path d="M42.439,67.911 C43.124,68.432 43.974,69.008 44.742,68.24 C45.564,67.416 44.961,66.65 44.852,66.54 L38.464,60.153 L34.515,64.099 L36.105,65.689 C38.546,65.278 40.739,66.704 42.439,67.911 L42.439,67.911 Z" id="Shape"></path>
                <path d="M29.471,83.511 C30.238,82.744 29.662,81.894 29.141,81.209 C27.934,79.508 26.509,77.314 26.92,74.874 L25.331,73.284 L21.382,77.233 L27.771,83.62 C27.88,83.731 28.647,84.335 29.471,83.511 L29.471,83.511 Z" id="Shape"></path>
                <path d="M51.844,49.952 C53.105,49.294 53.242,49.486 54.257,50.5 L60.481,56.724 L58.068,59.137 L59.658,60.728 L62.071,58.315 L68.624,64.868 C69.638,65.882 69.83,66.02 69.172,67.281 C68.926,67.747 68.926,68.241 69.309,68.624 C70.105,69.419 71.065,68.57 71.174,68.46 L78.933,60.7 C79.042,60.591 79.892,59.631 79.097,58.836 C78.713,58.452 78.22,58.452 77.754,58.699 C76.493,59.356 76.356,59.165 75.341,58.151 L60.974,43.783 C59.96,42.769 59.767,42.631 60.426,41.37 C60.672,40.904 60.672,40.411 60.289,40.027 C59.494,39.232 58.534,40.082 58.424,40.192 L50.665,47.95 C50.555,48.06 49.705,49.02 50.5,49.815 C50.885,50.199 51.378,50.199 51.844,49.952 L51.844,49.952 Z" id="Shape"></path>
                <path d="M41.479,60.316 C42.74,59.658 42.878,59.85 43.892,60.865 L58.259,75.232 C59.273,76.247 59.465,76.384 58.807,77.644 C58.559,78.111 58.561,78.604 58.943,78.989 C59.738,79.784 60.698,78.934 60.808,78.824 L68.567,71.065 C68.676,70.956 69.526,69.995 68.731,69.2 C68.348,68.818 67.854,68.818 67.388,69.063 C66.127,69.721 65.99,69.529 64.975,68.516 L50.609,54.147 C49.593,53.133 49.402,52.995 50.059,51.735 C50.307,51.269 50.307,50.775 49.922,50.391 C49.128,49.595 48.168,50.446 48.058,50.555 L40.298,58.315 C40.189,58.424 39.339,59.384 40.134,60.179 C40.52,60.563 41.012,60.563 41.479,60.316 L41.479,60.316 Z" id="Shape"></path>
                <path d="M78.117,32.178 C77.542,32.754 77.816,33.357 78.145,33.96 C78.939,35.249 79.488,36.839 78.639,38.291 L80.339,39.992 C81.792,39.142 83.381,39.691 84.671,40.485 C85.275,40.815 85.878,41.089 86.455,40.513 C87.304,39.664 86.18,38.813 85.96,38.594 L80.037,32.672 C79.817,32.452 78.967,31.328 78.117,32.178 L78.117,32.178 Z" id="Shape"></path>
                <path d="M89.99,49.644 L96.295,43.337 L90.811,37.854 C90.702,37.744 89.961,36.84 89.085,37.717 C88.59,38.21 88.865,38.814 89.085,39.417 C90.538,42.351 90.346,45.559 88.399,48.054 L89.99,49.644 L89.99,49.644 Z" id="Shape"></path>
                <path d="M62.187,39.608 C63.448,38.949 63.586,39.143 64.601,40.156 L78.968,54.523 C79.982,55.538 80.175,55.674 79.516,56.937 C79.269,57.402 79.269,57.896 79.653,58.28 C80.449,59.074 81.408,58.225 81.518,58.115 L88.756,50.877 L68.247,30.369 L61.008,37.607 C60.898,37.717 60.049,38.676 60.844,39.473 C61.228,39.855 61.721,39.855 62.187,39.608 L62.187,39.608 Z" id="Shape"></path>
                <path d="M79.544,30.149 C80.091,30.423 80.502,30.56 80.969,30.094 C81.791,29.271 81.298,28.723 81.161,28.587 L75.595,23.022 L69.481,29.135 L71.071,30.724 C73.867,28.695 76.609,28.642 79.544,30.149 L79.544,30.149 Z" id="Shape"></path>
            </g>
        </g>
    </g>
</svg>