<?xml version="1.0" encoding="UTF-8" standalone="no"?>
<svg
   xmlns:dc="http://purl.org/dc/elements/1.1/"
   xmlns:cc="http://creativecommons.org/ns#"
   xmlns:rdf="http://www.w3.org/1999/02/22-rdf-syntax-ns#"
   xmlns:svg="http://www.w3.org/2000/svg"
   xmlns="http://www.w3.org/2000/svg"
   xmlns:sodipodi="http://sodipodi.sourceforge.net/DTD/sodipodi-0.dtd"
   xmlns:inkscape="http://www.inkscape.org/namespaces/inkscape"
   inkscape:version="1.0rc1 (09960d6, 2020-04-09)"
   sodipodi:docname="TQIGDark.svg"
   viewBox="0 0 10000 4999.9999"
   height="5000"
   width="10000"
   version="1.1"
   id="svg">
  <metadata
     id="metadata850">
    <rdf:RDF>
      <cc:Work
         rdf:about="">
        <dc:format>image/svg+xml</dc:format>
        <dc:type
           rdf:resource="http://purl.org/dc/dcmitype/StillImage" />
        <dc:title></dc:title>
      </cc:Work>
    </rdf:RDF>
  </metadata>
  <defs
     id="defs848" />
  <sodipodi:namedview
     inkscape:current-layer="svg"
     inkscape:window-maximized="0"
     inkscape:window-y="0"
     inkscape:window-x="0"
     inkscape:cy="2910.0607"
     inkscape:cx="4532.7875"
     inkscape:zoom="0.09344534"
     showgrid="false"
     id="namedview846"
     inkscape:window-height="1120"
     inkscape:window-width="1792"
     inkscape:pageshadow="2"
     inkscape:pageopacity="0"
     guidetolerance="10"
     gridtolerance="10"
     objecttolerance="10"
     borderopacity="1"
     bordercolor="#666666"
     pagecolor="#ffffff" />
  <g
     transform="matrix(24.043346,0,0,23.848879,129.99529,899.40746)"
     id="svgg">
    <path
       inkscape:connector-curvature="0"
       fill-rule="evenodd"
       fill="#bf5700"
       stroke="none"
       d="m 346.083,10.237 c -3.39,2.034 -3.142,9.283 0.357,10.437 3.186,1.052 5.869,-3.87 4.465,-8.192 -0.733,-2.255 -3.026,-3.323 -4.822,-2.245 M 144.609,10.236 c -4.114,1.515 -2.851,10.597 1.474,10.597 2.205,0 3.52,-2.03 3.379,-5.217 -0.171,-3.872 -2.359,-6.299 -4.853,-5.38 m 8.495,0.365 c -0.494,0.726 -0.387,0.864 0.688,0.887 0.402,0.009 0.54,0.087 0.537,0.304 -0.003,0.16 -0.147,2.166 -0.321,4.457 -0.174,2.291 -0.3,4.181 -0.28,4.201 0.02,0.02 0.37,0.058 0.779,0.085 l 0.743,0.048 0.11,-1.333 c 0.323,-3.903 0.661,-8.951 0.603,-9.009 -0.036,-0.036 -0.596,-0.115 -1.243,-0.176 l -1.178,-0.109 -0.438,0.645 M 17.242,10.392 c -4.045,1.835 -3,10.775 1.259,10.775 4.821,0 5.006,-10.677 0.191,-10.952 -0.559,-0.032 -1.148,0.04 -1.45,0.177 m 43.459,0.12 c -2.968,1.508 -3.225,8.079 -0.395,10.064 3.208,2.251 6.546,-2.175 5.302,-7.031 -0.696,-2.718 -2.876,-4.066 -4.907,-3.033 M 78.25,10.428 c -3.946,2.048 -2.936,10.739 1.249,10.739 3.474,0 5.17,-6.213 2.623,-9.61 -0.939,-1.253 -2.664,-1.756 -3.872,-1.129 m 140.229,0.073 c -3.269,1.727 -3.108,9.015 0.23,10.409 2.478,1.035 4.684,-1.096 4.911,-4.743 0.258,-4.156 -2.418,-7.105 -5.141,-5.666 m 43.771,-0.073 c -4.002,2.077 -2.994,10.739 1.25,10.739 2.487,0 4.137,-3.038 3.667,-6.749 -0.399,-3.145 -2.796,-5.09 -4.917,-3.99 m 17.304,0.083 c -3.789,1.876 -2.856,10.285 1.178,10.619 2.452,0.204 3.851,-1.781 3.851,-5.463 0,-4.226 -2.249,-6.532 -5.029,-5.156 m 58.029,-0.261 c -0.091,0.031 -0.516,0.104 -0.943,0.162 -0.715,0.096 -0.798,0.157 -1.042,0.766 -0.358,0.896 -0.373,0.875 0.572,0.784 0.977,-0.094 0.88,-0.284 1.241,2.455 0.959,7.295 0.775,6.57 1.64,6.46 0.385,-0.049 0.73,-0.116 0.767,-0.149 0.062,-0.053 -0.384,-3.513 -1.109,-8.603 -0.29,-2.037 -0.352,-2.14 -1.126,-1.875 M 7.781,11.042 7.362,11.75 8.264,11.8 9.167,11.85 V 16.425 21 H 10 10.833 V 15.667 10.333 H 9.517 8.201 l -0.42,0.709 m 17.471,-0.045 c -0.539,0.854 -0.561,0.811 0.456,0.869 l 0.875,0.051 0.045,4.541 0.044,4.542 h 0.831 0.83 v -5.333 -5.334 h -1.331 -1.331 l -0.419,0.664 m 8.696,0.045 -0.419,0.708 0.902,0.05 0.902,0.05 V 16.425 21 H 36.167 37 v -5.333 -5.334 h -1.316 -1.317 l -0.419,0.709 m 8.76,-0.054 c -0.491,0.867 -0.503,0.845 0.459,0.845 H 44 V 16.417 21 h 0.919 0.919 l -0.044,-5.292 -0.044,-5.291 -1.333,-0.046 -1.334,-0.045 -0.375,0.662 m 8.711,0.009 c -0.539,0.854 -0.562,0.811 0.456,0.869 l 0.875,0.051 0.044,4.541 0.045,4.542 h 0.83 0.831 v -5.333 -5.334 h -1.331 -1.331 l -0.419,0.664 m 17.456,-0.009 c -0.488,0.86 -0.511,0.82 0.5,0.878 l 0.875,0.051 0.044,4.541 0.045,4.542 h 0.833 0.833 l -0.044,-5.292 -0.044,-5.291 -1.334,-0.046 -1.333,-0.045 -0.375,0.662 m 17.42,0.095 -0.453,0.75 h 0.912 0.913 V 16.417 21 H 88.5 89.333 V 15.667 10.333 H 88.04 86.748 l -0.453,0.75 m 122.949,-0.125 c -0.175,0.344 -0.344,0.677 -0.376,0.741 -0.031,0.064 0.342,0.139 0.829,0.167 l 0.886,0.051 0.045,4.541 0.044,4.542 h 0.831 0.83 v -5.333 -5.334 h -1.385 -1.386 l -0.318,0.625 m 17.453,0.023 c -0.483,0.86 -0.488,0.852 0.47,0.852 H 228 V 16.417 21 h 0.833 0.834 v -5.333 -5.334 h -1.303 -1.303 l -0.364,0.648 m 8.722,0.016 c -0.539,0.854 -0.562,0.811 0.456,0.869 l 0.875,0.051 0.044,4.541 0.045,4.542 h 0.83 0.831 v -5.333 -5.334 h -1.331 -1.331 l -0.419,0.664 m 8.676,0.045 -0.424,0.708 0.873,0.083 0.873,0.084 0.044,4.541 0.044,4.542 h 0.831 0.831 v -5.333 -5.334 h -1.324 -1.324 l -0.424,0.709 m 8.769,-0.061 c -0.483,0.86 -0.488,0.852 0.469,0.852 h 0.834 V 16.417 21 h 0.833 0.833 v -5.333 -5.334 h -1.302 -1.303 l -0.364,0.648 m 17.398,0.061 -0.424,0.708 0.873,0.083 0.872,0.084 0.045,4.541 0.044,4.542 h 0.831 0.83 v -5.333 -5.334 h -1.324 -1.323 l -0.424,0.709 m 17.49,-0.045 c -0.539,0.854 -0.561,0.811 0.456,0.869 l 0.875,0.051 0.045,4.541 0.044,4.542 h 0.831 0.83 v -5.333 -5.334 h -1.331 -1.331 l -0.419,0.664 m 60.494,0.407 c 2.369,0.99 1.545,7.929 -0.942,7.929 -2.443,0 -2.701,-6.677 -0.304,-7.874 0.698,-0.349 0.556,-0.343 1.246,-0.055 m 7.593,0.507 c -0.407,0.42 -0.496,0.599 -0.325,0.654 0.13,0.042 0.517,0.163 0.861,0.269 0.729,0.224 0.716,0.161 0.306,1.523 -0.664,2.208 -2.014,7.139 -2.014,7.358 0,0.134 0.303,0.298 0.729,0.396 l 0.73,0.167 1.377,-4.931 c 0.758,-2.712 1.41,-5.019 1.451,-5.128 0.063,-0.169 -1.875,-0.886 -2.398,-0.886 -0.086,0 -0.409,0.26 -0.717,0.578 m -209.108,0.187 c 1.45,1.492 1.718,5.355 0.469,6.752 -1.114,1.246 -2.677,0.27 -3.296,-2.058 -0.951,-3.57 0.913,-6.665 2.827,-4.694 m 16.299,-0.354 c -3.838,1.731 -4.748,8.734 -1.321,10.166 2.704,1.13 5.624,-2.151 5.624,-6.318 0,-2.846 -2.187,-4.802 -4.303,-3.848 M 19.135,11.9 c 1.909,0.987 1.932,6.368 0.032,7.49 -1.531,0.904 -2.724,-0.717 -2.741,-3.723 -0.016,-2.95 1.151,-4.572 2.709,-3.767 m 43.919,0.263 c 1.953,1.715 1.197,7.504 -0.98,7.504 -2.246,0 -2.88,-6.02 -0.806,-7.651 0.61,-0.48 1.12,-0.438 1.786,0.147 m 17.421,-0.075 c 1.58,1.329 1.515,5.978 -0.101,7.249 -1.642,1.292 -3.418,-1.698 -2.872,-4.834 0.415,-2.386 1.734,-3.458 2.973,-2.415 m 140.442,0.129 c 1.859,1.859 1.126,7.45 -0.978,7.45 -0.558,0 -1.536,-0.867 -1.767,-1.567 -1.242,-3.763 0.701,-7.927 2.745,-5.883 m 43.598,-0.12 c 1.109,1.004 1.445,4.315 0.619,6.099 -1.34,2.895 -3.687,1.291 -3.706,-2.532 -0.015,-3.002 1.622,-4.893 3.087,-3.567 m 17.143,-0.185 c 0.963,0.498 1.619,2.795 1.347,4.717 -0.634,4.487 -4.172,3.671 -4.172,-0.962 0,-2.775 1.322,-4.532 2.825,-3.755 m -146.365,0.29 c -1.137,0.351 -1.454,0.733 -1.459,1.756 -0.001,0.252 -0.082,0.255 0.866,-0.033 l 0.783,-0.237 0.277,0.948 c 0.153,0.521 0.708,2.43 1.235,4.242 0.526,1.813 0.997,3.337 1.048,3.387 0.207,0.207 1.48,-0.324 1.406,-0.587 -1.381,-4.876 -2.864,-9.842 -2.937,-9.834 -0.052,0.006 -0.601,0.167 -1.219,0.358 m 192.163,0.347 c -2.658,0.851 -3.081,5.227 -0.819,8.476 2.8,4.021 7.473,1.797 6.478,-3.083 -0.758,-3.718 -3.306,-6.146 -5.659,-5.393 m -162.231,0.952 c 1.577,1.873 -0.238,7.166 -2.457,7.166 -1.216,0 -1.721,-1.019 -1.559,-3.14 0.252,-3.288 2.631,-5.673 4.016,-4.026 m 164.27,0.829 c 1.574,1.121 2.675,4.809 1.914,6.413 -1.179,2.485 -4.406,-0.384 -4.68,-4.16 -0.167,-2.304 1.168,-3.391 2.766,-2.253 m -157.458,0.812 -0.683,0.453 0.739,0.392 c 0.936,0.496 1.063,0.039 -1.269,4.581 l -2.01,3.915 0.692,0.354 c 0.381,0.194 0.714,0.329 0.741,0.3 0.026,-0.03 1.111,-2.132 2.41,-4.672 l 2.363,-4.618 -1.15,-0.578 -1.149,-0.579 -0.684,0.452 m 193.658,0.129 c -0.851,0.508 -0.851,0.477 0.013,0.913 0.39,0.196 0.734,0.38 0.766,0.408 0.032,0.028 -0.868,1.831 -2,4.008 -1.132,2.176 -2.081,4.015 -2.11,4.086 -0.051,0.126 1.292,0.89 1.379,0.784 0.046,-0.056 1.087,-2.046 3.493,-6.672 l 1.448,-2.785 -1.147,-0.578 -1.148,-0.578 -0.694,0.414 m -239.36,0.259 c -2.08,1.074 -2.401,3.813 -0.8,6.836 1.827,3.453 5.444,4.235 6.84,1.479 1.919,-3.789 -2.643,-10.069 -6.04,-8.315 m 2.144,1.376 c 1.761,0.911 3.425,4.824 2.655,6.245 -0.708,1.305 -1.883,1.258 -3.179,-0.127 -2.744,-2.934 -2.345,-7.602 0.524,-6.118 m 189.146,0.529 c -0.957,0.591 -0.958,0.593 -0.958,1.412 0,0.955 -0.023,0.945 0.911,0.397 l 0.721,-0.422 2.381,3.916 2.382,3.915 0.636,-0.357 c 0.349,-0.197 0.635,-0.425 0.635,-0.507 0,-0.301 -5.374,-8.956 -5.559,-8.951 -0.105,0.002 -0.622,0.271 -1.149,0.597 m -199.748,3.194 c -0.864,0.615 -0.872,0.63 -0.875,1.506 -0.002,0.964 -0.009,0.962 0.967,0.24 0.304,-0.225 0.574,-0.382 0.6,-0.35 0.026,0.032 1.115,1.596 2.421,3.475 2.952,4.251 2.629,3.926 3.393,3.408 l 0.623,-0.424 -0.731,-1.034 c -0.402,-0.568 -1.722,-2.458 -2.933,-4.2 -2.498,-3.592 -2.304,-3.446 -3.465,-2.621 m 61.04,-0.067 c -2.359,1.111 -4.455,4.327 -4.181,6.414 0.573,4.359 6.051,3.459 8.489,-1.395 1.77,-3.524 -0.894,-6.627 -4.308,-5.019 m 194.738,0 c -3.367,0.906 -6.14,5.521 -4.843,8.063 1.59,3.116 6.173,1.708 8.273,-2.542 1.593,-3.224 -0.35,-6.351 -3.43,-5.521 m -191.697,1.53 c 1.827,2.077 -3.417,7.821 -5.304,5.811 -0.908,-0.967 -0.253,-3.096 1.501,-4.878 1.493,-1.516 2.971,-1.878 3.803,-0.933 m 193.852,0.372 c 1.453,1.591 -1.806,6.369 -4.344,6.369 -2.984,0 -0.942,-5.555 2.484,-6.755 0.798,-0.28 1.358,-0.164 1.86,0.386 m -65.419,0.368 c -2.426,1.239 -2.159,4.647 0.574,7.317 5.097,4.983 10.037,-0.082 5.213,-5.346 -1.824,-1.99 -4.178,-2.792 -5.787,-1.971 m 3.421,1.953 c 2.295,1.581 3.544,4.374 2.446,5.473 -1.516,1.515 -5.627,-1.541 -6.03,-4.482 -0.248,-1.806 1.642,-2.328 3.584,-0.991 m -203.44,2.093 c -0.864,0.874 -0.866,0.879 -0.685,1.541 0.243,0.891 0.234,0.889 0.916,0.236 l 0.597,-0.572 3.152,3.238 3.152,3.237 0.498,-0.477 c 0.274,-0.262 0.498,-0.544 0.498,-0.626 0,-0.165 -7.005,-7.455 -7.163,-7.455 -0.054,0 -0.488,0.395 -0.965,0.878 m 77.42,0.077 c -0.735,0.077 -0.772,0.239 -0.209,0.909 0.585,0.694 0.757,0.496 -3,3.457 -3.729,2.94 -3.571,2.763 -3.052,3.448 0.2,0.265 0.383,0.508 0.407,0.541 0.057,0.08 8.229,-6.338 8.227,-6.462 -0.002,-0.172 -1.521,-2.016 -1.637,-1.987 -0.061,0.016 -0.393,0.058 -0.736,0.094 M 51.917,29.48 c -3.781,2.355 -2.677,10.687 1.416,10.687 3.42,0 5.124,-6.06 2.695,-9.582 -0.913,-1.324 -2.902,-1.859 -4.111,-1.105 m 201.384,0.027 c -4.018,2.122 -2.401,11.186 1.892,10.611 3.881,-0.521 4.594,-8.933 0.906,-10.683 -0.764,-0.362 -2.038,-0.33 -2.798,0.072 M 42.697,29.981 c -0.483,0.86 -0.487,0.852 0.467,0.852 h 0.831 l 0.044,4.542 0.044,4.542 0.875,0.05 0.875,0.05 v -5.342 -5.342 h -1.386 -1.386 l -0.364,0.648 m 201.399,0.061 -0.424,0.708 0.914,0.05 0.914,0.05 V 35.425 40 h 0.833 0.834 v -5.333 -5.334 h -1.324 -1.324 l -0.423,0.709 m 58.752,1.29 c -0.76,1.083 -0.802,1.332 -0.363,2.156 l 0.304,0.571 0.461,-0.696 c 0.6,-0.906 0.236,-1.064 4.341,1.887 4.097,2.944 3.707,2.762 4.221,1.969 0.384,-0.591 0.386,-0.617 0.083,-0.846 -0.171,-0.129 -2.124,-1.535 -4.339,-3.124 l -4.027,-2.888 -0.681,0.971 M 54.309,31.088 c 1.599,1.346 1.477,6.379 -0.177,7.264 -1.752,0.937 -3.33,-1.788 -2.8,-4.833 0.432,-2.479 1.694,-3.51 2.977,-2.431 m 201.458,-0.003 c 1.907,1.907 1.239,7.39 -0.908,7.451 -1.212,0.034 -2.032,-1.285 -2.155,-3.468 -0.178,-3.159 1.589,-5.457 3.063,-3.983 m -151.653,2.928 -0.753,1.012 0.294,0.656 c 0.413,0.924 0.435,0.928 0.938,0.168 0.563,-0.852 0.024,-1.108 4.186,1.994 1.974,1.473 3.604,2.654 3.622,2.625 0.018,-0.028 0.237,-0.303 0.487,-0.611 l 0.454,-0.559 -4.199,-3.149 C 106.833,34.417 104.926,33 104.905,33 c -0.021,0 -0.378,0.456 -0.791,1.013 m 86.422,1.154 c -3.264,0.69 -5.933,3.704 -5.212,5.889 0.804,2.436 3.944,2.947 7.153,1.163 4.929,-2.74 3.43,-8.186 -1.941,-7.052 m 2.54,1.569 c 2.411,1.008 0.209,4.117 -3.506,4.948 -1.632,0.366 -2.904,-0.241 -2.903,-1.385 0.003,-2.079 4.275,-4.455 6.409,-3.563 m 105.912,2.056 c -2.784,1.41 -1.934,5.125 1.568,6.849 3.861,1.901 7.277,0.898 7.277,-2.136 0,-3.398 -5.576,-6.369 -8.845,-4.713 m 4.179,1.521 c 2.069,0.794 3.553,2.507 3.156,3.644 -0.897,2.575 -7.49,0.225 -7.49,-2.67 0,-1.399 2.034,-1.857 4.334,-0.974 m -202.618,0.295 c -2.816,0.997 -2.508,4.586 0.57,6.648 3.634,2.434 7.72,1.574 7.713,-1.624 -0.007,-3.135 -5.025,-6.178 -8.283,-5.024 m 3.802,1.849 c 4.263,1.937 3.872,5.748 -0.458,4.462 -1.271,-0.378 -2.818,-1.455 -3.395,-2.366 -1.456,-2.295 0.761,-3.501 3.853,-2.096 m 92.203,2.357 c 0.053,0.264 0.141,0.658 0.195,0.875 0.097,0.388 0.036,0.409 -3.95,1.366 -2.227,0.534 -4.189,1.011 -4.36,1.059 -0.33,0.093 -0.303,1.089 0.04,1.432 0.124,0.124 9.894,-2.088 10.153,-2.299 0.027,-0.022 -0.088,-0.585 -0.256,-1.252 l -0.305,-1.212 -0.744,-0.222 c -0.409,-0.123 -0.772,-0.224 -0.806,-0.225 -0.035,-0.002 -0.019,0.214 0.033,0.478 M 42.708,48.654 C 42.217,49.522 42.205,49.5 43.167,49.5 H 44 v 4.583 4.584 h 0.919 0.919 l -0.044,-5.292 -0.044,-5.292 -1.333,-0.045 -1.334,-0.045 -0.375,0.661 m 8.721,0.054 -0.424,0.709 0.872,0.083 0.873,0.083 0.044,4.542 0.045,4.542 h 0.83 0.831 V 53.333 48 h -1.324 -1.324 l -0.423,0.708 m 192.666,0 -0.424,0.709 0.873,0.083 0.873,0.083 0.044,4.542 0.044,4.542 h 0.831 0.831 V 53.333 48 h -1.324 -1.324 l -0.424,0.708 m 8.769,-0.06 c -0.483,0.86 -0.488,0.852 0.469,0.852 h 0.834 v 4.583 4.584 H 255 255.833 V 53.333 48 h -1.302 -1.303 l -0.364,0.648 m 41.741,0.483 c -0.045,0.157 -0.174,0.719 -0.287,1.249 l -0.207,0.964 0.554,0.571 c 0.664,0.685 0.763,0.649 0.909,-0.33 0.139,-0.927 -0.296,-0.95 4.846,0.252 2.362,0.552 4.325,0.974 4.362,0.937 0.037,-0.038 0.083,-0.391 0.101,-0.786 l 0.034,-0.717 -4.667,-1.122 c -5.994,-1.441 -5.548,-1.361 -5.645,-1.018 M 95.574,50.389 c -0.039,0.107 -0.219,0.632 -0.402,1.167 l -0.331,0.973 0.52,0.647 c 0.588,0.732 0.724,0.724 0.873,-0.049 0.204,-1.06 0.055,-1.072 4.594,0.368 2.32,0.736 4.239,1.338 4.263,1.338 0.024,0 0.159,-0.336 0.299,-0.747 l 0.254,-0.746 -0.78,-0.235 c -0.711,-0.214 -4.645,-1.454 -7.916,-2.495 -0.919,-0.293 -1.324,-0.358 -1.374,-0.221 m 102.629,4.266 0.079,0.821 -1.183,0.091 c -0.65,0.051 -2.682,0.138 -4.516,0.195 -3.878,0.121 -3.444,-0.007 -3.309,0.973 l 0.108,0.79 0.767,-0.09 c 0.422,-0.049 2.38,-0.132 4.351,-0.185 1.971,-0.052 3.977,-0.139 4.458,-0.192 l 0.875,-0.096 -0.002,-0.606 c -0.004,-1.414 -0.174,-1.854 -0.848,-2.198 -0.864,-0.441 -0.87,-0.437 -0.78,0.497 M 296,56.813 c -5.741,1.886 -3.003,7.882 3.331,7.293 4.937,-0.459 6.237,-4.949 2.002,-6.914 C 300.358,56.739 296.96,56.497 296,56.813 M 96.45,57.667 c -2.054,0.363 -3.443,1.707 -3.443,3.333 0,4.641 10.165,5.594 10.779,1.011 0.361,-2.691 -3.557,-5.012 -7.336,-4.344 m 203.504,0.735 c 1.677,0.447 2.379,1.087 2.379,2.17 0,2.104 -5.422,2.737 -7.406,0.865 -2.046,-1.929 1.39,-4.003 5.027,-3.035 M 99.866,59.439 c 2.116,0.594 3.075,2.146 1.994,3.227 -1.788,1.788 -7.36,0.532 -7.36,-1.659 0,-1.558 2.646,-2.331 5.366,-1.568 m 91.634,2.162 c -3.804,1.017 -3.738,5.288 0.104,6.726 4.539,1.698 8.832,-0.542 7.553,-3.941 -0.8,-2.126 -4.751,-3.563 -7.657,-2.785 m 4.059,1.737 c 3.553,1.097 3.023,3.995 -0.731,3.995 -3.891,0 -6.32,-2.621 -3.668,-3.958 0.988,-0.498 2.855,-0.514 4.399,-0.037 m 200.831,1.245 c 0.001,0.734 0.03,1.013 0.066,0.621 0.035,-0.392 0.034,-0.992 -0.002,-1.333 -0.035,-0.342 -0.064,-0.021 -0.064,0.712 m -29.676,0.5 c 0.002,0.459 0.034,0.626 0.072,0.373 0.039,-0.253 0.038,-0.628 -0.002,-0.833 -0.04,-0.205 -0.071,0.002 -0.07,0.46 m 19,0 c 0.002,0.459 0.034,0.626 0.072,0.373 0.039,-0.253 0.038,-0.628 -0.002,-0.833 -0.04,-0.205 -0.071,0.002 -0.07,0.46 m -342.958,2.24 c -0.58,0.92 -0.544,1.01 0.411,1.01 H 44 v 4.5 4.5 h 0.919 0.919 L 45.794,72.042 45.75,66.75 44.465,66.701 43.18,66.653 l -0.424,0.67 m 8.677,0.082 c -0.563,0.959 -0.579,0.928 0.484,0.928 h 0.916 v 4.5 4.5 H 53.667 54.5 V 72 66.667 h -1.317 -1.318 l -0.432,0.738 m 192.666,0 c -0.562,0.959 -0.578,0.928 0.484,0.928 h 0.917 v 4.5 4.5 h 0.833 0.834 V 72 66.667 h -1.318 -1.317 l -0.433,0.738 m 8.776,-0.079 c -0.526,0.922 -0.487,1.007 0.458,1.007 h 0.834 v 4.5 4.5 H 255 255.833 V 72 66.667 l -1.291,0.001 -1.292,10e-4 -0.375,0.657 m 45.472,1.109 c -5.749,0.859 -5.035,0.555 -4.804,2.047 l 0.189,1.225 0.731,0.313 c 0.402,0.172 0.763,0.313 0.802,0.313 0.039,0 0.024,-0.401 -0.034,-0.891 l -0.104,-0.892 0.568,-0.092 c 0.313,-0.051 2.29,-0.334 4.395,-0.63 4.321,-0.607 4.127,-0.536 3.978,-1.468 -0.134,-0.841 0.469,-0.849 -5.721,0.075 m -201.639,0.871 -3.875,0.255 0.003,0.928 c 0.003,1.342 0.122,1.622 0.853,2.003 0.867,0.452 0.843,0.468 0.781,-0.534 L 94.417,71.083 97.5,70.878 c 1.696,-0.113 3.702,-0.251 4.458,-0.307 l 1.375,-0.101 V 69.735 69 l -1.375,0.026 c -0.756,0.014 -3.118,0.14 -5.25,0.28 m 90.14,2.877 c -0.112,0.375 -0.169,0.719 -0.125,0.762 0.073,0.073 8.241,2.901 9.319,3.227 0.524,0.158 0.581,0.088 1.031,-1.293 l 0.284,-0.87 -0.448,-0.588 c -0.564,-0.739 -0.669,-0.735 -0.916,0.037 -0.11,0.344 -0.253,0.683 -0.317,0.754 -0.065,0.071 -2,-0.51 -4.302,-1.291 -2.301,-0.782 -4.215,-1.421 -4.253,-1.421 -0.037,0 -0.16,0.307 -0.273,0.683 m 198.087,-0.374 c -0.366,0.623 -0.267,1.498 0.178,1.586 1.667,0.332 8.754,1.805 9.298,1.933 0.795,0.186 0.67,0.333 0.969,-1.135 l 0.249,-1.223 -0.606,-0.556 c -0.661,-0.605 -0.742,-0.565 -0.926,0.461 -0.062,0.344 -0.202,0.625 -0.313,0.625 -0.185,0 -6.461,-1.273 -8.077,-1.638 -0.39,-0.088 -0.737,-0.112 -0.772,-0.053 M 164,73.083 c 0.591,0.596 1.111,1.084 1.157,1.084 0.046,0 -0.4,-0.488 -0.99,-1.084 C 163.576,72.487 163.055,72 163.01,72 c -0.046,0 0.399,0.487 0.99,1.083 m -0.583,1.75 c 0.636,0.642 1.195,1.167 1.241,1.167 0.046,0 -0.438,-0.525 -1.075,-1.167 -0.636,-0.641 -1.195,-1.166 -1.241,-1.166 -0.046,0 0.438,0.525 1.075,1.166 m 136.666,0.053 c -3.963,1.326 -5.647,4.356 -3.614,6.504 2.077,2.195 7.659,1.033 9.371,-1.952 1.871,-3.261 -1.544,-5.962 -5.757,-4.552 m -201.75,0.595 c -5.789,1.872 -5.421,7.634 0.468,7.313 3.799,-0.207 6.463,-2.528 5.963,-5.195 -0.376,-2.005 -3.548,-3.05 -6.431,-2.118 M 304.134,76.4 c 2.389,1.235 -1.026,4.589 -4.681,4.598 -1.536,0.004 -2.286,-0.566 -2.286,-1.737 0,-2.026 4.783,-3.991 6.967,-2.861 m -201.785,0.542 c 0.909,0.364 1.271,1.12 0.925,1.933 -0.859,2.016 -5.479,3.219 -7.107,1.85 -2.214,-1.863 3.003,-5.055 6.182,-3.783 m 82.823,0.9 c -4.38,1.852 -0.787,8.056 4.673,8.07 6.314,0.017 3.546,-7.955 -2.845,-8.191 -0.779,-0.029 -1.602,0.026 -1.828,0.121 m 199.716,0.329 c -4.04,0.819 -3.75,5.21 0.481,7.293 3.671,1.807 7.282,0.669 7.292,-2.297 0.01,-2.71 -4.562,-5.648 -7.773,-4.996 m -196.384,1.382 c 2.806,1.155 4.219,3.25 3.009,4.46 -1.597,1.596 -6.866,-1.038 -6.841,-3.421 0.014,-1.373 1.825,-1.864 3.832,-1.039 m 199.543,0.607 c 2.492,0.952 3.837,2.971 2.722,4.087 -0.868,0.868 -2.779,0.748 -4.823,-0.303 -4.316,-2.219 -2.476,-5.533 2.101,-3.784 M 159.583,81 c 0.637,0.642 1.196,1.167 1.241,1.167 0.046,0 -0.437,-0.525 -1.074,-1.167 -0.637,-0.642 -1.195,-1.167 -1.241,-1.167 -0.046,0 0.438,0.525 1.074,1.167 m -0.333,2 c 0.544,0.55 1.027,1 1.073,1 0.046,0 -0.362,-0.45 -0.906,-1 -0.545,-0.55 -1.027,-1 -1.073,-1 -0.046,0 0.362,0.45 0.906,1 m 3.323,0.208 -0.49,0.542 0.542,-0.49 c 0.298,-0.269 0.542,-0.512 0.542,-0.541 0,-0.129 -0.138,-0.016 -0.594,0.489 m 144.677,1.186 c -0.825,0.486 -2.831,1.652 -4.458,2.591 -1.627,0.94 -2.959,1.751 -2.959,1.804 0,0.053 0.267,0.572 0.592,1.153 L 301.016,91 h 0.825 c 0.454,0 0.826,-0.028 0.826,-0.062 0,-0.035 -0.19,-0.401 -0.421,-0.815 l -0.42,-0.753 3.983,-2.28 3.984,-2.28 -0.355,-0.654 c -0.443,-0.816 -0.386,-0.822 -2.188,0.238 m -143.906,0.177 -0.573,0.679 0.648,-0.619 c 0.356,-0.341 0.614,-0.647 0.573,-0.68 -0.042,-0.033 -0.333,0.246 -0.648,0.62 m -61.094,1.932 c -2.864,1.478 -4.485,2.404 -4.457,2.548 0.023,0.125 0.272,0.651 0.554,1.171 l 0.511,0.945 h 0.825 0.824 l -0.337,-0.66 c -0.185,-0.363 -0.337,-0.732 -0.337,-0.819 0,-0.088 1.707,-1.036 3.792,-2.108 4.462,-2.292 4.132,-2.047 3.77,-2.806 -0.38,-0.796 -0.012,-0.92 -5.145,1.729 m 72.58,-1.416 -0.569,0.587 1.159,1.121 1.16,1.122 -1.078,-1.126 -1.077,-1.126 0.535,-0.535 0.535,-0.536 0.711,0.662 0.711,0.661 -0.659,-0.709 c -0.793,-0.852 -0.725,-0.847 -1.428,-0.121 m -122.747,0.69 c -3.969,2.092 -2.964,10.723 1.249,10.723 3.593,0 5.23,-6.611 2.426,-9.796 -1.035,-1.176 -2.501,-1.546 -3.675,-0.927 m 201.305,0.068 c -3.913,1.937 -2.75,10.655 1.421,10.655 4.302,0 5.201,-9.045 1.071,-10.775 -0.768,-0.322 -1.69,-0.278 -2.492,0.12 m -210.68,0.476 c -0.491,0.868 -0.503,0.846 0.459,0.846 H 44 v 4.583 4.583 h 0.919 0.919 L 45.794,91.042 45.75,85.75 44.417,85.705 43.083,85.66 42.708,86.321 m 201.387,0.054 -0.424,0.708 0.873,0.084 0.873,0.083 0.044,4.542 0.044,4.541 h 0.831 0.831 V 91 85.667 h -1.324 -1.324 l -0.424,0.708 M 54.207,87.33 c 1.668,1.312 1.668,6.028 0,7.34 -1.209,0.952 -2.508,-0.237 -2.88,-2.638 -0.492,-3.173 1.236,-5.996 2.88,-4.702 m 201.312,-0.042 c 1.754,1.036 1.858,5.831 0.158,7.261 -1.464,1.232 -3.01,-0.591 -3.01,-3.549 0,-2.808 1.368,-4.589 2.852,-3.712 m 122.754,0.374 -0.435,0.657 2.873,1.953 c 1.58,1.074 3.572,2.433 4.428,3.021 0.855,0.587 1.575,1.043 1.599,1.013 0.024,-0.031 0.35,-0.513 0.724,-1.071 l 0.681,-1.015 -0.375,-0.817 -0.375,-0.816 -0.311,0.498 c -0.729,1.168 -0.625,1.167 -2.307,0.018 -3.399,-2.322 -5.702,-3.883 -5.88,-3.987 -0.108,-0.064 -0.372,0.169 -0.622,0.546 m -197.106,2.755 c 0.311,0.32 0.603,0.583 0.648,0.583 0.046,0 -0.171,-0.263 -0.482,-0.583 -0.311,-0.321 -0.603,-0.584 -0.648,-0.584 -0.046,0 0.171,0.263 0.482,0.584 M 310.25,90.055 c -4.411,1.735 -6.433,6.515 -3.604,8.521 3.463,2.454 10.283,-3.895 7.958,-7.408 -0.795,-1.201 -2.816,-1.717 -4.354,-1.113 M 108,90.656 c -2.431,0.742 -5,3.675 -5,5.709 0,3.732 4.367,4.23 7.759,0.885 3.493,-3.445 1.617,-7.93 -2.759,-6.594 m 205.175,1.103 c 1.956,2.082 -3.919,7.405 -5.941,5.384 -1.103,-1.102 -0.058,-3.33 2.324,-4.955 1.424,-0.971 2.939,-1.151 3.617,-0.429 M 180.66,92.208 c 0.69,0.736 0.84,0.869 0.84,0.743 0,-0.026 -0.356,-0.383 -0.792,-0.791 l -0.791,-0.743 0.743,0.791 m -69.886,0.148 c 1.52,1.427 -1.571,5.343 -4.417,5.596 -1.296,0.115 -1.857,-0.304 -1.857,-1.389 0,-2.656 4.624,-5.757 6.274,-4.207 m 60.643,0.477 c 0.451,0.459 0.858,0.834 0.904,0.834 0.046,0 -0.286,-0.375 -0.738,-0.834 C 171.132,92.375 170.725,92 170.679,92 c -0.046,0 0.286,0.375 0.738,0.833 M 374,93.01 c -3.094,1.306 -2.15,6.007 1.706,8.502 3.203,2.072 6.506,0.309 5.82,-3.107 C 380.86,95.089 376.492,91.958 374,93.01 m -203.167,1.573 c 0.498,0.504 0.943,0.917 0.989,0.917 0.046,0 -0.324,-0.413 -0.822,-0.917 -0.498,-0.504 -0.943,-0.916 -0.989,-0.916 -0.045,0 0.324,0.412 0.822,0.916 m 205.75,0.143 c 2.236,1.044 4.192,4.237 3.368,5.495 -0.68,1.039 -2.097,0.925 -3.761,-0.301 -3.617,-2.666 -3.296,-6.918 0.393,-5.194 m -60.345,5.311 c -1.735,2.215 -3.209,4.116 -3.276,4.224 -0.075,0.122 0.255,0.491 0.877,0.98 l 0.999,0.785 0.748,-0.286 c 0.914,-0.349 0.919,-0.409 0.079,-0.991 l -0.668,-0.463 0.446,-0.601 c 0.246,-0.331 0.835,-1.089 1.31,-1.685 0.474,-0.596 1.544,-1.956 2.377,-3.024 l 1.513,-1.94 -0.363,-0.317 c -0.912,-0.798 -0.648,-1.014 -4.042,3.318 M 115.879,97.542 c -0.939,1.198 -4.438,5.755 -5.092,6.632 l -0.441,0.59 0.898,0.702 c 0.998,0.779 1.163,0.815 2.053,0.44 l 0.62,-0.261 -0.417,-0.311 c -1.143,-0.852 -1.319,-0.409 1.722,-4.345 l 2.759,-3.572 -0.532,-0.454 c -0.697,-0.595 -0.631,-0.619 -1.57,0.579 m 60.451,0.878 c -0.469,0.478 -0.832,0.718 -0.993,0.657 -0.205,-0.078 -0.213,-0.056 -0.042,0.116 0.171,0.173 0.376,0.048 1.081,-0.656 0.479,-0.479 0.83,-0.87 0.782,-0.87 -0.049,0 -0.421,0.339 -0.828,0.753 m 190.122,0.672 c -0.34,0.231 -0.619,0.457 -0.619,0.503 0,0.113 5.33,8.437 5.564,8.689 0.143,0.155 0.427,0.048 1.228,-0.462 l 1.042,-0.663 v -0.83 c 0,-0.954 -0.043,-0.974 -0.869,-0.412 -0.338,0.229 -0.646,0.416 -0.686,0.416 -0.04,0 -1.144,-1.668 -2.454,-3.708 -1.31,-2.04 -2.428,-3.764 -2.484,-3.831 -0.057,-0.068 -0.381,0.066 -0.722,0.298 m -203.539,0.506 c -0.273,0.141 -0.562,0.321 -0.642,0.4 -0.082,0.081 0.488,1.36 1.315,2.947 2.04,3.921 3.288,6.295 3.342,6.362 0.026,0.031 0.54,-0.219 1.143,-0.556 l 1.096,-0.613 v -0.835 -0.835 l -0.739,0.433 -0.739,0.433 -0.99,-1.875 c -0.544,-1.032 -1.459,-2.776 -2.034,-3.876 -1.268,-2.431 -1.149,-2.296 -1.752,-1.985 m 161.913,1.06 c -3.151,0.956 -5.456,6.45 -3.773,8.993 2.154,3.254 6.936,0.361 7.824,-4.734 0.488,-2.805 -1.603,-5.003 -4.051,-4.259 m -202.689,0.272 c -2.132,0.656 -4.142,3.844 -4.133,6.554 0.014,4.389 4.744,4.895 7.059,0.757 2.358,-4.216 0.676,-8.42 -2.926,-7.311 m 204.73,1.578 c 1.641,1.641 -0.971,6.992 -3.413,6.992 -2.435,0 -1.54,-5.29 1.187,-7.02 0.99,-0.627 1.578,-0.62 2.226,0.028 m -202.751,0.061 c 1.335,1.149 0.008,5.494 -2.046,6.697 -2.891,1.695 -3.512,-2.929 -0.797,-5.937 1.068,-1.183 2.047,-1.445 2.843,-0.76 m 31.134,0.078 c -1.416,0.65 -1.995,1.913 -1.877,4.091 0.259,4.753 4.145,7.856 6.672,5.328 3.19,-3.19 -0.893,-11.211 -4.795,-9.419 m 203.833,-0.077 c -2.182,0.974 -2.607,4.108 -0.999,7.375 2.182,4.435 7.145,3.895 7.149,-0.778 0.004,-4.151 -3.415,-7.818 -6.15,-6.597 m -165.25,0.847 c 0.498,0.504 0.943,0.916 0.989,0.916 0.046,0 -0.324,-0.412 -0.822,-0.916 -0.498,-0.505 -0.943,-0.917 -0.989,-0.917 -0.045,0 0.324,0.412 0.822,0.917 m -63.072,0.394 c -0.045,0.15 -0.575,2.335 -1.178,4.856 -0.602,2.521 -1.13,4.699 -1.173,4.841 -0.06,0.2 0.199,0.322 1.17,0.547 l 1.247,0.291 0.498,-0.548 c 0.644,-0.708 0.636,-0.747 -0.17,-0.883 -0.948,-0.16 -0.951,-0.07 0.175,-4.747 0.557,-2.317 0.993,-4.229 0.967,-4.249 -0.348,-0.266 -1.464,-0.345 -1.536,-0.108 m 203.019,-0.026 c -0.045,0.073 -0.655,2.307 -1.356,4.965 -0.7,2.659 -1.302,4.92 -1.338,5.027 -0.039,0.117 0.407,0.323 1.133,0.522 l 1.198,0.328 0.635,-0.605 0.634,-0.605 -0.801,-0.227 c -0.441,-0.125 -0.824,-0.248 -0.851,-0.272 -0.039,-0.035 1.868,-7.402 2.228,-8.607 0.057,-0.192 -0.055,-0.305 -0.382,-0.383 -0.255,-0.061 -0.588,-0.147 -0.741,-0.193 -0.153,-0.045 -0.314,-0.022 -0.359,0.05 M 157.431,104.2 c 1.456,0.997 2.562,4.139 2.083,5.916 -0.521,1.931 -2.402,1.783 -3.642,-0.286 -1.993,-3.325 -0.891,-7.309 1.559,-5.63 m 203.724,-0.123 c 1.938,1.003 3.283,5.724 1.998,7.012 -1.55,1.553 -4.221,-1.229 -4.449,-4.634 -0.145,-2.161 0.904,-3.178 2.451,-2.378 m -308.738,0.266 c -1.921,0.564 -3.102,3.384 -2.719,6.488 0.79,6.392 7.469,5.476 7.469,-1.024 0,-3.746 -2.156,-6.225 -4.75,-5.464 m 140.833,0.824 c 0.544,0.55 1.027,1 1.073,1 0.046,0 -0.362,-0.45 -0.906,-1 -0.545,-0.55 -1.027,-1 -1.073,-1 -0.046,0 0.362,0.45 0.906,1 m 16.833,-0.752 c -3.337,1.17 -3.64,8.587 -0.425,10.393 2.254,1.267 4.759,-0.6 5.17,-3.853 0.552,-4.371 -1.776,-7.581 -4.745,-6.54 m 17.324,0.066 c -3.765,1.71 -3.244,10.203 0.653,10.642 2.712,0.306 4.19,-1.59 4.19,-5.373 0,-4.141 -2.158,-6.489 -4.843,-5.269 m 17.926,-0.198 c -2.427,0.878 -3.586,3.967 -2.823,7.526 0.762,3.55 4.706,4.55 6.402,1.623 2.325,-4.013 -0.167,-10.383 -3.579,-9.149 m 17.107,0.128 c -3.519,1.254 -3.633,9.068 -0.154,10.53 2.693,1.132 4.916,-1.253 4.917,-5.274 0.002,-3.88 -2.105,-6.204 -4.763,-5.256 m 26.166,0 c -3.502,1.248 -3.616,9.065 -0.153,10.529 2.687,1.136 4.923,-1.259 4.924,-5.273 10e-4,-3.873 -2.114,-6.203 -4.771,-5.256 m -245.85,0.579 c -0.58,0.92 -0.544,1.01 0.411,1.01 H 44 v 4.5 4.5 h 0.919 0.919 l -0.044,-5.292 -0.044,-5.291 -1.285,-0.049 -1.285,-0.048 -0.424,0.67 m 175.177,0.081 c -0.563,0.96 -0.579,0.929 0.484,0.929 h 0.916 v 4.5 4.5 h 0.834 0.833 v -5.333 -5.334 h -1.317 -1.318 l -0.432,0.738 m 17.78,-0.536 c -0.199,0.25 -0.713,1.239 -0.713,1.373 0,0.051 0.412,0.092 0.917,0.092 h 0.916 v 4.5 4.5 h 0.836 0.836 l -0.044,-5.292 -0.044,-5.291 -1.266,-0.049 c -0.883,-0.033 -1.318,0.017 -1.438,0.167 m 17.21,0.42 c -0.615,0.905 -0.56,1.045 0.41,1.045 h 0.834 v 4.5 4.5 h 0.833 0.833 v -5.333 -5.334 h -1.244 -1.244 l -0.422,0.622 m 17.343,0.116 c -0.563,0.96 -0.579,0.929 0.484,0.929 h 0.917 v 4.5 4.5 h 0.833 0.833 v -5.333 -5.334 h -1.317 -1.318 l -0.432,0.738 m 8.823,-0.116 C 278.475,105.86 278.53,106 279.5,106 h 0.833 v 4.5 4.5 h 0.834 0.833 v -5.333 -5.334 h -1.244 -1.244 l -0.423,0.622 m -132.19,-0.353 c -0.101,0.042 -0.157,0.242 -0.125,0.445 0.033,0.204 0.32,2.282 0.64,4.62 0.319,2.337 0.623,4.498 0.676,4.802 l 0.096,0.553 0.949,-0.117 c 1.361,-0.168 1.519,-0.256 1.877,-1.057 l 0.322,-0.72 -0.894,0.112 -0.894,0.112 -0.102,-0.635 c -0.17,-1.061 -1.111,-7.888 -1.111,-8.058 0,-0.158 -1.084,-0.201 -1.434,-0.057 m -8.288,2.106 c -0.058,1.032 -0.155,3.382 -0.216,5.224 l -0.11,3.349 1.212,0.113 c 1.312,0.122 1.281,0.137 1.917,-0.936 L 141.686,114 h -0.833 c -1.06,0 -0.988,0.43 -0.772,-4.583 0.214,-4.984 0.271,-4.584 -0.65,-4.584 h -0.715 l -0.105,1.875 m 211.847,-1.76 c -0.202,0.053 -0.266,0.187 -0.207,0.439 0.047,0.2 0.427,2.537 0.845,5.194 0.89,5.654 0.596,4.993 2.111,4.748 l 1.235,-0.199 0.28,-0.758 c 0.341,-0.918 0.377,-0.879 -0.625,-0.691 -0.995,0.186 -0.849,0.397 -1.161,-1.681 -0.145,-0.963 -0.452,-2.945 -0.683,-4.406 -0.231,-1.46 -0.42,-2.679 -0.42,-2.708 0,-0.075 -1.027,-0.029 -1.375,0.062 m -8.897,0.454 c -3.267,1.521 -3.512,8.677 -0.353,10.308 2.178,1.124 4.517,-0.553 5.133,-3.681 0.892,-4.535 -1.663,-8.078 -4.78,-6.627 M 181.917,106 c 0.358,0.367 0.688,0.667 0.734,0.667 0.046,0 -0.21,-0.3 -0.568,-0.667 -0.358,-0.367 -0.688,-0.667 -0.734,-0.667 -0.046,0 0.21,0.3 0.568,0.667 m -127.91,-0.08 c 2.273,1.176 1.722,7.747 -0.649,7.747 -2.232,0 -2.938,-5.725 -0.925,-7.493 0.656,-0.575 0.881,-0.612 1.574,-0.254 m 157.85,0.037 c 2.263,1.337 1.655,7.71 -0.735,7.71 -1.744,0 -2.732,-4.16 -1.558,-6.56 0.653,-1.334 1.371,-1.694 2.293,-1.15 m 17.702,0.181 c 1.495,1.346 1.543,5.568 0.081,7.03 -1.536,1.536 -3.279,-0.656 -3.108,-3.91 0.144,-2.749 1.681,-4.333 3.027,-3.12 m 17.205,-0.156 c 2.267,1.382 1.616,7.685 -0.793,7.685 -2.421,0 -2.76,-6.872 -0.388,-7.843 0.495,-0.202 0.618,-0.186 1.181,0.158 m 17.426,-0.025 c 2.267,1.339 1.66,7.71 -0.734,7.71 -2.287,0 -2.842,-6.366 -0.672,-7.704 0.59,-0.364 0.798,-0.365 1.406,-0.006 m 26.138,-0.043 c 2.219,1.147 1.693,7.753 -0.617,7.753 -2.373,0 -2.997,-6.325 -0.76,-7.704 0.575,-0.355 0.772,-0.362 1.377,-0.049 m 53.474,1.002 c 2.068,1.74 1.129,7.651 -1.215,7.651 -1.48,0 -2.379,-2.347 -1.927,-5.027 0.418,-2.478 1.872,-3.693 3.142,-2.624 m -156.052,2.751 c 0.544,0.55 1.027,1 1.073,1 0.046,0 -0.362,-0.45 -0.906,-1 -0.545,-0.55 -1.027,-1 -1.073,-1 -0.046,0 0.362,0.45 0.906,1 m -0.667,1.666 c 0.545,0.55 1.027,1 1.073,1 0.046,0 -0.362,-0.45 -0.906,-1 -0.544,-0.55 -1.027,-1 -1.073,-1 -0.046,0 0.362,0.45 0.906,1 m 2.241,0.959 -0.574,0.625 0.625,-0.575 c 0.344,-0.316 0.625,-0.597 0.625,-0.625 0,-0.127 -0.141,-0.007 -0.676,0.575"
       id="path1" />
    <path
       inkscape:connector-curvature="0"
       fill-rule="evenodd"
       fill="#080808"
       stroke="none"
       d="m 357.167,63.331 v 0.83 l -4.542,0.045 -4.542,0.044 -0.05,0.792 -0.051,0.791 h 5.342 5.343 l -0.002,-1.291 -0.001,-1.292 -0.657,-0.375 c -0.861,-0.492 -0.84,-0.503 -0.84,0.456 m 18.666,0.002 v 0.834 h -4.5 -4.5 V 65 65.833 h 5.334 5.333 v -1.248 -1.247 l -0.663,-0.419 c -0.913,-0.576 -1.004,-0.539 -1.004,0.414 m 19,0 v 0.834 h -4.5 -4.5 V 65 65.833 h 5.25 5.25 v -1.33 -1.33 l -0.66,-0.336 c -0.869,-0.444 -0.84,-0.461 -0.84,0.496 m -233.322,8.323 -0.571,0.489 3.715,3.843 3.716,3.844 0.912,-0.883 c 0.851,-0.824 0.904,-0.922 0.801,-1.468 -0.196,-1.049 -0.336,-1.125 -0.96,-0.521 -0.63,0.611 -0.682,0.628 -0.987,0.312 -0.911,-0.945 -6.005,-6.105 -6.026,-6.105 -0.015,0 -0.285,0.22 -0.6,0.489 m -6.296,6.052 -0.516,0.542 3.704,3.785 3.704,3.785 0.885,-0.895 c 0.843,-0.853 0.878,-0.925 0.764,-1.534 -0.179,-0.953 -0.24,-0.974 -0.918,-0.312 l -0.623,0.608 -3.141,-3.26 c -3.556,-3.692 -3.182,-3.428 -3.859,-2.719 m 19.704,7.457 -0.478,0.498 1.145,1.21 c 2.104,2.225 6.138,6.294 6.241,6.294 0.552,0 1.711,-1.694 1.607,-2.347 -0.167,-1.044 -0.245,-1.076 -0.948,-0.39 l -0.642,0.627 -3.105,-3.195 c -3.477,-3.578 -3.179,-3.367 -3.82,-2.697 m -6.33,5.995 -0.472,0.494 3.634,3.762 c 1.999,2.068 3.69,3.74 3.758,3.714 0.069,-0.026 0.507,-0.406 0.975,-0.846 l 0.85,-0.798 -0.187,-0.743 c -0.223,-0.888 -0.23,-0.889 -0.943,-0.201 l -0.561,0.541 -3.159,-3.208 c -3.521,-3.575 -3.251,-3.387 -3.895,-2.715 m 19.619,7.428 c -0.747,0.602 -0.894,0.381 2.685,4.035 1.775,1.812 3.411,3.51 3.636,3.774 l 0.408,0.48 0.96,-0.897 0.961,-0.897 -0.214,-0.791 c -0.255,-0.948 -0.26,-0.949 -0.984,-0.202 l -0.572,0.59 -3.169,-3.264 -3.169,-3.265 -0.542,0.437 m -6.326,6.097 -0.535,0.545 0.773,0.843 c 0.425,0.464 2.078,2.174 3.673,3.801 l 2.9,2.957 0.909,-0.791 c 0.848,-0.737 0.902,-0.829 0.811,-1.373 -0.21,-1.26 -0.217,-1.263 -0.935,-0.562 l -0.655,0.639 -3.203,-3.302 -3.203,-3.303 -0.535,0.546"
       id="path2" />
  </g>
</svg>
