<?xml version="1.0" encoding="UTF-8" standalone="no"?>
<svg
   xmlns:dc="http://purl.org/dc/elements/1.1/"
   xmlns:cc="http://creativecommons.org/ns#"
   xmlns:rdf="http://www.w3.org/1999/02/22-rdf-syntax-ns#"
   xmlns:svg="http://www.w3.org/2000/svg"
   xmlns="http://www.w3.org/2000/svg"
   xmlns:sodipodi="http://sodipodi.sourceforge.net/DTD/sodipodi-0.dtd"
   xmlns:inkscape="http://www.inkscape.org/namespaces/inkscape"
   inkscape:version="1.0rc1 (09960d6, 2020-04-09)"
   sodipodi:docname="unt.svg"
   xml:space="preserve"
   style="enable-background:new 0 0 150 170.1;"
   viewBox="0 0 150 170.1"
   y="0px"
   x="0px"
   id="Layer_1"
   version="1.1"><metadata
   id="metadata903"><rdf:RDF><cc:Work
       rdf:about=""><dc:format>image/svg+xml</dc:format><dc:type
         rdf:resource="http://purl.org/dc/dcmitype/StillImage" /><dc:title></dc:title></cc:Work></rdf:RDF></metadata><defs
   id="defs901" /><sodipodi:namedview
   inkscape:current-layer="Layer_1"
   inkscape:window-maximized="0"
   inkscape:window-y="23"
   inkscape:window-x="0"
   inkscape:cy="106.79945"
   inkscape:cx="68.032703"
   inkscape:zoom="1.1808083"
   showgrid="false"
   id="namedview899"
   inkscape:window-height="480"
   inkscape:window-width="776"
   inkscape:pageshadow="2"
   inkscape:pageopacity="0"
   guidetolerance="10"
   gridtolerance="10"
   objecttolerance="10"
   borderopacity="1"
   bordercolor="#666666"
   pagecolor="#ffffff" />
<style
   id="style833"
   type="text/css">
	.st0{fill:#00853E;}
	.st1{opacity:0.75;}
	.st2{fill:#FFFFFF;}
	.st3{fill:#FFFFFF;stroke:#FFFFFF;stroke-width:5.423000e-02;stroke-miterlimit:10;}
	.st4{display:none;}
	.st5{display:inline;fill:#FFFFFF;}
	.st6{display:inline;}
</style>
<g
   transform="matrix(0.72335335,0,0,0.7510648,20.325061,20.325061)"
   id="g876">
	<g
   id="g837">
		<polygon
   id="polygon835"
   points="150,170.1 75,152.9 0,170.1 0,0 150,0 "
   class="st0" />
	</g>
	<g
   id="g841"
   class="st1">
		<path
   inkscape:connector-curvature="0"
   id="path839"
   d="M 143.5,6.3 V 161.6 L 75.3,145.8 75,145.7 74.7,145.8 6.5,161.6 V 6.3 h 137 M 145,4.8 H 5 v 158.7 l 70,-16.2 70,16.2 z"
   class="st2" />
	</g>
	<g
   id="g851">
		<polygon
   id="polygon843"
   points="112.9,105.7 109.8,105.7 107.6,111.8 122.6,111.8 124.9,105.7 120.7,105.7 120.7,78.7 127,78.7 126.9,82.5 130.7,82.5 134.3,72.6 104.3,72.7 100.7,82.5 106.2,82.5 107.5,78.7 112.9,78.7 "
   class="st2" />
		<path
   inkscape:connector-curvature="0"
   id="path845"
   d="m 43.9,72.7 -2.3,6.1 h 3.8 v 17.7 c 0,3.3 -0.6,5.1 -2.2,6.7 -1.2,1.3 -3.4,2.1 -5.6,2.1 -2.6,0 -5,-0.9 -6.5,-2.4 -1.5,-1.5 -2.2,-3.9 -2.2,-7.4 V 72.8 H 17.8 l -2.2,6.1 h 4.7 v 16.9 c 0,15.8 12.3,17.1 16.1,17.1 9.8,0 16.1,-6.3 16.1,-16.1 V 79 h 2.8 l 2.2,-6.1 H 43.9 Z"
   class="st2" />
		<path
   inkscape:connector-curvature="0"
   id="path847"
   d="m 97.3,78.7 v 33.1 h -4.6 c 0,0 -21.5,-22.6 -22.9,-24.2 0,3.2 0,18.1 0,18.1 H 74 l -2.2,6.1 H 57.9 l 2.2,-6.1 h 2.4 v -27 h -5.1 l 2.2,-6.1 h 8.5 c 0,0 16.4,17.1 22.1,23.2 0,-1.9 0,-17.1 0,-17.1 h -4.1 l 2.2,-6.1 h 14.2 l -2.2,6.1 z"
   class="st2" />
		<path
   inkscape:connector-curvature="0"
   id="path849"
   d="m 134.3,81.3 c 0,0.7 -0.6,1.2 -1.2,1.2 -0.7,0 -1.2,-0.6 -1.2,-1.2 0,-0.7 0.6,-1.2 1.2,-1.2 0.6,-0.1 1.2,0.5 1.2,1.2 z m -2.4,0 c 0,0.6 0.5,1.1 1.1,1.1 0.6,0 1.1,-0.5 1.1,-1.1 0,-0.6 -0.5,-1.1 -1.1,-1.1 -0.6,-0.1 -1.1,0.4 -1.1,1.1 z m 0.7,-0.8 h 0.5 c 0.3,0 0.5,0.1 0.5,0.4 0,0.2 -0.2,0.4 -0.4,0.4 l 0.4,0.7 h -0.1 l -0.4,-0.7 h -0.4 V 82 h -0.1 z m 0.1,0.7 h 0.3 c 0.2,0 0.5,0 0.5,-0.3 0,-0.2 -0.2,-0.3 -0.4,-0.3 h -0.4 z"
   class="st3" />
	</g>
	<g
   id="eagle_3_">
		<g
   id="g867">
			<g
   id="g865">
				<g
   id="g857"
   class="st4">
					<path
   inkscape:connector-curvature="0"
   id="path853"
   d="m 93.5,56 c 0,-0.1 0.1,-0.3 0.1,-0.7 0,-0.7 -0.2,-1.5 -1.1,-2.2 -1.2,-1 -3.9,-3.6 -4.5,-4.1 0.1,-0.3 0.1,-0.9 0.1,-1.8 0,-2.1 -0.6,-5.7 -3.8,-9.5 -0.4,-0.6 -4,-4.5 -7.4,-8.3 -2.8,-3.1 -5.5,-6.2 -5.7,-6.4 -0.4,-0.4 -0.4,-0.9 -0.4,-1.1 0,-0.1 0,-0.2 0,-0.2 V 21.6 21.5 L 70.2,20 68.3,24.1 v 0 c 0,0.1 -0.1,0.4 -0.1,0.8 0,0.3 0.1,0.7 0.2,0.9 0.2,0.3 0.6,0.8 0.8,1 -0.1,0.3 -1.1,2.5 -1.1,2.5 0,0 -0.1,0.2 -0.1,0.6 0,0.1 0,0.2 0.1,0.4 -2.4,-2.1 -5,-4.6 -8.2,-7.5 -0.4,-0.4 -0.6,-1 -0.6,-1.5 0,-0.3 0.1,-0.6 0.1,-0.6 v -0.1 -0.1 l -0.6,-1.3 -0.3,0.6 -2.2,4.9 v 0 c -0.1,0.3 -0.2,0.8 -0.2,1.1 0,0.7 0.3,1.3 0.9,1.9 -0.2,0.3 -1.2,2.6 -1.2,2.6 v 0 c -0.1,0.3 -0.2,0.7 -0.2,1 0,1.2 1,2.1 1.7,2.6 -0.2,0.4 -1.1,2.5 -1.1,2.5 -0.1,0.2 -0.2,0.4 -0.2,0.8 0,1.1 1.2,1.9 2,2.4 l 0.2,0.1 c 0.3,0.2 8.8,5.3 16.9,10.1 -1.9,0 -8.5,0 -8.5,0 -1.2,0 -1.7,-0.3 -1.7,-0.3 l -0.4,-0.1 h -0.1 -1.8 l 7.8,7.5 c 0.7,0.7 1.5,1.1 3.6,0.6 0.7,-0.2 3.5,-1.1 4.3,-1.3 0.2,0.1 1.9,0.8 2,0.9 1.9,2.6 4,4.1 5,4.8 0,0.2 -0.1,0.3 -0.1,0.6 0,0.6 0.2,1 0.3,1 l 0.6,1 0.4,-1 c 0.3,-0.8 1.2,-1.2 1.8,-1.1 0.2,0 0.2,0.6 0.2,0.8 l -0.1,0.7 c 0,0 0.6,-0.3 0.9,-0.7 1.2,-1.1 0.9,-2.2 0.4,-2.7 -0.4,-0.6 -1.2,-0.7 -2.1,-0.4 0,-0.1 -0.7,-1.1 -0.8,-1.6 0.3,-0.2 1.1,-0.7 1.2,-0.7 0.2,0 1,0.2 1.2,0.2 0.1,0.1 0.2,0.4 0.2,0.4 h 0.2 c 1.7,0.2 2,0.3 2.1,0.4 0,0.1 -0.1,0.3 -0.4,0.6 -0.3,0.3 -0.6,0.4 -0.6,0.4 0,0 0.3,0.1 0.7,0.2 0.3,0 2,0.1 2.9,-1.1 0,0 0.2,-0.3 0.2,-0.7 0.2,-0.7 0,-1.4 -1,-2.2 z"
   class="st5" />
					<path
   inkscape:connector-curvature="0"
   id="path855"
   d="m 94.2,58.2 c -0.8,1.2 -2.6,1.1 -2.6,1.1 0,0 0.6,-0.3 0.6,-0.8 0.1,-0.6 -2.5,-0.8 -2.5,-0.8 L 89.5,57.4 88,57 c 0,0 -1.3,0.7 -1.7,0.9 0.2,0.3 0.9,1.8 1.1,2 0.4,-0.1 1.6,-0.4 2,0.2 0.8,1 -0.3,2.1 -0.4,2.2 -0.1,0.1 -0.3,0.2 -0.3,0.2 0,0 0.2,-1.1 -0.3,-1.2 -0.7,-0.1 -1.7,0.3 -2.1,1.2 L 86,63.1 85.8,62.7 c 0,0 -0.2,-0.4 -0.2,-0.9 0,-0.2 0,-0.4 0.1,-0.7 -0.8,-0.4 -3.1,-2.1 -5.1,-4.9 -0.1,0 -2,-0.9 -2.2,-1 -0.6,0.2 -3.7,1.1 -4.4,1.3 -2,0.6 -2.6,0.1 -3.2,-0.4 l -7.2,-6.8 h 0.9 c 0,0 0.6,0.4 1.9,0.4 0,0 8.1,0 9.7,0 -8.3,-5 -17.7,-10.5 -18,-10.7 l -0.2,-0.1 c -0.7,-0.3 -1.8,-1 -1.8,-2 0,-0.2 0,-0.3 0.1,-0.6 0,0 1.2,-2.6 1.2,-2.7 -0.6,-0.4 -1.8,-1.2 -1.8,-2.5 0,-0.2 0,-0.6 0.2,-0.8 v 0 c 0,0 1.3,-2.7 1.3,-2.8 -0.6,-0.6 -0.9,-1.2 -0.9,-1.9 0,-0.3 0.1,-0.7 0.2,-1 v 0 0 l 2.2,-4.8 0.3,0.7 c 0,0 -0.1,0.2 -0.1,0.6 0,0.4 0.1,1.1 0.7,1.7 0,0 22.3,20.4 22.3,20.5 L 68.8,31 c -0.9,-0.8 -0.4,-1.6 -0.4,-1.6 l 1.2,-2.7 c 0,0 -0.6,-0.7 -0.9,-1.1 -0.3,-0.4 -0.1,-1.3 -0.1,-1.3 l 1.6,-3.4 0.3,0.7 c 0,0 -0.2,0.8 0.6,1.7 0.3,0.6 12,13.7 13,14.8 4.9,5.8 3.5,11.2 3.5,11.2 0,0 3.2,3.1 4.7,4.4 1.5,1.2 0.8,2.7 0.8,2.7 1.7,1.1 1.1,1.8 1.1,1.8 z"
   class="st5" />
				</g>
				<path
   inkscape:connector-curvature="0"
   id="path859"
   d="M 83.6,45.8 59.4,23.2 c -1.1,-1.1 -0.7,-2.6 -0.7,-2.6 l -2,4.4 c -0.6,1.3 0.3,2.2 0.9,2.7 0.6,0.5 19.4,15.7 19.4,15.7 v 0.7 L 58.3,29.7 C 57.4,29 57.5,27.9 57.5,27.9 l -1.3,2.8 c -0.7,1.6 1,2.6 1.7,3 0.7,0.4 19.3,13.4 19.3,13.4 l 0.1,0.8 c 0,0 -18,-12 -18.7,-12.4 -0.8,-0.4 -0.8,-1.7 -0.8,-1.7 l -1.3,2.8 c -0.6,1.1 1,1.9 1.7,2.4 0.4,0.2 10.5,6.3 18.8,11.2 H 66.1 C 64.5,50.2 64,49.8 64,49.8 l 1.5,1.3 c 0.2,0.2 0.9,1 1.9,1 0.7,0 4,0 4,0 l 0.8,0.3 -3.5,0.2 c -0.7,0 -0.9,0.1 -1.8,-0.4 l 1.6,1.5 c 0.4,0.3 0.8,0.8 1.6,0.7 0.8,-0.1 5.1,-0.8 5.1,-0.8 l 0.7,0.3 -4.6,1 c -1,0.2 -1.8,-0.3 -1.8,-0.3 0,0 0.9,0.9 1.5,1.5 0.6,0.6 1.1,0.9 3,0.4 0.8,-0.2 4.5,-1.3 4.5,-1.3 l 2.4,1 c 2.5,3.4 5.4,5.1 5.4,5.1 -0.6,0.7 -0.1,1.5 -0.1,1.5 0.4,-1 1.6,-1.6 2.5,-1.5 0.8,0.1 0.6,1 0.6,1 0.4,-0.6 0.8,-1.2 0.3,-1.8 -0.7,-0.8 -2.1,-0.1 -2.1,-0.1 L 86,57.8 87.9,56.7 c 1,-6.4 -4.3,-10.9 -4.3,-10.9 z"
   class="st2" />
				<path
   inkscape:connector-curvature="0"
   id="path861"
   d="m 82.4,36.4 c -0.3,-0.3 -11.6,-13 -11.6,-13 -1,-1.1 -0.7,-1.9 -0.6,-2 l -1.3,2.9 c -0.3,0.8 0.2,1.3 0.7,1.8 C 70,26.7 81.7,39 81.7,39 v 0.7 L 70.5,28.5 c -0.9,-0.9 -0.7,-1.6 -0.6,-1.7 l -1.2,2.7 c -0.2,0.8 0.6,1.3 1.2,2 0.6,0.6 13,12.2 14,13.2 2.1,2 3.2,4.6 3.2,4.6 1.3,-6.5 -3.5,-11.4 -4.7,-12.9 z"
   class="st2" />
				<path
   inkscape:connector-curvature="0"
   id="path863"
   d="m 91.9,56.4 c -0.1,-0.8 -1,-1.9 -1,-1.9 0,0 1.8,1.7 1.9,1.8 0,0 0.6,-1.2 -0.6,-2.4 -1.7,-1.6 -5,-4.6 -5,-4.6 0.2,0.8 1.6,3.1 0.9,7.5 l 1.7,0.3 0.2,0.3 c 0,0 1.9,0.2 2.2,0.6 0,0 0.7,0.4 0,1.1 0,0 1.1,-0.2 1.7,-0.8 0,0 0.6,-0.4 -0.1,-1.1 l -1,-0.9 c -0.3,-0.2 -0.9,0.1 -0.9,0.1 z"
   class="st2" />
			</g>
		</g>
		<g
   id="g873">
			<path
   inkscape:connector-curvature="0"
   id="path869"
   d="m 88.6,48.4 v 0 l -0.2,0.1 v 0.7 h -0.1 v -0.7 h -0.2 v -0.1 c 0,0 0.5,0 0.5,0 z"
   class="st2" />
			<path
   inkscape:connector-curvature="0"
   id="path871"
   d="m 88.8,48.4 v 0 l 0.3,0.7 0.2,-0.7 h 0.1 v 0.8 h -0.1 v -0.4 c 0,0 0,0 0,-0.1 v -0.1 l -0.2,0.7 H 89 l -0.2,-0.7 v 0 c 0,0 0,0 0,0.1 v 0.1 0.4 h -0.1 z"
   class="st2" />
		</g>
	</g>
</g>
<g
   id="g896"
   class="st4">
	<g
   id="g894"
   class="st6">
		<path
   id="path878"
   d="M37,128.1v-12.9h8.8v2.8h-5.6v2.2H45v2.8h-4.8v2.3h5.6v2.8H37z"
   class="st2" />
		<path
   id="path880"
   d="M52.4,128.2c-2,0-3.6-0.4-4.9-1.7l2-2c0.7,0.7,1.8,0.9,2.9,0.9c1.2,0,1.8-0.4,1.8-1.2c0-0.3-0.1-0.6-0.3-0.8    c-0.2-0.2-0.4-0.3-0.9-0.3l-1.6-0.2c-1.1-0.2-2-0.5-2.6-1.1s-0.9-1.5-0.9-2.6c0-2.4,1.8-4.1,4.7-4.1c1.8,0,3.2,0.4,4.3,1.5l-2,2    c-0.8-0.8-1.9-0.8-2.4-0.8c-1.1,0-1.6,0.6-1.6,1.2c0,0.2,0.1,0.4,0.3,0.6s0.4,0.3,0.9,0.4l1.6,0.2c1.2,0.2,2,0.5,2.5,1.1    c0.7,0.7,1,1.6,1,2.8C57.3,126.7,55.1,128.2,52.4,128.2z"
   class="st2" />
		<path
   id="path882"
   d="M64.9,118v10.1h-3.2V118h-3.2v-2.8H68v2.8H64.9z"
   class="st2" />
		<path
   id="path884"
   d="M68.5,128.1v-3.3h3.3v3.3H68.5z"
   class="st2" />
		<path
   id="path886"
   d="M80.3,128.1v-9.7l-2.8,2.4v-3.2l2.8-2.4h3v12.9H80.3z"
   class="st2" />
		<path
   id="path888"
   d="M90.6,128.2c-2.4,0-4.3-1.3-4.3-4c0-1.6,1-2.4,1.5-2.8c-0.5-0.4-1.3-1.2-1.3-2.6c0-2.4,2-3.8,4.2-3.8    s4.2,1.4,4.2,3.8c0,1.4-0.9,2.2-1.3,2.6c0.5,0.4,1.5,1.2,1.5,2.8C94.9,126.9,92.9,128.2,90.6,128.2z M90.6,122.8    c-0.7,0-1.4,0.6-1.4,1.4s0.6,1.4,1.4,1.4c0.7,0,1.4-0.6,1.4-1.4S91.3,122.8,90.6,122.8z M90.6,117.7c-0.7,0-1.2,0.5-1.2,1.2    s0.5,1.2,1.2,1.2s1.2-0.5,1.2-1.2C91.8,118.3,91.3,117.7,90.6,117.7z"
   class="st2" />
		<path
   id="path890"
   d="M103.7,123l-2.5,5.1h-3.3l2.6-5.1c-0.3,0.1-0.5,0.1-0.7,0.1c-1.6,0-3.4-1.3-3.4-3.9c0-2.7,2-4.1,4.3-4.1    s4.3,1.4,4.3,4.1C104.9,120.5,104.3,121.7,103.7,123z M100.6,117.7c-0.7,0-1.3,0.5-1.3,1.5s0.6,1.5,1.3,1.5c0.7,0,1.3-0.5,1.3-1.5    C101.9,118.3,101.3,117.7,100.6,117.7z"
   class="st2" />
		<path
   id="path892"
   d="M110.9,128.2c-2.1,0-4.2-1.4-4.2-4v-5.1c0-2.7,2-4,4.2-4c2.1,0,4.1,1.4,4.1,4v5.1    C115,126.8,113,128.2,110.9,128.2z M112.1,119.1c0-0.9-0.5-1.3-1.2-1.3c-0.6,0-1.2,0.4-1.2,1.3v5.1c0,0.9,0.5,1.3,1.2,1.3    c0.6,0,1.2-0.4,1.2-1.3V119.1z"
   class="st2" />
	</g>
</g>
</svg>
