<?xml version="1.0" encoding="UTF-8" standalone="no"?>
<svg
   xmlns:dc="http://purl.org/dc/elements/1.1/"
   xmlns:cc="http://creativecommons.org/ns#"
   xmlns:rdf="http://www.w3.org/1999/02/22-rdf-syntax-ns#"
   xmlns:svg="http://www.w3.org/2000/svg"
   xmlns="http://www.w3.org/2000/svg"
   xmlns:sodipodi="http://sodipodi.sourceforge.net/DTD/sodipodi-0.dtd"
   xmlns:inkscape="http://www.inkscape.org/namespaces/inkscape"
   id="svg"
   version="1.1"
   width="1000"
   height="500"
   viewBox="0 0 1000 500"
   sodipodi:docname="upliftstress.svg"
   inkscape:version="1.0rc1 (09960d6, 2020-04-09)">
  <metadata
     id="metadata4982">
    <rdf:RDF>
      <cc:Work
         rdf:about="">
        <dc:format>image/svg+xml</dc:format>
        <dc:type
           rdf:resource="http://purl.org/dc/dcmitype/StillImage" />
        <dc:title></dc:title>
      </cc:Work>
    </rdf:RDF>
  </metadata>
  <defs
     id="defs4980" />
  <sodipodi:namedview
     inkscape:document-rotation="0"
     pagecolor="#ffffff"
     bordercolor="#666666"
     borderopacity="1"
     objecttolerance="10"
     gridtolerance="10"
     guidetolerance="10"
     inkscape:pageopacity="0"
     inkscape:pageshadow="2"
     inkscape:window-width="776"
     inkscape:window-height="480"
     id="namedview4978"
     showgrid="false"
     inkscape:zoom="0.23685103"
     inkscape:cx="508.42482"
     inkscape:cy="186.39884"
     inkscape:window-x="0"
     inkscape:window-y="23"
     inkscape:window-maximized="0"
     inkscape:current-layer="svg" />
  <g
     id="svgg"
     transform="matrix(2.5544296,0,0,2.4536069,-22.546756,-3.6095528)">
    <path
       id="path10"
       d="m 334.613,47.426 c -13.943,0.791 -19.746,9.246 -19.747,28.767 0,2.746 -0.046,4.992 -0.103,4.992 -0.213,0 -12.349,2.185 -13.446,2.421 l -1.152,0.248 v 1.954 1.954 l 7.295,0.057 7.296,0.058 0.055,35.93 0.056,35.93 h 3.4 3.399 l 0.056,-35.93 0.055,-35.93 9.161,-0.057 9.161,-0.057 v -2.958 -2.957 l -9.161,-0.057 -9.161,-0.058 0.028,-5.818 c 0.059,-12.559 2.07,-18.213 7.433,-20.892 3.692,-1.846 10.77,-1.985 17.396,-0.342 1,0.248 1.846,0.413 1.881,0.367 0.142,-0.189 1.655,-5.774 1.583,-5.846 -0.982,-0.982 -10.413,-2.064 -15.485,-1.776 m -89.961,56.469 v 55.842 h 3.51 3.511 V 103.895 48.053 h -3.511 -3.51 v 55.842 m 36.313,-50.633 c -3.294,0.509 -4.958,5.312 -3.536,10.204 1.313,4.515 6.549,4.467 8.151,-0.073 1.793,-5.082 -0.777,-10.724 -4.615,-10.131 m 78.025,10.973 c -0.142,0.694 -0.55,2.743 -0.906,4.553 -1.898,9.653 -2.328,11.567 -2.635,11.73 -0.176,0.094 -1.999,0.637 -4.05,1.208 -2.052,0.571 -4.545,1.278 -5.541,1.572 l -1.81,0.534 v 1.968 1.967 h 5.815 5.814 l 0.002,25.069 c 0.003,30.844 0.058,31.996 1.789,37.227 3.222,9.741 15.337,13.723 29.422,9.67 l 0.823,-0.236 v -2.733 c 0,-2.042 -0.07,-2.731 -0.275,-2.728 -0.151,0.003 -1.064,0.152 -2.029,0.333 -2.547,0.476 -10.807,0.683 -12.737,0.319 -3.802,-0.717 -6.268,-2.699 -7.985,-6.414 -1.743,-3.774 -1.646,-1.927 -1.718,-32.915 l -0.064,-27.592 h 11.417 11.416 v -2.962 -2.962 h -11.41 -11.41 v -9.435 -9.435 h -1.834 -1.835 l -0.259,1.262 M 184.86,80.636 c -8.219,1.149 -15.291,5.222 -19.159,11.035 -1.211,1.82 -1.393,1.596 -1.833,-2.26 -0.207,-1.809 -0.492,-4.252 -0.633,-5.429 l -0.256,-2.139 h -2.938 -2.937 v 56.61 56.61 h 3.51 3.511 l -0.002,-13.768 c -0.002,-13.235 -0.269,-28.342 -0.564,-31.947 -0.187,-2.271 0.215,-2.23 1.877,0.188 5.169,7.523 13.829,11.562 24.8,11.566 21.783,0.01 33.747,-16.38 32.448,-44.449 C 221.489,90.815 207.479,77.475 184.86,80.636 m 93.143,40.154 v 38.947 h 3.511 3.511 V 120.79 81.843 h -3.511 -3.511 V 120.79 M 195.455,86.988 c 13.235,2.015 20.026,13.594 20.012,34.12 -0.009,12.039 -2.658,20.717 -8.212,26.898 -4.297,4.782 -9.709,6.907 -17.568,6.899 -15.458,-0.016 -22.893,-7.116 -25.158,-24.022 -0.407,-3.037 -0.41,-18.782 -0.004,-21.393 2.217,-14.268 8.03,-20.619 20.664,-22.581 1.972,-0.306 8.042,-0.259 10.266,0.079"
       stroke="none"
       fill="#ffffff"
       fill-rule="evenodd"
       inkscape:connector-curvature="0" />
    <path
       id="path2"
       d="m 32.311,88.371 0.069,45.145 0.588,3.38 c 3.701,21.259 18.226,35.453 39.001,38.111 0.423,0.054 1.657,0.251 2.743,0.439 4.347,0.749 17.243,0.746 21.85,-0.007 1.157,-0.189 2.391,-0.382 2.743,-0.43 18.511,-2.501 32.936,-14.53 37.654,-31.4 2.3,-8.223 2.218,-6.445 2.309,-49.885 l 0.079,-37.817 -2.038,2.674 c -4.352,5.713 -7.375,9.66 -9.059,11.832 -0.965,1.245 -1.903,2.479 -2.084,2.742 -0.181,0.264 -0.823,1.113 -1.427,1.886 -0.603,0.774 -1.245,1.623 -1.426,1.887 -0.181,0.265 -0.951,1.282 -1.712,2.261 l -1.383,1.781 0.017,23.147 c 0.015,19.894 -0.032,23.556 -0.332,26.054 -2.229,18.521 -13.77,27.906 -34.33,27.916 -19.294,0.009 -30.033,-7.907 -33.63,-24.79 L 51.242,130.005 51.175,94.679 C 51.138,75.25 51.164,59.127 51.232,58.852 c 0.121,-0.49 0.177,-0.499 2.696,-0.439 l 2.572,0.062 0.12,35.107 c 0.128,37.335 0.088,36.028 1.235,40.812 2.901,12.107 12.288,18.321 27.676,18.321 16.583,0 25.511,-6.509 28.406,-20.711 0.433,-2.122 1.001,-43.579 0.597,-43.578 -0.061,0 -0.249,0.222 -0.417,0.493 -0.283,0.459 -1.641,2.24 -9.24,12.123 -1.578,2.052 -3.728,4.866 -4.778,6.254 l -1.909,2.523 -0.134,8.557 c -0.203,13.078 -1.177,16.086 -5.972,18.444 -6.654,3.272 -15.561,0.57 -17.762,-5.388 -1.209,-3.275 -1.128,-0.136 -1.199,-46.023 L 73.058,43.225 H 52.65 32.242 l 0.069,45.146 M 98.08,71.311 c 0,15.447 0.074,28.085 0.165,28.085 0.09,0 1.003,-1.097 2.029,-2.437 1.026,-1.34 2.903,-3.783 4.17,-5.43 1.268,-1.646 2.897,-3.774 3.621,-4.728 0.723,-0.954 1.743,-2.287 2.266,-2.962 0.523,-0.675 1.355,-1.771 1.85,-2.435 0.494,-0.663 1.231,-1.618 1.637,-2.12 l 0.74,-0.913 0.044,-9.948 0.044,-9.948 h 2.743 2.743 l 0.114,6.473 c 0.063,3.56 0.142,6.275 0.174,6.034 0.059,-0.44 0.402,-0.945 2.235,-3.287 0.543,-0.694 1.135,-1.478 1.316,-1.742 0.181,-0.264 1.39,-1.858 2.685,-3.54 4.077,-5.296 8.508,-11.079 10.629,-13.874 l 2.046,-2.694 v -1.31 -1.31 H 118.705 98.08 v 28.086"
       stroke="none"
       fill="#000000"
       fill-rule="evenodd"
       inkscape:connector-curvature="0" />
    <path
       id="path3"
       d="m 168.298,12.23 c -0.179,0.071 -0.458,0.26 -0.619,0.422 -0.162,0.161 -0.465,0.294 -0.673,0.294 -0.209,0 -0.475,0.095 -0.591,0.211 -0.347,0.348 -4.518,2.438 -5.581,2.798 -0.543,0.183 -1.037,0.396 -1.097,0.472 -0.061,0.077 -1.64,0.889 -3.511,1.806 -9.288,4.553 -12.937,6.324 -13.992,6.79 -1.394,0.617 -1.38,0.685 0.415,2.075 0.78,0.604 1.621,1.295 1.87,1.536 0.25,0.241 0.777,0.686 1.173,0.988 0.396,0.301 0.877,0.721 1.068,0.932 0.191,0.211 0.426,0.384 0.521,0.384 0.094,0 0.452,0.249 0.793,0.554 0.342,0.304 0.806,0.688 1.031,0.853 0.394,0.288 0.386,0.336 -0.214,1.256 -0.824,1.266 -3.308,4.655 -4.32,5.894 -0.444,0.543 -1.088,1.393 -1.432,1.889 -0.345,0.496 -1.297,1.78 -2.116,2.853 -0.82,1.073 -2.041,2.691 -2.714,3.596 -0.673,0.905 -1.291,1.695 -1.374,1.756 -0.083,0.06 -0.361,0.455 -0.618,0.877 -0.257,0.423 -0.647,0.966 -0.866,1.207 -0.22,0.242 -0.832,1.02 -1.36,1.73 -0.529,0.709 -1.102,1.45 -1.272,1.645 -0.171,0.195 -0.976,1.244 -1.789,2.33 -0.814,1.086 -3.426,4.512 -5.805,7.612 -2.379,3.101 -4.325,5.755 -4.325,5.899 0,0.448 -4.993,6.887 -6.112,7.882 -0.204,0.181 -1.504,1.81 -2.889,3.62 -1.385,1.81 -3.049,3.983 -3.698,4.828 -1.137,1.482 -3.093,4.056 -5.167,6.802 -1.16,1.536 -1.136,1.505 -3.481,4.481 -3.587,4.553 -3.905,4.962 -4.269,5.502 -0.203,0.302 -0.793,1.053 -1.31,1.67 -0.517,0.616 -0.941,1.233 -0.941,1.371 0,0.138 -0.093,0.251 -0.207,0.251 -0.114,0 -0.336,0.235 -0.494,0.522 -0.254,0.464 -1.654,2.323 -2.416,3.208 -0.156,0.181 -0.847,1.07 -1.536,1.975 -0.689,0.905 -1.701,2.203 -2.249,2.886 -0.548,0.682 -0.997,1.338 -0.997,1.457 0,0.12 -0.148,0.274 -0.329,0.344 -0.181,0.069 -0.329,0.26 -0.329,0.424 0,0.164 -0.257,0.537 -0.572,0.829 -0.314,0.293 -0.875,0.977 -1.246,1.52 -0.371,0.543 -1.102,1.491 -1.623,2.108 -0.521,0.616 -0.947,1.188 -0.947,1.271 0,0.178 -0.142,0.366 -1.259,1.667 -0.466,0.543 -1.029,1.284 -1.252,1.646 -0.224,0.362 -0.538,0.806 -0.7,0.987 -2.352,2.633 -2.444,2.991 -1.282,4.95 1.731,2.917 2.559,3.166 3.693,1.11 0.869,-1.575 0.986,-1.745 1.332,-1.939 0.19,-0.106 0.345,-0.296 0.345,-0.421 0,-0.126 0.494,-0.782 1.098,-1.459 0.603,-0.677 1.097,-1.32 1.097,-1.429 0,-0.109 0.444,-0.693 0.987,-1.297 0.543,-0.604 0.987,-1.199 0.987,-1.322 0,-0.124 0.495,-0.829 1.1,-1.567 1.745,-2.131 3.785,-4.772 4.482,-5.8 0.353,-0.521 1.019,-1.376 1.479,-1.899 0.461,-0.524 0.839,-1.036 0.839,-1.138 10e-4,-0.102 0.544,-0.794 1.207,-1.537 0.663,-0.744 1.206,-1.425 1.206,-1.514 0,-0.089 0.346,-0.583 0.768,-1.099 0.422,-0.515 0.768,-1.044 0.768,-1.174 0,-0.131 0.148,-0.237 0.329,-0.237 0.181,0 0.329,-0.093 0.329,-0.207 0,-0.193 1.879,-2.74 4.922,-6.67 0.732,-0.946 1.476,-1.934 1.652,-2.194 0.176,-0.261 0.571,-0.784 0.878,-1.163 0.639,-0.791 0.965,-1.216 2.334,-3.041 0.543,-0.724 1.106,-1.468 1.251,-1.652 0.145,-0.185 0.611,-0.777 1.037,-1.317 0.425,-0.539 1.018,-1.35 1.316,-1.802 0.299,-0.452 0.601,-0.822 0.671,-0.823 0.07,-10e-4 0.451,-0.501 0.847,-1.111 0.395,-0.611 1.377,-1.82 2.181,-2.688 2.057,-2.221 4.69,-5.594 5.138,-6.582 0.358,-0.792 18.687,-24.909 19.459,-25.605 0.2,-0.181 1.046,-1.218 1.879,-2.304 0.833,-1.086 1.593,-2.074 1.689,-2.194 0.096,-0.121 2.554,-3.33 5.462,-7.131 2.908,-3.802 5.414,-7.047 5.569,-7.212 0.32,-0.34 0.562,-0.188 4.426,2.762 4.423,3.377 4.769,3.6 4.937,3.181 0.083,-0.207 0.455,-2.006 0.827,-3.997 0.372,-1.992 1.359,-7.225 2.194,-11.63 0.835,-4.404 1.724,-9.144 1.976,-10.532 0.252,-1.387 0.541,-2.943 0.643,-3.455 0.187,-0.952 0.101,-1.058 -0.631,-0.771 M 51.638,59.145 c -0.049,0.127 -0.053,16.172 -0.009,35.656 0.085,38.313 -0.003,35.396 1.221,40.583 3.503,14.852 15.308,22.67 33.706,22.322 18.363,-0.347 28.807,-8.1 32.438,-24.08 l 0.672,-2.962 0.064,-23.807 0.064,-23.807 -0.666,0.768 c -0.367,0.422 -1.426,1.7 -2.355,2.839 l -1.688,2.07 -0.126,20.639 c -0.138,22.691 -0.051,21.168 -1.522,26.564 -2.441,8.949 -9.713,14.956 -20.111,16.611 -6.547,1.043 -16.961,0.412 -20.589,-1.246 -0.362,-0.166 -0.954,-0.372 -1.316,-0.459 -6.004,-1.444 -12.209,-8.725 -14.056,-16.496 -1.099,-4.622 -1.039,-2.575 -1.176,-40.209 L 56.061,58.914 h -2.167 c -1.317,0 -2.202,0.091 -2.256,0.231 m 63.337,8.758 c 0,5.012 0.083,9.113 0.184,9.113 0.102,0 0.867,-0.862 1.701,-1.914 0.834,-1.053 1.888,-2.345 2.343,-2.87 l 0.826,-0.955 -0.059,-6.182 -0.058,-6.181 -2.468,-0.062 -2.469,-0.062 v 9.113 m -72.173,99.568 c -1.7,2.082 -3.313,4.045 -3.583,4.364 -0.27,0.318 -0.689,0.835 -0.93,1.149 -0.242,0.313 -0.686,0.857 -0.988,1.207 -0.302,0.351 -0.795,0.938 -1.097,1.306 -0.302,0.368 -0.822,0.996 -1.157,1.395 -0.335,0.4 -0.828,1 -1.097,1.333 -0.269,0.334 -0.736,0.893 -1.037,1.243 -0.302,0.35 -0.796,0.945 -1.097,1.322 -0.302,0.377 -0.766,0.927 -1.03,1.223 -0.265,0.297 -0.562,0.678 -0.659,0.849 -0.097,0.17 -0.588,0.788 -1.091,1.373 -0.504,0.585 -1.23,1.434 -1.614,1.887 -0.384,0.452 -0.884,0.823 -1.112,0.823 -0.473,0 -1.252,1.137 -1.837,2.683 -1.13,2.982 2.816,4.702 4.953,2.16 0.362,-0.431 0.925,-1.109 1.25,-1.507 0.325,-0.397 0.887,-1.052 1.249,-1.455 0.696,-0.774 1.334,-1.526 2.414,-2.845 0.362,-0.443 0.856,-1.044 1.097,-1.337 0.241,-0.292 0.686,-0.845 0.987,-1.229 0.302,-0.383 0.753,-0.906 1.003,-1.162 0.25,-0.256 0.609,-0.712 0.797,-1.013 0.189,-0.302 1.07,-1.399 1.959,-2.439 0.89,-1.039 1.887,-2.224 2.217,-2.633 0.33,-0.408 2.176,-2.668 4.103,-5.022 l 3.504,-4.278 -0.812,-0.705 c -1.953,-1.694 -2.936,-2.477 -3.111,-2.477 -0.104,0 -1.58,1.703 -3.281,3.785"
       stroke="none"
       fill="#08baf9"
       fill-rule="evenodd"
       inkscape:connector-curvature="0" />

  </g>
</svg>
