<?xml version="1.0" encoding="UTF-8" standalone="no"?>
<svg
   xmlns:dc="http://purl.org/dc/elements/1.1/"
   xmlns:cc="http://creativecommons.org/ns#"
   xmlns:rdf="http://www.w3.org/1999/02/22-rdf-syntax-ns#"
   xmlns:svg="http://www.w3.org/2000/svg"
   xmlns="http://www.w3.org/2000/svg"
   xmlns:sodipodi="http://sodipodi.sourceforge.net/DTD/sodipodi-0.dtd"
   xmlns:inkscape="http://www.inkscape.org/namespaces/inkscape"
   inkscape:version="1.0rc1 (09960d6, 2020-04-09)"
   sodipodi:docname="vicaya.svg"
   version="1.1"
   viewBox="0 0 1000 500.00002"
   height="500"
   width="1000"
   id="svg">
  <metadata
     id="metadata7869">
    <rdf:RDF>
      <cc:Work
         rdf:about="">
        <dc:format>image/svg+xml</dc:format>
        <dc:type
           rdf:resource="http://purl.org/dc/dcmitype/StillImage" />
        <dc:title></dc:title>
      </cc:Work>
    </rdf:RDF>
  </metadata>
  <defs
     id="defs7867" />
  <sodipodi:namedview
     inkscape:current-layer="svg"
     inkscape:window-maximized="0"
     inkscape:window-y="23"
     inkscape:window-x="0"
     inkscape:cy="195.68857"
     inkscape:cx="437.02109"
     inkscape:zoom="0.30661116"
     showgrid="false"
     id="namedview7865"
     inkscape:window-height="584"
     inkscape:window-width="910"
     inkscape:pageshadow="2"
     inkscape:pageopacity="0"
     guidetolerance="10"
     gridtolerance="10"
     objecttolerance="10"
     borderopacity="1"
     bordercolor="#666666"
     pagecolor="#ffffff" />
  <g
     transform="matrix(2.4639399,0,0,2.4275374,4.4522689,104.01487)"
     id="svgg">
    <path
       inkscape:connector-curvature="0"
       fill-rule="evenodd"
       fill="#0544ac"
       stroke="none"
       d="m 10.668,5.087 c -2.732,1.239 -3.24,5.761 -1.742,15.496 0.516,3.349 1.581,9.869 1.826,11.167 0.138,0.733 0.402,2.196 0.587,3.25 0.494,2.819 2.021,10.94 2.743,14.583 2.399,12.113 2.988,15.046 3.416,17 0.181,0.825 0.628,2.888 0.995,4.584 1.158,5.359 2.825,12.542 3.501,15.083 0.195,0.733 0.582,2.196 0.859,3.25 2.757,10.474 3.989,12.702 9.207,16.651 6.54,4.949 10.787,1.083 19.019,-17.318 0.717,-1.604 1.509,-3.366 1.758,-3.916 0.526,-1.161 2.538,-5.703 3.913,-8.834 2.199,-5.01 3.087,-6.971 5.208,-11.5 C 62.981,62.399 69.751,48.958 72.578,43.5 85.594,18.367 87.068,13.516 82.935,9.405 79.41,5.897 74.222,4.022 71.608,5.309 68.434,6.871 62.574,16.033 58.001,26.583 c -0.398,0.917 -1.001,2.267 -1.342,3 -1.816,3.914 -6.84,16.089 -10.247,24.834 -2.084,5.35 -7.492,19.648 -8.336,22.042 -0.17,0.481 -0.365,0.819 -0.434,0.75 C 37.404,76.97 35.66,64.971 34.919,58.469 34.693,56.48 34.468,54.568 34.419,54.219 34.371,53.869 34.18,52.121 33.996,50.333 33.811,48.546 33.581,46.447 33.485,45.669 33.389,44.892 33.013,41.629 32.65,38.419 32.287,35.21 31.882,31.646 31.751,30.5 30.568,20.187 28.419,15.135 23.086,10.13 19.123,6.411 13.122,3.974 10.668,5.087 m 90.304,1.81 c -2.288,0.941 -5.077,3.798 -6.535,6.695 -2.207,4.386 -1.128,7.86 4.063,13.078 5.427,5.456 9.429,6.851 13.158,4.585 4.513,-2.741 4.512,-7.208 -0.003,-15.506 C 107.383,7.897 104.45,5.466 100.972,6.897 m -6.119,28.724 c -2.39,0.451 -4.282,6.189 -7.106,21.546 -0.312,1.695 -0.722,3.833 -0.911,4.75 -0.71,3.431 -1.51,7.189 -1.67,7.833 -0.091,0.367 -0.55,2.354 -1.021,4.417 -1.067,4.677 -1.147,5.02 -1.888,8.083 -3.049,12.606 -3.83,17.844 -3.046,20.432 1.849,6.099 9.751,7.782 13.136,2.798 0.677,-0.998 1.351,-2.856 3.404,-9.397 0.518,-1.65 1.044,-3.3 1.169,-3.666 0.563,-1.66 4.166,-13.54 5.736,-18.917 0.656,-2.246 1.447,-4.946 1.758,-6 0.312,-1.054 0.678,-2.329 0.813,-2.833 0.136,-0.505 0.516,-1.892 0.843,-3.084 2.298,-8.355 2.494,-10.42 1.336,-14.085 -1.922,-6.084 -6.488,-11.15 -10.666,-11.834 -1.021,-0.167 -1.211,-0.171 -1.887,-0.043 m 131.397,0.05 c -12.73,1.37 -28.881,17.906 -37.657,38.554 -6.033,14.197 -4.869,20.805 5.157,29.264 9.612,8.111 17.732,6.498 31.296,-6.217 1.263,-1.183 2.317,-2.123 2.343,-2.087 0.026,0.036 0.37,1.04 0.764,2.232 2.016,6.088 5.91,11.086 8.633,11.082 2.923,-0.004 4.562,-2.914 5.866,-10.416 1.786,-10.267 2.522,-13.555 4.59,-20.5 1.32,-4.429 1.19,-6.284 -0.568,-8.143 -1.038,-1.098 -1.063,-0.812 0.315,-3.646 4.816,-9.905 3.698,-15.586 -4.518,-22.963 -6.345,-5.697 -10.946,-7.728 -16.221,-7.16 m 51.867,0.062 c -2.378,0.877 -4.902,4.011 -7.666,9.517 -1.057,2.108 -2.284,4.707 -2.284,4.841 0,0.036 -0.181,0.462 -0.402,0.946 -1.186,2.597 -3.955,10.526 -4.992,14.296 -4.112,14.953 -4.996,23.762 -2.937,29.292 1.905,5.115 8.085,11.575 12.816,13.396 4.918,1.893 12.259,-2.021 19.283,-10.279 1.499,-1.763 1.997,-2.229 1.817,-1.7 -0.039,0.114 -0.492,1.633 -1.008,3.375 -0.515,1.741 -1.312,4.366 -1.77,5.833 -0.458,1.467 -1.169,3.829 -1.58,5.25 -2.797,9.669 -4.924,15.435 -6.832,18.52 -1.877,3.034 -3.161,3.907 -5.159,3.506 -2.319,-0.466 -3.585,-1.433 -9.764,-7.457 -7.176,-6.997 -8.586,-7.282 -12.285,-2.487 -4.984,6.458 -4.51,11.193 1.646,16.458 7.604,6.502 19.579,9.151 28.333,6.266 8.659,-2.853 14.798,-11.331 20.496,-28.306 0.754,-2.246 2.296,-6.746 3.427,-10 1.131,-3.254 3.003,-8.654 4.159,-12 1.157,-3.346 2.631,-7.583 3.276,-9.417 2.515,-7.149 3.75,-10.768 6.056,-17.75 4.669,-14.134 4.982,-15.817 3.825,-20.583 -1.982,-8.169 -10.651,-14.372 -14.711,-10.527 -0.741,0.702 -0.852,0.938 -1.855,3.944 -3.958,11.855 -10.868,24.89 -19.924,37.582 -4.798,6.726 -11.1,12.955 -12.4,12.259 -0.989,-0.529 -0.117,-6.687 1.759,-12.425 0.648,-1.983 4.319,-11.343 5.228,-13.333 0.084,-0.183 0.84,-1.908 1.68,-3.833 0.84,-1.925 1.823,-4.175 2.184,-5 3.611,-8.247 3.515,-11.607 -0.451,-15.889 -2.94,-3.175 -7.581,-5.175 -9.965,-4.295 m 94.633,-0.135 c -3.505,0.478 -5.542,1.054 -8.191,2.313 -10.639,5.056 -23.302,20.278 -30.023,36.089 -5.732,13.483 -5.159,19.427 2.617,27.17 10.768,10.723 19.306,9.747 33.708,-3.852 2.663,-2.515 2.381,-2.391 2.718,-1.193 1.435,5.114 5.089,10.894 7.613,12.039 2.901,1.316 5.245,-0.831 6.374,-5.844 0.236,-1.047 0.501,-2.152 0.59,-2.456 0.088,-0.304 0.316,-1.504 0.505,-2.667 0.19,-1.162 0.455,-2.676 0.589,-3.364 0.135,-0.687 0.398,-2.112 0.585,-3.166 0.562,-3.163 2.246,-10.124 2.58,-10.665 0.301,-0.487 1.472,-5.687 1.542,-6.848 0.103,-1.706 -0.038,-2.081 -1.4,-3.732 l -0.926,-1.123 1.027,-2.071 c 4.811,-9.706 4.116,-14.986 -2.893,-21.992 -6.128,-6.124 -12.339,-9.277 -17.015,-8.638 m -217.14,0.33 c -15.446,2.403 -33.054,21.529 -38.195,41.489 -2.589,10.049 -0.922,15.565 6.844,22.657 7.942,7.252 14.003,9.424 22.408,8.031 10.855,-1.799 23.099,-8.973 26.065,-15.272 2.542,-5.396 -0.79,-8.311 -6.732,-5.889 -6.818,2.78 -11.392,3.633 -19.5,3.637 -8.883,0.004 -10.309,-0.996 -9.952,-6.981 0.451,-7.574 10.75,-22.406 19.315,-27.816 3.154,-1.992 6.298,-1.946 10.507,0.155 9.07,4.529 10.674,-3.841 2.624,-13.689 -4.467,-5.465 -8.041,-7.153 -13.384,-6.322 m 76.201,17.996 c 0.848,0.713 1.614,3.582 1.728,6.464 l 0.044,1.139 -0.832,0.319 c -0.95,0.364 -1.366,0.818 -1.514,1.654 -1.644,9.237 -7.008,16.746 -16.533,23.143 -5.441,3.654 -11.543,5.277 -12.213,3.248 -1.637,-4.961 8.929,-23.194 18.151,-31.321 4.413,-3.89 9.536,-6.021 11.169,-4.646 M 377.75,54.05 c 0.728,0.728 1.194,2.271 1.514,5.015 0.286,2.46 0.275,2.53 -0.423,2.683 -1.147,0.252 -1.614,0.948 -2.014,3.002 -0.538,2.762 -1.916,6.28 -3.608,9.215 -4.729,8.201 -16.379,16.702 -22.891,16.702 -2.142,0 -2.513,-0.714 -1.91,-3.675 1.73,-8.499 11.337,-23.039 19.636,-29.718 3.838,-3.088 8.336,-4.584 9.696,-3.224"
       id="path0" />
  </g>
</svg>
