<?xml version="1.0" encoding="UTF-8" standalone="no"?>
<svg
   xmlns:dc="http://purl.org/dc/elements/1.1/"
   xmlns:cc="http://creativecommons.org/ns#"
   xmlns:rdf="http://www.w3.org/1999/02/22-rdf-syntax-ns#"
   xmlns:svg="http://www.w3.org/2000/svg"
   xmlns="http://www.w3.org/2000/svg"
   xmlns:sodipodi="http://sodipodi.sourceforge.net/DTD/sodipodi-0.dtd"
   xmlns:inkscape="http://www.inkscape.org/namespaces/inkscape"
   inkscape:version="1.0rc1 (09960d6, 2020-04-09)"
   sodipodi:docname="zimperium-vector-logo.svg"
   xml:space="preserve"
   style="enable-background:new 0 0 652 652;"
   viewBox="0 0 652 652"
   y="0px"
   x="0px"
   id="layer"
   version="1.1"><metadata
   id="metadata4388"><rdf:RDF><cc:Work
       rdf:about=""><dc:format>image/svg+xml</dc:format><dc:type
         rdf:resource="http://purl.org/dc/dcmitype/StillImage" /></cc:Work></rdf:RDF></metadata><defs
   id="defs4386" /><sodipodi:namedview
   inkscape:current-layer="g4381"
   inkscape:window-maximized="0"
   inkscape:window-y="23"
   inkscape:window-x="0"
   inkscape:cy="283.514"
   inkscape:cx="69.466733"
   inkscape:zoom="0.54540798"
   showgrid="false"
   id="namedview4384"
   inkscape:window-height="698"
   inkscape:window-width="1328"
   inkscape:pageshadow="2"
   inkscape:pageopacity="0"
   guidetolerance="10"
   gridtolerance="10"
   objecttolerance="10"
   borderopacity="1"
   bordercolor="#666666"
   pagecolor="#ffffff" />
<style
   id="style4355"
   type="text/css">
	.st0{fill-rule:evenodd;clip-rule:evenodd;fill:#4A596A;}
	.st1{fill-rule:evenodd;clip-rule:evenodd;fill:#63778E;}
</style>
<g
   id="g4381">
	<g
   id="g4379">
		<path
   style="stroke-width:6.03033;fill:#b2b2b3;fill-opacity:1"
   inkscape:connector-curvature="0"
   id="path4357"
   d="m 358.63589,128.51982 c 0,0 195.89194,72.89944 257.89695,97.42016 11.52306,4.63906 22.4974,13.91717 22.4974,13.91717 0,0 -146.50743,78.86394 -249.11748,152.42611 -57.06655,41.08876 -101.51262,94.76927 -101.51262,94.76927 L 127.62608,443.31286 c 0,0 32.92301,-69.58583 87.24598,-143.81071 60.90759,-82.84028 143.76383,-170.98233 143.76383,-170.98233"
   class="st0" />
		<path
   style="stroke-width:6.03033;fill:#ffffff;fill-opacity:1"
   inkscape:connector-curvature="0"
   id="path4359"
   d="M 639.03024,239.85715 530.38428,64.898483 c 0,0 -103.70749,-21.869832 -207.41498,-21.869832 -103.70749,0 -207.96372,21.869832 -207.96372,21.869832 L 6.3596354,239.85715 c 0,0 158.0304846,-43.73967 316.0609446,-43.73967 158.57918,0 316.60966,43.73967 316.60966,43.73967 M 127.62608,443.31286 321.87186,644.78042 516.11765,443.31286 c 0,0 -97.1229,21.86983 -194.24579,21.86983 -97.1229,0 -194.24578,-21.86983 -194.24578,-21.86983"
   class="st1" />
		
		
		
		
		
		
		
		
		
	</g>
</g>
</svg>
