<?xml version="1.0" encoding="UTF-8" standalone="no"?>
<svg
   xmlns:dc="http://purl.org/dc/elements/1.1/"
   xmlns:cc="http://creativecommons.org/ns#"
   xmlns:rdf="http://www.w3.org/1999/02/22-rdf-syntax-ns#"
   xmlns:svg="http://www.w3.org/2000/svg"
   xmlns="http://www.w3.org/2000/svg"
   xmlns:sodipodi="http://sodipodi.sourceforge.net/DTD/sodipodi-0.dtd"
   xmlns:inkscape="http://www.inkscape.org/namespaces/inkscape"
   height="136"
   width="652"
   version="1.1"
   id="layer"
   x="0px"
   y="0px"
   viewBox="0 0 652 136"
   xml:space="preserve"
   sodipodi:docname="zimperiumSecurity.svg"
   inkscape:version="1.0rc1 (09960d6, 2020-04-09)"><metadata
   id="metadata4388"><rdf:RDF><cc:Work
       rdf:about=""><dc:format>image/svg+xml</dc:format><dc:type
         rdf:resource="http://purl.org/dc/dcmitype/StillImage" /><dc:title></dc:title></cc:Work></rdf:RDF></metadata><defs
   id="defs4386" /><sodipodi:namedview
   inkscape:document-rotation="0"
   pagecolor="#ffffff"
   bordercolor="#666666"
   borderopacity="1"
   objecttolerance="10"
   gridtolerance="10"
   guidetolerance="10"
   inkscape:pageopacity="0"
   inkscape:pageshadow="2"
   inkscape:window-width="1328"
   inkscape:window-height="698"
   id="namedview4384"
   showgrid="false"
   inkscape:zoom="0.54540798"
   inkscape:cx="257.39944"
   inkscape:cy="347.68615"
   inkscape:window-x="0"
   inkscape:window-y="23"
   inkscape:window-maximized="0"
   inkscape:current-layer="g4381" />
<style
   type="text/css"
   id="style4355">
	.st0{fill-rule:evenodd;clip-rule:evenodd;fill:#4A596A;}
	.st1{fill-rule:evenodd;clip-rule:evenodd;fill:#63778E;}
</style>
<g
   id="g4381">
	<g
   transform="translate(5.5004696,-249.35462)"
   id="g4379">
		<path
   inkscape:connector-curvature="0"
   class="st0"
   d="m 85,289.6 c 0,0 35.7,11 47,14.7 2.1,0.7 4.1,2.1 4.1,2.1 0,0 -26.7,11.9 -45.4,23 -10.4,6.2 -18.5,14.3 -18.5,14.3 l -29.3,-6.6 c 0,0 6,-10.5 15.9,-21.7 C 69.9,302.9 85,289.6 85,289.6"
   id="path4357"
   style="fill:#b2b2b3;fill-opacity:1" />
		<path
   inkscape:connector-curvature="0"
   class="st1"
   d="M 136.1,306.4 116.3,280 c 0,0 -18.9,-3.3 -37.8,-3.3 -18.9,0 -37.9,3.3 -37.9,3.3 l -19.8,26.4 c 0,0 28.8,-6.6 57.6,-6.6 28.9,0 57.7,6.6 57.7,6.6 m -93.2,30.7 35.4,30.4 35.4,-30.4 c 0,0 -17.7,3.3 -35.4,3.3 -17.7,0 -35.4,-3.3 -35.4,-3.3"
   id="path4359"
   style="fill:#ffffff;fill-opacity:1" />
		<polygon
   points="166.4,291.5 217.1,291.5 183.6,341.2 183.6,341.4 213.4,341.3 213.4,352.3 162.7,352.3 196.3,302.6 196.3,302.5 166.4,302.5 "
   style="fill:#ffffff;fill-opacity:1"
   id="polygon4361" />
		<rect
   x="222.89999"
   y="291.5"
   width="11.5"
   height="60.799999"
   id="rect4363"
   style="fill:#ffffff;fill-opacity:1" />
		<polygon
   points="305.7,288.6 305.7,352.3 294.2,352.3 294.3,315.3 294,315.3 274.9,334.6 255.9,315.3 255.6,315.3 255.7,352.3 244.1,352.3 244.1,288.6 274.9,319 275,319 "
   id="polygon4365"
   style="fill:#ffffff;fill-opacity:1" />
		<path
   inkscape:connector-curvature="0"
   d="M 342.2,333 H 327 v 19.3 h -11.5 v -60.8 h 26.7 c 11.8,0 21.4,8.8 21.4,20.7 0,12 -9.6,20.8 -21.4,20.8 m 0,-30.4 H 327 V 322 h 15.2 c 5.3,0 9.4,-4.4 9.4,-9.7 0,-5.4 -4.1,-9.7 -9.4,-9.7"
   id="path4367"
   style="fill:#ffffff;fill-opacity:1" />
		<polygon
   points="415.9,341.3 415.9,352.3 371.3,352.3 371.3,291.5 415.9,291.5 415.9,302.6 382.8,302.6 382.8,316.3 410.3,316.3 410.3,327.3 382.8,327.3 382.8,341.3 "
   id="polygon4369"
   style="fill:#ffffff;fill-opacity:1" />
		<path
   inkscape:connector-curvature="0"
   d="M 459.4,331.1 470,352.3 H 457.2 L 447.6,333 h -12.5 v 19.3 h -11.5 v -60.8 h 26.7 c 11.8,0 21.4,8.8 21.4,20.7 0.1,8.8 -5,15.7 -12.3,18.9 m -9,-28.5 H 435.2 V 322 h 15.2 c 5.3,0 9.4,-4.4 9.4,-9.7 0,-5.4 -4.2,-9.7 -9.4,-9.7"
   id="path4371"
   style="fill:#ffffff;fill-opacity:1" />
		<rect
   x="479.89999"
   y="291.5"
   width="11.5"
   height="60.799999"
   id="rect4373"
   style="fill:#ffffff;fill-opacity:1" />
		<path
   inkscape:connector-curvature="0"
   d="m 549.6,331.2 c 0,14 -10.3,22.5 -24.2,22.5 -14,0 -24.2,-8.5 -24.2,-22.5 v -39.6 h 11.5 v 39.6 c 0,7.2 5.5,12.1 12.7,12.1 7.2,0 12.7,-4.9 12.7,-12.1 v -39.6 h 11.5 z"
   id="path4375"
   style="fill:#ffffff;fill-opacity:1" />
		<polygon
   points="620.9,288.6 620.9,352.3 609.4,352.3 609.4,315.3 609.1,315.3 590.1,334.6 571,315.3 570.7,315.3 570.8,352.3 559.3,352.3 559.3,288.6 590,319 590.2,319 "
   id="polygon4377"
   style="fill:#ffffff;fill-opacity:1" />
	</g>
</g>
</svg>
